<svg width="40" height="40" viewBox="0 0 40 40" fill="none" xmlns="http://www.w3.org/2000/svg">
<rect width="40" height="40" rx="20" fill="white"/>
<path d="M23.5718 11.0351C23.7352 11.0351 23.8753 11.0935 23.9921 11.2102C24.1088 11.327 24.1671 11.467 24.1671 11.6305V13.5215C24.1671 13.6849 24.1088 13.825 23.9921 13.9417C23.8753 14.0585 23.7352 14.1168 23.5718 14.1168H22.6263C22.3461 14.1168 22.1185 14.1402 21.9434 14.1869C21.7683 14.2336 21.6457 14.3211 21.5757 14.4495C21.5057 14.5779 21.459 14.7063 21.4356 14.8347C21.4123 14.9631 21.4006 15.1441 21.4006 15.3775V16.3231C21.4006 16.4865 21.459 16.6266 21.5757 16.7433C21.6924 16.86 21.8325 16.9184 21.9959 16.9184H23.5718C23.7586 16.9184 23.9045 16.9768 24.0096 17.0935C24.1146 17.2102 24.1555 17.3503 24.1321 17.5137L23.922 19.4048C23.8987 19.5682 23.8228 19.7083 23.6944 19.825C23.566 19.9417 23.4201 20.0001 23.2566 20.0001H21.9959C21.8325 20.0001 21.6924 20.0585 21.5757 20.1752C21.459 20.2919 21.4006 20.432 21.4006 20.5954V28.3698C21.4006 28.5332 21.3422 28.6733 21.2255 28.79C21.1088 28.9067 20.9687 28.9651 20.8053 28.9651H18.2839C18.1205 28.9651 17.9804 28.9067 17.8636 28.79C17.7469 28.6733 17.6886 28.5332 17.6886 28.3698V20.5954C17.6886 20.432 17.6302 20.2919 17.5135 20.1752C17.3967 20.0585 17.2566 20.0001 17.0932 20.0001H16.4279C16.2644 20.0001 16.1243 19.9417 16.0076 19.825C15.8909 19.7083 15.8325 19.5682 15.8325 19.4048V17.5137C15.8325 17.3503 15.8909 17.2102 16.0076 17.0935C16.1243 16.9768 16.2644 16.9184 16.4279 16.9184H17.0932C17.2566 16.9184 17.3967 16.86 17.5135 16.7433C17.6302 16.6266 17.6886 16.4865 17.6886 16.3231V15.0624C17.6886 13.7316 17.9979 12.7277 18.6166 12.0507C19.2352 11.3736 20.2566 11.0351 21.6808 11.0351H23.5718Z" fill="black"/>
</svg>
