<svg width="530" height="530" viewBox="0 0 530 530" fill="none" xmlns="http://www.w3.org/2000/svg">
<g filter="url(#filter0_f_45_1132)">
<path d="M396 84H134C106.386 84 84 106.386 84 134V396C84 423.614 106.386 446 134 446H396C423.614 446 446 423.614 446 396V134C446 106.386 423.614 84 396 84Z" fill="#3854A4"/>
</g>
<g filter="url(#filter1_ii_45_1132)">
<g clip-path="url(#clip0_45_1132)">
<path d="M446 84H84V446H446V84Z" fill="#3854A4"/>
<path d="M244.354 193.919C244.199 192.452 245.153 191.059 246.613 190.755C252.245 189.588 258.081 188.955 264.105 188.955C271.123 188.955 277.928 189.811 284.433 191.398C285.695 191.716 286.585 192.84 286.61 194.152V194.166C286.66 196.082 284.874 197.525 283.015 197.051C276.966 195.541 270.628 194.742 264.091 194.742C258.499 194.742 253.04 195.322 247.805 196.436C246.14 196.772 244.552 195.594 244.354 193.912V193.919Z" fill="white"/>
<path d="M312.18 161.162C310.974 162.778 308.86 163.393 306.997 162.686C293.712 157.659 279.254 154.894 264.109 154.894C249.869 154.894 236.22 157.337 223.61 161.812C221.864 162.431 219.909 161.894 218.703 160.476C216.657 158.072 217.668 154.364 220.658 153.31C234.202 148.545 248.823 145.95 264.112 145.95C280.364 145.95 295.897 148.902 310.161 154.258C312.961 155.297 313.972 158.762 312.176 161.166L312.18 161.162Z" fill="white"/>
<path d="M390.268 266.884C390.268 320.969 353.234 366.756 302.14 382.215C299.256 383.096 296.329 380.929 296.329 377.92C296.329 375.948 297.615 374.205 299.493 373.625C346.722 359.279 380.928 316.917 380.928 266.874C380.928 249.276 376.69 232.611 369.128 217.778C368.078 215.731 368.722 213.214 370.662 211.934L370.899 211.778C373.116 210.336 376.124 211.096 377.33 213.447C385.609 229.581 390.272 247.706 390.272 266.877L390.268 266.884Z" fill="white"/>
<path d="M244.354 193.919C244.199 192.452 245.153 191.059 246.613 190.755C252.245 189.588 258.081 188.955 264.105 188.955C271.123 188.955 277.928 189.811 284.433 191.398C285.695 191.716 286.585 192.84 286.61 194.152V194.166C286.66 196.082 284.874 197.525 283.015 197.051C276.966 195.541 270.628 194.742 264.091 194.742C258.499 194.742 253.04 195.322 247.805 196.436C246.14 196.772 244.552 195.594 244.354 193.912V193.919Z" fill="white"/>
<path d="M345.393 266.884C345.393 298.224 326.076 325.257 298.237 337.637C296.77 338.28 295.048 337.573 294.43 336.103L294.405 336.053C293.8 334.622 294.43 332.932 295.847 332.288C321.544 320.82 339.337 295.859 339.337 266.891C339.337 256.958 337.251 247.508 333.468 238.911C332.708 237.193 333.755 235.234 335.604 234.895L335.798 234.856C337.096 234.619 338.421 235.287 338.944 236.51C343.102 245.85 345.385 256.113 345.385 266.888L345.393 266.884Z" fill="white"/>
<path d="M139.732 266.884C139.732 320.969 176.766 366.756 227.859 382.215C230.744 383.096 233.671 380.929 233.671 377.92C233.671 375.948 232.384 374.205 230.507 373.625C183.278 359.279 149.071 316.917 149.071 266.874C149.071 249.276 153.31 232.611 160.872 217.778C161.922 215.731 161.278 213.214 159.338 211.934L159.101 211.778C156.884 210.336 153.876 211.096 152.67 213.447C144.384 229.581 139.728 247.706 139.728 266.877L139.732 266.884Z" fill="white"/>
<path d="M184.6 266.884C184.6 298.224 203.916 325.257 231.755 337.637C233.222 338.28 234.944 337.573 235.562 336.103L235.587 336.053C236.192 334.622 235.562 332.932 234.145 332.288C208.448 320.82 190.655 295.859 190.655 266.891C190.655 256.958 192.741 247.508 196.524 238.911C197.284 237.193 196.237 235.234 194.388 234.895L194.194 234.856C192.897 234.619 191.571 235.287 191.048 236.51C186.89 245.85 184.607 256.113 184.607 266.888L184.6 266.884Z" fill="white"/>
<path d="M186.636 175.61L265.392 276.019L338.517 177.671C340.497 175.006 344.329 174.588 346.853 176.766C349.094 178.707 349.476 182.041 347.719 184.444L271.497 288.951V378.344C271.497 381.491 268.938 384.05 265.792 384.05H265.018C261.871 384.05 259.312 381.491 259.312 378.344V287.869L177.151 183.034C175.172 180.499 175.666 176.84 178.244 174.924L178.756 174.542C181.231 172.708 184.734 173.171 186.64 175.61H186.636Z" fill="white"/>
</g>
</g>
<defs>
<filter id="filter0_f_45_1132" x="0" y="0" width="530" height="530" filterUnits="userSpaceOnUse" color-interpolation-filters="sRGB">
<feFlood flood-opacity="0" result="BackgroundImageFix"/>
<feBlend mode="normal" in="SourceGraphic" in2="BackgroundImageFix" result="shape"/>
<feGaussianBlur stdDeviation="42" result="effect1_foregroundBlur_45_1132"/>
</filter>
<filter id="filter1_ii_45_1132" x="78" y="71" width="376" height="387" filterUnits="userSpaceOnUse" color-interpolation-filters="sRGB">
<feFlood flood-opacity="0" result="BackgroundImageFix"/>
<feBlend mode="normal" in="SourceGraphic" in2="BackgroundImageFix" result="shape"/>
<feColorMatrix in="SourceAlpha" type="matrix" values="0 0 0 0 0 0 0 0 0 0 0 0 0 0 0 0 0 0 127 0" result="hardAlpha"/>
<feOffset dx="8" dy="12"/>
<feGaussianBlur stdDeviation="7"/>
<feComposite in2="hardAlpha" operator="arithmetic" k2="-1" k3="1"/>
<feColorMatrix type="matrix" values="0 0 0 0 1 0 0 0 0 1 0 0 0 0 1 0 0 0 0.25 0"/>
<feBlend mode="normal" in2="shape" result="effect1_innerShadow_45_1132"/>
<feColorMatrix in="SourceAlpha" type="matrix" values="0 0 0 0 0 0 0 0 0 0 0 0 0 0 0 0 0 0 127 0" result="hardAlpha"/>
<feOffset dx="-6" dy="-14"/>
<feGaussianBlur stdDeviation="6.5"/>
<feComposite in2="hardAlpha" operator="arithmetic" k2="-1" k3="1"/>
<feColorMatrix type="matrix" values="0 0 0 0 0 0 0 0 0 0 0 0 0 0 0 0 0 0 0.15 0"/>
<feBlend mode="normal" in2="effect1_innerShadow_45_1132" result="effect2_innerShadow_45_1132"/>
</filter>
<clipPath id="clip0_45_1132">
<rect x="84" y="84" width="362" height="362" rx="56" fill="white"/>
</clipPath>
</defs>
</svg>
