<svg width="344" height="313" viewBox="0 0 344 313" fill="none" xmlns="http://www.w3.org/2000/svg">
<rect x="44.2158" y="87.947" width="237.064" height="168.211" rx="21.4737" transform="rotate(-7.09281 44.2158 87.947)" fill="#232331"/>
<path d="M89.8758 126.223L86.2319 126.676L78.991 118.208L80.1374 127.435L76.4935 127.888L74.635 112.929L78.2789 112.475L85.525 120.987L84.3734 111.717L88.0173 111.263L89.8758 126.223ZM100.397 109.723L100.76 112.642L94.6652 113.401L95.0571 116.555L99.6173 115.987L99.9694 118.821L95.4092 119.389L96.1611 125.441L92.5171 125.894L90.6586 110.935L100.397 109.723ZM102.621 117.02C102.437 115.543 102.594 114.189 103.09 112.958C103.585 111.714 104.36 110.701 105.417 109.921C106.487 109.124 107.746 108.635 109.195 108.455C110.971 108.234 112.549 108.514 113.93 109.294C115.311 110.074 116.315 111.248 116.943 112.814L112.936 113.313C112.56 112.725 112.075 112.302 111.48 112.044C110.9 111.785 110.262 111.698 109.566 111.785C108.443 111.924 107.583 112.428 106.984 113.296C106.385 114.164 106.166 115.252 106.329 116.559C106.491 117.866 106.969 118.867 107.762 119.561C108.555 120.256 109.513 120.534 110.635 120.394C111.331 120.307 111.929 120.067 112.428 119.673C112.942 119.277 113.309 118.749 113.529 118.086L117.536 117.588C117.311 119.26 116.624 120.644 115.476 121.739C114.327 122.82 112.864 123.471 111.088 123.692C109.639 123.872 108.3 123.714 107.069 123.218C105.852 122.706 104.852 121.914 104.07 120.843C103.287 119.772 102.804 118.498 102.621 117.02ZM88.3551 135.406L88.7178 138.326L84.7543 138.819L86.2501 150.859L82.6061 151.313L81.1103 139.272L77.1468 139.766L76.7841 136.846L88.3551 135.406ZM90.5766 144.262C90.4248 143.04 90.5188 141.939 90.8587 140.959C91.2128 139.977 91.7567 139.188 92.4905 138.592C93.2243 137.996 94.0813 137.637 95.0615 137.515C95.8997 137.411 96.6525 137.49 97.3199 137.753C98.0016 138.015 98.5473 138.401 98.9571 138.913L98.7479 137.229L102.392 136.776L103.869 148.667L100.225 149.12L100.016 147.437C99.7297 148.035 99.2881 148.544 98.6912 148.965C98.1085 149.384 97.398 149.645 96.5598 149.749C95.5938 149.87 94.6821 149.731 93.8248 149.332C92.9657 148.92 92.2444 148.281 91.6609 147.416C91.0898 146.535 90.7284 145.484 90.5766 144.262ZM99.4866 143.175C99.3736 142.266 99.0288 141.58 98.452 141.118C97.8895 140.654 97.246 140.467 96.5215 140.558C95.797 140.648 95.2116 140.987 94.7655 141.577C94.3318 142.15 94.1715 142.891 94.2844 143.8C94.3974 144.71 94.736 145.403 95.3003 145.881C95.877 146.343 96.5276 146.529 97.2522 146.439C97.9767 146.349 98.5549 146.01 98.9868 145.423C99.4329 144.833 99.5995 144.084 99.4866 143.175ZM109.524 135.715C110.363 135.611 111.115 135.69 111.783 135.954C112.465 136.215 113.01 136.602 113.42 137.113L113.211 135.43L116.855 134.976L118.329 146.846C118.465 147.94 118.368 148.955 118.037 149.89C117.722 150.838 117.149 151.631 116.32 152.268C115.504 152.903 114.436 153.303 113.115 153.467C111.353 153.686 109.873 153.445 108.675 152.743C107.479 152.055 106.715 151.011 106.382 149.609L109.983 149.161C110.153 149.602 110.467 149.923 110.925 150.126C111.385 150.343 111.927 150.412 112.552 150.335C113.305 150.241 113.875 149.946 114.26 149.451C114.662 148.969 114.804 148.251 114.685 147.299L114.476 145.616C114.19 146.214 113.756 146.73 113.175 147.163C112.593 147.581 111.882 147.843 111.044 147.947C110.064 148.069 109.145 147.931 108.288 147.533C107.429 147.12 106.707 146.482 106.124 145.616C105.553 144.735 105.191 143.684 105.04 142.462C104.888 141.24 104.982 140.14 105.322 139.16C105.676 138.178 106.22 137.389 106.953 136.793C107.687 136.196 108.544 135.837 109.524 135.715ZM113.949 141.375C113.837 140.466 113.492 139.78 112.915 139.318C112.352 138.855 111.709 138.668 110.984 138.758C110.26 138.848 109.675 139.188 109.228 139.777C108.795 140.35 108.634 141.092 108.747 142.001C108.86 142.91 109.199 143.604 109.763 144.082C110.34 144.544 110.991 144.73 111.715 144.639C112.44 144.549 113.018 144.21 113.45 143.623C113.896 143.034 114.062 142.284 113.949 141.375Z" fill="#656576"/>
</svg>
