<svg width="540" height="338" viewBox="0 0 540 338" fill="none" xmlns="http://www.w3.org/2000/svg">
<path d="M0.590385 329.826C5.74382 331.247 11.0183 331.554 16.3266 331.038C21.2409 330.561 26.0902 329.561 31.0163 329.188C36.6078 328.763 42.1475 329.266 47.5513 330.782C51.792 331.971 55.7763 333.794 59.8753 335.371C62.7755 336.488 65.8803 337.432 69.0095 336.837C72.8311 336.111 75.8171 333.166 78.1526 330.241C83.2371 323.872 87.0626 315.709 88.4776 307.656C88.7684 306.001 89.4762 302.83 88.0024 301.482C86.2906 299.917 84.0504 302.837 82.9713 303.839C79.7544 306.827 73.2979 312.364 78.9979 316.303C80.6652 317.455 82.7001 318.107 84.6353 318.636C87.1943 319.335 89.8227 319.828 92.4397 320.257C95.4584 320.751 98.5525 320.89 101.551 321.485C103.659 321.904 105.232 322.956 106.735 324.469C108.019 325.762 109.137 327.194 110.344 328.555C111.859 330.265 113.618 331.754 115.511 333.03C118.823 335.263 122.676 336.915 126.617 337.617C128.277 337.913 131.528 338.551 132.814 336.99C133.822 335.767 132.997 332.97 132.804 331.608C132.308 328.124 131.648 324.66 130.95 321.211C130.145 317.234 129.267 313.269 128.275 309.334C127.515 306.317 126.748 303.252 125.6 300.354C123.127 294.113 119.57 288.223 116.277 282.395C112.498 275.708 108.606 269.087 104.717 262.465C103.594 260.552 102.341 258.664 101.485 256.611C100.258 253.669 99.3843 250.566 98.5235 247.502C96.1675 239.114 94.2241 230.612 92.1888 222.143C90.2226 213.961 88.0069 205.87 85.6346 197.796C84.2283 193.009 82.7911 188.226 81.165 183.508C80.0771 180.352 78.7745 177.424 77.3139 174.441C75.3789 170.489 75.4322 165.419 75.6842 161.128C75.7777 159.535 76.1328 157.949 76.1745 156.36C76.2178 154.709 75.9098 153.029 75.5887 151.417C74.7522 147.22 73.4807 143.088 72.0507 139.058C71.4574 137.386 70.8003 135.747 70.0819 134.125C69.041 131.776 67.5056 129.086 67.5155 126.441C67.5247 123.973 70.2324 122.294 72.2251 121.343C74.5447 120.235 77.2958 119.782 79.6576 121.038C81.607 122.074 82.1999 124.134 82.6624 126.141C83.1316 128.178 83.7654 130.172 84.2191 132.212C84.3992 133.022 84.518 133.809 84.56 134.635C84.5647 134.727 84.5658 134.943 84.5099 135.035C84.3719 135.261 84.7989 134.86 84.4403 135.014C84.0056 135.2 83.3307 135.125 82.8506 135.189C80.031 135.567 77.8773 136.95 75.6016 138.569C75.1466 138.893 74.6943 139.223 74.2245 139.525C74.082 139.617 73.8616 139.719 73.7254 139.832C73.0915 140.36 73.6858 139.606 73.7047 140.088C73.7083 140.179 73.6774 140.103 73.6008 139.954C73.4854 139.731 73.2329 139.502 73.0795 139.298C72.096 137.988 71.2011 136.607 70.3223 135.226C69.2938 133.611 68.2974 131.97 67.3915 130.282C66.5276 128.672 65.6347 127.101 66.1592 125.222C66.7711 123.031 68.5319 120.98 70.485 119.852C72.0901 118.925 74.1392 118.659 75.9483 118.435C79.4615 118.001 83.4544 117.683 86.5247 119.72C89.7691 121.871 92.6862 124.614 95.4147 127.374C98.3272 130.32 101.196 133.497 103.055 137.232C105.499 142.145 107.811 147.198 109.558 152.406C110.215 154.365 110.608 156.359 111.034 158.377C111.3 159.637 111.572 160.902 111.734 162.18C111.801 162.711 112.201 164.941 111.661 165.348C110.991 165.853 109.035 164.851 108.382 164.558C107.791 164.294 107.21 163.999 106.651 163.674C106.443 163.554 106.232 163.378 106.015 163.282C105.954 163.255 105.909 163.184 105.845 163.166C105.812 163.141 105.782 163.113 105.753 163.083C105.407 162.729 105.212 163.148 105.167 164.341C105.231 164.4 106.037 164.584 106.324 164.675C107.087 164.918 107.831 165.215 108.547 165.575C110.47 166.539 112.207 167.907 113.414 169.703C114.65 171.544 115.375 173.752 116.216 175.791C117.125 177.999 118.039 180.206 119.017 182.384C120.988 186.77 123.233 190.887 126.331 194.579C129.616 198.494 133.187 202.189 137.05 205.538C139.146 207.356 141.335 209.076 143.636 210.629C145.892 212.151 148.3 213.407 150.436 215.107C154.211 218.112 157.375 221.814 160.179 225.721C164.496 231.735 168.814 237.785 172.91 243.95C175.479 247.815 177.789 251.776 180.021 255.839C182.377 260.127 185.35 264.11 188.583 267.772C191.315 270.869 194.433 274.188 198.158 276.098C201.242 277.678 204.635 276.824 207.725 275.664C211.713 274.167 215.441 272.054 219.132 269.949C222.168 268.217 225.125 266.505 227.983 264.48C229.642 263.305 231.285 262.105 232.98 260.983C233.606 260.568 234.239 260.16 234.896 259.796C235.129 259.666 236.272 259.339 236.388 259.16C236.342 259.231 236.091 258.947 236.075 258.962C236.051 258.987 236.127 259.344 236.127 259.39C236.13 260.02 236.128 260.644 236.091 261.275C235.984 263.11 235.781 264.939 235.598 266.768C235.212 270.627 234.668 274.598 234.95 278.483C235.144 281.147 235.708 283.796 236.077 286.441C236.226 287.503 236.379 288.577 236.414 289.65C236.418 289.796 236.327 290.525 236.388 290.605C236.509 290.762 236.984 290.475 236.958 290.409C236.879 290.217 235.413 289.406 235.02 289.115C233.854 288.254 232.726 287.341 231.61 286.416C229.199 284.416 226.818 282.35 224.616 280.119C224.217 279.713 223.822 279.302 223.449 278.872C223.263 278.657 222.992 278.108 222.764 277.963C222.546 277.826 222.857 277.913 222.726 277.982C222.734 277.978 222.488 278.736 222.395 278.541C222.395 278.541 222.737 278.677 222.74 278.679C223.41 279.353 224.315 279.909 225.025 280.572C228.49 283.807 232.398 286.43 234.982 290.491C237.861 295.017 238.856 300.047 238.871 305.347C238.885 310.463 238.396 315.605 237.591 320.655C236.901 324.981 235.898 328.924 233.911 332.853C233.383 333.897 232.275 335.587 233.049 336.764C233.752 337.833 235.59 337.71 236.627 337.291C237.581 336.905 238.029 336.033 238.843 335.482C240.348 334.461 242.235 335.257 243.883 335.003C246.524 334.596 247.951 331.903 248.727 329.613C249.378 327.692 250.162 324.904 249.647 322.857C249.453 322.088 248.703 321.542 247.994 322.154C246.973 323.035 246.827 325.312 246.907 326.525C247.057 328.793 248.331 330.98 249.573 332.826C250.666 334.45 251.892 334.842 253.649 335.405C254.533 335.688 255.266 336.251 256.121 336.603C256.99 336.962 257.903 337.201 258.823 337.392C260.064 337.649 261.334 337.833 262.599 337.926C263.671 338.006 263.666 336.334 262.599 336.255C261.166 336.149 259.726 335.923 258.334 335.567C256.497 335.096 254.954 334.051 253.128 333.536C252.006 333.22 251.394 332.578 250.776 331.599C250.072 330.485 249.328 329.28 248.904 328.025C248.498 326.826 248.48 325.626 248.802 324.403C248.868 324.153 249.196 323.54 249.165 323.347C249.161 323.323 248.028 323.153 248.012 323.193C247.98 323.273 248.062 323.837 248.058 324.083C248.049 324.625 248 325.168 247.927 325.705C247.74 327.089 247.407 328.482 246.894 329.782C246.451 330.905 245.824 332.132 244.819 332.855C243.438 333.848 241.616 333.146 240.042 333.353C238.75 333.523 237.813 334.067 236.926 334.991C236.601 335.329 236.328 335.645 235.869 335.795C235.609 335.88 235.329 335.9 235.057 335.896C234.94 335.894 234.501 335.925 234.406 335.814C234.44 335.854 234.507 336.006 234.46 335.812C234.329 335.274 235.132 334.133 235.353 333.696C235.924 332.567 236.49 331.44 236.968 330.268C237.732 328.398 238.202 326.439 238.599 324.463C239.558 319.701 240.134 314.838 240.408 309.989C240.693 304.946 240.719 299.753 239 294.937C237.48 290.679 234.851 286.702 231.345 283.82C229.32 282.156 227.391 280.44 225.444 278.687C224.563 277.894 223.102 276.406 221.767 276.987C219.787 277.85 222.504 280.343 223.227 281.087C225.45 283.376 227.88 285.479 230.332 287.517C232.117 289 234.01 290.821 236.116 291.847C239.195 293.348 237.794 286.736 237.629 285.583C237.262 283.026 236.692 280.45 236.587 277.865C236.507 275.924 236.634 273.973 236.782 272.037C237.077 268.201 237.671 264.369 237.797 260.521C237.824 259.705 237.965 258.429 237.282 257.822C236.514 257.14 235.366 257.685 234.595 258.065C231.226 259.725 228.257 262.298 225.173 264.414C222.258 266.413 219.11 268.065 216.027 269.787C212.294 271.873 208.381 274.049 204.18 275.012C202.599 275.376 200.94 275.537 199.421 274.861C197.667 274.079 196.112 272.816 194.681 271.559C190.911 268.244 187.617 264.326 184.743 260.22C182.071 256.402 180.086 252.201 177.648 248.24C175.097 244.098 172.346 240.08 169.544 236.105C167.674 233.453 165.737 230.847 163.905 228.169C161.608 224.812 159.253 221.498 156.491 218.501C154.747 216.608 152.859 214.853 150.808 213.297C148.681 211.684 146.316 210.45 144.118 208.942C139.413 205.713 135.178 201.8 131.281 197.643C128.029 194.175 125.042 190.607 122.808 186.39C120.437 181.914 118.616 177.183 116.654 172.522C115.836 170.579 114.979 168.737 113.522 167.178C112.168 165.728 110.479 164.598 108.671 163.794C107.694 163.36 106.339 162.675 105.234 162.678C103.929 162.682 104.156 163.962 104.913 164.542C105.907 165.305 107.123 165.846 108.275 166.318C109.374 166.768 110.837 167.363 112.045 167.012C113.531 166.58 113.567 164.707 113.514 163.433C113.409 160.893 112.724 158.383 112.215 155.903C111.281 151.361 109.387 147.044 107.514 142.822C105.6 138.505 103.675 134.356 100.67 130.686C97.8382 127.227 94.6042 124.061 91.1801 121.192C88.8506 119.24 86.4522 117.161 83.3548 116.71C79.4492 116.142 74.7827 116.438 71.0438 117.773C67.4952 119.039 63.809 123.253 64.3537 127.229C64.5597 128.732 65.432 130.185 66.1493 131.495C67.099 133.229 68.1344 134.918 69.2056 136.579C70.0673 137.915 70.9454 139.25 71.9164 140.51C72.5421 141.322 73.056 141.932 74.1569 141.479C76.654 140.452 78.4293 138.157 81.0479 137.282C82.1515 136.914 83.2911 136.813 84.4395 136.685C85.0918 136.612 85.6107 136.494 85.9604 135.884C86.7042 134.586 85.9994 132.456 85.6822 131.14C85.205 129.16 84.631 127.207 84.1677 125.223C83.7258 123.33 82.9921 121.437 81.417 120.203C79.7488 118.896 77.474 118.416 75.3972 118.67C71.6229 119.131 65.8297 122.023 65.8443 126.441C65.8523 128.854 66.9785 131.211 67.9293 133.374C68.782 135.314 69.6289 137.239 70.3437 139.234C71.783 143.252 73.0534 147.371 73.9149 151.554C74.25 153.181 74.5907 154.892 74.4967 156.563C74.3986 158.304 74.0585 160.028 73.9795 161.779C73.7871 166.042 73.9044 170.775 75.6277 174.751C76.2046 176.081 76.9962 177.303 77.5653 178.644C78.3256 180.435 78.9773 182.274 79.609 184.113C81.2564 188.91 82.7135 193.772 84.1401 198.638C86.5465 206.847 88.7755 215.074 90.771 223.392C92.819 231.93 94.7757 240.503 97.1956 248.945C98.0478 251.918 98.9264 254.92 100.171 257.757C101.08 259.83 102.362 261.755 103.506 263.702C107.484 270.474 111.461 277.246 115.315 284.09C117.235 287.5 119.131 290.925 120.933 294.4C122.172 296.79 123.441 299.206 124.344 301.747C126.867 308.84 128.329 316.41 129.762 323.784C130.392 327.027 131.02 330.292 131.389 333.577C131.476 334.353 131.602 335.176 131.523 335.959C131.53 335.885 131.65 335.899 131.395 336.012C130.982 336.195 130.496 336.229 130.052 336.248C126.617 336.395 122.99 335.133 119.949 333.655C117.848 332.633 115.849 331.374 114.068 329.859C112.346 328.395 110.961 326.662 109.476 324.973C107.88 323.157 106.141 321.303 103.844 320.401C101.638 319.535 99.1356 319.482 96.8095 319.201C92.0302 318.624 86.9995 317.913 82.4845 316.196C79.9711 315.24 77.254 313.596 78.9166 310.681C80.3783 308.117 82.9358 306.175 85.0527 304.181C85.4824 303.776 85.8976 303.279 86.3964 302.955C86.6943 302.761 86.8867 302.709 86.9317 302.724C86.7529 302.664 86.9465 302.813 87.0262 303.086C87.1618 303.549 87.1588 304.053 87.1519 304.531C87.1047 307.866 86.0058 311.267 84.8938 314.376C83.3511 318.689 81.3083 322.862 78.733 326.654C76.4777 329.975 73.5134 333.821 69.4824 335.006C66.2952 335.942 63.0239 334.816 60.0535 333.658C55.9263 332.048 51.8996 330.235 47.6131 329.065C42.195 327.587 36.6127 327.093 31.0165 327.518C26.2167 327.882 21.4914 328.842 16.7063 329.33C11.4122 329.871 6.18222 329.636 1.03458 328.216C-0.00343195 327.929 -0.44613 329.54 0.590385 329.826Z" fill="#0047FF"/>
<path d="M205.924 78.2062C206.297 77.7722 206.573 77.2511 206.883 76.7727C207.123 76.4024 207.371 76.0368 207.629 75.6786C207.697 75.5848 207.765 75.4914 207.834 75.3985C207.87 75.3507 207.905 75.3031 207.941 75.2556C207.986 75.197 208.08 75.0759 207.977 75.207C208.148 74.9885 208.321 74.7727 208.5 74.5608C208.889 74.0988 209.3 73.6545 209.732 73.233C209.964 73.0075 210.202 72.7885 210.446 72.5769C210.562 72.4765 210.679 72.3777 210.798 72.2807C210.858 72.2316 210.918 72.1832 210.979 72.1348C210.983 72.1315 211.084 72.0519 211.018 72.1038C210.955 72.1526 211.078 72.0582 211.089 72.0498C212.241 71.1839 213.502 70.493 214.769 70.0694C217.918 69.0165 221.536 69.207 224.657 70.4212C224.861 70.5006 224.944 70.5352 225.067 70.5903C225.237 70.6663 225.405 70.7443 225.572 70.8263C225.895 70.9847 226.212 71.1556 226.521 71.3384C226.817 71.513 227.106 71.6986 227.388 71.8946C227.514 71.982 227.639 72.0715 227.762 72.163C227.799 72.1907 227.942 72.2992 227.832 72.2148C227.911 72.2753 227.988 72.337 228.065 72.3994C228.526 72.7742 228.963 73.1781 229.373 73.6083C229.565 73.8094 229.75 74.016 229.929 74.2281C230.007 74.3211 230.085 74.4153 230.161 74.5105C230.18 74.5341 230.296 74.6822 230.223 74.589C230.155 74.5006 230.288 74.6757 230.315 74.7119C230.579 75.0671 230.824 75.4357 231.046 75.8182C231.095 75.903 231.144 75.9884 231.19 76.0747C231.226 76.1414 231.26 76.2088 231.292 76.2772C231.31 76.3144 231.328 76.3519 231.344 76.39C231.309 76.3067 231.338 76.382 231.353 76.4233C231.478 76.7811 231.572 77.1495 231.622 77.526C231.608 77.4234 231.633 77.6399 231.635 77.6695C231.644 77.7631 231.651 77.8566 231.656 77.9504C231.668 78.1589 231.672 78.368 231.67 78.5769C231.667 79.0135 231.636 79.4496 231.587 79.8832C231.496 80.6961 231.306 81.6039 231.099 82.4454C230.896 83.2669 230.66 84.0797 230.409 84.8876C230.301 85.236 230.194 85.5852 230.078 85.931C230.044 86.0334 230.007 86.1349 229.968 86.2356C229.954 86.2718 229.879 86.4579 229.922 86.3522C229.966 86.2464 229.882 86.4443 229.867 86.4779C229.316 87.7117 228.598 88.8745 227.873 90.0119C227.035 91.3269 226.148 92.6115 225.238 93.878C224.829 94.448 224.414 95.0139 223.994 95.5757C223.821 95.8072 223.646 96.0379 223.471 96.2679C223.426 96.3266 223.381 96.3853 223.336 96.4439C223.283 96.5127 223.232 96.5786 223.32 96.4656C223.246 96.5607 223.172 96.6556 223.098 96.7501C222.955 96.9325 222.816 97.1204 222.656 97.288C222.617 97.3289 222.574 97.3661 222.535 97.4066C222.425 97.5212 222.575 97.3882 222.548 97.4033C222.511 97.4237 222.466 97.4502 222.433 97.4763C222.298 97.5838 222.598 97.4117 222.446 97.4724C222.316 97.524 222.43 97.4735 222.427 97.4834C222.434 97.4515 222.54 97.4818 222.409 97.4726C222.355 97.4689 222.64 97.4989 222.484 97.4789C222.352 97.4621 222.425 97.4302 222.516 97.5034C222.447 97.4481 222.344 97.4046 222.267 97.3579C222.131 97.2753 222.316 97.4029 222.278 97.3667C222.232 97.3229 222.181 97.2839 222.134 97.2411C221.668 96.8135 221.267 96.3118 220.852 95.8367C220.263 95.1645 219.657 94.5091 219.006 93.8967C218.24 93.175 217.386 92.5599 216.609 91.8509C215.928 91.2288 215.296 90.5532 214.705 89.8451C213.62 88.5459 212.684 87.1172 211.768 85.6876C211.001 84.4923 210.258 83.2583 209.326 82.1821C208.205 80.8889 207.243 79.5118 206.449 77.9934C206.311 77.7305 206.176 77.4652 206.055 77.1942C205.871 76.7822 205.271 76.6845 204.912 76.8945C204.488 77.1426 204.428 77.6237 204.613 78.0373C205.084 79.0951 205.689 80.1083 206.337 81.0651C206.9 81.895 207.538 82.6526 208.187 83.4137C208.284 83.5265 208.377 83.642 208.469 83.7584C208.527 83.8324 208.454 83.7397 208.447 83.7302C208.469 83.7591 208.491 83.7879 208.512 83.8171C208.571 83.8965 208.63 83.9759 208.688 84.056C208.897 84.345 209.098 84.64 209.295 84.9371C211.293 87.9464 213.129 91.1092 215.926 93.4696C216.771 94.1823 217.629 94.8579 218.407 95.6467C219.003 96.2502 219.557 96.8902 220.115 97.5283C220.813 98.3266 221.76 99.4724 222.964 99.0575C223.513 98.8682 223.884 98.4346 224.231 97.9927C224.609 97.5118 224.981 97.0255 225.348 96.5362C226.249 95.336 227.126 94.117 227.974 92.8788C228.865 91.5791 229.732 90.2584 230.506 88.8854C231.166 87.7151 231.651 86.5253 232.047 85.2437C232.599 83.4587 233.073 81.6433 233.269 79.7812C233.44 78.1526 233.343 76.4629 232.512 75.0154C231.32 72.9382 229.513 71.1889 227.469 69.9581C224.418 68.1212 220.684 67.4336 217.162 67.8471C213.974 68.2213 211.094 69.656 208.765 71.8484C207.256 73.2685 206.064 74.949 204.959 76.6899C204.897 76.7867 204.836 76.8837 204.772 76.9787C204.746 77.0169 204.718 77.0538 204.693 77.0923C204.6 77.2354 204.841 76.9122 204.744 77.0255C204.45 77.3674 204.408 77.8709 204.744 78.2068C205.044 78.507 205.629 78.5498 205.924 78.2062Z" fill="#0047FF"/>
<path d="M237.318 122.084C237.345 122.063 237.372 122.042 237.399 122.02C237.516 121.927 237.208 122.165 237.355 122.054C237.443 121.988 237.531 121.92 237.62 121.854C237.86 121.675 238.103 121.499 238.347 121.324C239.032 120.835 239.729 120.361 240.435 119.903C241.292 119.347 242.165 118.814 243.057 118.316C243.516 118.059 243.98 117.812 244.451 117.577C244.682 117.462 244.915 117.35 245.149 117.242C245.252 117.195 245.354 117.149 245.457 117.103C245.508 117.08 245.559 117.058 245.611 117.036C245.861 116.927 245.466 117.094 245.716 116.991C246.543 116.649 247.392 116.367 248.276 116.221C248.063 116.256 248.314 116.218 248.371 116.213C248.463 116.204 248.554 116.198 248.646 116.195C248.975 116.184 249.306 116.196 249.634 116.215C250.142 116.245 250.446 116.271 250.97 116.423C251.045 116.444 251.118 116.468 251.191 116.493C251.224 116.505 251.257 116.52 251.291 116.53C251.455 116.581 251.159 116.455 251.249 116.512C251.357 116.58 251.483 116.626 251.594 116.691C251.75 116.783 251.898 116.889 252.061 116.969C252.599 117.232 253.267 117.227 253.792 116.924C254.2 116.688 254.481 116.281 254.745 115.905C254.883 115.709 255.016 115.51 255.154 115.315C255.223 115.216 255.294 115.119 255.366 115.022C255.39 114.99 255.415 114.96 255.438 114.927C255.499 114.842 255.326 115.062 255.396 114.982C255.456 114.912 255.511 114.838 255.569 114.767C255.774 114.521 255.992 114.286 256.224 114.065C256.348 113.946 256.476 113.831 256.608 113.721C256.638 113.696 256.844 113.531 256.772 113.587C256.669 113.666 256.842 113.535 256.845 113.533C256.891 113.5 256.936 113.467 256.982 113.435C257.343 113.181 257.723 112.958 258.117 112.762C258.226 112.708 258.335 112.656 258.446 112.606C258.497 112.583 258.547 112.56 258.598 112.538C258.486 112.586 258.619 112.531 258.635 112.524C258.9 112.417 259.169 112.321 259.441 112.234C260.63 111.856 261.862 111.669 263.101 111.559C264.196 111.461 265.301 111.423 266.397 111.519C266.518 111.529 266.639 111.541 266.759 111.555C266.811 111.561 266.864 111.568 266.916 111.575C266.881 111.57 266.762 111.55 266.926 111.577C267.163 111.617 267.398 111.656 267.632 111.709C268.047 111.802 268.456 111.923 268.853 112.077C268.895 112.094 268.937 112.111 268.979 112.128C269.105 112.18 268.802 112.042 268.998 112.138C269.078 112.177 269.16 112.213 269.241 112.252C269.419 112.341 269.594 112.437 269.764 112.54C269.933 112.643 270.095 112.754 270.256 112.869C270.292 112.895 270.327 112.921 270.362 112.948C270.223 112.843 270.321 112.916 270.348 112.94C270.432 113.012 270.518 113.08 270.601 113.154C270.905 113.424 271.186 113.72 271.445 114.035C271.482 114.08 271.518 114.126 271.555 114.171C271.633 114.269 271.479 114.068 271.553 114.17C271.617 114.257 271.681 114.343 271.743 114.431C271.871 114.612 271.992 114.798 272.108 114.987C272.626 115.832 273.033 116.729 273.35 117.557C274.305 120.054 274.447 122.614 273.556 125.111C272.764 127.332 271.225 129.3 269.824 131.233C268.449 133.129 267.177 134.928 265.457 136.551C264.478 137.475 263.399 138.245 262.335 139.062C261.229 139.912 260.184 140.833 259.131 141.747C258.29 142.475 257.581 143.128 256.615 143.657C256.531 143.702 256.445 143.746 256.359 143.788C256.318 143.808 256.276 143.827 256.234 143.845C256.397 143.775 256.283 143.824 256.248 143.835C256.148 143.864 256.051 143.902 255.949 143.927C255.911 143.936 255.87 143.941 255.832 143.952C255.676 143.998 255.996 143.963 255.826 143.952C255.757 143.947 255.675 143.947 255.605 143.952C255.509 143.958 255.749 144 255.562 143.939C255.52 143.925 255.476 143.91 255.433 143.898C255.328 143.87 255.574 143.977 255.482 143.917C255.422 143.878 255.193 143.697 255.338 143.838C254.919 143.431 254.563 142.953 254.198 142.498C253.687 141.863 253.184 141.222 252.682 140.58C251.424 138.972 250.341 137.565 249.095 135.942C247.353 133.672 245.624 131.392 243.851 129.145C241.825 126.577 239.79 124.015 237.755 121.453C237.609 121.27 237.464 121.087 237.318 120.904C237.038 120.55 236.431 120.61 236.137 120.904C235.788 121.253 235.856 121.731 236.137 122.085C237.859 124.252 239.58 126.419 241.297 128.589C242.176 129.7 243.058 130.809 243.927 131.927C243.957 131.965 243.986 132.003 244.015 132.041C244.146 132.209 243.944 131.948 244.007 132.03C244.089 132.136 244.171 132.243 244.253 132.349C244.452 132.608 244.65 132.866 244.848 133.125C245.365 133.799 245.882 134.474 246.399 135.149C248.713 138.17 251.003 141.216 253.409 144.164C253.875 144.735 254.326 145.311 255.066 145.535C255.981 145.812 256.946 145.42 257.721 144.946C258.729 144.33 259.625 143.526 260.513 142.753C261.552 141.849 262.583 140.929 263.696 140.116C264.827 139.291 265.928 138.432 266.93 137.452C267.773 136.627 268.537 135.731 269.258 134.799C270.036 133.794 270.77 132.756 271.519 131.728C272.266 130.703 273.032 129.693 273.692 128.608C275.014 126.434 275.909 123.983 275.844 121.409C275.78 118.876 274.871 116.297 273.55 114.144C272.602 112.598 271.3 111.312 269.617 110.599C267.715 109.792 265.592 109.705 263.555 109.851C261.13 110.026 258.615 110.432 256.518 111.742C255.26 112.527 254.319 113.587 253.486 114.797C253.422 114.89 253.358 114.984 253.293 115.076C253.263 115.119 253.232 115.161 253.202 115.204C253.062 115.401 253.211 115.187 253.215 115.191C253.221 115.195 253.062 115.374 253.045 115.392C253.021 115.417 252.994 115.441 252.97 115.467C252.86 115.587 252.913 115.456 253.017 115.438C252.992 115.442 252.954 115.482 252.93 115.493C252.796 115.557 253.133 115.451 253.031 115.454C252.99 115.455 252.923 115.481 252.887 115.491C252.698 115.545 253.067 115.503 252.892 115.491C252.856 115.488 252.804 115.482 252.768 115.489C252.684 115.506 253.024 115.538 252.828 115.489C252.651 115.444 252.924 115.483 252.904 115.526C252.904 115.528 252.793 115.469 252.785 115.464C251.306 114.548 249.473 114.346 247.768 114.621C245.793 114.939 243.902 115.928 242.176 116.895C240.531 117.817 238.944 118.849 237.412 119.948C236.981 120.258 236.552 120.572 236.138 120.904C235.785 121.185 235.844 121.791 236.138 122.085C236.485 122.433 236.964 122.367 237.318 122.084Z" fill="#0047FF"/>
<path d="M264.621 157.439C264.702 157.36 264.793 157.291 264.881 157.22C264.942 157.171 265.205 156.975 264.962 157.155C265.063 157.08 265.162 157.002 265.263 156.927C265.816 156.511 266.38 156.11 266.951 155.719C268.465 154.681 270.029 153.7 271.674 152.884C271.869 152.787 272.066 152.693 272.263 152.602C272.36 152.557 272.457 152.514 272.555 152.471C272.603 152.45 272.651 152.429 272.699 152.408C272.546 152.474 272.777 152.376 272.786 152.372C273.158 152.221 273.535 152.084 273.92 151.971C274.09 151.921 274.262 151.876 274.435 151.838C274.516 151.821 274.599 151.804 274.681 151.789C274.721 151.782 274.761 151.776 274.801 151.769C274.909 151.749 274.626 151.782 274.785 151.771C275.323 151.733 275.86 151.712 276.399 151.702C278.929 151.656 281.474 151.791 283.988 151.439C285.061 151.289 286.057 150.997 287.042 150.548C288.001 150.11 288.924 149.597 289.859 149.11C290.808 148.617 291.696 148.163 292.656 147.845C292.869 147.774 293.085 147.711 293.304 147.658C293.408 147.634 293.512 147.611 293.617 147.592C293.668 147.583 293.719 147.574 293.77 147.566C293.871 147.551 293.648 147.572 293.81 147.564C294.001 147.554 294.188 147.557 294.379 147.556C294.532 147.555 294.394 147.555 294.358 147.549C294.401 147.556 294.446 147.563 294.488 147.573C294.594 147.598 294.696 147.629 294.8 147.662C294.632 147.608 294.818 147.675 294.881 147.708C294.944 147.741 295.007 147.777 295.07 147.812C295.213 147.893 295.354 147.976 295.493 148.064C295.619 148.144 295.742 148.226 295.864 148.312C295.925 148.356 295.985 148.402 296.046 148.446C295.884 148.327 296.068 148.465 296.124 148.512C296.377 148.722 296.614 148.949 296.833 149.194C296.888 149.255 296.943 149.319 296.996 149.382C297.033 149.428 297.17 149.611 297.063 149.464C297.181 149.626 297.295 149.788 297.401 149.958C297.5 150.118 297.593 150.281 297.68 150.448C297.725 150.535 297.769 150.623 297.811 150.711C297.832 150.757 297.853 150.802 297.874 150.848C297.882 150.865 297.962 151.051 297.924 150.96C298.052 151.268 298.236 151.835 298.344 152.256C298.637 153.403 298.744 154.524 298.776 155.713C298.806 156.816 298.707 157.666 298.414 158.726C298.118 159.793 297.738 160.697 297.238 161.666C296.754 162.604 296.199 163.506 295.598 164.375C295.013 165.221 294.531 165.846 293.876 166.621C293.063 167.583 292.206 168.568 291.21 169.348C291.309 169.27 291.057 169.463 291.038 169.477C290.941 169.549 290.844 169.619 290.746 169.69C290.525 169.848 290.304 170.004 290.082 170.162C289.591 170.511 289.104 170.867 288.631 171.241C287.699 171.98 286.934 172.815 286.247 173.785C286.225 173.816 286.151 173.907 286.26 173.769C286.232 173.805 286.205 173.84 286.176 173.875C286.117 173.947 286.058 174.02 285.997 174.092C285.859 174.256 285.716 174.417 285.572 174.576C285.261 174.916 284.94 175.246 284.613 175.569C283.931 176.242 283.224 176.889 282.495 177.51C282.332 177.649 282.167 177.787 282 177.923C281.928 177.983 281.855 178.042 281.782 178.1C281.747 178.128 281.712 178.156 281.677 178.184C281.658 178.199 281.512 178.312 281.609 178.237C281.698 178.168 281.502 178.318 281.48 178.334C281.422 178.378 281.364 178.42 281.305 178.462C281.202 178.536 281.098 178.61 280.99 178.676C280.944 178.705 280.798 178.755 280.772 178.798C280.824 178.712 281.003 178.716 280.879 178.746C281.09 178.696 281.301 178.738 281.444 178.815C281.296 178.735 281.611 178.978 281.49 178.852C281.438 178.797 281.381 178.748 281.328 178.695C280.454 177.797 279.704 176.759 278.937 175.771C278.876 175.692 278.815 175.613 278.754 175.534C278.74 175.517 278.644 175.393 278.703 175.469C278.763 175.546 278.665 175.42 278.652 175.403C278.519 175.23 278.385 175.057 278.252 174.883C277.982 174.532 277.713 174.18 277.444 173.828C276.936 173.164 276.429 172.498 275.919 171.834C275.21 170.909 274.479 170.005 273.75 169.096C273.716 169.053 273.682 169.009 273.648 168.966C273.529 168.817 273.761 169.116 273.64 168.956C273.553 168.84 273.465 168.726 273.379 168.61C273.174 168.335 272.973 168.058 272.774 167.779C272.292 167.108 271.818 166.431 271.347 165.752C269.593 163.226 267.944 160.602 266.051 158.176C265.604 157.604 265.165 157.023 264.752 156.427C264.495 156.057 264.02 155.887 263.609 156.127C263.243 156.342 263.051 156.898 263.31 157.27C263.804 157.984 264.335 158.673 264.869 159.358C264.948 159.458 265.036 159.555 265.107 159.66C265.056 159.585 264.976 159.487 265.063 159.605C265.127 159.692 265.191 159.778 265.254 159.865C265.413 160.084 265.568 160.304 265.724 160.526C266.686 161.898 267.627 163.286 268.576 164.668C269.563 166.106 270.549 167.547 271.574 168.959C272.22 169.849 272.926 170.684 273.603 171.548C273.705 171.678 273.806 171.807 273.907 171.937C273.957 172.003 274.008 172.068 274.059 172.133C274.082 172.163 274.154 172.257 274.045 172.116C274.079 172.159 274.112 172.202 274.145 172.246C274.395 172.569 274.643 172.893 274.891 173.218C275.42 173.909 275.948 174.602 276.477 175.293C277.469 176.588 278.455 177.892 279.501 179.144C279.767 179.461 280.032 179.797 280.347 180.067C280.848 180.495 281.371 180.419 281.899 180.076C283.362 179.126 284.686 177.856 285.916 176.628C286.561 175.984 287.185 175.314 287.726 174.578C288.379 173.688 289.141 172.926 290.017 172.264C290.891 171.605 291.827 171.021 292.661 170.31C293.042 169.984 293.397 169.624 293.744 169.262C295.056 167.896 296.252 166.405 297.303 164.83C298.547 162.965 299.623 160.905 300.141 158.711C300.418 157.537 300.485 156.357 300.423 155.156C300.361 153.931 300.209 152.692 299.872 151.51C299.412 149.896 298.573 148.366 297.26 147.294C296.724 146.857 296.136 146.443 295.502 146.159C294.588 145.75 293.563 145.849 292.62 146.11C290.494 146.698 288.601 147.946 286.632 148.901C286.118 149.15 285.904 149.258 285.384 149.427C284.867 149.595 284.333 149.708 283.796 149.791C282.657 149.969 281.356 150.001 280.149 150.015C278.844 150.029 277.539 150.007 276.234 150.035C275.286 150.055 274.357 150.099 273.443 150.37C271.642 150.904 269.951 151.848 268.354 152.82C266.975 153.66 265.632 154.568 264.343 155.541C264.041 155.77 263.712 155.991 263.44 156.258C262.671 157.012 263.853 158.193 264.621 157.439Z" fill="#0047FF"/>
<path d="M538.521 162.838C536.427 165.191 533.946 167.256 530.636 167.154C528.308 167.082 526.082 166.214 523.772 165.969C518.885 165.45 513.061 167.842 508.544 165.162C504.044 162.492 505.695 156.749 508.981 153.824C509.16 153.665 509.541 153.483 509.679 153.293C509.657 153.324 509.963 153.121 509.957 153.163C509.922 153.382 509.38 152.791 509.508 152.762C509.508 152.762 508.889 154.663 508.805 154.868C508.173 156.428 507.578 158.021 506.655 159.439C503.948 163.6 498.721 163.398 494.358 162.578C488.639 161.503 482.857 159.887 477.315 158.095C469.563 155.589 462.204 152.353 455.042 148.492C445.907 143.567 436.954 138.303 428.035 133C424.546 130.926 421.066 128.838 417.589 126.743C416.445 126.053 415.293 125.375 414.157 124.672C411.048 122.752 408.268 120.385 405.274 118.303C402.715 116.523 399.958 115.13 396.874 114.551C394.487 114.103 392.046 113.911 389.624 113.773C384.799 113.499 379.669 113.257 374.886 114.121C372.439 114.563 371.029 116.425 373.082 118.436C374.926 120.243 377.302 121.616 379.433 123.042C381.813 124.634 384.444 126.487 387.3 127.109C388.304 127.328 390.107 127.239 389.704 125.705C389.273 124.067 386.627 123.101 385.368 122.382C382.268 120.611 379.255 118.691 376.181 116.876C373.545 115.319 370.772 114.034 368.116 112.527C365.101 110.818 362.466 108.267 359.889 105.985C356.014 102.556 352.231 99.0236 348.433 95.5097C344.696 92.0524 340.962 88.586 337.112 85.2542C334.482 82.9779 331.769 80.4931 328.624 78.943C324.21 76.7672 319.257 75.632 314.482 74.5656C308.638 73.2606 302.736 72.233 296.84 71.1986C291.35 70.2356 285.91 69.0534 280.431 68.0523C273.794 66.8398 266.952 66.4129 260.387 64.8441C255.765 63.7394 251.26 62.2941 246.571 61.4298C244.894 61.1206 242.957 60.6294 241.24 60.8607C239.816 61.0526 239.586 62.1545 239.824 63.4477C240.247 65.7439 242.318 67.2994 244.285 68.2762C247.28 69.7629 250.71 70.2773 254.005 69.689C255.301 69.4577 258.369 68.7089 257.745 66.7694C257.074 64.6844 253.359 63.7267 251.561 63.2127C249.269 62.5577 246.764 62.0493 244.392 61.7893C242.435 61.575 240.266 61.7551 238.852 63.2897C237.033 65.2647 237.02 68.628 237.396 71.1102C237.793 73.7299 239.012 76.0811 240.76 78.0528C242.03 79.485 243.513 80.7524 244.855 82.1204C246.592 83.8902 248.459 85.5139 250.547 86.8589C253.507 88.7642 256.784 89.9397 260.051 91.1956C263.454 92.5043 266.923 93.9059 270.536 94.5197C272.883 94.9186 275.588 95.043 277.595 93.5334C279.578 92.0418 280.981 89.3186 282.096 87.1597C282.744 85.9054 284.222 83.508 283.66 82.0023C282.918 80.0174 280.605 82.1955 279.832 82.9239C278.01 84.6432 276.051 87.0305 276.396 89.712C276.778 92.6903 279.808 94.2874 282.215 95.4987C285.161 96.9808 288.278 98.0892 291.359 99.25C294.612 100.476 297.764 102.015 301.06 103.114C305.638 104.642 311.431 106.006 316.249 104.882C317.612 104.564 319.104 103.837 319.335 102.31C319.602 100.549 318.429 97.3391 316.676 96.5628C312.405 94.6725 314.14 104.968 314.417 106.507C315.255 111.157 316.649 115.866 319.992 119.334C323.131 122.591 326.671 125.504 330.25 128.26C333.607 130.844 337.259 133.739 341.307 135.153C344.675 136.328 348.088 133.806 348.096 130.187C348.099 128.882 347.197 127.649 345.817 128.39C344.833 128.919 343.827 130.273 343.257 131.213C340.978 134.977 343.042 140.243 344.414 143.926C346.435 149.354 349.964 153.942 353.601 158.385C357.686 163.374 362.086 168.139 365.785 173.43C367.334 175.646 368.822 177.991 369.77 180.535C371.07 184.024 371.826 187.734 372.473 191.391C372.942 194.042 373.204 196.835 374.089 199.391C374.586 200.827 375.405 202.39 376.993 202.817C378.61 203.253 380.17 202.154 381.323 201.151C382.989 199.701 384.354 197.866 385.565 196.03C386.438 194.709 390.431 189.24 386.991 188.481C385.317 188.112 383.549 189.403 382.502 190.56C380.592 192.671 380.041 195.371 379.138 197.98C377.287 203.324 373.412 207.005 368.145 209.088C363.863 210.781 358.875 210.955 354.336 211.189C348.391 211.496 342.431 211.466 336.48 211.381C331.233 211.307 325.959 211.03 320.712 211.209C314.283 211.429 308.187 212.98 302.399 215.775C299.067 217.384 295.873 219.275 292.728 221.218C290.129 222.824 287.775 224.729 285.779 227.05C282.682 230.651 280.401 234.987 279.132 239.563C278.799 240.764 278.423 242.1 278.423 243.359C278.422 245.054 280.159 246.121 281.514 246.793C284.52 248.283 287.365 248.203 290.579 247.656C293.257 247.201 296.437 247.306 298.909 246.054C300.906 245.043 300.6 243.257 300.777 241.328C300.97 239.221 301.364 236.701 300.331 234.739C299.063 232.333 295.812 232.395 293.443 232.416C290.933 232.438 288.473 232.919 285.966 232.605C282.58 232.182 277.136 231.131 275.683 235.368C274.775 238.014 275.308 241.693 276.147 244.304C276.811 246.372 278.021 248.509 280.117 249.381C281.773 250.07 283.701 249.683 285.407 249.405C288.083 248.97 290.727 248.343 293.375 247.768C295.789 247.243 298.237 246.65 300.704 246.444C304.449 246.131 308.403 246.447 312.11 247.011C313.745 247.26 315.323 247.631 316.973 247.748C318.729 247.873 320.491 247.917 322.25 247.955C331.58 248.159 340.945 248.093 350.27 247.735C360.068 247.357 369.85 248.061 379.6 249.06C386.208 249.736 392.773 250.651 399.276 252.019C405.241 253.274 411.083 254.95 416.937 256.633C426.453 259.368 436.527 259.768 446.379 260.006C451.862 260.138 457.391 260.158 462.855 259.618C468.564 259.053 473.946 257.6 479.379 255.842C480.97 255.328 482.592 254.827 484.277 254.785C487.44 254.705 490.551 255.591 493.65 256.09C498.267 256.833 502.954 256.623 507.615 256.623C508.689 256.623 508.691 254.952 507.615 254.952C503.196 254.952 498.714 255.203 494.337 254.517C489.644 253.783 485.115 252.434 480.416 253.774C475.778 255.096 471.342 256.702 466.548 257.467C461.458 258.279 456.282 258.41 451.136 258.399C445.647 258.388 440.155 258.171 434.68 257.77C430.47 257.461 426.194 257.14 422.055 256.271C417.628 255.343 413.311 253.797 408.944 252.623C402.828 250.978 396.621 249.647 390.356 248.715C379.602 247.114 368.658 246.163 357.787 245.913C350.658 245.749 343.49 246.281 336.356 246.341C331.8 246.378 327.243 246.385 322.688 246.294C319.77 246.235 316.885 246.18 314.015 245.647C308.289 244.583 302.337 244.292 296.604 245.393C292.012 246.275 287.353 247.823 282.665 248.068C277.419 248.343 276.314 240.201 277.13 236.389C278.003 232.313 284.129 234.146 286.936 234.386C289.4 234.597 291.876 234.016 294.349 234.098C295.625 234.139 297.658 234.031 298.584 235.095C299.289 235.905 299.312 237.229 299.311 238.234C299.31 239.269 299.2 240.299 299.106 241.328C299.038 242.072 299.231 243.458 298.817 244.074C298.296 244.847 296.867 245.025 296.032 245.189C294.589 245.473 293.119 245.616 291.663 245.817C290.167 246.023 288.648 246.458 287.138 246.469C285.371 246.481 283.563 246.012 282.01 245.172C280.651 244.436 279.969 244.005 280.172 242.577C280.688 238.957 282.214 235.368 284.077 232.253C285.453 229.953 287.126 227.839 289.089 226.012C291.526 223.745 294.427 222.095 297.287 220.427C302.549 217.355 308.042 214.693 314.074 213.57C319.212 212.614 324.459 212.839 329.657 212.934C334.996 213.032 340.335 213.138 345.674 213.095C350.856 213.054 356.068 212.929 361.215 212.288C365.467 211.759 369.242 210.771 372.909 208.475C376.908 205.971 379.368 202.53 380.86 198.096C381.701 195.596 382.236 192.866 384.357 191.08C384.863 190.654 385.738 190.008 386.455 190.098C386.865 190.15 386.719 190.062 386.643 190.472C386.359 192.001 385.121 193.648 384.297 194.921C383.143 196.702 381.844 198.465 380.247 199.877C379.195 200.807 377.692 201.919 376.527 200.573C375.294 199.149 375.082 196.681 374.765 194.912C373.71 189.022 372.955 182.81 370.193 177.417C367.748 172.644 364.203 168.447 360.779 164.356C357.041 159.89 353.117 155.528 349.841 150.7C346.923 146.398 344.386 141.084 343.993 135.83C343.89 134.454 344.023 133.095 344.787 131.916C345.075 131.473 345.428 131.085 345.787 130.699C345.962 130.512 346.236 130.315 346.36 130.096C346.424 129.983 346.578 129.924 346.66 129.833C346.605 129.894 346.384 129.553 346.372 129.731C346.264 131.44 345.769 133.269 343.826 133.78C342.592 134.105 341.235 133.383 340.16 132.843C336.201 130.856 332.595 128.064 329.162 125.291C326.136 122.847 323.061 120.303 320.464 117.394C317.365 113.924 316.298 108.554 315.716 104.075C315.579 103.019 315.48 101.952 315.46 100.886C315.449 100.326 315.289 98.4614 315.853 98.1384C316.511 97.7619 318.436 101.738 317.225 102.722C315.91 103.791 313.347 103.573 311.789 103.501C309.192 103.38 306.608 102.92 304.095 102.268C301.256 101.531 298.645 100.351 295.938 99.2481C292.886 98.005 289.769 96.9283 286.714 95.6931C285.34 95.1377 283.983 94.5376 282.666 93.8564C281.196 93.0964 279.473 92.2661 278.556 90.8296C276.826 88.1217 279.765 85.0824 281.731 83.456C282.064 83.1808 282.69 83.0133 282.311 82.7138C281.896 82.3855 282.115 82.8169 281.983 83.1145C281.513 84.1729 281.191 85.2737 280.653 86.3162C279.62 88.3158 278.232 91.2704 276.225 92.4455C273.857 93.8323 270.523 92.9268 268.081 92.2379C264.723 91.2905 261.485 89.9569 258.23 88.7134C255.22 87.5636 252.34 86.2269 249.755 84.2799C248.065 83.0074 246.593 81.5068 245.121 79.9961C243.828 78.6693 242.36 77.5115 241.241 76.0221C239.51 73.7179 238.753 70.9506 238.929 68.0815C239.09 65.4657 240.072 63.4556 242.9 63.379C244.979 63.3228 247.071 63.9548 249.098 64.3466C250.522 64.622 251.926 65.0152 253.274 65.5559C253.935 65.821 254.6 66.1263 255.206 66.5031C255.409 66.6287 255.591 66.7761 255.79 66.9035C256.114 67.1104 256.083 67.2129 256.092 67.1875C255.874 67.8509 253.52 68.0977 252.974 68.1654C251.134 68.3933 249.224 68.2352 247.443 67.7284C245.284 67.1139 241.774 65.6312 241.433 63.0031C241.402 62.7608 241.41 62.5073 241.442 62.2661C241.399 62.5822 241.093 62.4148 241.378 62.5159C241.971 62.7266 243.026 62.5612 243.674 62.6435C248.114 63.2071 252.542 64.3513 256.842 65.5696C261.699 66.9456 266.605 67.6043 271.599 68.3216C277.644 69.1899 283.584 70.4733 289.582 71.5911C294.707 72.5461 299.852 73.3912 304.976 74.3455C310.244 75.3267 315.521 76.3702 320.679 77.8338C324.191 78.8301 327.67 79.99 330.652 82.1477C337.576 87.1582 343.7 93.4095 349.961 99.199C353.308 102.294 356.655 105.394 360.095 108.385C362.364 110.358 364.695 112.524 367.332 114.004C369.751 115.36 372.27 116.523 374.671 117.926C377.593 119.635 380.456 121.442 383.375 123.157C384.434 123.779 385.527 124.344 386.58 124.975C386.98 125.215 387.344 125.482 387.713 125.763C387.776 125.811 387.941 126.039 388.016 126.059C388.057 126.1 388.089 126.147 388.114 126.201C388.038 125.97 388.118 125.765 388.354 125.587C388.323 125.523 387.05 125.309 386.876 125.25C385.39 124.752 383.992 123.961 382.659 123.149C380.094 121.587 377.498 119.887 375.144 118.014C374.687 117.65 374.106 117.245 373.793 116.74C373.601 116.429 373.595 116.52 373.761 116.306C374.357 115.535 376.217 115.591 377.063 115.513C379.316 115.306 381.586 115.263 383.848 115.271C388.575 115.288 393.739 115.25 398.311 116.606C404.272 118.375 408.831 123.413 414.059 126.566C428.237 135.121 442.411 143.787 457.087 151.47C463.54 154.848 470.303 157.617 477.247 159.826C482.295 161.432 487.49 162.791 492.66 163.93C496.817 164.846 502.002 165.564 505.693 162.875C508.207 161.044 509.289 158.085 510.414 155.311C510.789 154.386 511.724 152.741 510.808 151.834C509.985 151.02 508.796 151.81 508.102 152.379C505.525 154.494 503.53 158.338 504.149 161.715C505.017 166.447 509.944 168.018 514.149 168.022C516.548 168.024 518.926 167.674 521.319 167.58C523.405 167.498 525.334 167.911 527.359 168.349C529.233 168.754 531.141 169.029 533.037 168.593C535.746 167.969 537.903 166.038 539.7 164.018C540.415 163.219 539.238 162.033 538.521 162.838Z" fill="#0047FF"/>
<path d="M316.647 109.4C315.411 108.218 313.559 107.553 311.964 107.08C308.072 105.926 304.032 106.062 300.02 105.997C295.929 105.931 291.84 105.81 287.751 105.689C283.502 105.564 279.253 105.429 275.004 105.327C270.939 105.229 266.877 105.2 262.812 105.224C260.106 105.239 257.398 105.276 254.695 105.42C252.486 105.537 250.262 105.712 248.087 106.133C243.849 106.953 240.079 109.243 235.914 110.299C235.136 110.496 234.568 110.628 233.752 110.495C232.692 110.323 231.684 109.871 230.799 109.268C230.521 109.078 230.273 108.878 230.025 108.603C229.919 108.487 230.091 108.731 230.005 108.569C230.016 108.59 230.043 108.666 230.043 108.72C230.044 108.855 229.817 109.335 229.7 109.424C229.76 109.378 229.627 109.491 229.645 109.445C229.621 109.507 229.544 109.469 229.669 109.447C229.772 109.429 229.874 109.406 229.978 109.389C230.012 109.384 229.828 109.403 230.001 109.388C230.082 109.381 230.164 109.371 230.245 109.364C230.609 109.331 230.974 109.312 231.339 109.299C232.173 109.269 233.009 109.269 233.842 109.311C234.03 109.32 234.218 109.332 234.405 109.348C234.485 109.354 234.565 109.361 234.644 109.369C234.682 109.373 234.72 109.378 234.758 109.382C234.924 109.398 234.686 109.369 234.782 109.383C234.902 109.401 235.021 109.42 235.139 109.448C235.186 109.459 235.234 109.478 235.282 109.485C235.398 109.503 235.211 109.441 235.185 109.418C235.008 109.269 234.915 109.031 234.938 108.799C234.942 108.757 235.051 108.501 234.99 108.609C234.919 108.733 235.07 108.525 235.026 108.563C234.978 108.604 234.936 108.658 234.89 108.702C234.687 108.896 234.463 109.07 234.247 109.25C233.676 109.724 233.125 110.227 232.713 110.852C232.259 111.543 232.081 112.387 232.33 113.187C232.589 114.021 232.775 114.896 233.078 115.714C233.393 116.566 233.916 117.221 234.694 117.699C235.778 118.366 237.088 118.77 238.29 119.17C238.912 119.378 239.539 119.575 240.174 119.742C241.214 120.017 241.658 118.406 240.618 118.132C239.939 117.953 239.268 117.74 238.603 117.516C237.54 117.157 236.19 116.768 235.336 116.13C234.998 115.877 234.911 115.743 234.727 115.366C234.685 115.28 234.725 115.368 234.732 115.383C234.716 115.346 234.702 115.308 234.688 115.27C234.661 115.192 234.634 115.114 234.608 115.034C234.546 114.836 234.493 114.634 234.441 114.432C234.318 113.959 234.196 113.487 234.039 113.024C233.977 112.841 233.897 112.658 233.871 112.466C233.893 112.627 233.882 112.384 233.883 112.341C233.884 112.244 233.875 112.361 233.873 112.376C233.88 112.327 233.89 112.276 233.904 112.229C233.915 112.187 233.983 111.981 233.959 112.041C233.933 112.104 234.016 111.93 234.034 111.898C234.072 111.829 234.113 111.762 234.156 111.696C234.231 111.583 234.264 111.543 234.266 111.541C234.49 111.266 234.748 111.02 235.014 110.784C235.465 110.385 236.038 110.035 236.379 109.527C236.84 108.839 236.473 108.108 235.727 107.875C235.076 107.671 234.335 107.66 233.659 107.632C232.796 107.596 231.93 107.6 231.067 107.64C230.453 107.668 229.765 107.668 229.174 107.852C228.229 108.145 228.254 109.082 228.804 109.737C229.383 110.426 230.235 110.943 231.034 111.334C232.059 111.834 233.212 112.22 234.364 112.213C235.228 112.208 236.099 111.996 236.923 111.756C239.103 111.12 241.194 110.194 243.31 109.378C245.277 108.62 247.254 107.939 249.34 107.601C251.616 107.233 253.933 107.11 256.233 107.021C261.088 106.833 265.959 106.838 270.816 106.912C274.858 106.974 278.899 107.097 282.94 107.217C287.338 107.347 291.736 107.486 296.134 107.589C298.008 107.634 299.882 107.672 301.756 107.692C303.865 107.714 305.973 107.683 308.069 107.963C309.819 108.196 311.556 108.611 313.192 109.278C313.343 109.339 313.115 109.243 313.26 109.307C313.334 109.339 313.408 109.372 313.482 109.405C313.61 109.463 313.737 109.524 313.862 109.586C314.087 109.697 314.309 109.814 314.527 109.94C314.817 110.108 315.081 110.311 315.364 110.489C315.386 110.502 315.181 110.335 315.327 110.461C315.353 110.483 315.379 110.505 315.405 110.526C315.427 110.544 315.447 110.563 315.467 110.582C316.243 111.324 317.426 110.145 316.647 109.4Z" fill="#0047FF"/>
<path d="M269.418 134.04C270.983 134.037 272.547 134.025 274.112 134.011C277.412 133.982 280.712 133.937 284.011 133.859C287.058 133.788 290.113 133.721 293.152 133.484C293.986 133.419 294.877 133.387 295.686 133.159C297.23 132.724 297.652 131.022 297.666 129.607C297.673 128.84 297.575 128.061 297.405 127.314C297.279 126.766 297.113 126.17 296.799 125.698C296.356 125.032 295.438 124.823 294.952 125.583C294.597 126.138 294.593 126.93 294.643 127.562C294.805 129.574 295.639 131.553 296.7 133.25C297.796 135.004 299.29 136.682 301.188 137.581C302.369 138.14 303.635 138.524 304.887 138.885C306.645 139.394 308.425 139.829 310.21 140.235C314.219 141.148 318.267 141.919 322.336 142.515C324.026 142.763 325.724 142.989 327.428 143.117C329.235 143.254 331.117 143.27 332.883 142.824C333.556 142.655 334.189 142.377 334.815 142.08C334.935 142.023 335.055 141.966 335.176 141.912C335.267 141.871 335.374 141.831 335.209 141.895C335.29 141.864 335.37 141.831 335.452 141.801C335.768 141.685 336.094 141.6 336.426 141.542C336.478 141.533 336.737 141.499 336.555 141.521C336.658 141.508 336.761 141.498 336.864 141.489C337.113 141.469 337.364 141.459 337.614 141.456C338.347 141.448 339.081 141.476 339.811 141.53C340.912 141.61 341.949 141.748 343.033 141.977C343.428 142.06 343.826 142.149 344.212 142.269C345.241 142.591 345.68 140.979 344.656 140.659C343.241 140.216 341.716 140.024 340.246 139.894C338.287 139.721 336.261 139.625 334.425 140.429C334.18 140.536 333.94 140.655 333.697 140.768C333.634 140.797 333.57 140.826 333.507 140.855C333.427 140.89 333.287 140.944 333.457 140.878C333.301 140.939 333.146 141 332.987 141.053C332.065 141.362 331.292 141.448 330.349 141.495C328.857 141.571 327.373 141.463 325.889 141.304C325.48 141.26 325.071 141.212 324.662 141.161C324.466 141.137 324.271 141.112 324.075 141.086C324.022 141.079 323.969 141.072 323.915 141.065C323.951 141.07 324.066 141.085 323.896 141.062C323.774 141.045 323.651 141.029 323.529 141.012C322.597 140.882 321.667 140.739 320.739 140.588C318.767 140.268 316.801 139.908 314.842 139.517C311.298 138.809 307.739 138.042 304.286 136.961C303.695 136.776 303.105 136.579 302.528 136.352C302.445 136.319 302.106 136.172 302.359 136.285C302.243 136.233 302.127 136.184 302.013 136.13C301.679 135.97 301.359 135.783 301.052 135.576C299.415 134.469 298.168 132.698 297.303 130.87C296.945 130.115 296.625 129.227 296.434 128.329C296.412 128.227 296.392 128.126 296.374 128.024C296.367 127.984 296.327 127.721 296.338 127.804C296.349 127.888 296.324 127.677 296.32 127.631C296.31 127.518 296.302 127.405 296.299 127.292C296.294 127.135 296.298 126.979 296.306 126.822C296.309 126.783 296.315 126.744 296.317 126.705C296.321 126.589 296.286 126.87 296.309 126.759C296.324 126.685 296.334 126.611 296.353 126.538C296.365 126.49 296.389 126.44 296.397 126.391C296.416 126.276 296.299 126.588 296.368 126.468C296.395 126.422 296.264 126.582 296.229 126.609C296.132 126.682 295.951 126.752 295.828 126.751C295.759 126.751 295.417 126.621 295.504 126.675C295.452 126.642 295.319 126.516 295.42 126.621C295.485 126.69 295.302 126.419 295.366 126.554C295.387 126.598 295.42 126.64 295.444 126.683C295.468 126.728 295.489 126.775 295.513 126.82C295.603 126.994 295.479 126.707 295.513 126.818C295.551 126.943 295.604 127.064 295.642 127.189C295.737 127.492 295.81 127.803 295.868 128.116C295.882 128.188 295.894 128.26 295.906 128.332C295.917 128.4 295.946 128.621 295.923 128.428C295.945 128.613 295.965 128.797 295.977 128.983C296.001 129.33 296.005 129.679 295.98 130.027C295.974 130.111 295.964 130.195 295.956 130.279C295.946 130.4 295.982 130.123 295.962 130.242C295.955 130.282 295.949 130.322 295.942 130.363C295.913 130.527 295.875 130.69 295.825 130.85C295.805 130.912 295.78 130.973 295.76 131.035C295.726 131.142 295.833 130.89 295.781 130.987C295.764 131.018 295.752 131.052 295.734 131.083C295.7 131.144 295.666 131.204 295.63 131.265C295.617 131.286 295.6 131.306 295.588 131.328C295.516 131.456 295.709 131.232 295.594 131.317C295.549 131.351 295.491 131.413 295.455 131.456C295.375 131.553 295.601 131.387 295.447 131.457C295.422 131.469 295.215 131.579 295.35 131.519C295.478 131.461 295.307 131.531 295.271 131.54C295.152 131.571 295.033 131.598 294.912 131.621C294.835 131.635 294.758 131.647 294.682 131.659C294.639 131.665 294.597 131.671 294.555 131.677C294.367 131.706 294.72 131.659 294.607 131.671C294.392 131.692 294.178 131.721 293.963 131.742C291.245 132.011 288.5 132.069 285.771 132.144C282.469 132.236 279.165 132.287 275.862 132.323C273.815 132.346 271.769 132.362 269.722 132.369C269.621 132.369 269.52 132.37 269.419 132.37C268.344 132.372 268.342 134.043 269.418 134.04Z" fill="#0047FF"/>
<path d="M301.395 136.232C299.262 137.658 297.112 139.061 294.949 140.441C293.397 141.431 291.84 142.413 290.253 143.345C289.65 143.699 289.043 144.049 288.421 144.368C287.465 144.856 286.6 145.431 285.833 146.189C284.632 147.375 283.64 148.847 282.988 150.407C282.814 150.824 283.176 151.326 283.572 151.435C284.053 151.567 284.424 151.27 284.599 150.851C284.418 151.286 284.616 150.824 284.664 150.725C284.793 150.458 284.933 150.195 285.08 149.937C285.29 149.567 285.518 149.207 285.761 148.858C286.056 148.435 286.254 148.181 286.636 147.764C287.374 146.956 288.109 146.385 289.088 145.899C289.656 145.616 290.209 145.303 290.758 144.985C293.866 143.183 296.876 141.207 299.878 139.236C300.666 138.718 301.454 138.199 302.238 137.675C302.612 137.424 302.775 136.938 302.538 136.532C302.32 136.16 301.771 135.981 301.395 136.232Z" fill="#0047FF"/>
<path d="M285.867 176.678C285.816 176.717 285.442 176.897 285.591 176.854C285.652 176.837 285.712 176.814 285.773 176.795C285.961 176.735 286.15 176.679 286.339 176.622C286.954 176.437 287.571 176.254 288.186 176.066C289.809 175.571 291.43 175.057 293.018 174.455C294.178 174.015 295.313 173.545 296.332 172.831C297.439 172.055 298.486 171.191 299.524 170.326C301.974 168.284 304.346 166.153 306.795 164.11C307.273 163.712 307.756 163.319 308.245 162.934C308.365 162.84 308.111 163.035 308.276 162.911C308.326 162.873 308.375 162.835 308.425 162.798C308.518 162.728 308.611 162.658 308.705 162.59C308.87 162.472 309.036 162.355 309.207 162.247C309.666 161.957 310.129 161.693 310.562 161.362C311.227 160.855 311.854 160.304 312.429 159.697C313.499 158.567 314.606 157.147 314.85 155.565C314.968 154.796 314.883 153.99 314.439 153.33C313.904 152.534 313.029 151.975 312.117 151.709C310.823 151.33 308.282 151.552 308.239 153.374C308.218 154.257 309.014 154.888 309.74 155.221C310.586 155.61 311.495 155.874 312.358 156.224C316.153 157.762 320.015 159.689 324.187 159.829C326.359 159.901 328.509 159.229 330.595 158.705C332.792 158.153 335.005 157.551 337.26 157.283C338.268 157.162 339.291 157.105 340.304 157.193C341.269 157.277 342.37 157.613 343.37 157.932C345.066 158.473 346.534 159.17 348.139 159.962C350.788 161.27 353.699 161.882 356.574 162.489C356.834 162.544 357.093 162.598 357.354 162.65C357.795 162.738 358.255 162.524 358.381 162.067C358.494 161.655 358.242 161.128 357.798 161.039C355.427 160.566 353.022 160.06 350.732 159.281C350.591 159.234 350.452 159.184 350.313 159.132C350.245 159.106 350.177 159.078 350.109 159.053C349.97 159.001 350.242 159.116 350.07 159.037C349.751 158.89 349.434 158.742 349.12 158.587C348.45 158.259 347.786 157.92 347.109 157.608C345.278 156.765 343.3 155.998 341.308 155.653C339.258 155.298 337.164 155.558 335.136 155.939C332.912 156.357 330.728 156.963 328.529 157.496C327.584 157.725 326.511 158.017 325.618 158.111C324.717 158.206 323.748 158.171 322.884 158.046C320.867 157.753 318.915 157.085 317.023 156.348C315.278 155.668 313.572 154.888 311.82 154.227C311.428 154.08 311.02 153.965 310.635 153.802C310.458 153.727 310.284 153.635 310.123 153.53C310.081 153.502 309.939 153.382 310.042 153.475C309.987 153.425 309.849 153.254 309.953 153.41C309.927 153.37 309.846 153.2 309.891 153.323C309.935 153.44 309.908 153.356 309.901 153.331C309.88 153.262 309.922 153.291 309.9 153.352C309.903 153.374 309.907 153.396 309.91 153.418C309.912 153.351 309.909 153.359 309.9 153.441C309.918 153.517 309.88 153.527 309.899 153.466C309.928 153.369 309.795 153.628 309.905 153.461C309.923 153.434 309.975 153.384 309.897 153.469C309.792 153.585 309.899 153.486 309.897 153.48C309.895 153.474 309.977 153.406 309.974 153.41C309.971 153.412 309.835 153.504 309.913 153.458C309.971 153.425 310.033 153.391 310.088 153.355C310.103 153.345 310.201 153.299 310.101 153.345C309.998 153.392 310.128 153.335 310.15 153.328C310.295 153.284 310.437 153.246 310.586 153.217C310.409 153.251 310.652 153.212 310.7 153.21C310.805 153.203 310.91 153.202 311.016 153.206C311.335 153.217 311.621 153.268 312.016 153.438C311.962 153.414 312.165 153.515 312.201 153.535C312.287 153.582 312.37 153.632 312.452 153.685C312.623 153.796 312.742 153.898 312.889 154.046C312.932 154.088 313.027 154.207 312.939 154.09C312.986 154.152 313.029 154.218 313.068 154.285C313.101 154.342 313.13 154.4 313.159 154.458C313.212 154.565 313.117 154.323 313.147 154.438C313.158 154.478 313.174 154.518 313.185 154.559C313.206 154.631 313.219 154.704 313.235 154.777C313.203 154.634 313.231 154.722 313.234 154.811C313.236 154.888 313.239 154.964 313.236 155.041C313.235 155.088 313.21 155.326 313.224 155.231C313.239 155.126 313.204 155.327 313.197 155.358C313.18 155.44 313.159 155.52 313.137 155.6C313.09 155.767 313.032 155.931 312.966 156.09C313.022 155.954 312.926 156.171 312.907 156.209C312.873 156.281 312.837 156.351 312.799 156.422C312.704 156.603 312.6 156.78 312.49 156.953C312.391 157.108 312.287 157.26 312.18 157.409C312.035 157.611 312.026 157.621 311.887 157.791C311.385 158.405 310.825 158.973 310.228 159.495C310.096 159.61 309.961 159.723 309.825 159.834C309.793 159.86 309.601 160.011 309.719 159.919C309.651 159.973 309.581 160.025 309.51 160.076C309.259 160.26 309 160.435 308.731 160.59C307.903 161.069 307.156 161.669 306.415 162.27C304.08 164.162 301.844 166.176 299.555 168.123C298.981 168.612 298.405 169.097 297.823 169.576C297.56 169.792 297.296 170.006 297.031 170.218C296.91 170.315 296.789 170.411 296.668 170.507C296.605 170.556 296.542 170.606 296.478 170.655C296.328 170.773 296.518 170.626 296.41 170.709C295.603 171.322 294.798 171.895 293.872 172.313C293.793 172.349 293.712 172.385 293.632 172.42C293.597 172.435 293.376 172.528 293.508 172.473C293.331 172.547 293.153 172.619 292.975 172.689C292.608 172.833 292.238 172.971 291.867 173.105C291.075 173.39 290.276 173.656 289.475 173.914C288.202 174.322 286.92 174.7 285.641 175.088C285.301 175.19 284.969 175.274 284.686 175.496C284.331 175.774 284.395 176.385 284.686 176.677C285.037 177.029 285.51 176.956 285.867 176.678Z" fill="#0047FF"/>
<path d="M302.238 168.002C302.137 168.079 301.863 168.125 301.77 168.066C301.826 168.101 301.933 168.116 301.997 168.138C302.204 168.208 301.874 168.08 301.971 168.126C302.026 168.152 302.082 168.175 302.137 168.2C302.267 168.259 302.396 168.319 302.526 168.379C303.311 168.737 304.111 169.064 304.945 169.288C307.546 169.988 310.301 169.731 312.79 168.732C314.246 168.147 315.67 167.478 317.08 166.793C317.585 166.547 318.089 166.297 318.596 166.054C318.804 165.954 319.012 165.855 319.222 165.758C319.316 165.716 319.409 165.673 319.503 165.632C319.564 165.605 319.625 165.579 319.686 165.552C319.848 165.48 319.547 165.605 319.725 165.536C320.099 165.388 320.473 165.245 320.861 165.138C321.027 165.093 321.195 165.052 321.364 165.019C321.457 165 321.552 164.987 321.646 164.969C321.837 164.931 321.499 164.985 321.625 164.97C321.683 164.964 321.741 164.957 321.799 164.951C322.212 164.911 322.629 164.909 323.044 164.935C323.266 164.949 323.487 164.973 323.708 164.999C323.871 165.018 323.742 165.004 323.709 164.999C323.785 165.01 323.862 165.022 323.938 165.034C324.064 165.053 324.189 165.073 324.314 165.093C325.935 165.346 327.549 165.55 329.192 165.519C331.766 165.471 334.331 165.163 336.896 164.98C339.559 164.79 342.244 164.706 344.907 164.937C345.383 164.978 345.858 165.03 346.332 165.092C346.133 165.066 346.412 165.104 346.475 165.113C346.573 165.127 346.67 165.141 346.767 165.156C346.998 165.191 347.228 165.229 347.457 165.269C348.52 165.454 349.57 165.729 350.655 165.746C352.076 165.768 353.498 165.381 354.916 165.528C355.486 165.587 356.045 165.871 356.585 166.254C357.288 166.752 358 167.237 358.703 167.734C359.312 168.165 359.915 168.605 360.483 169.088C361.034 169.557 361.512 170.091 362.039 170.584C362.975 171.459 364.044 172.205 365.133 172.877C365.331 172.999 365.531 173.12 365.734 173.234C366.672 173.761 367.515 172.318 366.577 171.791C365.845 171.381 365.14 170.915 364.462 170.422C363.345 169.608 362.44 168.533 361.36 167.654C360.036 166.577 358.607 165.62 357.203 164.651C355.975 163.804 354.527 163.763 353.095 163.905C352.36 163.978 351.626 164.07 350.887 164.076C350.252 164.081 349.652 163.995 349.032 163.871C348.159 163.696 347.282 163.547 346.399 163.43C344.077 163.122 341.732 163.082 339.394 163.171C336.415 163.284 333.452 163.638 330.475 163.799C329.645 163.844 328.812 163.871 327.98 163.84C327.617 163.826 327.254 163.801 326.893 163.767C326.706 163.749 326.519 163.729 326.332 163.707C326.245 163.697 326.157 163.686 326.07 163.675C326.02 163.668 325.971 163.662 325.921 163.655C326.156 163.686 325.938 163.658 325.899 163.652C324.051 163.392 322.26 163.019 320.417 163.528C319.529 163.772 318.683 164.166 317.854 164.562C316.722 165.104 315.602 165.668 314.462 166.192C313.004 166.861 311.539 167.526 309.956 167.837C309.325 167.962 308.727 168.02 308.06 168.024C307.771 168.026 307.482 168.016 307.194 167.995C307.064 167.985 306.934 167.973 306.804 167.959C306.797 167.958 306.52 167.921 306.692 167.946C306.61 167.934 306.529 167.922 306.448 167.908C305.53 167.755 304.646 167.477 303.787 167.124C304.02 167.219 303.731 167.099 303.686 167.079C303.609 167.045 303.532 167.011 303.456 166.976C303.321 166.915 303.186 166.852 303.052 166.791C302.805 166.678 302.556 166.552 302.295 166.476C302.019 166.396 301.638 166.373 301.394 166.56C301.038 166.835 300.847 167.278 301.095 167.703C301.3 168.054 301.878 168.279 302.238 168.002Z" fill="#0047FF"/>
<path d="M77.3447 117.103C73.667 111.691 70.0023 106.27 66.3437 100.844C59.8417 91.2028 53.3497 81.5532 46.9634 71.8342C44.7882 68.5238 42.6016 65.2158 40.5323 61.8377C40.0836 61.1054 39.555 60.3554 39.2274 59.5565C39.3542 59.8657 39.1637 59.2608 39.1371 59.1401C39.0238 58.6224 38.9748 58.0901 38.9341 57.5625C38.8217 56.1065 38.8338 54.6384 38.9263 53.1817C39.1497 49.6617 39.8217 45.8474 41.8014 42.8559C42.7079 41.486 43.3992 40.9678 44.7092 40.1941C47.4967 38.5476 50.4396 37.1464 53.3489 35.7325C63.44 30.8282 73.6854 26.2354 83.9437 21.6939C94.791 16.8919 105.679 12.1714 116.653 7.667C120.436 6.11464 124.226 4.57234 128.066 3.1644C129.188 2.75263 130.316 2.34142 131.464 2.0055C132.875 1.5926 133.836 1.62886 135.565 1.69668C139.455 1.84913 143.502 2.63569 146.986 4.42365C148.695 5.30044 150.207 6.43038 151.437 7.91212C151.506 7.99563 151.778 8.34835 151.575 8.08791C152.358 9.09193 153.117 10.1146 153.883 11.1312C157.239 15.5878 160.577 20.0584 163.916 24.5283C169.181 31.577 174.44 38.6304 179.697 45.6854C186.242 54.4692 192.783 63.256 199.321 72.0442C206.493 81.6831 213.662 91.324 220.829 100.967C228.06 110.696 235.288 120.426 242.513 130.159C249.15 139.1 255.785 148.042 262.415 156.988C267.816 164.275 273.215 171.564 278.606 178.858C282.19 183.707 285.773 188.556 289.337 193.42C290.245 194.659 291.154 195.897 292.049 197.145C294.074 199.97 294.533 203.428 294.606 206.849C294.68 210.354 294.406 214.063 293.247 217.396C292.585 219.301 291.187 220.623 289.755 221.989C285.005 226.521 279.768 230.581 274.56 234.568C270.941 237.339 267.301 240.105 263.428 242.515C258.807 245.39 254.143 248.198 249.468 250.984C243.782 254.373 238.077 257.739 232.275 260.927C230.293 262.016 228.302 263.108 226.248 264.055C224.064 265.063 221.814 265.884 219.654 266.961C215.012 269.278 210.481 271.846 206.029 274.511C205.108 275.062 205.947 276.507 206.872 275.953C211.598 273.124 216.411 270.387 221.364 267.976C223.407 266.982 225.546 266.24 227.592 265.262C229.783 264.214 231.915 263.039 234.038 261.862C244.52 256.048 254.838 249.876 264.992 243.507C269.159 240.893 273.061 237.829 276.946 234.822C282.042 230.88 287.249 226.894 291.805 222.322C293.298 220.824 294.384 219.394 295.019 217.347C296.075 213.947 296.364 210.214 296.272 206.672C296.178 203.087 295.681 199.363 293.554 196.39C291.182 193.073 288.745 189.802 286.326 186.519C281.691 180.231 277.046 173.951 272.398 167.673C266.211 159.317 260.019 150.965 253.825 142.615C246.723 133.042 239.617 123.471 232.51 113.903C225.141 103.983 217.769 94.0644 210.395 84.1483C203.407 74.7519 196.417 65.357 189.423 55.9647C183.465 47.9625 177.504 39.9619 171.539 31.965C167.258 26.2273 162.977 20.4906 158.684 14.762C156.695 12.107 154.758 9.39479 152.679 6.80795C148.398 1.48127 140.245 -0.145262 133.75 0.00999274C131.355 0.0673493 129.173 0.973829 126.95 1.80204C117.567 5.29687 108.357 9.28661 99.1616 13.2414C87.6353 18.1987 76.1567 23.2726 64.759 28.5194C60.2188 30.6092 55.6885 32.7234 51.2023 34.927C48.5211 36.244 45.7638 37.5273 43.2386 39.1333C38.6502 42.0516 37.513 48.4699 37.2384 53.4891C37.1245 55.5728 36.9519 58.1417 37.6796 60.1495C37.9777 60.9723 38.5155 61.7376 38.9672 62.4791C44.0188 70.7728 49.5458 78.7962 54.9434 86.8655C60.8795 95.7401 66.8507 104.591 72.8396 113.43C73.8599 114.936 74.8806 116.442 75.9029 117.946C76.5034 118.83 77.9512 117.996 77.3447 117.103Z" fill="#0047FF"/>
<path d="M65.219 32.8295C62.9452 33.4944 60.716 34.3514 58.5445 35.294C55.2312 36.7322 51.5497 38.5125 49.2581 41.4089C46.4114 45.007 48.1536 50.3735 49.6958 54.1783C50.9873 57.3648 52.6458 60.4047 54.5877 63.2406C57.2689 67.156 59.9698 71.0579 62.6611 74.9662C68.651 83.6642 74.642 92.3615 80.6337 101.058C88.6567 112.703 96.681 124.347 104.707 135.99C113.496 148.74 122.287 161.489 131.082 174.235C139.371 186.249 147.662 198.26 155.96 210.267C162.481 219.703 169.005 229.137 175.544 238.56C179.021 243.571 182.474 248.603 186.02 253.567C189.519 258.467 195.006 262.024 200.874 263.375C203.791 264.047 206.701 264.058 209.447 262.858C211.374 262.016 213.237 261.019 215.089 260.025C228.671 252.73 241.834 244.615 255.01 236.622C260.949 233.02 266.875 229.397 272.795 225.765C278.191 222.454 284.553 219.417 288.374 214.257C291.038 210.661 291.543 205.818 289.321 201.927C288.055 199.71 286.632 197.578 285.222 195.451C279.928 187.459 274.405 179.618 268.882 171.784C261 160.604 253.037 149.48 245.046 138.377C235.984 125.786 226.88 113.225 217.748 100.684C208.868 88.4885 199.96 76.3127 191.022 64.1596C183.693 54.1953 176.347 44.2437 168.953 34.3281C164.469 28.3155 160.003 22.2836 155.377 16.379C153.892 14.4835 152.401 12.8797 150.594 11.2423C147.018 8.00235 143.051 5.94872 138.21 5.42373C135.055 5.08146 132.261 5.42485 129.229 6.25755C121.579 8.35807 114.189 11.5325 106.903 14.6312C99.4627 17.7958 92.0965 21.1333 84.7619 24.5356C78.3364 27.5161 71.9047 30.4641 65.219 32.8295C64.2126 33.1856 64.6459 34.8002 65.663 34.4404C72.4845 32.0267 79.0486 29.0189 85.6047 25.9777C92.8472 22.618 100.121 19.3218 107.466 16.1924C114.71 13.1063 122.065 9.95695 129.673 7.86802C132.869 6.99029 135.791 6.69584 139.118 7.21336C143.92 7.96012 147.483 10.5388 150.91 13.8275C154.4 17.1777 157.019 21.2048 159.931 25.0602C166.09 33.2179 172.179 41.4292 178.257 49.6479C186.509 60.8062 194.726 71.9908 202.922 83.191C212.022 95.6288 221.095 108.087 230.135 120.568C238.727 132.43 247.291 144.312 255.801 156.232C262.7 165.896 269.575 175.579 276.331 185.343C280.197 190.93 284.199 196.497 287.641 202.361C287.983 202.942 288.342 203.532 288.603 204.155C288.521 203.959 288.586 204.092 288.631 204.247C288.874 205.071 289.014 205.938 289.058 206.796C289.174 209.116 288.457 211.283 287.114 213.164C284.59 216.699 280.609 219.014 276.975 221.24C275.198 222.329 273.422 223.42 271.645 224.51C258.747 232.423 245.827 240.303 232.793 247.99C226.768 251.544 220.727 255.086 214.57 258.408C212.672 259.432 210.764 260.456 208.793 261.332C206.167 262.499 203.098 262.3 200.266 261.493C195.042 260.005 190.364 256.809 187.222 252.387C185.862 250.473 184.52 248.547 183.177 246.621C177.945 239.119 172.741 231.598 167.536 224.078C160.029 213.23 152.531 202.376 145.036 191.52C136.449 179.083 127.867 166.643 119.286 154.201C110.809 141.908 102.334 129.613 93.86 117.317C86.7729 107.033 79.6871 96.748 72.6022 86.4625C68.0426 79.8428 63.4832 73.2229 58.9247 66.6024C57.9944 65.2515 57.0633 63.9011 56.1343 62.5492C54.7588 60.5473 53.5228 58.4522 52.4515 56.2713C51.2135 53.751 50.1671 51.0835 49.6786 48.3076C49.331 46.3322 49.1909 44.2672 50.4405 42.5921C52.5416 39.7758 56.2545 38.0946 59.3875 36.7363C61.426 35.8526 63.5291 35.0644 65.663 34.4404C66.6926 34.1394 66.2546 32.5267 65.219 32.8295Z" fill="#0047FF"/>
<g clip-path="url(#clip0_115_11219)">
<path fill-rule="evenodd" clip-rule="evenodd" d="M125.291 61.4217C125.588 61.2061 126.011 61.2806 126.235 61.5885C126.459 61.8962 126.401 62.3206 126.104 62.5363C125.807 62.7519 125.385 62.6774 125.16 62.3695C124.936 62.0615 124.995 61.6373 125.291 61.4217ZM123.643 62.6193C123.94 62.4037 124.362 62.4782 124.587 62.7861C124.811 63.0938 124.752 63.5182 124.455 63.734C124.159 63.9496 123.736 63.875 123.512 63.5672C123.287 63.2593 123.346 62.8351 123.643 62.6193ZM121.994 63.8171C122.291 63.6015 122.713 63.6762 122.938 63.984C123.162 64.2917 123.104 64.7161 122.807 64.9317C122.51 65.1473 122.087 65.0728 121.863 64.7649C121.639 64.4569 121.698 64.0327 121.994 63.8171ZM127.537 60.6424C126.081 58.6452 123.339 58.1606 121.413 59.5601C119.487 60.9596 119.105 63.7132 120.561 65.7105C122.017 67.7077 124.759 68.1923 126.685 66.7928C127.02 66.5497 127.308 66.2657 127.547 65.9518L129.177 65.929L128.228 64.627C128.625 63.3332 128.417 61.8497 127.537 60.6424Z" fill="#0047FF"/>
<path fill-rule="evenodd" clip-rule="evenodd" d="M106.662 64.9755C105.751 58.7749 108.122 52.3961 113.397 48.5632C118.673 44.7304 125.482 44.4399 131.111 47.2123L131.485 44.5162C125.154 41.6887 117.669 42.1523 111.821 46.4008C105.974 50.6492 103.23 57.6177 103.978 64.5011L106.662 64.9755Z" fill="#0047FF"/>
<path fill-rule="evenodd" clip-rule="evenodd" d="M114.974 50.7255C110.268 54.1445 108.281 59.9467 109.383 65.4562L112.165 65.9479C110.822 61.1452 112.407 55.8955 116.549 52.8863C120.69 49.8774 126.181 49.9858 130.346 52.7387L130.733 49.9446C125.821 47.2033 119.68 47.3066 114.974 50.7255Z" fill="#0047FF"/>
<path fill-rule="evenodd" clip-rule="evenodd" d="M118.125 55.049C114.536 57.6565 113.39 62.4046 115.077 66.4626L118.34 67.0394C116.014 63.8478 116.623 59.4477 119.701 57.2114C122.779 54.975 127.16 55.7493 129.487 58.9409L129.941 55.6637C126.592 52.8125 121.714 52.4415 118.125 55.049Z" fill="#0047FF"/>
</g>
<path d="M117.613 88.335L118.333 87.8119L121.773 92.5312C122.127 93.016 122.12 93.3917 121.753 93.6582C121.462 93.8698 121.081 93.8502 120.609 93.5995L115.917 91.0505L119.139 95.4708L118.419 95.9939L115.015 91.3231C114.638 90.8059 114.638 90.4102 115.015 90.1359C115.323 89.9125 115.716 89.9316 116.196 90.1931L120.8 92.7068L117.613 88.335ZM123.885 92.0226L123.165 92.5457L120.538 88.9416C120.11 88.3544 119.945 87.7943 120.044 87.2614C120.142 86.7286 120.501 86.2368 121.121 85.7862L122.092 85.0808L122.546 85.703L121.583 86.4025C121.173 86.7003 120.946 87.0175 120.903 87.354C120.861 87.6811 120.999 88.0629 121.317 88.4993L121.741 89.0811L123.877 87.5293L124.331 88.1516L122.195 89.7034L123.885 92.0226ZM129.285 87.1107L129.756 87.7572L129.538 87.9159C128.966 88.3313 128.519 88.6066 128.197 88.7418C127.871 88.8716 127.469 88.9323 126.993 88.924C126.513 88.9104 126.044 88.7816 125.585 88.5377C125.127 88.2938 124.737 87.951 124.415 87.5092C123.861 86.7496 123.663 85.9173 123.82 85.0121C123.977 84.107 124.452 83.3664 125.245 82.7904L125.827 82.3672L126.298 83.0137L125.902 83.3017C125.244 83.7798 124.847 84.3609 124.71 85.0451C124.574 85.7294 124.727 86.3759 125.171 86.9846C125.434 87.3456 125.773 87.623 126.186 87.817C126.596 88.0055 126.97 88.0836 127.31 88.0512C127.649 88.0189 127.935 87.9471 128.168 87.8359C128.4 87.7247 128.716 87.5241 129.115 87.2342L129.285 87.1107ZM135.447 82.6334L135.919 83.2799L135.7 83.4386C135.128 83.854 134.681 84.1293 134.359 84.2645C134.033 84.3943 133.632 84.455 133.156 84.4467C132.675 84.4331 132.206 84.3043 131.748 84.0604C131.29 83.8165 130.9 83.4737 130.578 83.0319C130.024 82.2723 129.826 81.4399 129.983 80.5348C130.139 79.6297 130.614 78.8891 131.407 78.3131L131.99 77.8899L132.461 78.5363L132.065 78.8244C131.407 79.3024 131.009 79.8836 130.873 80.5678C130.736 81.2521 130.89 81.8986 131.334 82.5073C131.597 82.8683 131.935 83.1457 132.349 83.3396C132.758 83.5282 133.133 83.6063 133.472 83.5739C133.812 83.5416 134.098 83.4698 134.33 83.3586C134.563 83.2474 134.878 83.0468 135.277 82.7568L135.447 82.6334ZM135.496 77.8637C136.02 77.4836 136.605 77.3469 137.252 77.4536C137.899 77.5604 138.417 77.8804 138.805 78.4137C139.178 78.9255 139.314 79.5025 139.213 80.1446C139.112 80.7867 138.8 81.2978 138.277 81.6779C137.737 82.0698 137.143 82.217 136.495 82.1196C135.846 82.0222 135.326 81.7041 134.933 81.1653C134.556 80.6482 134.421 80.0666 134.527 79.4205C134.634 78.7745 134.957 78.2556 135.496 77.8637ZM135.962 78.5021C135.611 78.7568 135.4 79.0955 135.329 79.5182C135.257 79.9409 135.349 80.3273 135.605 80.6775C135.872 81.0438 136.217 81.2627 136.64 81.3342C137.065 81.3964 137.461 81.2942 137.827 81.0278C138.151 80.7926 138.344 80.463 138.406 80.0389C138.468 79.6147 138.377 79.2356 138.134 78.9016C137.871 78.5407 137.528 78.3244 137.104 78.253C136.682 78.1722 136.302 78.2552 135.962 78.5021ZM143.804 77.5507L143.157 78.0209L141.755 76.0976C141.48 75.7205 141.187 75.4884 140.876 75.4012C140.565 75.3141 140.259 75.3802 139.957 75.5996C139.326 76.0581 139.305 76.6914 139.894 77.4995L141.272 79.3905L140.625 79.8607L139.117 77.792C138.752 77.2909 138.603 76.7811 138.67 76.2624C138.738 75.7437 139.014 75.308 139.499 74.9554C139.974 74.6105 140.466 74.4878 140.976 74.5872C141.487 74.6773 141.925 74.9728 142.29 75.4739L143.804 77.5507ZM147.715 74.7093L147.068 75.1795L145.666 73.2563C145.391 72.8791 145.098 72.647 144.787 72.5598C144.476 72.4727 144.169 72.5388 143.867 72.7583C143.236 73.2167 143.215 73.85 143.804 74.6581L145.183 76.5491L144.536 77.0193L143.028 74.9506C142.662 74.4496 142.514 73.9397 142.581 73.421C142.648 72.9023 142.925 72.4667 143.41 72.114C143.885 71.7692 144.377 71.6464 144.887 71.7458C145.398 71.8359 145.836 72.1315 146.201 72.6325L147.715 74.7093ZM150.348 70.2003L150.984 70.1217C151.426 71.35 151.161 72.3168 150.19 73.0222C149.662 73.4062 149.075 73.5522 148.431 73.4602C147.787 73.3588 147.271 73.0415 146.883 72.5081C146.49 71.9694 146.344 71.3836 146.443 70.7508C146.543 70.118 146.865 69.6037 147.41 69.208C148.133 68.6829 148.964 68.6351 149.904 69.0645L148.669 72.3104L148.046 72.0335L148.963 69.5385C148.577 69.4395 148.201 69.5233 147.834 69.7898C147.478 70.0484 147.27 70.3852 147.209 70.8C147.149 71.2149 147.254 71.6081 147.525 71.9799C147.796 72.3516 148.159 72.5781 148.614 72.6594C149.069 72.7406 149.478 72.65 149.839 72.3875C150.179 72.1406 150.393 71.8286 150.481 71.4514C150.569 71.0743 150.525 70.6573 150.348 70.2003ZM154.37 68.9965L154.788 69.5702L154.311 69.917C153.955 70.1756 153.634 70.3468 153.349 70.4306C153.069 70.5105 152.692 70.5083 152.218 70.4241C151.744 70.3399 151.323 70.0445 150.954 69.5381C150.761 69.2742 150.633 68.9678 150.568 68.6191C150.5 68.265 150.519 67.8842 150.627 67.4767C150.739 67.0652 151.057 66.6695 151.58 66.2894L152.114 65.9014L152.526 66.4671L152.146 66.7434C151.704 67.0647 151.438 67.4352 151.348 67.855C151.258 68.2747 151.356 68.6812 151.643 69.0745C151.925 69.4624 152.274 69.6747 152.689 69.7114C153.103 69.7481 153.531 69.6058 153.974 69.2845L154.37 68.9965ZM153.732 65.6158L154.981 67.3289C155.213 67.6468 155.424 67.8184 155.616 67.8439C155.808 67.8694 156.077 67.7567 156.422 67.5059L156.737 67.2767L157.155 67.8504L156.808 68.1032C156.247 68.5107 155.79 68.6939 155.439 68.6528C155.087 68.6117 154.724 68.3352 154.351 67.8234L151.86 64.4052L152.507 63.9349L153.32 65.0501L154.493 64.1978L154.905 64.7635L153.732 65.6158Z" fill="#0047FF"/>
<path d="M202.779 228.009L203.591 229.256L201.11 230.87L206.363 238.944L204.834 239.939L199.581 231.865L197.087 233.488L196.275 232.241L202.779 228.009ZM207.457 232.925C206.974 232.183 206.698 231.427 206.63 230.657C206.571 229.881 206.703 229.165 207.027 228.509C207.354 227.838 207.839 227.293 208.483 226.875C209.064 226.496 209.645 226.284 210.225 226.237C210.809 226.176 211.34 226.23 211.821 226.401L211.123 225.329L212.665 224.325L217.473 231.715L215.931 232.718L215.215 231.618C215.183 232.136 215.019 232.656 214.723 233.18C214.427 233.703 213.993 234.151 213.421 234.523C212.786 234.936 212.1 235.153 211.363 235.175C210.621 235.187 209.904 235.005 209.213 234.627C208.525 234.235 207.939 233.668 207.457 232.925ZM213.522 229.017C213.191 228.507 212.796 228.134 212.337 227.898C211.887 227.657 211.428 227.548 210.96 227.572C210.492 227.597 210.062 227.737 209.668 227.993C209.275 228.249 208.973 228.586 208.761 229.003C208.543 229.412 208.449 229.874 208.479 230.389C208.512 230.89 208.694 231.395 209.026 231.904C209.357 232.414 209.751 232.794 210.207 233.045C210.671 233.29 211.141 233.404 211.614 233.389C212.091 233.359 212.521 233.219 212.906 232.968C213.299 232.712 213.602 232.376 213.813 231.958C214.025 231.54 214.112 231.076 214.073 230.567C214.037 230.043 213.854 229.526 213.522 229.017ZM216.909 223.11C216.947 222.601 217.114 222.085 217.41 221.562C217.705 221.039 218.135 220.594 218.698 220.227C219.342 219.808 220.032 219.588 220.769 219.567C221.509 219.531 222.217 219.7 222.894 220.074C223.57 220.449 224.149 221.007 224.632 221.749C225.115 222.491 225.396 223.256 225.476 224.044C225.551 224.823 225.427 225.552 225.106 226.232C224.788 226.897 224.307 227.439 223.663 227.858C223.1 228.225 222.527 228.439 221.943 228.5C221.354 228.553 220.81 228.5 220.312 228.34L223.296 232.927L221.767 233.922L214.673 223.018L216.202 222.023L216.909 223.11ZM223.077 222.761C222.745 222.252 222.353 221.883 221.9 221.657C221.45 221.415 220.989 221.314 220.518 221.353C220.051 221.377 219.62 221.517 219.227 221.773C218.842 222.023 218.54 222.36 218.319 222.784C218.107 223.202 218.016 223.668 218.046 224.183C218.085 224.692 218.27 225.202 218.601 225.712C218.933 226.221 219.327 226.601 219.782 226.852C220.241 227.088 220.705 227.194 221.172 227.169C221.649 227.139 222.08 226.999 222.464 226.749C222.857 226.493 223.16 226.156 223.372 225.738C223.587 225.306 223.672 224.83 223.627 224.312C223.592 223.788 223.408 223.271 223.077 222.761ZM233.432 208.063L239.496 217.384L237.968 218.378L235.315 214.301L230.93 217.155L233.582 221.232L232.054 222.227L225.989 212.906L227.518 211.911L230.118 215.908L234.504 213.054L231.903 209.058L233.432 208.063ZM245.76 207.791C245.94 208.068 246.085 208.33 246.195 208.577L240.549 212.251C240.978 212.812 241.505 213.143 242.131 213.245C242.757 213.347 243.356 213.211 243.928 212.839C244.751 212.304 245.108 211.581 245 210.672L246.649 209.599C246.868 210.423 246.825 211.247 246.52 212.069C246.218 212.876 245.633 213.562 244.766 214.126C244.06 214.586 243.323 214.843 242.556 214.896C241.793 214.935 241.064 214.773 240.369 214.41C239.678 214.033 239.086 213.464 238.591 212.704C238.097 211.944 237.815 211.179 237.747 210.409C237.682 209.624 237.825 208.895 238.175 208.221C238.535 207.542 239.077 206.967 239.801 206.495C240.498 206.042 241.219 205.789 241.962 205.738C242.705 205.688 243.409 205.84 244.074 206.197C244.732 206.545 245.294 207.076 245.76 207.791ZM243.85 208.347C243.474 207.789 242.979 207.469 242.365 207.385C241.751 207.301 241.153 207.448 240.572 207.827C240.044 208.17 239.703 208.634 239.549 209.218C239.389 209.793 239.459 210.39 239.76 211.008L243.85 208.347ZM247.205 203.377C247.184 202.856 247.29 202.373 247.523 201.929C247.759 201.47 248.132 201.075 248.641 200.743L249.671 202.326L249.282 202.579C248.683 202.968 248.326 203.417 248.211 203.925C248.105 204.427 248.296 205.053 248.784 205.804L251.315 209.693L249.786 210.688L244.978 203.298L246.507 202.304L247.205 203.377ZM259.184 199.056C259.364 199.333 259.509 199.595 259.619 199.842L253.973 203.516C254.401 204.077 254.929 204.408 255.555 204.51C256.181 204.612 256.78 204.476 257.352 204.104C258.175 203.569 258.532 202.846 258.424 201.937L260.073 200.864C260.292 201.688 260.249 202.512 259.944 203.334C259.642 204.141 259.057 204.827 258.19 205.391C257.484 205.851 256.747 206.108 255.98 206.161C255.216 206.2 254.487 206.038 253.793 205.675C253.102 205.298 252.51 204.729 252.015 203.969C251.521 203.209 251.239 202.444 251.171 201.674C251.106 200.889 251.248 200.16 251.599 199.486C251.959 198.807 252.501 198.232 253.225 197.76C253.922 197.307 254.643 197.054 255.386 197.003C256.129 196.953 256.833 197.105 257.497 197.462C258.156 197.81 258.718 198.341 259.184 199.056ZM257.274 199.612C256.898 199.054 256.403 198.734 255.789 198.65C255.174 198.566 254.577 198.713 253.996 199.092C253.468 199.435 253.127 199.898 252.973 200.483C252.812 201.058 252.883 201.655 253.183 202.273L257.274 199.612Z" fill="#0047FF"/>
<defs>
<clipPath id="clip0_115_11219">
<rect width="33.9997" height="26.0002" fill="white" transform="matrix(0.809024 -0.58779 0.58903 0.808101 98.0679 56.3932)"/>
</clipPath>
</defs>
</svg>
