<svg width="540" height="338" viewBox="0 0 540 338" fill="none" xmlns="http://www.w3.org/2000/svg">
<path d="M539.41 329.826C534.256 331.247 528.982 331.554 523.673 331.038C518.759 330.561 513.91 329.561 508.984 329.188C503.392 328.763 497.852 329.266 492.449 330.782C488.208 331.971 484.224 333.794 480.125 335.371C477.225 336.488 474.12 337.432 470.991 336.837C467.169 336.111 464.183 333.166 461.847 330.241C456.763 323.872 452.937 315.709 451.522 307.656C451.232 306.002 450.524 302.83 451.998 301.482C453.709 299.917 455.95 302.837 457.029 303.839C460.246 306.827 466.702 312.364 461.002 316.303C459.335 317.455 457.3 318.107 455.365 318.636C452.806 319.336 450.177 319.828 447.56 320.257C444.542 320.751 441.448 320.89 438.449 321.485C436.341 321.904 434.768 322.956 433.265 324.469C431.981 325.762 430.863 327.194 429.656 328.555C428.141 330.265 426.382 331.754 424.489 333.03C421.177 335.263 417.324 336.915 413.383 337.617C411.723 337.913 408.472 338.551 407.186 336.99C406.178 335.767 407.003 332.97 407.196 331.609C407.692 328.124 408.352 324.66 409.05 321.211C409.855 317.234 410.733 313.27 411.725 309.335C412.485 306.317 413.252 303.252 414.4 300.354C416.873 294.113 420.43 288.223 423.723 282.395C427.502 275.708 431.394 269.087 435.283 262.465C436.406 260.553 437.659 258.664 438.515 256.611C439.742 253.669 440.616 250.566 441.476 247.502C443.833 239.114 445.776 230.612 447.811 222.143C449.777 213.961 451.993 205.87 454.365 197.796C455.772 193.009 457.209 188.226 458.835 183.508C459.923 180.352 461.226 177.424 462.686 174.441C464.621 170.489 464.568 165.419 464.316 161.128C464.222 159.536 463.867 157.949 463.826 156.36C463.782 154.71 464.09 153.029 464.411 151.417C465.248 147.22 466.519 143.088 467.949 139.058C468.543 137.386 469.2 135.747 469.918 134.125C470.959 131.776 472.494 129.086 472.484 126.441C472.475 123.973 469.768 122.294 467.775 121.343C465.455 120.235 462.704 119.782 460.342 121.038C458.393 122.074 457.8 124.134 457.338 126.141C456.868 128.178 456.235 130.172 455.781 132.213C455.601 133.022 455.482 133.809 455.44 134.635C455.435 134.727 455.434 134.943 455.49 135.035C455.628 135.261 455.201 134.86 455.56 135.014C455.994 135.2 456.669 135.125 457.149 135.189C459.969 135.567 462.123 136.95 464.398 138.569C464.853 138.893 465.306 139.223 465.775 139.525C465.918 139.617 466.138 139.719 466.275 139.832C466.909 140.36 466.314 139.606 466.295 140.088C466.292 140.179 466.323 140.103 466.399 139.954C466.515 139.731 466.767 139.502 466.92 139.298C467.904 137.989 468.799 136.607 469.678 135.226C470.706 133.611 471.703 131.97 472.609 130.282C473.472 128.672 474.365 127.101 473.841 125.222C473.229 123.031 471.468 120.98 469.515 119.852C467.91 118.925 465.861 118.659 464.052 118.435C460.539 118.001 456.546 117.683 453.475 119.72C450.231 121.871 447.314 124.614 444.585 127.374C441.673 130.32 438.804 133.497 436.945 137.232C434.501 142.145 432.189 147.198 430.442 152.406C429.785 154.365 429.392 156.359 428.966 158.378C428.7 159.637 428.428 160.902 428.266 162.18C428.199 162.711 427.799 164.941 428.339 165.348C429.009 165.853 430.965 164.851 431.618 164.558C432.209 164.294 432.79 163.999 433.349 163.674C433.557 163.554 433.768 163.378 433.985 163.282C434.046 163.255 434.091 163.184 434.155 163.166C434.188 163.141 434.218 163.113 434.247 163.083C434.593 162.729 434.788 163.148 434.833 164.341C434.769 164.4 433.963 164.584 433.676 164.675C432.913 164.918 432.169 165.216 431.453 165.575C429.53 166.539 427.793 167.907 426.586 169.704C425.35 171.544 424.625 173.752 423.784 175.792C422.875 177.999 421.961 180.206 420.983 182.384C419.012 186.77 416.767 190.887 413.669 194.579C410.384 198.494 406.813 202.189 402.95 205.538C400.854 207.356 398.665 209.076 396.364 210.629C394.108 212.151 391.7 213.407 389.564 215.107C385.789 218.112 382.625 221.814 379.821 225.721C375.504 231.735 371.186 237.785 367.09 243.95C364.521 247.815 362.211 251.776 359.979 255.839C357.623 260.127 354.65 264.11 351.417 267.772C348.685 270.869 345.567 274.188 341.842 276.098C338.758 277.678 335.365 276.824 332.275 275.664C328.287 274.168 324.559 272.054 320.868 269.949C317.832 268.217 314.875 266.505 312.017 264.48C310.358 263.305 308.715 262.105 307.02 260.983C306.394 260.568 305.761 260.16 305.104 259.796C304.871 259.666 303.728 259.339 303.612 259.16C303.658 259.231 303.909 258.947 303.925 258.962C303.949 258.987 303.873 259.345 303.873 259.39C303.87 260.02 303.872 260.644 303.909 261.275C304.016 263.11 304.219 264.939 304.402 266.768C304.788 270.628 305.332 274.598 305.05 278.483C304.856 281.147 304.292 283.796 303.923 286.441C303.774 287.503 303.621 288.577 303.586 289.65C303.582 289.796 303.673 290.525 303.612 290.605C303.491 290.762 303.016 290.475 303.042 290.41C303.121 290.217 304.587 289.406 304.98 289.115C306.146 288.254 307.274 287.341 308.39 286.416C310.801 284.416 313.182 282.35 315.384 280.119C315.783 279.713 316.178 279.302 316.551 278.872C316.737 278.657 317.008 278.108 317.236 277.964C317.454 277.826 317.143 277.913 317.274 277.982C317.266 277.978 317.512 278.736 317.605 278.541C317.605 278.541 317.263 278.677 317.26 278.679C316.59 279.354 315.685 279.909 314.975 280.572C311.51 283.807 307.602 286.43 305.018 290.492C302.139 295.017 301.144 300.047 301.129 305.347C301.115 310.463 301.604 315.605 302.409 320.655C303.099 324.981 304.102 328.924 306.089 332.853C306.617 333.897 307.725 335.587 306.951 336.764C306.248 337.833 304.41 337.71 303.373 337.291C302.419 336.905 301.971 336.033 301.157 335.482C299.652 334.461 297.765 335.257 296.117 335.003C293.476 334.596 292.049 331.904 291.273 329.613C290.622 327.692 289.838 324.904 290.353 322.857C290.547 322.088 291.297 321.543 292.006 322.154C293.027 323.035 293.173 325.312 293.093 326.525C292.943 328.793 291.669 330.98 290.427 332.826C289.334 334.45 288.108 334.842 286.351 335.405C285.467 335.688 284.734 336.251 283.879 336.603C283.01 336.962 282.097 337.201 281.177 337.392C279.936 337.649 278.666 337.833 277.401 337.926C276.329 338.006 276.334 336.335 277.401 336.256C278.834 336.149 280.274 335.923 281.666 335.567C283.503 335.096 285.046 334.051 286.872 333.536C287.994 333.22 288.606 332.578 289.224 331.599C289.928 330.485 290.672 329.28 291.096 328.025C291.502 326.826 291.52 325.626 291.198 324.403C291.132 324.153 290.804 323.54 290.835 323.348C290.839 323.323 291.972 323.153 291.988 323.193C292.02 323.274 291.938 323.837 291.942 324.083C291.951 324.625 292 325.168 292.073 325.705C292.26 327.089 292.593 328.482 293.106 329.782C293.549 330.905 294.176 332.132 295.181 332.855C296.562 333.848 298.384 333.146 299.958 333.353C301.25 333.523 302.187 334.067 303.074 334.991C303.399 335.329 303.672 335.645 304.131 335.795C304.391 335.88 304.671 335.9 304.943 335.896C305.06 335.894 305.499 335.925 305.594 335.814C305.56 335.854 305.493 336.006 305.54 335.812C305.671 335.274 304.868 334.133 304.647 333.696C304.076 332.568 303.51 331.44 303.032 330.268C302.268 328.398 301.798 326.439 301.401 324.463C300.442 319.701 299.866 314.838 299.592 309.989C299.307 304.947 299.281 299.753 301 294.937C302.52 290.679 305.149 286.702 308.655 283.82C310.68 282.156 312.609 280.44 314.556 278.688C315.437 277.894 316.898 276.406 318.233 276.987C320.213 277.85 317.496 280.343 316.773 281.088C314.55 283.377 312.12 285.479 309.668 287.517C307.883 289 305.99 290.822 303.884 291.847C300.805 293.348 302.206 286.736 302.371 285.583C302.738 283.026 303.308 280.45 303.413 277.865C303.493 275.924 303.366 273.973 303.218 272.038C302.923 268.201 302.329 264.369 302.203 260.522C302.176 259.705 302.035 258.429 302.718 257.822C303.486 257.14 304.634 257.685 305.405 258.065C308.774 259.725 311.743 262.298 314.827 264.414C317.742 266.413 320.89 268.065 323.973 269.787C327.706 271.873 331.619 274.049 335.82 275.013C337.401 275.376 339.06 275.538 340.579 274.861C342.333 274.079 343.888 272.816 345.319 271.559C349.089 268.244 352.383 264.326 355.257 260.22C357.929 256.402 359.914 252.201 362.352 248.24C364.903 244.098 367.654 240.08 370.456 236.105C372.326 233.454 374.263 230.847 376.095 228.169C378.392 224.812 380.747 221.498 383.509 218.501C385.253 216.608 387.141 214.853 389.192 213.298C391.319 211.684 393.684 210.45 395.882 208.942C400.587 205.713 404.822 201.8 408.719 197.643C411.971 194.176 414.958 190.607 417.192 186.39C419.563 181.914 421.384 177.183 423.346 172.522C424.164 170.579 425.021 168.737 426.478 167.178C427.832 165.728 429.521 164.598 431.329 163.794C432.306 163.36 433.661 162.675 434.766 162.678C436.071 162.682 435.844 163.962 435.087 164.542C434.093 165.305 432.877 165.846 431.725 166.318C430.626 166.768 429.163 167.363 427.955 167.012C426.469 166.58 426.433 164.707 426.486 163.434C426.591 160.893 427.276 158.383 427.785 155.903C428.719 151.361 430.613 147.045 432.486 142.822C434.4 138.505 436.325 134.356 439.33 130.686C442.162 127.228 445.396 124.061 448.82 121.192C451.149 119.24 453.548 117.161 456.645 116.71C460.551 116.142 465.217 116.438 468.956 117.773C472.505 119.039 476.191 123.254 475.646 127.229C475.44 128.732 474.568 130.185 473.851 131.495C472.901 133.229 471.866 134.918 470.794 136.579C469.933 137.915 469.055 139.25 468.084 140.51C467.458 141.323 466.944 141.933 465.843 141.479C463.346 140.452 461.571 138.157 458.952 137.283C457.849 136.914 456.709 136.813 455.56 136.685C454.908 136.612 454.389 136.494 454.04 135.884C453.296 134.586 454.001 132.456 454.318 131.14C454.795 129.16 455.369 127.207 455.832 125.223C456.274 123.33 457.008 121.437 458.583 120.203C460.251 118.896 462.526 118.416 464.603 118.67C468.377 119.131 474.17 122.023 474.156 126.441C474.148 128.854 473.022 131.211 472.071 133.374C471.218 135.314 470.371 137.239 469.656 139.235C468.217 143.252 466.947 147.371 466.085 151.554C465.75 153.181 465.409 154.892 465.503 156.563C465.601 158.305 465.942 160.028 466.021 161.779C466.213 166.042 466.096 170.776 464.372 174.751C463.795 176.081 463.004 177.303 462.435 178.644C461.674 180.435 461.023 182.274 460.391 184.113C458.744 188.91 457.286 193.772 455.86 198.638C453.453 206.847 451.224 215.074 449.229 223.392C447.181 231.93 445.224 240.503 442.804 248.945C441.952 251.918 441.074 254.92 439.829 257.757C438.92 259.83 437.638 261.755 436.494 263.702C432.516 270.474 428.539 277.246 424.685 284.09C422.765 287.5 420.869 290.926 419.067 294.4C417.828 296.79 416.559 299.206 415.656 301.747C413.133 308.84 411.671 316.411 410.238 323.784C409.608 327.027 408.98 330.292 408.611 333.577C408.524 334.353 408.398 335.176 408.477 335.959C408.47 335.885 408.35 335.899 408.605 336.012C409.018 336.195 409.504 336.229 409.948 336.248C413.383 336.395 417.01 335.133 420.051 333.655C422.152 332.633 424.151 331.374 425.932 329.859C427.654 328.395 429.039 326.662 430.524 324.973C432.12 323.157 433.859 321.303 436.156 320.401C438.362 319.535 440.864 319.483 443.19 319.202C447.97 318.624 453 317.913 457.515 316.196C460.029 315.24 462.746 313.597 461.083 310.681C459.622 308.117 457.064 306.175 454.947 304.181C454.518 303.776 454.102 303.279 453.604 302.955C453.306 302.762 453.113 302.709 453.068 302.724C453.247 302.664 453.054 302.813 452.974 303.086C452.838 303.549 452.841 304.053 452.848 304.531C452.895 307.866 453.994 311.267 455.106 314.376C456.649 318.689 458.692 322.862 461.267 326.654C463.522 329.975 466.487 333.821 470.518 335.006C473.705 335.942 476.976 334.816 479.946 333.658C484.074 332.048 488.1 330.235 492.387 329.065C497.805 327.587 503.387 327.093 508.983 327.518C513.783 327.882 518.509 328.842 523.294 329.331C528.588 329.871 533.818 329.636 538.965 328.216C540.003 327.929 540.446 329.54 539.41 329.826Z" fill="#0047FF"/>
<path d="M334.076 78.2062C333.703 77.7722 333.427 77.2511 333.117 76.7727C332.877 76.4024 332.629 76.0368 332.371 75.6786C332.303 75.5848 332.235 75.4914 332.166 75.3985C332.13 75.3507 332.095 75.3031 332.059 75.2556C332.014 75.197 331.92 75.0759 332.023 75.207C331.852 74.9885 331.679 74.7727 331.5 74.5608C331.111 74.0988 330.7 73.6545 330.268 73.233C330.036 73.0075 329.798 72.7885 329.554 72.5769C329.438 72.4765 329.321 72.3777 329.202 72.2807C329.142 72.2316 329.082 72.1832 329.021 72.1348C329.017 72.1315 328.916 72.0519 328.982 72.1038C329.045 72.1526 328.922 72.0582 328.911 72.0498C327.759 71.1839 326.498 70.493 325.231 70.0694C322.082 69.0165 318.464 69.207 315.343 70.4212C315.139 70.5006 315.056 70.5352 314.933 70.5903C314.763 70.6663 314.595 70.7443 314.428 70.8263C314.105 70.9847 313.788 71.1556 313.479 71.3384C313.183 71.513 312.894 71.6986 312.612 71.8946C312.486 71.982 312.361 72.0715 312.238 72.163C312.201 72.1907 312.058 72.2992 312.168 72.2148C312.089 72.2753 312.012 72.337 311.935 72.3994C311.474 72.7742 311.037 73.1781 310.627 73.6083C310.435 73.8094 310.25 74.016 310.071 74.2281C309.993 74.3211 309.915 74.4153 309.839 74.5105C309.82 74.5341 309.704 74.6822 309.777 74.589C309.845 74.5006 309.712 74.6757 309.685 74.7119C309.421 75.0671 309.176 75.4357 308.954 75.8182C308.905 75.903 308.856 75.9884 308.81 76.0747C308.774 76.1414 308.74 76.2088 308.708 76.2772C308.69 76.3144 308.672 76.3519 308.656 76.39C308.691 76.3067 308.662 76.382 308.647 76.4233C308.522 76.7811 308.428 77.1495 308.378 77.526C308.392 77.4234 308.367 77.6399 308.365 77.6695C308.356 77.7631 308.349 77.8566 308.344 77.9504C308.332 78.1589 308.328 78.368 308.33 78.5769C308.333 79.0135 308.364 79.4496 308.413 79.8832C308.504 80.6961 308.694 81.6039 308.901 82.4454C309.104 83.2669 309.34 84.0797 309.591 84.8876C309.699 85.236 309.806 85.5852 309.922 85.931C309.956 86.0334 309.993 86.1349 310.032 86.2356C310.046 86.2718 310.121 86.4579 310.078 86.3522C310.034 86.2464 310.118 86.4443 310.133 86.4779C310.684 87.7117 311.402 88.8745 312.127 90.0119C312.965 91.3269 313.852 92.6115 314.762 93.878C315.171 94.448 315.586 95.0139 316.006 95.5757C316.179 95.8072 316.354 96.0379 316.529 96.2679C316.574 96.3266 316.619 96.3853 316.664 96.4439C316.717 96.5127 316.768 96.5786 316.68 96.4656C316.754 96.5607 316.828 96.6556 316.902 96.7501C317.045 96.9325 317.184 97.1204 317.344 97.288C317.383 97.3289 317.426 97.3661 317.465 97.4066C317.575 97.5212 317.425 97.3882 317.452 97.4033C317.489 97.4237 317.534 97.4502 317.567 97.4763C317.702 97.5838 317.402 97.4117 317.554 97.4724C317.684 97.524 317.57 97.4735 317.573 97.4834C317.566 97.4515 317.46 97.4818 317.591 97.4726C317.645 97.4689 317.36 97.4989 317.516 97.4789C317.648 97.4621 317.575 97.4302 317.484 97.5034C317.553 97.4481 317.656 97.4046 317.733 97.3579C317.869 97.2753 317.684 97.4029 317.722 97.3667C317.768 97.3229 317.819 97.2839 317.866 97.2411C318.332 96.8135 318.733 96.3118 319.148 95.8367C319.737 95.1645 320.343 94.5091 320.994 93.8967C321.76 93.175 322.614 92.5599 323.391 91.8509C324.072 91.2288 324.704 90.5532 325.295 89.8451C326.38 88.5459 327.316 87.1172 328.232 85.6876C328.999 84.4923 329.742 83.2583 330.674 82.1821C331.795 80.8889 332.757 79.5118 333.551 77.9934C333.689 77.7305 333.824 77.4652 333.945 77.1942C334.129 76.7822 334.729 76.6845 335.088 76.8945C335.512 77.1426 335.572 77.6237 335.387 78.0373C334.916 79.0951 334.311 80.1083 333.663 81.0651C333.1 81.895 332.462 82.6526 331.813 83.4137C331.716 83.5265 331.623 83.642 331.531 83.7584C331.473 83.8324 331.546 83.7397 331.553 83.7302C331.531 83.7591 331.509 83.7879 331.488 83.8171C331.429 83.8965 331.37 83.9759 331.312 84.056C331.103 84.345 330.902 84.64 330.705 84.9371C328.707 87.9464 326.871 91.1092 324.074 93.4696C323.229 94.1823 322.371 94.8579 321.593 95.6467C320.997 96.2502 320.443 96.8902 319.885 97.5283C319.187 98.3266 318.24 99.4724 317.036 99.0575C316.487 98.8682 316.116 98.4346 315.769 97.9927C315.391 97.5118 315.019 97.0255 314.652 96.5362C313.751 95.336 312.874 94.117 312.026 92.8788C311.135 91.5791 310.268 90.2584 309.494 88.8854C308.834 87.7151 308.349 86.5253 307.953 85.2437C307.401 83.4587 306.927 81.6433 306.731 79.7812C306.56 78.1526 306.657 76.4629 307.488 75.0154C308.68 72.9382 310.487 71.1889 312.531 69.9581C315.582 68.1212 319.316 67.4336 322.838 67.8471C326.026 68.2213 328.906 69.656 331.235 71.8484C332.744 73.2685 333.936 74.949 335.041 76.6899C335.103 76.7867 335.164 76.8837 335.228 76.9787C335.254 77.0169 335.282 77.0538 335.307 77.0923C335.4 77.2354 335.159 76.9122 335.256 77.0255C335.55 77.3674 335.592 77.8709 335.256 78.2068C334.956 78.507 334.371 78.5498 334.076 78.2062Z" fill="#0047FF"/>
<path d="M302.682 122.084C302.655 122.063 302.628 122.042 302.601 122.02C302.484 121.927 302.792 122.165 302.645 122.054C302.557 121.988 302.469 121.92 302.38 121.854C302.14 121.675 301.897 121.499 301.653 121.324C300.968 120.835 300.271 120.361 299.565 119.903C298.708 119.347 297.835 118.814 296.943 118.316C296.484 118.059 296.02 117.812 295.549 117.577C295.318 117.462 295.085 117.35 294.851 117.242C294.748 117.195 294.646 117.149 294.543 117.103C294.492 117.08 294.441 117.058 294.389 117.036C294.139 116.927 294.534 117.094 294.284 116.991C293.457 116.649 292.608 116.367 291.724 116.221C291.937 116.256 291.686 116.218 291.629 116.213C291.537 116.204 291.446 116.198 291.354 116.195C291.025 116.184 290.694 116.196 290.366 116.215C289.858 116.245 289.554 116.271 289.03 116.423C288.955 116.444 288.882 116.468 288.809 116.493C288.776 116.505 288.743 116.52 288.709 116.53C288.545 116.581 288.841 116.455 288.751 116.512C288.643 116.58 288.517 116.626 288.406 116.691C288.25 116.783 288.102 116.889 287.939 116.969C287.401 117.232 286.733 117.227 286.208 116.924C285.8 116.688 285.519 116.281 285.255 115.905C285.117 115.709 284.984 115.51 284.846 115.315C284.777 115.216 284.706 115.119 284.634 115.022C284.61 114.99 284.585 114.96 284.562 114.927C284.501 114.842 284.674 115.062 284.604 114.982C284.544 114.912 284.489 114.838 284.431 114.767C284.226 114.521 284.008 114.286 283.776 114.065C283.652 113.946 283.524 113.831 283.392 113.721C283.362 113.696 283.156 113.531 283.228 113.587C283.331 113.666 283.158 113.535 283.155 113.533C283.109 113.5 283.064 113.467 283.018 113.435C282.657 113.181 282.277 112.958 281.883 112.762C281.774 112.708 281.665 112.656 281.554 112.606C281.503 112.583 281.453 112.56 281.402 112.538C281.514 112.586 281.381 112.531 281.365 112.524C281.1 112.417 280.831 112.321 280.559 112.234C279.37 111.856 278.138 111.669 276.899 111.559C275.804 111.461 274.699 111.423 273.603 111.519C273.482 111.529 273.361 111.541 273.241 111.555C273.189 111.561 273.136 111.568 273.084 111.575C273.119 111.57 273.238 111.55 273.074 111.577C272.837 111.617 272.602 111.656 272.368 111.709C271.953 111.802 271.544 111.923 271.147 112.077C271.105 112.094 271.063 112.111 271.021 112.128C270.895 112.18 271.198 112.042 271.002 112.138C270.922 112.177 270.84 112.213 270.759 112.252C270.581 112.341 270.406 112.437 270.236 112.54C270.067 112.643 269.905 112.754 269.744 112.869C269.708 112.895 269.673 112.921 269.638 112.948C269.777 112.843 269.679 112.916 269.652 112.94C269.568 113.012 269.482 113.08 269.399 113.154C269.095 113.424 268.814 113.72 268.555 114.035C268.518 114.08 268.482 114.126 268.445 114.171C268.367 114.269 268.521 114.068 268.447 114.17C268.383 114.257 268.319 114.343 268.257 114.431C268.129 114.612 268.008 114.798 267.892 114.987C267.374 115.832 266.967 116.729 266.65 117.557C265.695 120.054 265.553 122.614 266.444 125.111C267.236 127.332 268.775 129.3 270.176 131.233C271.551 133.129 272.823 134.928 274.543 136.551C275.522 137.475 276.601 138.245 277.665 139.062C278.771 139.912 279.816 140.833 280.869 141.747C281.71 142.475 282.419 143.128 283.385 143.657C283.469 143.702 283.555 143.746 283.641 143.788C283.682 143.808 283.724 143.827 283.766 143.845C283.603 143.775 283.717 143.824 283.752 143.835C283.852 143.864 283.949 143.902 284.051 143.927C284.089 143.936 284.13 143.941 284.168 143.952C284.324 143.998 284.004 143.963 284.174 143.952C284.243 143.947 284.325 143.947 284.395 143.952C284.491 143.958 284.251 144 284.438 143.939C284.48 143.925 284.524 143.91 284.567 143.898C284.672 143.87 284.426 143.977 284.518 143.917C284.578 143.878 284.807 143.697 284.662 143.838C285.081 143.431 285.437 142.953 285.802 142.498C286.313 141.863 286.816 141.222 287.318 140.58C288.576 138.972 289.659 137.565 290.905 135.942C292.647 133.672 294.376 131.392 296.149 129.145C298.175 126.577 300.21 124.015 302.245 121.453C302.391 121.27 302.536 121.087 302.682 120.904C302.962 120.55 303.569 120.61 303.863 120.904C304.212 121.253 304.144 121.731 303.863 122.085C302.141 124.252 300.42 126.419 298.703 128.589C297.824 129.7 296.942 130.809 296.073 131.927C296.043 131.965 296.014 132.003 295.985 132.041C295.854 132.209 296.056 131.948 295.993 132.03C295.911 132.136 295.829 132.243 295.747 132.349C295.548 132.608 295.35 132.866 295.152 133.125C294.635 133.799 294.118 134.474 293.601 135.149C291.287 138.17 288.997 141.216 286.591 144.164C286.125 144.735 285.674 145.311 284.934 145.535C284.019 145.812 283.054 145.42 282.279 144.946C281.271 144.33 280.375 143.526 279.487 142.753C278.448 141.849 277.417 140.929 276.304 140.116C275.173 139.291 274.072 138.432 273.07 137.452C272.227 136.627 271.463 135.731 270.742 134.799C269.964 133.794 269.23 132.756 268.481 131.728C267.734 130.703 266.968 129.693 266.308 128.608C264.986 126.434 264.091 123.983 264.156 121.409C264.22 118.876 265.129 116.297 266.45 114.144C267.398 112.598 268.7 111.312 270.383 110.599C272.285 109.792 274.408 109.705 276.445 109.851C278.87 110.026 281.385 110.432 283.482 111.742C284.74 112.527 285.681 113.587 286.514 114.797C286.578 114.89 286.642 114.984 286.707 115.076C286.737 115.119 286.768 115.161 286.798 115.204C286.938 115.401 286.789 115.187 286.785 115.191C286.779 115.195 286.938 115.374 286.955 115.392C286.979 115.417 287.006 115.441 287.03 115.467C287.14 115.587 287.087 115.456 286.983 115.438C287.008 115.442 287.046 115.482 287.07 115.493C287.204 115.557 286.867 115.451 286.969 115.454C287.01 115.455 287.077 115.481 287.113 115.491C287.302 115.545 286.933 115.503 287.108 115.491C287.144 115.488 287.196 115.482 287.232 115.489C287.316 115.506 286.976 115.538 287.172 115.489C287.349 115.444 287.076 115.483 287.096 115.526C287.096 115.528 287.207 115.469 287.215 115.464C288.694 114.548 290.527 114.346 292.232 114.621C294.207 114.939 296.098 115.928 297.824 116.895C299.469 117.817 301.056 118.849 302.588 119.948C303.019 120.258 303.448 120.572 303.862 120.904C304.215 121.185 304.156 121.791 303.862 122.085C303.515 122.433 303.036 122.367 302.682 122.084Z" fill="#0047FF"/>
<path d="M275.379 157.439C275.298 157.36 275.207 157.291 275.119 157.221C275.058 157.171 274.795 156.975 275.038 157.155C274.937 157.08 274.838 157.002 274.737 156.927C274.184 156.511 273.62 156.11 273.049 155.719C271.535 154.681 269.971 153.7 268.326 152.884C268.131 152.787 267.934 152.693 267.737 152.602C267.64 152.557 267.543 152.514 267.445 152.471C267.397 152.45 267.349 152.429 267.301 152.408C267.454 152.474 267.223 152.376 267.214 152.372C266.842 152.221 266.465 152.084 266.08 151.971C265.91 151.921 265.738 151.876 265.565 151.839C265.484 151.821 265.401 151.804 265.319 151.789C265.279 151.782 265.239 151.777 265.199 151.769C265.091 151.749 265.374 151.782 265.215 151.771C264.677 151.733 264.14 151.712 263.601 151.702C261.071 151.656 258.526 151.791 256.012 151.439C254.939 151.289 253.943 150.997 252.958 150.548C251.999 150.111 251.076 149.597 250.141 149.11C249.192 148.617 248.304 148.163 247.344 147.845C247.131 147.774 246.915 147.711 246.696 147.658C246.592 147.634 246.488 147.611 246.383 147.592C246.332 147.583 246.281 147.574 246.23 147.566C246.129 147.551 246.352 147.572 246.19 147.564C245.999 147.554 245.812 147.557 245.621 147.556C245.468 147.555 245.606 147.555 245.642 147.549C245.599 147.556 245.554 147.563 245.512 147.573C245.406 147.598 245.304 147.629 245.2 147.662C245.368 147.608 245.182 147.675 245.119 147.708C245.056 147.742 244.993 147.777 244.93 147.812C244.787 147.893 244.646 147.976 244.507 148.064C244.381 148.144 244.258 148.226 244.136 148.313C244.075 148.356 244.015 148.402 243.954 148.446C244.116 148.327 243.932 148.465 243.876 148.512C243.623 148.722 243.386 148.949 243.167 149.194C243.112 149.255 243.057 149.319 243.004 149.382C242.967 149.428 242.83 149.612 242.937 149.464C242.819 149.626 242.705 149.788 242.599 149.958C242.5 150.118 242.407 150.281 242.32 150.448C242.275 150.535 242.231 150.623 242.189 150.711C242.168 150.757 242.147 150.802 242.126 150.848C242.118 150.865 242.038 151.051 242.076 150.96C241.948 151.268 241.764 151.835 241.656 152.256C241.363 153.403 241.256 154.524 241.224 155.713C241.194 156.816 241.293 157.666 241.586 158.726C241.882 159.793 242.262 160.697 242.762 161.666C243.246 162.604 243.801 163.506 244.402 164.375C244.987 165.221 245.469 165.846 246.124 166.621C246.937 167.583 247.794 168.568 248.79 169.348C248.691 169.27 248.943 169.463 248.962 169.477C249.059 169.549 249.156 169.619 249.254 169.69C249.475 169.848 249.696 170.004 249.918 170.162C250.409 170.511 250.896 170.867 251.369 171.241C252.301 171.98 253.066 172.815 253.753 173.785C253.775 173.816 253.849 173.907 253.74 173.769C253.768 173.805 253.795 173.84 253.824 173.875C253.883 173.947 253.942 174.02 254.003 174.092C254.141 174.256 254.284 174.417 254.428 174.576C254.739 174.916 255.06 175.246 255.387 175.569C256.069 176.242 256.776 176.889 257.505 177.51C257.668 177.649 257.833 177.787 258 177.923C258.072 177.983 258.145 178.042 258.218 178.1C258.253 178.128 258.288 178.156 258.323 178.184C258.342 178.199 258.488 178.312 258.391 178.237C258.302 178.168 258.498 178.318 258.52 178.334C258.578 178.378 258.636 178.42 258.695 178.462C258.798 178.536 258.902 178.61 259.01 178.677C259.056 178.705 259.202 178.755 259.228 178.798C259.176 178.712 258.997 178.717 259.121 178.746C258.91 178.696 258.699 178.738 258.556 178.815C258.704 178.735 258.389 178.978 258.51 178.852C258.562 178.797 258.619 178.748 258.672 178.695C259.546 177.797 260.296 176.759 261.063 175.771C261.124 175.692 261.185 175.613 261.246 175.534C261.26 175.517 261.356 175.393 261.297 175.469C261.237 175.546 261.335 175.42 261.348 175.403C261.481 175.23 261.615 175.057 261.748 174.884C262.018 174.532 262.287 174.18 262.556 173.829C263.064 173.164 263.571 172.498 264.081 171.834C264.79 170.909 265.521 170.005 266.25 169.096C266.284 169.053 266.318 169.009 266.352 168.966C266.471 168.818 266.239 169.116 266.36 168.956C266.447 168.841 266.535 168.726 266.621 168.61C266.826 168.335 267.027 168.058 267.226 167.779C267.708 167.108 268.182 166.431 268.653 165.752C270.407 163.226 272.056 160.603 273.949 158.176C274.396 157.604 274.835 157.023 275.248 156.427C275.505 156.057 275.98 155.887 276.391 156.127C276.757 156.342 276.949 156.898 276.69 157.27C276.196 157.984 275.665 158.673 275.131 159.358C275.052 159.458 274.964 159.555 274.893 159.661C274.944 159.585 275.024 159.487 274.937 159.605C274.873 159.692 274.809 159.778 274.746 159.865C274.587 160.084 274.432 160.305 274.276 160.526C273.314 161.898 272.373 163.286 271.424 164.668C270.437 166.106 269.451 167.547 268.426 168.96C267.78 169.849 267.074 170.684 266.397 171.548C266.295 171.678 266.194 171.807 266.093 171.937C266.043 172.003 265.992 172.068 265.941 172.133C265.918 172.163 265.846 172.257 265.955 172.116C265.921 172.159 265.888 172.203 265.855 172.246C265.605 172.569 265.357 172.893 265.109 173.218C264.58 173.909 264.052 174.602 263.523 175.293C262.531 176.588 261.545 177.892 260.499 179.144C260.233 179.461 259.968 179.797 259.653 180.067C259.152 180.495 258.629 180.419 258.101 180.076C256.638 179.126 255.314 177.856 254.084 176.628C253.439 175.984 252.815 175.315 252.274 174.578C251.621 173.688 250.859 172.926 249.983 172.264C249.109 171.605 248.173 171.021 247.339 170.31C246.958 169.984 246.603 169.624 246.256 169.262C244.944 167.896 243.748 166.405 242.697 164.83C241.453 162.966 240.377 160.905 239.859 158.711C239.582 157.537 239.515 156.357 239.577 155.156C239.639 153.931 239.791 152.692 240.128 151.51C240.588 149.896 241.427 148.366 242.74 147.294C243.276 146.857 243.864 146.443 244.498 146.159C245.412 145.75 246.437 145.849 247.38 146.11C249.506 146.698 251.399 147.946 253.368 148.901C253.882 149.15 254.096 149.258 254.616 149.427C255.133 149.595 255.667 149.708 256.204 149.791C257.343 149.969 258.644 150.001 259.851 150.015C261.156 150.029 262.461 150.007 263.766 150.035C264.714 150.055 265.643 150.099 266.557 150.37C268.358 150.904 270.049 151.848 271.646 152.82C273.025 153.66 274.368 154.568 275.657 155.541C275.959 155.77 276.288 155.991 276.56 156.258C277.329 157.012 276.147 158.193 275.379 157.439Z" fill="#0047FF"/>
<path d="M1.47891 162.838C3.57303 165.191 6.05386 167.256 9.36438 167.154C11.6922 167.082 13.9182 166.214 16.2275 165.969C21.1151 165.45 26.9386 167.842 31.4558 165.162C35.9557 162.492 34.3054 156.749 31.0191 153.824C30.8403 153.665 30.4595 153.483 30.3207 153.293C30.3435 153.324 30.0366 153.121 30.0431 153.163C30.0779 153.382 30.6197 152.791 30.4923 152.762C30.4923 152.762 31.1112 154.663 31.1947 154.868C31.827 156.428 32.4223 158.021 33.3447 159.439C36.0524 163.6 41.2794 163.398 45.6418 162.578C51.361 161.503 57.1432 159.887 62.6852 158.095C70.4371 155.59 77.7963 152.353 84.9584 148.492C94.0931 143.567 103.046 138.303 111.965 133C115.454 130.926 118.934 128.838 122.411 126.743C123.555 126.054 124.707 125.375 125.843 124.672C128.952 122.752 131.732 120.385 134.726 118.303C137.285 116.523 140.042 115.13 143.126 114.551C145.513 114.103 147.954 113.911 150.376 113.773C155.201 113.499 160.331 113.257 165.114 114.121C167.561 114.563 168.971 116.425 166.918 118.436C165.074 120.243 162.698 121.616 160.567 123.042C158.187 124.634 155.556 126.487 152.7 127.109C151.696 127.328 149.893 127.239 150.296 125.705C150.727 124.067 153.373 123.101 154.632 122.382C157.732 120.611 160.745 118.691 163.819 116.876C166.455 115.319 169.228 114.034 171.884 112.527C174.899 110.818 177.534 108.267 180.111 105.985C183.986 102.556 187.769 99.0236 191.567 95.5098C195.304 92.0525 199.038 88.586 202.888 85.2543C205.518 82.978 208.231 80.4932 211.376 78.943C215.79 76.7672 220.743 75.6321 225.518 74.5656C231.362 73.2606 237.264 72.2331 243.16 71.1986C248.65 70.2357 254.09 69.0534 259.569 68.0524C266.206 66.8399 273.048 66.413 279.613 64.8442C284.235 63.7394 288.74 62.2941 293.429 61.4299C295.106 61.1207 297.043 60.6295 298.76 60.8608C300.184 61.0527 300.414 62.1546 300.176 63.4478C299.753 65.7439 297.682 67.2995 295.715 68.2762C292.72 69.763 289.29 70.2773 285.995 69.689C284.699 69.4577 281.631 68.7089 282.255 66.7694C282.926 64.6844 286.641 63.7267 288.439 63.2128C290.731 62.5578 293.236 62.0494 295.608 61.7893C297.565 61.575 299.734 61.7551 301.148 63.2898C302.967 65.2647 302.98 68.628 302.604 71.1102C302.207 73.73 300.988 76.0812 299.24 78.0528C297.97 79.485 296.487 80.7525 295.145 82.1205C293.408 83.8903 291.541 85.514 289.453 86.859C286.493 88.7643 283.216 89.9398 279.949 91.1957C276.546 92.5044 273.077 93.906 269.464 94.5197C267.117 94.9186 264.412 95.0431 262.405 93.5335C260.422 92.0418 259.019 89.3186 257.904 87.1598C257.256 85.9054 255.778 83.508 256.34 82.0024C257.082 80.0175 259.395 82.1956 260.168 82.924C261.99 84.6432 263.949 87.0305 263.604 89.7121C263.222 92.6903 260.192 94.2875 257.785 95.4987C254.839 96.9808 251.722 98.0893 248.641 99.2501C245.388 100.476 242.236 102.015 238.94 103.114C234.362 104.642 228.569 106.006 223.751 104.882C222.388 104.564 220.896 103.837 220.665 102.31C220.398 100.549 221.571 97.3392 223.324 96.5629C227.595 94.6726 225.86 104.968 225.583 106.507C224.745 111.157 223.351 115.866 220.008 119.334C216.869 122.591 213.329 125.504 209.75 128.26C206.393 130.845 202.741 133.739 198.693 135.153C195.325 136.329 191.912 133.806 191.904 130.187C191.901 128.882 192.803 127.649 194.183 128.39C195.167 128.919 196.173 130.273 196.743 131.213C199.022 134.977 196.958 140.243 195.586 143.926C193.565 149.354 190.036 153.942 186.399 158.385C182.314 163.374 177.914 168.139 174.215 173.43C172.666 175.646 171.178 177.991 170.23 180.535C168.93 184.024 168.174 187.734 167.527 191.391C167.058 194.042 166.796 196.835 165.911 199.391C165.414 200.827 164.595 202.39 163.007 202.817C161.39 203.253 159.83 202.154 158.677 201.151C157.011 199.701 155.646 197.866 154.435 196.031C153.562 194.709 149.569 189.24 153.009 188.481C154.683 188.112 156.451 189.403 157.498 190.56C159.408 192.671 159.959 195.371 160.862 197.98C162.713 203.324 166.588 207.005 171.855 209.088C176.137 210.781 181.125 210.955 185.664 211.189C191.609 211.496 197.569 211.466 203.52 211.381C208.767 211.307 214.041 211.03 219.288 211.209C225.717 211.429 231.813 212.98 237.601 215.775C240.933 217.384 244.127 219.275 247.272 221.218C249.871 222.824 252.225 224.729 254.221 227.05C257.318 230.651 259.599 234.987 260.868 239.563C261.201 240.765 261.577 242.1 261.577 243.359C261.578 245.054 259.841 246.121 258.486 246.793C255.48 248.283 252.635 248.203 249.421 247.657C246.743 247.201 243.563 247.306 241.091 246.054C239.094 245.043 239.4 243.257 239.223 241.328C239.03 239.221 238.636 236.701 239.669 234.739C240.937 232.333 244.188 232.396 246.557 232.416C249.067 232.439 251.527 232.919 254.034 232.605C257.42 232.182 262.864 231.131 264.317 235.368C265.225 238.014 264.692 241.693 263.853 244.304C263.189 246.372 261.979 248.509 259.883 249.381C258.227 250.07 256.299 249.683 254.593 249.405C251.917 248.97 249.273 248.343 246.625 247.768C244.211 247.243 241.763 246.65 239.296 246.444C235.551 246.131 231.597 246.447 227.89 247.011C226.255 247.26 224.677 247.631 223.027 247.748C221.271 247.873 219.509 247.917 217.75 247.955C208.42 248.159 199.055 248.093 189.73 247.735C179.932 247.357 170.15 248.062 160.4 249.06C153.792 249.736 147.227 250.652 140.724 252.019C134.759 253.274 128.917 254.95 123.063 256.633C113.547 259.368 103.473 259.768 93.6211 260.006C88.1378 260.138 82.6089 260.158 77.1448 259.618C71.4357 259.053 66.0536 257.6 60.6205 255.842C59.0298 255.328 57.4075 254.827 55.7232 254.785C52.5602 254.705 49.4494 255.591 46.3499 256.09C41.7328 256.833 37.0462 256.623 32.3853 256.623C31.3107 256.623 31.3088 254.953 32.3853 254.953C36.8041 254.953 41.2856 255.203 45.6635 254.517C50.3559 253.783 54.8847 252.434 59.5844 253.774C64.2219 255.096 68.6583 256.702 73.4516 257.467C78.5415 258.279 83.7182 258.41 88.8638 258.399C94.3533 258.388 99.8452 258.171 105.32 257.77C109.53 257.461 113.806 257.14 117.945 256.272C122.372 255.343 126.689 253.797 131.056 252.623C137.172 250.978 143.379 249.647 149.644 248.715C160.398 247.114 171.342 246.163 182.213 245.913C189.342 245.749 196.51 246.281 203.644 246.341C208.2 246.378 212.757 246.385 217.312 246.294C220.23 246.235 223.115 246.18 225.985 245.647C231.711 244.583 237.663 244.292 243.396 245.393C247.988 246.275 252.647 247.823 257.335 248.068C262.581 248.343 263.686 240.201 262.87 236.389C261.997 232.313 255.871 234.146 253.064 234.386C250.6 234.597 248.124 234.016 245.651 234.098C244.375 234.139 242.342 234.031 241.416 235.095C240.711 235.905 240.688 237.229 240.689 238.234C240.69 239.269 240.8 240.299 240.894 241.328C240.962 242.072 240.769 243.458 241.183 244.074C241.704 244.847 243.133 245.025 243.968 245.189C245.411 245.473 246.881 245.616 248.337 245.817C249.833 246.023 251.352 246.458 252.862 246.469C254.629 246.481 256.437 246.012 257.99 245.172C259.349 244.436 260.031 244.005 259.828 242.577C259.312 238.957 257.786 235.369 255.923 232.254C254.547 229.953 252.874 227.839 250.911 226.012C248.474 223.745 245.573 222.095 242.713 220.427C237.451 217.355 231.958 214.693 225.926 213.57C220.788 212.614 215.541 212.839 210.343 212.934C205.004 213.032 199.665 213.138 194.326 213.095C189.144 213.054 183.932 212.929 178.785 212.288C174.533 211.759 170.758 210.772 167.091 208.475C163.092 205.971 160.632 202.53 159.14 198.097C158.299 195.596 157.764 192.866 155.643 191.08C155.137 190.654 154.262 190.008 153.545 190.098C153.135 190.15 153.281 190.062 153.357 190.473C153.641 192.001 154.879 193.648 155.703 194.921C156.857 196.702 158.156 198.465 159.753 199.877C160.805 200.807 162.308 201.919 163.473 200.573C164.706 199.149 164.918 196.681 165.235 194.912C166.29 189.022 167.045 182.81 169.807 177.418C172.252 172.644 175.797 168.447 179.221 164.356C182.959 159.89 186.883 155.528 190.159 150.7C193.077 146.398 195.614 141.084 196.007 135.83C196.11 134.454 195.977 133.095 195.213 131.916C194.925 131.473 194.572 131.085 194.213 130.699C194.038 130.512 193.764 130.315 193.64 130.096C193.576 129.983 193.422 129.924 193.34 129.833C193.395 129.894 193.616 129.553 193.628 129.731C193.736 131.44 194.231 133.269 196.174 133.78C197.408 134.105 198.765 133.383 199.84 132.843C203.799 130.856 207.405 128.064 210.838 125.291C213.864 122.847 216.939 120.303 219.536 117.394C222.635 113.924 223.702 108.554 224.284 104.075C224.421 103.019 224.52 101.952 224.54 100.886C224.551 100.326 224.711 98.4615 224.147 98.1384C223.489 97.762 221.564 101.738 222.775 102.722C224.09 103.791 226.653 103.573 228.211 103.501C230.808 103.38 233.392 102.92 235.905 102.268C238.744 101.531 241.355 100.351 244.062 99.2482C247.114 98.005 250.231 96.9283 253.286 95.6932C254.66 95.1378 256.017 94.5377 257.334 93.8565C258.804 93.0965 260.527 92.2662 261.444 90.8297C263.174 88.1218 260.235 85.0824 258.269 83.4561C257.936 83.1809 257.31 83.0133 257.689 82.7138C258.104 82.3856 257.885 82.8169 258.017 83.1146C258.487 84.1729 258.809 85.2738 259.347 86.3163C260.38 88.3159 261.768 91.2704 263.775 92.4456C266.143 93.8324 269.477 92.9268 271.919 92.238C275.277 91.2906 278.515 89.957 281.77 88.7135C284.78 87.5637 287.66 86.2269 290.245 84.28C291.935 83.0075 293.407 81.5069 294.879 79.9962C296.172 78.6693 297.64 77.5116 298.759 76.0222C300.49 73.718 301.247 70.9507 301.071 68.0815C300.91 65.4657 299.928 63.4557 297.1 63.3791C295.021 63.3228 292.929 63.9549 290.902 64.3466C289.478 64.622 288.074 65.0153 286.726 65.556C286.065 65.8211 285.4 66.1264 284.794 66.5032C284.591 66.6288 284.409 66.7762 284.21 66.9036C283.886 67.1104 283.917 67.213 283.908 67.1876C284.126 67.851 286.48 68.0978 287.026 68.1654C288.866 68.3934 290.776 68.2353 292.557 67.7284C294.716 67.1139 298.226 65.6313 298.567 63.0031C298.598 62.7608 298.59 62.5073 298.558 62.2661C298.601 62.5822 298.907 62.4148 298.622 62.5159C298.029 62.7267 296.974 62.5613 296.326 62.6435C291.886 63.2072 287.458 64.3513 283.158 65.5696C278.301 66.9456 273.395 67.6044 268.401 68.3216C262.356 69.19 256.416 70.4733 250.418 71.5911C245.293 72.5462 240.148 73.3912 235.024 74.3456C229.756 75.3268 224.479 76.3702 219.321 77.8339C215.809 78.8302 212.33 79.99 209.348 82.1477C202.424 87.1583 196.3 93.4096 190.039 99.1991C186.692 102.294 183.345 105.394 179.905 108.385C177.636 110.358 175.305 112.524 172.668 114.004C170.249 115.36 167.73 116.523 165.329 117.926C162.407 119.635 159.544 121.442 156.625 123.157C155.566 123.779 154.473 124.344 153.42 124.976C153.02 125.215 152.656 125.482 152.287 125.763C152.224 125.811 152.059 126.039 151.984 126.059C151.943 126.1 151.911 126.147 151.886 126.201C151.962 125.97 151.882 125.765 151.646 125.587C151.677 125.523 152.95 125.309 153.124 125.25C154.61 124.752 156.008 123.961 157.341 123.149C159.906 121.587 162.502 119.887 164.856 118.014C165.313 117.65 165.894 117.245 166.207 116.74C166.399 116.429 166.405 116.52 166.239 116.306C165.643 115.535 163.783 115.591 162.937 115.513C160.684 115.306 158.414 115.263 156.152 115.271C151.425 115.288 146.261 115.25 141.689 116.606C135.728 118.375 131.169 123.413 125.941 126.567C111.763 135.121 97.5887 143.787 82.913 151.47C76.46 154.849 69.6968 157.617 62.7533 159.826C57.7053 161.432 52.5104 162.791 47.34 163.93C43.1831 164.846 37.9979 165.564 34.3066 162.875C31.7928 161.044 30.7107 158.085 29.586 155.311C29.2111 154.387 28.2759 152.741 29.1919 151.834C30.0149 151.02 31.2044 151.81 31.8982 152.379C34.4753 154.495 36.4703 158.338 35.8509 161.715C34.983 166.447 30.0564 168.018 25.8507 168.022C23.4523 168.024 21.0742 167.674 18.6807 167.58C16.595 167.498 14.6663 167.911 12.6409 168.349C10.7672 168.754 8.8587 169.029 6.96277 168.593C4.25369 167.97 2.09738 166.038 0.300232 164.018C-0.414825 163.219 0.76236 162.033 1.47891 162.838Z" fill="#0047FF"/>
<path d="M223.353 109.4C224.589 108.218 226.441 107.553 228.036 107.08C231.928 105.926 235.968 106.062 239.98 105.997C244.071 105.931 248.16 105.81 252.249 105.689C256.498 105.564 260.747 105.429 264.996 105.327C269.061 105.229 273.123 105.2 277.188 105.224C279.894 105.239 282.602 105.276 285.305 105.42C287.514 105.537 289.738 105.712 291.913 106.133C296.151 106.953 299.921 109.243 304.086 110.299C304.864 110.496 305.432 110.628 306.248 110.495C307.308 110.323 308.316 109.871 309.201 109.268C309.479 109.078 309.727 108.878 309.975 108.603C310.081 108.487 309.909 108.731 309.995 108.569C309.984 108.59 309.957 108.666 309.957 108.72C309.956 108.855 310.183 109.335 310.3 109.424C310.24 109.378 310.373 109.491 310.355 109.445C310.379 109.507 310.456 109.469 310.331 109.447C310.228 109.429 310.126 109.406 310.022 109.389C309.988 109.384 310.172 109.403 309.999 109.388C309.918 109.381 309.836 109.371 309.755 109.364C309.391 109.331 309.026 109.312 308.661 109.299C307.827 109.269 306.991 109.269 306.158 109.311C305.97 109.32 305.782 109.332 305.595 109.348C305.515 109.354 305.435 109.361 305.356 109.369C305.318 109.373 305.28 109.378 305.242 109.382C305.076 109.398 305.314 109.369 305.218 109.383C305.098 109.401 304.979 109.42 304.861 109.448C304.814 109.459 304.766 109.478 304.718 109.485C304.602 109.503 304.789 109.441 304.815 109.418C304.992 109.269 305.085 109.031 305.062 108.799C305.058 108.757 304.949 108.501 305.01 108.609C305.081 108.733 304.93 108.525 304.974 108.563C305.022 108.604 305.064 108.658 305.11 108.702C305.313 108.896 305.537 109.07 305.753 109.25C306.324 109.724 306.875 110.227 307.287 110.852C307.741 111.543 307.919 112.387 307.67 113.187C307.411 114.021 307.225 114.896 306.922 115.714C306.607 116.566 306.084 117.221 305.306 117.699C304.222 118.366 302.912 118.77 301.71 119.17C301.088 119.378 300.461 119.575 299.826 119.742C298.786 120.017 298.342 118.406 299.382 118.132C300.061 117.953 300.732 117.74 301.397 117.516C302.46 117.157 303.81 116.768 304.664 116.13C305.002 115.877 305.089 115.743 305.273 115.366C305.315 115.28 305.275 115.368 305.268 115.383C305.284 115.346 305.298 115.308 305.312 115.27C305.339 115.192 305.366 115.114 305.392 115.034C305.454 114.836 305.507 114.634 305.559 114.432C305.682 113.959 305.804 113.487 305.961 113.024C306.023 112.841 306.103 112.658 306.129 112.466C306.107 112.627 306.118 112.384 306.117 112.341C306.116 112.244 306.125 112.361 306.127 112.376C306.12 112.327 306.11 112.276 306.096 112.229C306.085 112.187 306.017 111.981 306.041 112.041C306.067 112.104 305.984 111.93 305.966 111.898C305.928 111.829 305.887 111.762 305.844 111.696C305.769 111.583 305.736 111.543 305.734 111.541C305.51 111.266 305.252 111.02 304.986 110.784C304.535 110.385 303.962 110.035 303.621 109.527C303.16 108.839 303.527 108.108 304.273 107.875C304.924 107.671 305.665 107.66 306.341 107.632C307.204 107.596 308.07 107.6 308.933 107.64C309.547 107.668 310.235 107.668 310.826 107.852C311.771 108.145 311.746 109.082 311.196 109.737C310.617 110.426 309.765 110.943 308.966 111.334C307.941 111.834 306.788 112.22 305.636 112.213C304.772 112.208 303.901 111.996 303.077 111.756C300.897 111.12 298.806 110.194 296.69 109.378C294.723 108.62 292.746 107.939 290.66 107.601C288.384 107.233 286.067 107.11 283.767 107.021C278.912 106.833 274.041 106.838 269.184 106.912C265.142 106.974 261.101 107.097 257.06 107.217C252.662 107.347 248.264 107.486 243.866 107.589C241.992 107.634 240.118 107.672 238.244 107.692C236.135 107.714 234.027 107.683 231.931 107.963C230.181 108.196 228.444 108.611 226.808 109.278C226.657 109.339 226.885 109.243 226.74 109.307C226.666 109.339 226.592 109.372 226.518 109.405C226.39 109.463 226.263 109.524 226.138 109.586C225.913 109.697 225.691 109.814 225.473 109.94C225.183 110.108 224.919 110.311 224.636 110.489C224.614 110.502 224.819 110.335 224.673 110.461C224.647 110.483 224.621 110.505 224.595 110.526C224.573 110.544 224.553 110.563 224.533 110.582C223.757 111.324 222.574 110.145 223.353 109.4Z" fill="#0047FF"/>
<path d="M270.582 134.04C269.017 134.037 267.453 134.025 265.888 134.011C262.588 133.982 259.288 133.937 255.989 133.859C252.942 133.788 249.887 133.721 246.848 133.484C246.014 133.419 245.123 133.387 244.314 133.159C242.77 132.724 242.348 131.022 242.334 129.607C242.327 128.84 242.425 128.061 242.595 127.314C242.721 126.766 242.887 126.17 243.201 125.698C243.644 125.032 244.562 124.823 245.048 125.583C245.403 126.138 245.407 126.93 245.357 127.562C245.195 129.574 244.361 131.553 243.3 133.25C242.204 135.004 240.71 136.682 238.812 137.581C237.631 138.14 236.365 138.524 235.113 138.885C233.355 139.394 231.575 139.829 229.79 140.235C225.781 141.148 221.733 141.919 217.664 142.515C215.974 142.763 214.276 142.989 212.572 143.117C210.765 143.254 208.883 143.27 207.117 142.824C206.444 142.655 205.811 142.377 205.185 142.08C205.065 142.023 204.945 141.966 204.824 141.912C204.733 141.871 204.626 141.831 204.791 141.895C204.71 141.864 204.63 141.831 204.548 141.801C204.232 141.685 203.906 141.6 203.574 141.542C203.522 141.533 203.263 141.499 203.445 141.521C203.342 141.508 203.239 141.498 203.136 141.489C202.887 141.469 202.636 141.459 202.386 141.456C201.653 141.448 200.919 141.476 200.189 141.53C199.088 141.61 198.051 141.748 196.967 141.977C196.572 142.06 196.174 142.149 195.788 142.269C194.759 142.591 194.32 140.979 195.344 140.659C196.759 140.216 198.284 140.024 199.754 139.894C201.713 139.721 203.739 139.625 205.575 140.429C205.82 140.536 206.06 140.655 206.303 140.768C206.366 140.797 206.43 140.826 206.493 140.855C206.573 140.89 206.713 140.944 206.543 140.878C206.699 140.939 206.854 141 207.013 141.053C207.935 141.362 208.708 141.448 209.651 141.495C211.143 141.571 212.627 141.463 214.111 141.304C214.52 141.26 214.929 141.212 215.338 141.161C215.534 141.137 215.729 141.112 215.925 141.086C215.978 141.079 216.031 141.072 216.085 141.065C216.049 141.07 215.934 141.085 216.104 141.062C216.226 141.045 216.349 141.029 216.471 141.012C217.403 140.882 218.333 140.739 219.261 140.588C221.233 140.268 223.199 139.908 225.158 139.517C228.702 138.809 232.261 138.042 235.714 136.961C236.305 136.776 236.895 136.579 237.472 136.352C237.555 136.319 237.894 136.172 237.641 136.285C237.757 136.233 237.873 136.184 237.987 136.13C238.321 135.97 238.641 135.783 238.948 135.576C240.585 134.469 241.832 132.698 242.697 130.87C243.055 130.115 243.375 129.227 243.566 128.329C243.588 128.227 243.608 128.126 243.626 128.024C243.633 127.984 243.673 127.721 243.662 127.804C243.651 127.888 243.676 127.677 243.68 127.631C243.69 127.518 243.698 127.405 243.701 127.292C243.706 127.135 243.702 126.979 243.694 126.822C243.691 126.783 243.685 126.744 243.683 126.705C243.679 126.589 243.714 126.87 243.691 126.759C243.676 126.685 243.666 126.611 243.647 126.538C243.635 126.49 243.611 126.44 243.603 126.391C243.584 126.276 243.701 126.588 243.632 126.468C243.605 126.422 243.736 126.582 243.771 126.609C243.868 126.682 244.049 126.752 244.172 126.751C244.241 126.751 244.583 126.621 244.496 126.675C244.548 126.642 244.681 126.516 244.58 126.621C244.515 126.69 244.698 126.419 244.634 126.554C244.613 126.598 244.58 126.64 244.556 126.683C244.532 126.728 244.511 126.775 244.487 126.82C244.397 126.994 244.521 126.707 244.487 126.818C244.449 126.943 244.396 127.064 244.358 127.189C244.263 127.492 244.19 127.803 244.132 128.116C244.118 128.188 244.106 128.26 244.094 128.332C244.083 128.4 244.054 128.621 244.077 128.428C244.055 128.613 244.035 128.797 244.023 128.983C243.999 129.33 243.995 129.679 244.02 130.027C244.026 130.111 244.036 130.195 244.044 130.279C244.054 130.4 244.018 130.123 244.038 130.242C244.045 130.282 244.051 130.322 244.058 130.363C244.087 130.527 244.125 130.69 244.175 130.85C244.195 130.912 244.22 130.973 244.24 131.035C244.274 131.142 244.167 130.89 244.219 130.987C244.236 131.018 244.248 131.052 244.266 131.083C244.3 131.144 244.334 131.204 244.37 131.265C244.383 131.286 244.4 131.306 244.412 131.328C244.484 131.456 244.291 131.232 244.406 131.317C244.451 131.351 244.509 131.413 244.545 131.456C244.625 131.553 244.399 131.387 244.553 131.457C244.578 131.469 244.785 131.579 244.65 131.519C244.522 131.461 244.693 131.531 244.729 131.54C244.848 131.571 244.967 131.598 245.088 131.621C245.165 131.635 245.242 131.647 245.318 131.659C245.361 131.665 245.403 131.671 245.445 131.677C245.633 131.706 245.28 131.659 245.393 131.671C245.608 131.692 245.822 131.721 246.037 131.742C248.755 132.011 251.5 132.069 254.229 132.144C257.531 132.236 260.835 132.287 264.138 132.323C266.185 132.346 268.231 132.362 270.278 132.369C270.379 132.369 270.48 132.37 270.581 132.37C271.656 132.372 271.658 134.043 270.582 134.04Z" fill="#0047FF"/>
<path d="M238.605 136.232C240.738 137.658 242.888 139.061 245.051 140.441C246.603 141.431 248.16 142.412 249.747 143.345C250.35 143.699 250.957 144.049 251.579 144.368C252.535 144.856 253.4 145.431 254.167 146.189C255.368 147.375 256.36 148.847 257.012 150.407C257.186 150.824 256.824 151.326 256.428 151.435C255.947 151.567 255.576 151.269 255.401 150.851C255.582 151.286 255.384 150.824 255.336 150.725C255.207 150.457 255.067 150.195 254.92 149.937C254.71 149.567 254.482 149.207 254.239 148.858C253.944 148.435 253.746 148.181 253.364 147.764C252.626 146.956 251.891 146.385 250.912 145.899C250.344 145.616 249.791 145.303 249.242 144.985C246.134 143.183 243.124 141.207 240.122 139.236C239.334 138.718 238.546 138.199 237.762 137.675C237.388 137.424 237.225 136.938 237.462 136.532C237.68 136.16 238.229 135.98 238.605 136.232Z" fill="#0047FF"/>
<path d="M254.133 176.678C254.184 176.717 254.558 176.897 254.409 176.854C254.348 176.837 254.288 176.814 254.227 176.795C254.039 176.735 253.85 176.679 253.661 176.622C253.046 176.437 252.429 176.254 251.814 176.066C250.191 175.571 248.57 175.057 246.982 174.455C245.822 174.015 244.687 173.545 243.668 172.831C242.561 172.055 241.514 171.191 240.476 170.326C238.026 168.284 235.654 166.153 233.205 164.11C232.727 163.712 232.244 163.319 231.755 162.934C231.635 162.84 231.889 163.035 231.724 162.911C231.674 162.873 231.625 162.835 231.575 162.798C231.482 162.728 231.389 162.658 231.295 162.59C231.13 162.472 230.964 162.355 230.793 162.247C230.334 161.957 229.871 161.693 229.438 161.362C228.773 160.855 228.146 160.304 227.571 159.697C226.501 158.567 225.394 157.147 225.15 155.564C225.032 154.796 225.117 153.989 225.561 153.33C226.096 152.534 226.971 151.975 227.883 151.709C229.177 151.33 231.718 151.552 231.761 153.374C231.782 154.257 230.986 154.888 230.26 155.221C229.414 155.61 228.505 155.874 227.642 156.224C223.847 157.762 219.985 159.689 215.813 159.828C213.641 159.901 211.491 159.229 209.405 158.705C207.208 158.153 204.995 157.551 202.74 157.283C201.732 157.162 200.709 157.105 199.696 157.193C198.731 157.277 197.63 157.613 196.63 157.932C194.934 158.473 193.466 159.17 191.861 159.962C189.212 161.27 186.301 161.882 183.426 162.489C183.166 162.544 182.907 162.598 182.646 162.65C182.205 162.738 181.745 162.523 181.619 162.066C181.506 161.655 181.758 161.128 182.202 161.039C184.573 160.566 186.978 160.06 189.268 159.281C189.409 159.234 189.548 159.184 189.687 159.132C189.755 159.106 189.823 159.078 189.891 159.053C190.03 159.001 189.758 159.116 189.93 159.037C190.249 158.89 190.566 158.742 190.88 158.587C191.55 158.259 192.214 157.92 192.891 157.608C194.722 156.765 196.7 155.998 198.692 155.652C200.742 155.297 202.836 155.558 204.864 155.939C207.088 156.357 209.272 156.963 211.471 157.496C212.416 157.725 213.489 158.017 214.382 158.111C215.283 158.205 216.252 158.171 217.116 158.046C219.133 157.753 221.085 157.085 222.977 156.348C224.722 155.668 226.428 154.888 228.18 154.227C228.572 154.08 228.98 153.965 229.365 153.802C229.542 153.727 229.716 153.635 229.877 153.53C229.919 153.502 230.061 153.382 229.958 153.475C230.013 153.425 230.151 153.254 230.047 153.41C230.073 153.37 230.154 153.2 230.109 153.323C230.065 153.44 230.092 153.356 230.099 153.331C230.12 153.262 230.078 153.291 230.1 153.352C230.097 153.374 230.093 153.396 230.09 153.418C230.088 153.351 230.091 153.359 230.1 153.441C230.082 153.517 230.12 153.527 230.101 153.466C230.072 153.369 230.205 153.628 230.095 153.461C230.077 153.434 230.025 153.384 230.103 153.469C230.208 153.585 230.101 153.486 230.103 153.479C230.105 153.474 230.023 153.405 230.026 153.41C230.029 153.412 230.165 153.504 230.087 153.458C230.029 153.425 229.967 153.391 229.912 153.355C229.897 153.345 229.799 153.299 229.899 153.345C230.002 153.392 229.872 153.335 229.85 153.328C229.705 153.284 229.563 153.246 229.414 153.217C229.591 153.251 229.348 153.212 229.3 153.209C229.195 153.203 229.09 153.202 228.984 153.206C228.665 153.217 228.379 153.268 227.984 153.438C228.038 153.414 227.835 153.515 227.799 153.535C227.713 153.582 227.63 153.632 227.548 153.685C227.377 153.796 227.258 153.898 227.111 154.046C227.068 154.088 226.973 154.207 227.061 154.09C227.014 154.152 226.971 154.218 226.932 154.285C226.899 154.342 226.87 154.4 226.841 154.458C226.788 154.565 226.883 154.323 226.853 154.438C226.842 154.478 226.826 154.518 226.815 154.559C226.794 154.631 226.781 154.704 226.765 154.777C226.797 154.634 226.769 154.722 226.766 154.811C226.764 154.888 226.761 154.964 226.764 155.041C226.765 155.087 226.79 155.326 226.776 155.231C226.761 155.126 226.796 155.327 226.803 155.358C226.82 155.44 226.841 155.52 226.863 155.6C226.91 155.767 226.968 155.931 227.034 156.09C226.978 155.954 227.074 156.171 227.093 156.209C227.127 156.281 227.163 156.351 227.201 156.422C227.296 156.603 227.4 156.78 227.51 156.953C227.609 157.108 227.713 157.26 227.82 157.409C227.965 157.611 227.974 157.621 228.113 157.791C228.615 158.405 229.175 158.973 229.772 159.495C229.904 159.61 230.039 159.723 230.175 159.834C230.207 159.86 230.399 160.011 230.281 159.919C230.349 159.973 230.419 160.024 230.49 160.076C230.741 160.26 231 160.435 231.269 160.59C232.097 161.069 232.844 161.669 233.585 162.27C235.92 164.162 238.156 166.176 240.445 168.123C241.019 168.611 241.595 169.097 242.177 169.576C242.44 169.791 242.704 170.006 242.969 170.218C243.09 170.315 243.211 170.411 243.332 170.506C243.395 170.556 243.458 170.606 243.522 170.655C243.672 170.773 243.482 170.626 243.59 170.708C244.397 171.322 245.202 171.894 246.128 172.313C246.207 172.349 246.288 172.385 246.368 172.42C246.403 172.435 246.624 172.528 246.492 172.473C246.669 172.547 246.847 172.619 247.025 172.689C247.392 172.833 247.762 172.971 248.133 173.105C248.925 173.39 249.724 173.656 250.525 173.914C251.798 174.322 253.08 174.7 254.359 175.088C254.699 175.19 255.031 175.274 255.314 175.496C255.669 175.774 255.605 176.385 255.314 176.677C254.963 177.029 254.49 176.956 254.133 176.678Z" fill="#0047FF"/>
<path d="M237.762 168.002C237.863 168.079 238.137 168.125 238.23 168.066C238.174 168.101 238.067 168.116 238.003 168.138C237.796 168.208 238.126 168.08 238.029 168.126C237.974 168.152 237.918 168.175 237.863 168.2C237.733 168.259 237.604 168.319 237.474 168.379C236.689 168.737 235.889 169.064 235.055 169.288C232.454 169.988 229.699 169.731 227.21 168.732C225.754 168.147 224.33 167.478 222.92 166.793C222.415 166.547 221.911 166.297 221.404 166.054C221.196 165.954 220.988 165.855 220.778 165.758C220.684 165.716 220.591 165.673 220.497 165.632C220.436 165.605 220.375 165.579 220.314 165.552C220.152 165.48 220.453 165.605 220.275 165.536C219.901 165.388 219.527 165.245 219.139 165.138C218.973 165.093 218.805 165.052 218.636 165.019C218.543 165 218.448 164.987 218.354 164.969C218.163 164.931 218.501 164.985 218.375 164.97C218.317 164.964 218.259 164.957 218.201 164.951C217.788 164.911 217.371 164.909 216.956 164.935C216.734 164.949 216.513 164.973 216.292 164.999C216.129 165.018 216.258 165.004 216.291 164.999C216.215 165.01 216.138 165.022 216.062 165.034C215.936 165.053 215.811 165.073 215.686 165.093C214.065 165.346 212.451 165.55 210.808 165.519C208.234 165.471 205.669 165.163 203.104 164.98C200.441 164.79 197.756 164.706 195.093 164.937C194.617 164.978 194.142 165.03 193.668 165.092C193.867 165.066 193.588 165.104 193.525 165.113C193.427 165.127 193.33 165.141 193.233 165.156C193.002 165.191 192.772 165.229 192.543 165.269C191.48 165.454 190.43 165.729 189.345 165.746C187.924 165.768 186.502 165.381 185.084 165.528C184.514 165.587 183.955 165.871 183.415 166.254C182.712 166.752 182 167.237 181.297 167.734C180.688 168.165 180.085 168.605 179.517 169.088C178.966 169.557 178.488 170.091 177.961 170.584C177.025 171.459 175.956 172.205 174.867 172.877C174.669 172.999 174.469 173.12 174.266 173.234C173.328 173.761 172.485 172.318 173.423 171.791C174.155 171.381 174.86 170.915 175.538 170.422C176.655 169.608 177.56 168.533 178.64 167.654C179.964 166.577 181.393 165.62 182.797 164.651C184.025 163.804 185.473 163.763 186.905 163.905C187.64 163.978 188.374 164.07 189.113 164.076C189.748 164.081 190.348 163.995 190.968 163.871C191.841 163.696 192.718 163.547 193.601 163.43C195.923 163.122 198.268 163.082 200.606 163.171C203.585 163.284 206.548 163.638 209.525 163.799C210.355 163.844 211.188 163.871 212.02 163.84C212.383 163.826 212.746 163.801 213.107 163.767C213.294 163.749 213.481 163.729 213.668 163.707C213.755 163.697 213.843 163.686 213.93 163.675C213.98 163.668 214.029 163.662 214.079 163.655C213.844 163.686 214.062 163.658 214.101 163.652C215.949 163.392 217.74 163.019 219.583 163.528C220.471 163.772 221.317 164.166 222.146 164.562C223.278 165.104 224.398 165.668 225.538 166.192C226.996 166.861 228.461 167.526 230.044 167.837C230.675 167.962 231.273 168.02 231.94 168.024C232.229 168.026 232.518 168.016 232.806 167.995C232.936 167.985 233.066 167.973 233.196 167.959C233.203 167.958 233.48 167.921 233.308 167.946C233.39 167.934 233.471 167.922 233.552 167.908C234.47 167.755 235.354 167.477 236.213 167.124C235.98 167.219 236.269 167.099 236.314 167.079C236.391 167.045 236.468 167.011 236.544 166.976C236.679 166.915 236.814 166.852 236.948 166.791C237.195 166.678 237.444 166.552 237.705 166.476C237.981 166.396 238.362 166.373 238.606 166.56C238.962 166.835 239.153 167.278 238.905 167.703C238.7 168.054 238.122 168.279 237.762 168.002Z" fill="#0047FF"/>
<path d="M462.655 117.103C466.333 111.691 469.998 106.27 473.656 100.844C480.158 91.2028 486.65 81.5532 493.037 71.8342C495.212 68.5238 497.398 65.2158 499.468 61.8377C499.916 61.1054 500.445 60.3554 500.773 59.5565C500.646 59.8657 500.836 59.2608 500.863 59.1401C500.976 58.6224 501.025 58.0901 501.066 57.5625C501.178 56.1065 501.166 54.6384 501.074 53.1817C500.85 49.6617 500.178 45.8474 498.199 42.8559C497.292 41.486 496.601 40.9678 495.291 40.1941C492.503 38.5476 489.56 37.1464 486.651 35.7325C476.56 30.8282 466.315 26.2354 456.056 21.6939C445.209 16.8919 434.321 12.1714 423.347 7.667C419.564 6.11464 415.774 4.57234 411.934 3.1644C410.812 2.75263 409.684 2.34142 408.536 2.0055C407.125 1.5926 406.164 1.62886 404.435 1.69668C400.545 1.84913 396.498 2.63569 393.014 4.42365C391.305 5.30044 389.793 6.43038 388.563 7.91212C388.494 7.99563 388.222 8.34835 388.425 8.08791C387.642 9.09193 386.883 10.1146 386.117 11.1312C382.761 15.5878 379.423 20.0584 376.084 24.5283C370.819 31.577 365.56 38.6304 360.303 45.6854C353.758 54.4692 347.217 63.256 340.679 72.0442C333.507 81.6831 326.338 91.324 319.171 100.967C311.94 110.696 304.712 120.426 297.487 130.159C290.85 139.1 284.215 148.042 277.585 156.988C272.184 164.275 266.785 171.564 261.394 178.858C257.81 183.707 254.227 188.556 250.663 193.42C249.755 194.659 248.846 195.897 247.951 197.145C245.926 199.97 245.467 203.428 245.394 206.849C245.32 210.354 245.594 214.063 246.753 217.396C247.415 219.301 248.813 220.623 250.245 221.989C254.995 226.521 260.232 230.581 265.44 234.568C269.059 237.339 272.699 240.105 276.572 242.515C281.193 245.39 285.857 248.198 290.532 250.984C296.218 254.373 301.923 257.739 307.725 260.927C309.707 262.016 311.698 263.108 313.752 264.055C315.936 265.063 318.186 265.884 320.346 266.961C324.988 269.278 329.519 271.846 333.971 274.511C334.892 275.062 334.053 276.507 333.128 275.953C328.402 273.124 323.589 270.387 318.636 267.976C316.593 266.982 314.454 266.24 312.408 265.262C310.217 264.214 308.085 263.039 305.962 261.862C295.48 256.048 285.162 249.876 275.008 243.507C270.841 240.893 266.939 237.829 263.054 234.822C257.958 230.88 252.751 226.894 248.195 222.322C246.702 220.824 245.616 219.394 244.981 217.347C243.925 213.947 243.636 210.214 243.728 206.672C243.822 203.087 244.319 199.363 246.446 196.39C248.818 193.073 251.255 189.802 253.674 186.519C258.309 180.231 262.954 173.951 267.602 167.673C273.789 159.317 279.981 150.965 286.175 142.615C293.277 133.042 300.383 123.471 307.49 113.903C314.859 103.983 322.231 94.0644 329.605 84.1483C336.593 74.7519 343.583 65.357 350.577 55.9647C356.535 47.9625 362.496 39.9619 368.461 31.965C372.742 26.2273 377.023 20.4906 381.316 14.762C383.305 12.107 385.242 9.39479 387.321 6.80795C391.602 1.48127 399.755 -0.145262 406.25 0.00999274C408.645 0.0673493 410.827 0.973829 413.05 1.80204C422.433 5.29687 431.643 9.28661 440.838 13.2414C452.365 18.1987 463.843 23.2726 475.241 28.5194C479.781 30.6092 484.311 32.7234 488.798 34.927C491.479 36.244 494.236 37.5273 496.761 39.1333C501.35 42.0516 502.487 48.4699 502.762 53.4891C502.876 55.5728 503.048 58.1417 502.32 60.1495C502.022 60.9723 501.484 61.7376 501.033 62.4791C495.981 70.7728 490.454 78.7962 485.057 86.8655C479.121 95.7401 473.149 104.591 467.16 113.43C466.14 114.936 465.119 116.442 464.097 117.946C463.497 118.83 462.049 117.996 462.655 117.103Z" fill="#0047FF"/>
<path d="M474.781 32.8295C477.055 33.4944 479.284 34.3514 481.455 35.294C484.769 36.7322 488.45 38.5125 490.742 41.4089C493.589 45.007 491.846 50.3735 490.304 54.1783C489.013 57.3648 487.354 60.4047 485.412 63.2406C482.731 67.156 480.03 71.0579 477.339 74.9662C471.349 83.6642 465.358 92.3615 459.366 101.058C451.343 112.703 443.319 124.347 435.293 135.99C426.504 148.74 417.713 161.489 408.918 174.235C400.629 186.249 392.338 198.26 384.04 210.267C377.519 219.703 370.995 229.137 364.456 238.56C360.979 243.571 357.526 248.603 353.98 253.567C350.481 258.467 344.994 262.024 339.126 263.375C336.209 264.047 333.299 264.058 330.553 262.858C328.626 262.016 326.763 261.019 324.911 260.025C311.329 252.73 298.166 244.615 284.99 236.622C279.051 233.02 273.125 229.397 267.205 225.765C261.809 222.454 255.447 219.417 251.626 214.257C248.962 210.661 248.457 205.818 250.679 201.927C251.945 199.71 253.368 197.578 254.778 195.451C260.072 187.459 265.595 179.618 271.118 171.784C279 160.604 286.963 149.48 294.954 138.377C304.016 125.786 313.12 113.225 322.252 100.684C331.132 88.4885 340.04 76.3127 348.978 64.1596C356.307 54.1953 363.653 44.2437 371.047 34.3281C375.531 28.3155 379.997 22.2836 384.623 16.379C386.108 14.4835 387.599 12.8797 389.406 11.2423C392.982 8.00235 396.949 5.94872 401.79 5.42373C404.945 5.08146 407.739 5.42485 410.771 6.25755C418.421 8.35807 425.811 11.5325 433.097 14.6312C440.537 17.7958 447.904 21.1333 455.238 24.5356C461.664 27.5161 468.095 30.4641 474.781 32.8295C475.787 33.1856 475.354 34.8002 474.337 34.4404C467.515 32.0267 460.951 29.0189 454.395 25.9777C447.153 22.618 439.879 19.3218 432.534 16.1924C425.29 13.1063 417.935 9.95695 410.327 7.86802C407.131 6.99029 404.209 6.69584 400.882 7.21336C396.08 7.96012 392.517 10.5388 389.09 13.8275C385.6 17.1777 382.981 21.2048 380.069 25.0602C373.91 33.2179 367.821 41.4292 361.743 49.6479C353.491 60.8062 345.274 71.9908 337.078 83.191C327.978 95.6288 318.905 108.087 309.865 120.568C301.273 132.43 292.709 144.312 284.199 156.232C277.3 165.896 270.425 175.579 263.669 185.343C259.803 190.93 255.801 196.497 252.359 202.361C252.017 202.942 251.658 203.532 251.397 204.155C251.479 203.959 251.414 204.092 251.369 204.247C251.126 205.071 250.986 205.938 250.942 206.796C250.826 209.116 251.543 211.283 252.886 213.164C255.41 216.699 259.391 219.014 263.025 221.24C264.802 222.329 266.578 223.42 268.355 224.51C281.253 232.423 294.173 240.303 307.207 247.99C313.232 251.544 319.273 255.086 325.43 258.408C327.328 259.432 329.236 260.456 331.207 261.332C333.833 262.499 336.902 262.3 339.734 261.493C344.958 260.005 349.636 256.809 352.778 252.387C354.138 250.473 355.48 248.547 356.823 246.621C362.055 239.119 367.259 231.598 372.464 224.078C379.971 213.23 387.469 202.376 394.964 191.52C403.551 179.083 412.133 166.643 420.714 154.201C429.191 141.908 437.666 129.613 446.14 117.317C453.227 107.033 460.313 96.748 467.398 86.4625C471.957 79.8428 476.517 73.2229 481.075 66.6024C482.006 65.2515 482.937 63.9011 483.866 62.5492C485.241 60.5473 486.477 58.4522 487.548 56.2713C488.787 53.751 489.833 51.0835 490.321 48.3076C490.669 46.3322 490.809 44.2672 489.559 42.5921C487.458 39.7758 483.746 38.0946 480.612 36.7363C478.574 35.8526 476.471 35.0644 474.337 34.4404C473.307 34.1394 473.745 32.5267 474.781 32.8295Z" fill="#0047FF"/>
<path d="M341.238 109.767L339.502 108.733L338.443 110.511L337.532 109.969L338.591 108.19L336.856 107.157L337.347 106.332L339.083 107.366L340.142 105.587L341.053 106.13L339.993 107.908L341.729 108.942L341.238 109.767ZM343.26 112.31C343.147 112.63 343.14 112.921 343.24 113.183C343.341 113.444 343.551 113.67 343.872 113.861C344.279 114.104 344.672 114.121 345.052 113.912C345.432 113.704 345.852 113.214 346.313 112.44C346.059 112.553 345.774 112.589 345.457 112.548C345.15 112.504 344.85 112.395 344.558 112.221C344.185 112 343.892 111.724 343.677 111.394C343.466 111.059 343.36 110.689 343.36 110.286C343.369 109.88 343.501 109.462 343.757 109.032C344.132 108.402 344.614 108.01 345.202 107.856C345.8 107.7 346.422 107.815 347.069 108.2C347.848 108.664 348.246 109.254 348.262 109.97C348.287 110.683 347.981 111.575 347.343 112.646C346.903 113.385 346.48 113.952 346.074 114.346C345.674 114.744 345.25 114.973 344.804 115.033C344.357 115.093 343.864 114.962 343.326 114.642C342.713 114.277 342.336 113.835 342.195 113.316C342.053 112.798 342.108 112.283 342.358 111.772L343.26 112.31ZM345.221 111.499C345.565 111.704 345.897 111.758 346.218 111.662C346.548 111.564 346.819 111.337 347.03 110.982C347.266 110.587 347.342 110.217 347.26 109.873C347.187 109.527 346.97 109.247 346.609 109.032C346.248 108.817 345.893 108.761 345.545 108.864C345.206 108.964 344.927 109.198 344.709 109.564C344.501 109.914 344.429 110.263 344.493 110.611C344.566 110.957 344.808 111.253 345.221 111.499ZM349.55 111.086L350.082 110.192L351.869 111.257L348.138 117.52L347.15 116.931L350.349 111.562L349.55 111.086Z" fill="#0047FF"/>
<rect x="-0.830971" y="0.171718" width="16.8835" height="16.8835" rx="1.4" transform="matrix(-0.835574 -0.549377 -0.549377 0.835574 336.622 132.619)" stroke="#0047FF" stroke-width="1.2"/>
<rect x="-0.830971" y="0.171718" width="16.8835" height="16.8835" rx="1.4" transform="matrix(-0.835574 -0.549377 -0.549377 0.835574 359.873 146.828)" stroke="#0047FF" stroke-width="1.2"/>
<rect x="-0.830971" y="0.171718" width="16.8835" height="16.8835" rx="1.4" transform="matrix(-0.835574 -0.549377 -0.549377 0.835574 322.07 154.175)" stroke="#0047FF" stroke-width="1.2"/>
<rect x="-0.830971" y="0.171718" width="16.8835" height="16.8835" rx="1.4" transform="matrix(-0.835574 -0.549377 -0.549377 0.835574 344.372 170.078)" stroke="#0047FF" stroke-width="1.2"/>
<rect x="-0.830971" y="0.171718" width="16.8835" height="16.8835" rx="1.4" transform="matrix(-0.835574 -0.549377 -0.549377 0.835574 363.748 184.286)" stroke="#0047FF" stroke-width="1.2"/>
<rect x="-0.830971" y="0.171718" width="16.8835" height="16.8835" rx="1.4" transform="matrix(-0.835574 -0.549377 -0.549377 0.835574 306.57 176.133)" stroke="#0047FF" stroke-width="1.2"/>
<rect x="-0.830971" y="0.171718" width="16.8835" height="16.8835" rx="1.4" transform="matrix(-0.835574 -0.549377 -0.549377 0.835574 328.872 190.745)" stroke="#0047FF" stroke-width="1.2"/>
<rect x="-0.830971" y="0.171718" width="16.8835" height="16.8835" rx="1.4" transform="matrix(-0.835574 -0.549377 -0.549377 0.835574 313.372 212.703)" stroke="#0047FF" stroke-width="1.2"/>
<rect x="-0.830971" y="0.171718" width="16.8835" height="16.8835" rx="1.4" transform="matrix(-0.835574 -0.549377 -0.549377 0.835574 352.123 203.662)" stroke="#0047FF" stroke-width="1.2"/>
<rect x="-0.830971" y="0.171718" width="16.8835" height="16.8835" rx="1.4" transform="matrix(-0.835574 -0.549377 -0.549377 0.835574 380.539 162.328)" stroke="#0047FF" stroke-width="1.2"/>
<rect x="329.844" y="117.543" width="67.1673" height="0.736533" transform="rotate(31.8014 329.844 117.543)" fill="#0047FF"/>
</svg>
