<svg width="398" height="398" viewBox="0 0 398 398" fill="none" xmlns="http://www.w3.org/2000/svg">
<path d="M22.3168 169.318C22.3168 169.318 15.718 232.998 62.7536 285.805C109.789 338.612 182.536 356.291 241.217 372.179C299.898 388.067 349.966 363.654 363.753 314.31C377.54 264.966 334.301 240.998 317.649 178.337C300.996 115.676 305.757 97.137 258.649 51.1999C211.542 5.26273 127.309 10.7551 76.3652 63.0364C25.4212 115.318 22.3168 169.318 22.3168 169.318Z" fill="#E7EEFF"/>
<path d="M106 178L122.5 179" stroke="#0047FF" stroke-linecap="round"/>
<path d="M34.3101 213.674C37.4218 211.594 41.0801 210.485 44.8225 210.485C49.8392 210.491 54.6486 212.486 58.196 216.034C61.7434 219.581 63.739 224.391 63.7452 229.408C63.7451 233.15 62.6353 236.808 60.5562 239.92C58.477 243.032 55.5217 245.457 52.0641 246.889C48.6065 248.321 44.8018 248.696 41.1312 247.966C37.4606 247.236 34.089 245.434 31.4426 242.787C28.7963 240.141 26.9941 236.769 26.264 233.099C25.5339 229.428 25.9086 225.623 27.3408 222.166C28.773 218.708 31.1983 215.753 34.3101 213.674Z" stroke="#0047FF"/>
<path fill-rule="evenodd" clip-rule="evenodd" d="M42.8482 228.898H45.9611C46.1206 228.898 46.2499 229.028 46.2499 229.189C46.2499 229.349 46.1206 229.479 45.9611 229.479H42.8482C42.6888 229.479 42.5595 229.349 42.5595 229.189C42.5595 229.028 42.6888 228.898 42.8482 228.898ZM48.247 223.83C51.1788 226.776 51.1788 231.552 48.247 234.498C47.6847 235.063 47.0337 235.539 46.3167 235.902C46.3011 235.91 46.2929 235.927 46.2962 235.944C46.2995 235.961 46.3131 235.974 46.3305 235.975C47.1774 236.054 48.0324 235.977 48.848 235.749C48.9515 235.721 49.0574 235.752 49.1282 235.824L49.1288 235.823L51.0861 237.79C51.0979 237.802 51.1151 237.805 51.1301 237.797C51.1452 237.79 51.1535 237.775 51.1516 237.758L50.8333 235.017C50.8201 234.9 50.8773 234.792 50.9708 234.736C50.9717 234.735 50.9723 234.735 50.9731 234.734C51.8742 234.095 52.6173 233.244 53.1312 232.252C54.5304 229.551 54.0086 226.256 51.8804 224.117C50.3446 222.574 48.1396 221.813 45.9149 222.158C45.8977 222.161 45.8849 222.174 45.8827 222.192C45.8804 222.209 45.8896 222.225 45.9056 222.232C46.7858 222.613 47.5791 223.158 48.247 223.83ZM41.7985 228.898C41.958 228.898 42.0872 229.028 42.0872 229.189C42.0872 229.349 41.958 229.479 41.7985 229.479H39.9161C39.7566 229.479 39.6273 229.349 39.6273 229.189C39.6273 229.028 39.7566 228.898 39.9161 228.898H41.7985ZM36.0088 229.164C36.0088 230.322 36.29 231.414 36.7876 232.374C37.3015 233.366 38.0446 234.217 38.9457 234.857C38.9465 234.857 38.9471 234.858 38.948 234.858C39.0415 234.915 39.0987 235.023 39.0855 235.139L38.7673 237.881C38.7653 237.897 38.7737 237.913 38.7887 237.92C38.8038 237.927 38.8209 237.924 38.8327 237.912L40.7901 235.946L40.7907 235.946C40.8616 235.875 40.9674 235.843 41.0709 235.872C43.5033 236.551 46.0793 235.856 47.8388 234.088C50.545 231.368 50.545 226.959 47.8388 224.24C45.1326 221.521 40.7448 221.521 38.0385 224.24C36.7844 225.5 36.0088 227.241 36.0088 229.164ZM39.9161 231.463H43.174C43.3335 231.463 43.4627 231.593 43.4627 231.753C43.4627 231.913 43.3335 232.043 43.174 232.043H39.9161C39.7566 232.043 39.6273 231.913 39.6273 231.753C39.6273 231.593 39.7566 231.463 39.9161 231.463ZM44.2237 231.463H45.9611C46.1206 231.463 46.2499 231.593 46.2499 231.753C46.2499 231.913 46.1206 232.043 45.9611 232.043H44.2237C44.0643 232.043 43.935 231.913 43.935 231.753C43.935 231.593 44.0643 231.463 44.2237 231.463ZM43.8798 226.915H39.9161C39.7566 226.915 39.6273 226.785 39.6273 226.624C39.6273 226.464 39.7566 226.334 39.9161 226.334H43.8798C44.0393 226.334 44.1685 226.464 44.1685 226.624C44.1685 226.785 44.0393 226.915 43.8798 226.915ZM44.9296 226.915C44.7701 226.915 44.6408 226.785 44.6408 226.624C44.6408 226.464 44.7701 226.334 44.9296 226.334H45.9611C46.1206 226.334 46.2499 226.464 46.2499 226.624C46.2499 226.785 46.1206 226.915 45.9611 226.915H44.9296Z" fill="#0047FF"/>
<path d="M83.1886 43.3021C86.6562 39.7636 91.3728 37.7255 96.326 37.6252C98.8437 37.5742 101.346 38.0261 103.687 38.9544C106.028 39.8826 108.16 41.2686 109.959 43.0311C111.757 44.7937 113.186 46.8973 114.162 49.219C115.137 51.5406 115.64 54.0335 115.64 56.5517C115.64 59.0699 115.137 61.5628 114.162 63.8844C113.186 66.2061 111.757 68.3097 109.959 70.0723C108.16 71.8348 106.028 73.2208 103.687 74.149C101.346 75.0773 98.8437 75.5291 96.326 75.4782C91.3728 75.3779 86.6562 73.3398 83.1886 69.8013C79.721 66.2628 77.7788 61.506 77.7788 56.5517C77.7788 51.5974 79.721 46.8406 83.1886 43.3021Z" stroke="#0047FF"/>
<g clip-path="url(#clip0_45_1135)">
<path d="M102.398 55.5535C102.419 53.0157 100.258 50.6892 97.5796 50.3675C97.5263 50.3612 97.4683 50.3516 97.4068 50.3414C97.2742 50.3195 97.1371 50.2969 96.9987 50.2969C96.4498 50.2969 96.3031 50.6825 96.2644 50.9125C96.2269 51.1361 96.2627 51.3238 96.3708 51.4708C96.5526 51.718 96.8724 51.7619 97.1293 51.797C97.2046 51.8074 97.2757 51.8171 97.3352 51.8305C99.7416 52.3682 100.552 53.2135 100.948 55.5995C100.958 55.6578 100.962 55.7296 100.967 55.8058C100.984 56.091 101.02 56.6844 101.658 56.6844H101.658C101.711 56.6844 101.768 56.6798 101.827 56.6708C102.421 56.5805 102.403 56.0381 102.394 55.7775C102.391 55.7041 102.389 55.6347 102.395 55.5885C102.397 55.5769 102.398 55.5652 102.398 55.5535Z" fill="#0047FF"/>
<path d="M96.8429 49.436C96.9142 49.4411 96.9816 49.446 97.0378 49.4546C100.989 50.0623 102.807 51.9346 103.31 55.917C103.319 55.9847 103.32 56.0673 103.322 56.1547C103.327 56.4659 103.337 57.1131 104.032 57.1266L104.054 57.1268C104.272 57.1268 104.445 57.061 104.569 56.9312C104.785 56.7049 104.77 56.3687 104.758 56.0984C104.755 56.0321 104.752 55.9697 104.753 55.915C104.803 51.842 101.278 48.1486 97.2083 48.0112C97.1914 48.0107 97.1753 48.0116 97.1591 48.0139C97.1511 48.015 97.1363 48.0165 97.1109 48.0165C97.0703 48.0165 97.0204 48.013 96.9674 48.0094C96.9034 48.005 96.8309 48 96.7573 48C96.1093 48 95.9861 48.4606 95.9703 48.7352C95.934 49.3698 96.5479 49.4145 96.8429 49.436Z" fill="#0047FF"/>
<path d="M103.12 61.0641C103.035 60.9999 102.949 60.9335 102.867 60.868C102.436 60.5208 101.977 60.2007 101.533 59.8912C101.441 59.827 101.349 59.7628 101.257 59.6984C100.688 59.299 100.177 59.1049 99.6941 59.1049C99.0436 59.1049 98.4764 59.4644 98.0083 60.1731C97.8009 60.4873 97.5493 60.6401 97.2392 60.6401C97.0559 60.6401 96.8475 60.5878 96.6201 60.4845C94.7847 59.6522 93.4741 58.3761 92.7246 56.6917C92.3623 55.8776 92.4798 55.3454 93.1174 54.9123C93.4794 54.6665 94.1534 54.209 94.1056 53.333C94.0516 52.3381 91.8565 49.3447 90.9316 49.0047C90.54 48.8607 90.1286 48.8593 89.7065 49.0013C88.6433 49.3588 87.8803 49.9865 87.4999 50.8165C87.1322 51.6185 87.1488 52.5602 87.5479 53.5398C88.7016 56.372 90.3236 58.8414 92.369 60.8791C94.3712 62.8739 96.832 64.5079 99.683 65.7355C99.94 65.8461 100.21 65.9064 100.406 65.9504C100.473 65.9655 100.531 65.9783 100.574 65.9899C100.597 65.9962 100.621 65.9996 100.645 65.9999L100.667 66C100.667 66 100.667 66 100.667 66C102.008 66 103.618 64.7746 104.113 63.3777C104.546 62.1545 103.755 61.5498 103.12 61.0641Z" fill="#0047FF"/>
<path d="M97.4359 52.6714C97.2063 52.6772 96.7285 52.6891 96.5609 53.1757C96.4824 53.4031 96.4918 53.6005 96.5888 53.7625C96.7311 54.0002 97.0038 54.073 97.2518 54.113C98.1513 54.2573 98.6133 54.7547 98.7057 55.6782C98.7486 56.1088 99.0386 56.4095 99.4109 56.4095C99.4384 56.4095 99.4666 56.4079 99.4946 56.4045C99.9423 56.3512 100.159 56.0222 100.14 55.4268C100.147 54.8053 99.8217 54.0998 99.2686 53.5378C98.7135 52.9741 98.0445 52.6567 97.4359 52.6714Z" fill="#0047FF"/>
</g>
<path d="M79.6803 319.924C83.787 317.18 88.615 315.716 93.554 315.716C100.177 315.716 106.529 318.347 111.212 323.03C115.895 327.713 118.526 334.065 118.526 340.688C118.526 345.627 117.061 350.455 114.318 354.562C111.574 358.668 107.673 361.869 103.11 363.759C98.5474 365.649 93.5263 366.144 88.6822 365.18C83.8382 364.216 79.3886 361.838 75.8962 358.346C72.4038 354.853 70.0254 350.404 69.0619 345.56C68.0983 340.716 68.5929 335.694 70.4829 331.131C72.373 326.568 75.5737 322.668 79.6803 319.924Z" stroke="#0047FF"/>
<g clip-path="url(#clip1_45_1135)">
<path d="M90.3543 348.938V336.938C90.353 335.833 89.4583 334.939 88.3542 334.938H81.6875C80.5835 334.939 79.6887 335.833 79.6875 336.938V348.938C79.6887 350.042 80.5835 350.936 81.6875 350.938H88.3542C89.4583 350.936 90.353 350.042 90.3543 348.938ZM85.6875 348.271H84.3542C83.9861 348.271 83.6875 347.972 83.6875 347.604C83.6875 347.236 83.9861 346.938 84.3542 346.938H85.6875C86.0557 346.938 86.3542 347.236 86.3542 347.604C86.3542 347.972 86.0557 348.271 85.6875 348.271ZM85.6875 338.938H84.3542C83.9861 338.938 83.6875 338.639 83.6875 338.271C83.6875 337.903 83.9861 337.604 84.3542 337.604H85.6875C86.0557 337.604 86.3542 337.903 86.3542 338.271C86.3542 338.639 86.0557 338.938 85.6875 338.938Z" fill="#0047FF"/>
<path d="M99.021 342.938H101.688V348.271H99.021V342.938Z" fill="#0047FF"/>
<path d="M106.087 339.071L100.754 335.071C100.517 334.892 100.191 334.892 99.9541 335.071L94.6209 339.071C94.4529 339.197 94.354 339.394 94.354 339.604V347.604C94.3538 347.781 94.4241 347.951 94.5491 348.076C94.6741 348.201 94.8438 348.271 95.0205 348.271H97.6873V342.271C97.6873 342.094 97.7573 341.924 97.8823 341.799C98.0073 341.674 98.177 341.604 98.354 341.604H102.354C102.531 341.604 102.7 341.674 102.825 341.799C102.95 341.924 103.021 342.094 103.021 342.271V348.271H105.687C105.864 348.271 106.034 348.201 106.159 348.076C106.284 347.951 106.354 347.781 106.354 347.604V339.604C106.354 339.394 106.255 339.197 106.087 339.071Z" fill="#0047FF"/>
<path d="M100.354 348.847C100.177 348.847 100.007 348.917 99.8823 349.042C99.7573 349.167 99.6873 349.337 99.6873 349.514V352.847H85.6873V352.181C85.6873 351.813 85.3887 351.514 85.0205 351.514C84.6523 351.514 84.354 351.813 84.354 352.181V353.514C84.3538 353.691 84.4241 353.86 84.5491 353.986C84.6741 354.111 84.8438 354.181 85.0205 354.181H100.354C100.531 354.181 100.7 354.111 100.825 353.986C100.95 353.86 101.021 353.691 101.021 353.514V349.514C101.021 349.337 100.95 349.167 100.825 349.042C100.7 348.917 100.531 348.847 100.354 348.847Z" fill="#0047FF"/>
<path d="M95.021 333.604C95.021 334.341 94.4241 334.938 93.6877 334.938C92.9514 334.938 92.3545 334.341 92.3545 333.604C92.3545 332.868 92.9514 332.271 93.6877 332.271C94.4241 332.271 95.021 332.868 95.021 333.604Z" fill="#0047FF"/>
<path d="M96.2406 332.152C96.4991 332.152 96.7342 332.002 96.8441 331.768C96.954 331.534 96.9188 331.258 96.7538 331.059C96.0018 330.138 94.8761 329.604 93.6874 329.604C92.4986 329.604 91.3727 330.138 90.6209 331.059C90.3858 331.343 90.4249 331.763 90.7081 331.998C90.9916 332.233 91.4117 332.194 91.6471 331.911C92.1612 331.321 92.9051 330.983 93.6874 330.983C94.4696 330.983 95.2135 331.321 95.7276 331.911C95.8541 332.064 96.0423 332.152 96.2406 332.152Z" fill="#0047FF"/>
<path d="M89.8087 329.966C90.8092 328.885 92.215 328.271 93.6876 328.271C95.1603 328.271 96.566 328.885 97.5665 329.966C97.7294 330.14 97.973 330.214 98.2052 330.159C98.4376 330.105 98.6232 329.931 98.6918 329.702C98.7604 329.474 98.7018 329.226 98.538 329.053C97.2855 327.704 95.5282 326.938 93.6876 326.938C91.847 326.938 90.0897 327.704 88.8373 329.053C88.6735 329.226 88.6149 329.474 88.6835 329.702C88.7521 329.931 88.9376 330.105 89.17 330.159C89.4022 330.214 89.6459 330.14 89.8087 329.966Z" fill="#0047FF"/>
</g>
<path d="M314.438 290.5C310.693 290.499 307.032 291.608 303.918 293.687C300.804 295.767 298.376 298.723 296.942 302.182C295.509 305.642 295.133 309.449 295.863 313.122C296.594 316.794 298.397 320.168 301.045 322.816C303.693 325.464 307.066 327.267 310.739 327.997C314.412 328.728 318.219 328.352 321.678 326.918C325.138 325.485 328.094 323.057 330.174 319.943C332.253 316.829 333.362 313.168 333.361 309.423L314.438 290.5ZM314.438 290.5C319.455 290.506 324.264 292.502 327.812 296.049C331.359 299.597 333.354 304.406 333.361 309.423L314.438 290.5Z" stroke="#0047FF"/>
<g clip-path="url(#clip2_45_1135)">
<path d="M308.777 310.076H310.382V311.261H308.777V310.076Z" fill="#0047FF"/>
<path d="M322.933 306.94H307.067C306.485 306.94 306.014 307.411 306.014 307.993V316.947C306.014 317.528 306.485 318 307.067 318H322.933C323.515 318 323.987 317.528 323.987 316.947V307.993C323.987 307.411 323.515 306.94 322.933 306.94ZM310.261 315.715H307.654V314.662H310.261V315.715ZM311.435 311.436C311.435 311.92 311.041 312.314 310.557 312.314H308.602C308.118 312.314 307.724 311.92 307.724 311.436V309.901C307.724 309.417 308.118 309.023 308.602 309.023H310.557C311.041 309.023 311.435 309.417 311.435 309.901L311.435 311.436ZM314.289 315.715H311.683V314.662H314.289V315.715ZM318.318 315.715H315.711V314.662H318.318V315.715ZM322.346 315.715H319.739V314.662H322.346V315.715Z" fill="#0047FF"/>
<path d="M320.151 302.558L317.901 300.308C317.49 299.897 316.823 299.897 316.412 300.308L310.833 305.887H317.012L320.151 302.558Z" fill="#0047FF"/>
<path d="M320.086 305.887L321.733 304.14L320.896 303.303L318.46 305.887H320.086Z" fill="#0047FF"/>
<path d="M322.934 305.887C323.16 305.887 323.378 305.923 323.582 305.989L322.478 304.885L321.534 305.887L322.934 305.887Z" fill="#0047FF"/>
</g>
<path d="M321.727 135.033C313.916 135.033 306.425 131.93 300.902 126.407C295.378 120.884 292.275 113.393 292.275 105.581C292.275 97.7702 295.378 90.279 300.902 84.7557C306.425 79.2324 313.916 76.1294 321.727 76.1294C329.539 76.1294 337.03 79.2324 342.553 84.7557C348.076 90.279 351.179 97.7702 351.179 105.581C351.179 113.393 348.076 120.884 342.553 126.407C337.03 131.93 329.539 135.033 321.727 135.033Z" stroke="#0047FF" stroke-linecap="round" stroke-linejoin="round"/>
<g clip-path="url(#clip3_45_1135)">
<path d="M310.95 92.3999H305.85C305.381 92.3999 305 92.7806 305 93.25V98.35C305 98.8194 305.381 99.2001 305.85 99.2001C306.32 99.2001 306.7 98.8194 306.7 98.35V94.1001H310.95C311.42 94.1001 311.8 93.7194 311.8 93.25C311.8 92.7806 311.42 92.3999 310.95 92.3999Z" fill="#0047FF"/>
<path d="M310.95 117.9H306.7V113.65C306.7 113.18 306.32 112.8 305.85 112.8C305.381 112.8 305 113.18 305 113.65V118.75C305 119.219 305.381 119.6 305.85 119.6H310.95C311.42 119.6 311.8 119.219 311.8 118.75C311.8 118.28 311.42 117.9 310.95 117.9Z" fill="#0047FF"/>
<path d="M338.15 92.3999H333.05C332.58 92.3999 332.2 92.7806 332.2 93.25C332.2 93.7194 332.58 94.1001 333.05 94.1001H337.3V98.35C337.3 98.8194 337.68 99.2001 338.15 99.2001C338.619 99.2001 339 98.8194 339 98.35V93.25C339 92.7806 338.619 92.3999 338.15 92.3999Z" fill="#0047FF"/>
<path d="M338.15 112.8C337.68 112.8 337.3 113.18 337.3 113.65V117.9H333.05C332.58 117.9 332.2 118.28 332.2 118.75C332.2 119.219 332.58 119.6 333.05 119.6H338.15C338.619 119.6 339 119.219 339 118.75V113.65C339 113.18 338.619 112.8 338.15 112.8Z" fill="#0047FF"/>
<path d="M310.95 97.5C310.481 97.5 310.1 97.8807 310.1 98.3501V113.65C310.1 114.12 310.481 114.5 310.95 114.5C311.42 114.5 311.8 114.12 311.8 113.65V98.3501C311.8 97.8807 311.42 97.5 310.95 97.5Z" fill="#0047FF"/>
<path d="M314.35 97.5H316.05C316.519 97.5 316.9 97.8807 316.9 98.3501V113.65C316.9 114.12 316.519 114.5 316.05 114.5H314.35C313.88 114.5 313.5 114.12 313.5 113.65V98.3501C313.5 97.8807 313.88 97.5 314.35 97.5Z" fill="#0047FF"/>
<path d="M319.45 97.5C318.98 97.5 318.6 97.8807 318.6 98.3501V113.65C318.6 114.12 318.98 114.5 319.45 114.5C319.919 114.5 320.3 114.12 320.3 113.65V98.3501C320.3 97.8807 319.919 97.5 319.45 97.5Z" fill="#0047FF"/>
<path d="M322.85 97.5H324.55C325.019 97.5 325.4 97.8807 325.4 98.3501V113.65C325.4 114.12 325.019 114.5 324.55 114.5H322.85C322.381 114.5 322 114.12 322 113.65V98.3501C322 97.8807 322.381 97.5 322.85 97.5Z" fill="#0047FF"/>
<path d="M327.95 97.5C327.481 97.5 327.1 97.8807 327.1 98.3501V113.65C327.1 114.12 327.481 114.5 327.95 114.5C328.42 114.5 328.8 114.12 328.8 113.65V98.3501C328.8 97.8807 328.42 97.5 327.95 97.5Z" fill="#0047FF"/>
<path d="M331.35 97.5H333.05C333.519 97.5 333.9 97.8807 333.9 98.3501V113.65C333.9 114.12 333.519 114.5 333.05 114.5H331.35C330.881 114.5 330.5 114.12 330.5 113.65V98.3501C330.5 97.8807 330.881 97.5 331.35 97.5Z" fill="#0047FF"/>
</g>
<path d="M82.6193 162.782C85.0595 161.151 87.9283 160.281 90.8631 160.281C94.7974 160.285 98.5694 161.85 101.351 164.632C104.133 167.414 105.698 171.186 105.702 175.12C105.702 178.055 104.832 180.924 103.201 183.364C101.571 185.804 99.2534 187.706 96.542 188.829C93.8305 189.952 90.8469 190.246 87.9684 189.674C85.0899 189.101 82.4459 187.688 80.3706 185.613C78.2954 183.537 76.8821 180.893 76.3095 178.015C75.737 175.136 76.0308 172.153 77.154 169.441C78.2771 166.73 80.179 164.412 82.6193 162.782Z" stroke="#0047FF"/>
<path d="M65 231L124 226.5" stroke="#0047FF" stroke-linecap="round"/>
<g clip-path="url(#clip4_45_1135)">
<path d="M86.45 169.4H84.35C84.1568 169.4 84 169.557 84 169.75V171.85C84 172.043 84.1568 172.2 84.35 172.2C84.5433 172.2 84.7 172.043 84.7 171.85V170.1H86.45C86.6433 170.1 86.8 169.943 86.8 169.75C86.8 169.557 86.6433 169.4 86.45 169.4Z" fill="#0047FF"/>
<path d="M86.45 179.9H84.7V178.15C84.7 177.957 84.5433 177.8 84.35 177.8C84.1568 177.8 84 177.957 84 178.15V180.25C84 180.443 84.1568 180.6 84.35 180.6H86.45C86.6433 180.6 86.8 180.443 86.8 180.25C86.8 180.057 86.6433 179.9 86.45 179.9Z" fill="#0047FF"/>
<path d="M97.6502 169.4H95.5502C95.357 169.4 95.2002 169.557 95.2002 169.75C95.2002 169.943 95.357 170.1 95.5502 170.1H97.3002V171.85C97.3002 172.043 97.457 172.2 97.6502 172.2C97.8435 172.2 98.0003 172.043 98.0003 171.85V169.75C98.0003 169.557 97.8435 169.4 97.6502 169.4Z" fill="#0047FF"/>
<path d="M97.6502 177.8C97.457 177.8 97.3002 177.957 97.3002 178.15V179.9H95.5502C95.357 179.9 95.2002 180.057 95.2002 180.25C95.2002 180.443 95.357 180.6 95.5502 180.6H97.6502C97.8435 180.6 98.0003 180.443 98.0003 180.25V178.15C98.0003 177.957 97.8435 177.8 97.6502 177.8Z" fill="#0047FF"/>
<path d="M86.4501 171.5C86.2569 171.5 86.1001 171.657 86.1001 171.85V178.15C86.1001 178.343 86.2569 178.5 86.4501 178.5C86.6434 178.5 86.8001 178.343 86.8001 178.15V171.85C86.8001 171.657 86.6434 171.5 86.4501 171.5Z" fill="#0047FF"/>
<path d="M87.8499 171.5H88.55C88.7433 171.5 88.8999 171.657 88.8999 171.85V178.15C88.8999 178.343 88.7433 178.5 88.55 178.5H87.8499C87.6566 178.5 87.5 178.343 87.5 178.15V171.85C87.5 171.657 87.6566 171.5 87.8499 171.5Z" fill="#0047FF"/>
<path d="M89.95 171.5C89.7567 171.5 89.6001 171.657 89.6001 171.85V178.15C89.6001 178.343 89.7567 178.5 89.95 178.5C90.1433 178.5 90.3001 178.343 90.3001 178.15V171.85C90.3001 171.657 90.1433 171.5 89.95 171.5Z" fill="#0047FF"/>
<path d="M91.35 171.5H92.05C92.2433 171.5 92.4 171.657 92.4 171.85V178.15C92.4 178.343 92.2433 178.5 92.05 178.5H91.35C91.1568 178.5 91 178.343 91 178.15V171.85C91 171.657 91.1568 171.5 91.35 171.5Z" fill="#0047FF"/>
<path d="M93.4501 171.5C93.2569 171.5 93.1001 171.657 93.1001 171.85V178.15C93.1001 178.343 93.2569 178.5 93.4501 178.5C93.6434 178.5 93.8002 178.343 93.8002 178.15V171.85C93.8002 171.657 93.6434 171.5 93.4501 171.5Z" fill="#0047FF"/>
<path d="M94.85 171.5H95.55C95.7433 171.5 95.9 171.657 95.9 171.85V178.15C95.9 178.343 95.7433 178.5 95.55 178.5H94.85C94.6568 178.5 94.5 178.343 94.5 178.15V171.85C94.5 171.657 94.6568 171.5 94.85 171.5Z" fill="#0047FF"/>
</g>
<path d="M340.92 268.34C338.895 268.34 336.89 267.941 335.019 267.166C333.148 266.391 331.448 265.255 330.016 263.824C328.585 262.392 327.449 260.692 326.674 258.821C325.899 256.95 325.5 254.945 325.5 252.92C325.5 248.83 327.125 244.908 330.016 242.016C332.908 239.125 336.83 237.5 340.92 237.5C345.01 237.5 348.932 239.125 351.824 242.016C354.715 244.908 356.34 248.83 356.34 252.92C356.34 254.945 355.941 256.95 355.166 258.821C354.391 260.692 353.255 262.392 351.824 263.824C350.392 265.255 348.692 266.391 346.821 267.166C344.95 267.941 342.945 268.34 340.92 268.34Z" stroke="#0047FF"/>
<path fill-rule="evenodd" clip-rule="evenodd" d="M343.018 260.805C343.018 260.145 342.458 259.61 341.766 259.61H340.234C339.902 259.61 339.583 259.735 339.349 259.96C339.114 260.184 338.982 260.488 338.982 260.805C338.982 261.465 339.542 262 340.234 262H341.766C342.458 262 343.018 261.465 343.018 260.805ZM333.631 257.723C333.84 257.738 334.093 257.747 334.347 257.733C334.483 258.388 334.819 258.996 335.321 259.475C335.987 260.112 336.891 260.469 337.833 260.469H338.311C338.29 260.579 338.279 260.691 338.279 260.805C338.279 260.919 338.29 261.032 338.31 261.14H337.833C336.704 261.14 335.622 260.712 334.824 259.95C334.187 259.342 333.773 258.561 333.631 257.723ZM333.274 257.008C332.719 256.919 332.202 256.667 331.799 256.282C331.287 255.793 331 255.131 331 254.44V252.853C331 252.163 331.287 251.5 331.799 251.012C332.31 250.524 333.004 250.249 333.727 250.249H333.909C334.199 246.752 337.263 244 341 244C344.737 244 347.801 246.752 348.091 250.249H348.273C348.996 250.249 349.69 250.524 350.201 251.012C350.713 251.5 351 252.163 351 252.853V254.44C351 255.131 350.713 255.793 350.201 256.282C349.69 256.77 348.996 257.045 348.273 257.045H347.468C347.135 257.045 346.864 256.786 346.864 256.467V250.793C346.864 247.701 344.239 245.194 341 245.194C337.761 245.194 335.136 247.701 335.136 250.793V256.467C335.136 256.692 335.001 256.887 334.804 256.983C334.263 257.162 333.423 257.032 333.274 257.008Z" fill="#0047FF"/>
<path d="M225.531 55.7055C221.441 55.7055 217.519 54.0809 214.627 51.1891C211.735 48.2973 210.111 44.3751 210.111 40.2855C210.111 36.1958 211.735 32.2737 214.627 29.3819C217.519 26.4901 221.441 24.8655 225.531 24.8655C229.62 24.8655 233.543 26.4901 236.434 29.3819C239.326 32.2737 240.951 36.1958 240.951 40.2855C240.951 44.3751 239.326 48.2973 236.434 51.1891C233.543 54.0809 229.62 55.7055 225.531 55.7055Z" stroke="#0047FF"/>
<path d="M224.333 43.0479H226.809V48.0002H224.333V43.0479Z" fill="#0047FF"/>
<path d="M230.895 39.4575L225.943 35.7432C225.723 35.5775 225.42 35.5775 225.2 35.7432L220.248 39.4575C220.092 39.5742 220 39.7579 220 39.9528V47.3814C220 47.5455 220.065 47.7031 220.181 47.8191C220.297 47.9352 220.455 48.0005 220.619 48.0003H223.095V42.4289C223.095 42.2647 223.16 42.1072 223.276 41.9911C223.392 41.875 223.55 41.8097 223.714 41.81H227.429C227.593 41.8097 227.75 41.875 227.866 41.9911C227.982 42.1072 228.048 42.2647 228.047 42.4289V48.0003H230.524C230.688 48.0005 230.845 47.9352 230.961 47.8191C231.078 47.7031 231.143 47.5455 231.143 47.3814V39.9528C231.143 39.7579 231.051 39.5742 230.895 39.4575Z" fill="#0047FF"/>
<path d="M230.781 35.8096C230.781 36.2304 230.439 36.5715 230.019 36.5715C229.598 36.5715 229.257 36.2304 229.257 35.8096C229.257 35.3887 229.598 35.0476 230.019 35.0476C230.439 35.0476 230.781 35.3887 230.781 35.8096Z" fill="#0047FF"/>
<path d="M231.478 34.9796C231.625 34.9796 231.76 34.8943 231.823 34.7605C231.885 34.6269 231.865 34.469 231.771 34.3554C231.341 33.8292 230.698 33.5239 230.019 33.5239C229.339 33.5239 228.696 33.8292 228.267 34.3554C228.132 34.5172 228.154 34.7575 228.316 34.8918C228.478 35.0262 228.718 35.0038 228.853 34.842C229.147 34.5051 229.572 34.3119 230.019 34.3119C230.466 34.3119 230.891 34.5051 231.185 34.842C231.257 34.9293 231.364 34.9798 231.478 34.9796Z" fill="#0047FF"/>
<path d="M227.802 33.7303C228.374 33.1129 229.177 32.762 230.019 32.762C230.86 32.762 231.664 33.1129 232.235 33.7303C232.328 33.8299 232.467 33.8722 232.6 33.8411C232.733 33.8101 232.839 33.7105 232.878 33.5799C232.917 33.4494 232.884 33.3078 232.79 33.2087C232.075 32.4379 231.07 32 230.019 32C228.967 32 227.963 32.4379 227.247 33.2087C227.153 33.3078 227.12 33.4494 227.159 33.5799C227.198 33.7105 227.304 33.8101 227.437 33.8411C227.57 33.8722 227.709 33.8299 227.802 33.7303Z" fill="#0047FF"/>
<path d="M203.855 353.352C203.855 352.34 203.555 351.35 202.992 350.508C202.429 349.666 201.629 349.01 200.694 348.623C199.758 348.236 198.729 348.135 197.735 348.333C196.742 348.531 195.83 349.019 195.115 349.736C194.399 350.453 193.913 351.365 193.716 352.359C193.519 353.352 193.622 354.382 194.011 355.317C194.399 356.252 195.056 357.051 195.899 357.612C196.742 358.173 197.732 358.472 198.745 358.471C199.417 358.471 200.082 358.338 200.702 358.081C201.323 357.824 201.887 357.446 202.361 356.971C202.836 356.496 203.212 355.931 203.469 355.31C203.725 354.69 203.856 354.024 203.855 353.352Z" stroke="#0047FF" stroke-linecap="round" stroke-linejoin="round"/>
<path d="M262.449 68.1296H135.049C128.666 68.1296 123.491 73.3043 123.491 79.6876V350.296C123.491 356.679 128.666 361.854 135.049 361.854H262.449C268.832 361.854 274.007 356.679 274.007 350.296V79.6876C274.007 73.3043 268.832 68.1296 262.449 68.1296Z" stroke="#0047FF" stroke-linecap="round" stroke-linejoin="round"/>
<path d="M267.305 88.0774H130.178V344.421H267.305V88.0774Z" stroke="#0047FF" stroke-linecap="round" stroke-linejoin="round"/>
<path d="M196.588 292.538C231.313 292.538 259.464 264.387 259.464 229.662C259.464 194.936 231.313 166.786 196.588 166.786C161.862 166.786 133.712 194.936 133.712 229.662C133.712 264.387 161.862 292.538 196.588 292.538Z" fill="#0047FF"/>
<path d="M135.422 147.532V119.343H262.618V147.532H135.422Z" stroke="#0047FF"/>
<path d="M263.118 310.496H134.922V339.685H263.118V310.496Z" fill="white"/>
<path d="M263.118 300.347H134.922V301.612H263.118V300.347Z" fill="white"/>
<path d="M263.118 306.054H134.922V307.32H263.118V306.054Z" fill="white"/>
<mask id="mask0_45_1135" style="mask-type:luminance" maskUnits="userSpaceOnUse" x="136" y="122" width="214" height="169">
<path d="M349.181 122.003H188.899V169.548C178.968 170.821 169.507 174.536 161.361 180.358C153.216 186.181 146.64 193.931 142.222 202.915C137.803 211.9 135.679 221.839 136.039 231.845C136.4 241.851 139.234 251.612 144.287 260.255C149.341 268.899 156.458 276.155 165.001 281.377C173.544 286.598 183.248 289.622 193.245 290.177C203.242 290.733 213.22 288.803 222.29 284.56C231.359 280.318 239.235 273.894 245.216 265.864H349.181V122.003Z" fill="white"/>
</mask>
<g mask="url(#mask0_45_1135)">
<path d="M130.544 288.948C130.544 288.948 147.324 230.522 150.492 218.032C153.66 205.543 158.452 197.416 168.338 195.434C178.224 193.452 196.477 191.613 196.477 191.613C196.477 191.613 212.341 190.021 223.835 190.817C235.329 191.613 245.845 197.758 251.393 201.961C256.941 206.164 273.004 220.595 273.004 220.595L271.022 187.291L285.493 188.477C285.493 188.477 296.001 234.868 297.386 243.401C298.771 251.934 298.779 255.699 297.386 256.686C295.993 257.673 298.381 258.278 285.692 254.107C273.004 249.936 258.135 244.197 250.008 241.817C241.88 239.437 240.885 239.039 240.885 239.039C240.885 239.039 220.985 268.984 214.657 277.907C210.314 284.243 206.45 290.895 203.099 297.807" fill="white"/>
<mask id="mask1_45_1135" style="mask-type:luminance" maskUnits="userSpaceOnUse" x="130" y="187" width="169" height="111">
<path d="M130.544 288.948C130.544 288.948 147.324 230.522 150.492 218.032C153.66 205.543 158.452 197.416 168.338 195.434C178.224 193.452 196.477 191.613 196.477 191.613C196.477 191.613 212.341 190.021 223.835 190.817C235.329 191.613 245.845 197.758 251.393 201.961C256.941 206.164 273.004 220.595 273.004 220.595L271.022 187.291L285.493 188.477C285.493 188.477 296.001 234.868 297.386 243.401C298.771 251.934 298.779 255.699 297.386 256.686C295.993 257.673 298.381 258.278 285.692 254.107C273.004 249.936 258.135 244.197 250.008 241.817C241.88 239.437 240.885 239.039 240.885 239.039C240.885 239.039 220.985 268.984 214.657 277.907C210.314 284.243 206.45 290.895 203.099 297.807" fill="white"/>
</mask>
<g mask="url(#mask1_45_1135)">
<path opacity="0.2" d="M297.362 256.622C298.755 255.635 298.755 251.846 297.362 243.337C296.566 238.251 292.466 219.696 289.314 205.543C290.564 222.259 291.049 238.593 288.518 241.642C282.946 248.233 274.803 239.572 274.803 239.572L273.251 226.725C273.251 226.725 245.502 206.259 235.091 202.789C224.679 199.318 213.599 198.626 202.829 202.096C192.059 205.567 183.056 209.038 176.465 215.628C169.874 222.219 147.013 274.946 147.013 274.946L144.426 290.604L203.076 297.704C206.426 290.792 210.29 284.14 214.633 277.804C221.001 268.881 240.862 238.935 240.862 238.935C240.862 238.935 241.857 239.333 249.984 241.713C258.111 244.093 272.98 249.84 285.669 254.004C298.357 258.167 295.977 257.617 297.362 256.622Z" fill="#0047FF"/>
</g>
<path d="M130.544 288.948C130.544 288.948 147.324 230.522 150.492 218.032C153.66 205.543 158.452 197.416 168.338 195.434C178.224 193.452 196.477 191.613 196.477 191.613C196.477 191.613 212.341 190.021 223.835 190.817C235.329 191.613 245.845 197.758 251.393 201.961C256.941 206.164 273.004 220.595 273.004 220.595L271.022 187.291L285.493 188.477C285.493 188.477 296.001 234.868 297.386 243.401C298.771 251.934 298.779 255.699 297.386 256.686C295.993 257.673 298.381 258.278 285.692 254.107C273.004 249.936 258.135 244.197 250.008 241.817C241.88 239.437 240.885 239.039 240.885 239.039C240.885 239.039 220.985 268.984 214.657 277.907C210.314 284.243 206.45 290.895 203.099 297.807" stroke="#0047FF" stroke-linecap="round" stroke-linejoin="round"/>
<path d="M246.521 229.781L240.862 238.983L257.61 229.781" stroke="#0047FF" stroke-linecap="round" stroke-linejoin="round"/>
<path d="M272.98 220.54C272.98 220.54 273.776 236.993 274.763 239.572C275.75 242.151 280.12 243.337 280.12 243.337" fill="white"/>
<path d="M272.98 220.54C272.98 220.54 273.776 236.993 274.763 239.572C275.75 242.151 280.12 243.337 280.12 243.337" stroke="#0047FF" stroke-linecap="round" stroke-linejoin="round"/>
<path d="M185.619 220.038C185.619 220.038 183.454 225.173 184.537 225.173C185.619 225.173 192.648 222.474 195.895 222.474C199.143 222.474 202.653 228.15 202.653 228.15C202.653 228.15 212.118 221.121 215.095 221.933C216.553 222.421 217.89 223.213 219.019 224.257C219.207 224.421 219.438 224.529 219.685 224.567C219.931 224.605 220.183 224.573 220.413 224.474C220.642 224.375 220.838 224.213 220.979 224.007C221.119 223.801 221.199 223.559 221.208 223.31C221.264 221.853 221.312 219.863 221.312 217.332C221.312 211.386 216.178 195.163 206.713 194.351C197.249 193.54 195.625 200.298 191.589 208.409C187.553 216.52 185.619 220.038 185.619 220.038Z" fill="#0047FF"/>
<path d="M205.973 185.054C205.973 185.054 196.851 186.264 192.687 190.244C188.524 194.224 189.909 200.552 187.728 206.299C185.547 212.047 181.782 223.748 183.748 223.549C185.715 223.35 192.672 217.802 194.654 219.187C196.636 220.572 201.197 226.351 201.993 226.717C202.789 227.083 212.898 219.784 214.283 218.988C215.668 218.192 222.41 226.948 222.609 224.56C222.808 222.172 223.206 208.106 221.813 199.581C220.42 191.056 210.534 185.253 205.973 185.054Z" fill="white" stroke="#0047FF" stroke-linecap="round" stroke-linejoin="round"/>
<path d="M209.141 173.95C209.141 173.95 205.774 184.258 202.98 187.856C200.186 191.454 199 192.019 198.029 200.345C197.058 208.671 201.396 227.505 202.805 227.107C204.214 226.709 217.873 204.906 222.434 201.332C226.995 197.758 231.755 194.001 231.755 194.001C231.755 194.001 220.651 190.626 216.886 185.874C214.041 182.077 211.454 178.093 209.141 173.95Z" fill="white"/>
<mask id="mask2_45_1135" style="mask-type:luminance" maskUnits="userSpaceOnUse" x="197" y="173" width="35" height="55">
<path d="M209.141 173.95C209.141 173.95 205.774 184.258 202.98 187.856C200.186 191.454 199 192.019 198.029 200.345C197.058 208.671 201.396 227.505 202.805 227.107C204.214 226.709 217.873 204.906 222.434 201.332C226.995 197.758 231.755 194.001 231.755 194.001C231.755 194.001 220.651 190.626 216.886 185.874C214.041 182.077 211.454 178.093 209.141 173.95Z" fill="white"/>
</mask>
<g mask="url(#mask2_45_1135)">
<path opacity="0.2" d="M224.401 199.796C228.261 196.763 231.748 194.009 231.748 194.009C231.748 194.009 220.643 190.634 216.878 185.882C214.037 182.092 211.452 178.117 209.141 173.982C207.986 177.471 206.639 180.894 205.105 184.234C206.785 188.939 211.466 196.612 224.401 199.796Z" fill="#0047FF"/>
<path d="M216.878 185.85C214.037 182.06 211.452 178.085 209.141 173.95C209.141 173.95 208.011 177.413 206.522 181.018C207.756 184.592 210.232 189.91 214.666 193.046C218.251 195.438 222.227 197.184 226.414 198.204L231.748 194.001C231.748 194.001 220.643 190.602 216.878 185.85Z" fill="#0047FF"/>
</g>
<path d="M209.141 173.95C209.141 173.95 205.774 184.258 202.98 187.856C200.186 191.454 199 192.019 198.029 200.345C197.058 208.671 201.396 227.505 202.805 227.107C204.214 226.709 217.873 204.906 222.434 201.332C226.995 197.758 231.755 194.001 231.755 194.001C231.755 194.001 220.651 190.626 216.886 185.874C214.041 182.077 211.454 178.093 209.141 173.95Z" stroke="#0047FF" stroke-linecap="round" stroke-linejoin="round"/>
<path d="M251.369 147.586C251.369 147.586 250.78 160.872 251.17 165.226C251.56 169.58 253.152 177.166 249.578 184.258C246.004 191.35 243.035 195.959 239.667 197.145C236.3 198.331 225.395 195.959 216.671 189.416C207.947 182.873 206.363 169.397 204.97 165.035C203.577 160.673 205.169 145.803 214.092 141.043C221.316 137.324 229.699 136.543 237.486 138.862C242.254 140.446 251.369 147.586 251.369 147.586Z" fill="white"/>
<mask id="mask3_45_1135" style="mask-type:luminance" maskUnits="userSpaceOnUse" x="204" y="137" width="48" height="61">
<path d="M251.369 147.586C251.369 147.586 250.78 160.872 251.17 165.226C251.56 169.58 253.152 177.166 249.578 184.258C246.004 191.35 243.035 195.959 239.667 197.145C236.3 198.331 225.395 195.959 216.671 189.416C207.947 182.873 206.363 169.397 204.97 165.035C203.577 160.673 205.169 145.803 214.092 141.043C221.316 137.324 229.699 136.543 237.486 138.862C242.254 140.446 251.369 147.586 251.369 147.586Z" fill="white"/>
</mask>
<g mask="url(#mask3_45_1135)">
<path opacity="0.2" d="M214.124 141.043C212.851 141.732 211.698 142.622 210.709 143.678L215.302 146.942C215.302 146.942 221.2 141.043 234.406 149.369C241.22 153.668 247.094 154.36 251.194 154.018C251.289 150.484 251.416 147.586 251.416 147.586C251.416 147.586 242.302 140.422 237.542 138.83C229.743 136.515 221.351 137.308 214.124 141.043Z" fill="#0047FF"/>
</g>
<path d="M251.369 147.586C251.369 147.586 250.78 160.872 251.17 165.226C251.56 169.58 253.152 177.166 249.578 184.258C246.004 191.35 243.035 195.959 239.667 197.145C236.3 198.331 225.395 195.959 216.671 189.416C207.947 182.873 206.363 169.397 204.97 165.035C203.577 160.673 205.169 145.803 214.092 141.043C221.316 137.324 229.699 136.543 237.486 138.862C242.254 140.446 251.369 147.586 251.369 147.586Z" stroke="#0047FF" stroke-linecap="round" stroke-linejoin="round"/>
<path d="M232.647 165.504C232.647 166.913 232.098 168.059 231.421 168.059C230.745 168.059 230.195 166.913 230.195 165.504C230.195 164.095 230.745 162.941 231.421 162.941C232.098 162.941 232.647 164.087 232.647 165.504Z" fill="#0047FF"/>
<path d="M247.126 166.834C247.126 168.251 246.577 169.397 245.9 169.397C245.224 169.397 244.674 168.251 244.674 166.834C244.674 165.417 245.224 164.279 245.9 164.279C246.577 164.279 247.126 165.425 247.126 166.834Z" fill="#0047FF"/>
<path d="M243.242 163.053C243.242 163.053 239.477 166.818 240.464 168.402C241.451 169.986 243.759 170.877 243.043 173.178C242.326 175.478 237.097 176.362 235.313 173.178" stroke="#0047FF" stroke-linecap="round" stroke-linejoin="round"/>
<path d="M224.011 175.343C225.489 177.137 227.333 178.595 229.419 179.62C231.505 180.646 233.786 181.214 236.11 181.289C236.11 181.289 227.975 186.638 224.409 186.065C220.842 185.492 224.011 175.343 224.011 175.343Z" fill="#0047FF" stroke="#0047FF" stroke-linecap="round" stroke-linejoin="round"/>
<path d="M225.913 157.942C225.913 157.942 229.367 153.166 236.261 156.135" stroke="#0047FF" stroke-linecap="round" stroke-linejoin="round"/>
<path d="M244.626 158.094C244.626 158.094 248.989 157.091 250.573 161.278" stroke="#0047FF" stroke-linecap="round" stroke-linejoin="round"/>
<path d="M206.371 170.384C206.371 170.384 208.154 162.655 212.516 159.877C216.878 157.099 221.041 157.696 218.462 153.931C215.883 150.165 214.482 146.392 220.054 144.609C225.626 142.826 236.508 145.803 242.852 148.183C249.196 150.563 261.486 151.367 264.662 142.428C266.62 136.92 260.889 132.534 256.702 130.281C252.062 127.798 246.856 126.564 241.618 127.487C238.434 128.037 235.401 129.286 232.217 129.605C226.828 130.154 222.076 127.655 216.703 128.952C212.193 130.029 208.156 132.543 205.201 136.116C200.226 142.229 198.833 153.334 206.371 170.384Z" fill="#0047FF"/>
<mask id="mask4_45_1135" style="mask-type:luminance" maskUnits="userSpaceOnUse" x="201" y="127" width="65" height="44">
<path d="M206.371 170.384C206.371 170.384 208.154 162.655 212.516 159.877C216.878 157.099 221.041 157.696 218.462 153.931C215.883 150.165 214.482 146.392 220.054 144.609C225.626 142.826 236.508 145.803 242.852 148.183C249.196 150.563 261.486 151.367 264.662 142.428C266.62 136.92 260.889 132.534 256.702 130.281C252.062 127.798 246.856 126.564 241.618 127.487C238.434 128.037 235.401 129.286 232.217 129.605C226.828 130.154 222.076 127.655 216.703 128.952C212.193 130.029 208.156 132.543 205.201 136.116C200.226 142.229 198.833 153.334 206.371 170.384Z" fill="white"/>
</mask>
<g mask="url(#mask4_45_1135)">
<path d="M252.276 127.113C252.276 127.113 262.577 132.685 255.365 141.943C248.153 151.2 241.363 144.832 224.257 141.537C207.151 138.241 197.066 146.687 197.066 146.687" stroke="#0047FF" stroke-linecap="round" stroke-linejoin="round"/>
<path d="M198.507 156.812C198.507 156.812 201.802 150.444 212.516 148.573C223.231 146.703 223.851 148.367 223.851 148.367" stroke="#0047FF" stroke-linecap="round" stroke-linejoin="round"/>
</g>
<path d="M206.371 170.384C206.371 170.384 208.154 162.655 212.516 159.877C216.878 157.099 221.041 157.696 218.462 153.931C215.883 150.165 214.482 146.392 220.054 144.609C225.626 142.826 236.508 145.803 242.852 148.183C249.196 150.563 261.486 151.367 264.662 142.428C266.62 136.92 260.889 132.534 256.702 130.281C252.062 127.798 246.856 126.564 241.618 127.487C238.434 128.037 235.401 129.286 232.217 129.605C226.828 130.154 222.076 127.655 216.703 128.952C212.193 130.029 208.156 132.543 205.201 136.116C200.226 142.229 198.833 153.334 206.371 170.384Z" stroke="#0047FF" stroke-linecap="round" stroke-linejoin="round"/>
<path d="M210.852 167.566C210.852 167.566 205.71 155.793 201.181 161.922C196.652 168.051 204.859 175.804 211.02 174.3" fill="white"/>
<path d="M210.852 167.566C210.852 167.566 205.71 155.793 201.181 161.922C196.652 168.051 204.859 175.804 211.02 174.3" stroke="#0047FF" stroke-linecap="round" stroke-linejoin="round"/>
<path d="M266.835 166.221C266.835 166.221 263.468 165.823 262.855 168.609C262.242 171.395 261.661 175.773 262.855 175.773C264.049 175.773 266.222 175.184 267.018 173.385C267.814 171.586 268.61 166.046 268.61 166.046L266.835 166.221Z" fill="white" stroke="#0047FF" stroke-linecap="round" stroke-linejoin="round"/>
<path d="M272.184 165.226C272.184 165.226 267.408 164.43 266.835 166.221C266.262 168.012 265.45 174.181 266.039 174.348C266.628 174.515 270.202 172.963 270.202 172.963L272.184 165.226Z" fill="white" stroke="#0047FF" stroke-linecap="round" stroke-linejoin="round"/>
<path d="M278.528 165.624C278.528 165.624 272.956 162.058 271.595 163.841C270.234 165.624 270.202 172.963 270.202 172.963C270.695 173.072 271.207 173.056 271.692 172.917C272.177 172.778 272.62 172.52 272.98 172.167C273.975 170.981 275.161 169.397 275.161 169.397C275.161 169.397 279.141 170.384 279.722 170.193C280.303 170.002 281.704 170.193 281.314 168.211C280.924 166.229 278.528 165.624 278.528 165.624Z" fill="white" stroke="#0047FF" stroke-linecap="round" stroke-linejoin="round"/>
<path d="M286.066 169.198C283.565 167.469 281.523 165.154 280.12 162.456C278.138 158.293 277.143 158.476 276.14 160.275C275.137 162.074 276.331 163.841 277.127 165.425C277.923 167.009 281.29 170.782 281.29 170.782L286.066 169.198Z" fill="white" stroke="#0047FF" stroke-linecap="round" stroke-linejoin="round"/>
<path d="M250.405 196.93C250.405 196.93 247.532 221.471 247.978 222.8C248.423 224.13 253.279 225.674 254.385 224.79C255.492 223.907 254.831 222.14 254.385 221.033C253.94 219.927 258.143 199.366 258.143 199.366L250.405 196.93Z" fill="#0047FF" stroke="#0047FF" stroke-linecap="round" stroke-linejoin="round"/>
<path d="M178.009 205.432L192.56 250.875C192.56 250.875 225.992 231.405 233.825 221.248C241.658 211.091 246.179 199.637 248.949 198.562C251.719 197.488 261.494 200.154 262.927 201.746C264.359 203.338 264.025 205.081 262.29 206.721C260.555 208.361 259.568 208.592 259.568 208.592C259.568 208.592 259.48 212.166 258.7 212.787C257.92 213.408 258.103 212.604 257.904 213.4C257.769 214.251 257.457 215.064 256.989 215.788C256.415 216.584 256.193 216.998 255.643 217.212C254.503 217.698 253.316 218.066 252.101 218.311C249.962 218.863 247.786 219.262 245.59 219.505C244.213 219.744 235.242 237.471 226.82 248.034C218.398 258.597 191.796 282.819 187.617 282.946C183.438 283.073 158.889 242.525 153.628 232.567" fill="white"/>
<mask id="mask5_45_1135" style="mask-type:luminance" maskUnits="userSpaceOnUse" x="153" y="198" width="111" height="85">
<path d="M178.009 205.432L192.56 250.875C192.56 250.875 225.992 231.405 233.825 221.248C241.658 211.091 246.179 199.637 248.949 198.562C251.719 197.488 261.494 200.154 262.927 201.746C264.359 203.338 264.025 205.081 262.29 206.721C260.555 208.361 259.568 208.592 259.568 208.592C259.568 208.592 259.48 212.166 258.7 212.787C257.92 213.408 258.103 212.604 257.904 213.4C257.769 214.251 257.457 215.064 256.989 215.788C256.415 216.584 256.193 216.998 255.643 217.212C254.503 217.698 253.316 218.066 252.101 218.311C249.962 218.863 247.786 219.262 245.59 219.505C244.213 219.744 235.242 237.471 226.82 248.034C218.398 258.597 191.796 282.819 187.617 282.946C183.438 283.073 158.889 242.525 153.628 232.567" fill="white"/>
</mask>
<g mask="url(#mask5_45_1135)">
<path opacity="0.2" d="M256.988 215.772C257.457 215.048 257.768 214.235 257.904 213.384C258.079 212.588 257.904 213.384 258.7 212.771C259.496 212.158 259.567 208.576 259.567 208.576C259.567 208.576 260.555 208.345 262.29 206.705C264.025 205.066 264.367 203.275 262.927 201.73C261.486 200.186 251.695 197.512 248.949 198.546C248.232 198.825 247.357 199.82 246.402 201.316C247.858 203.704 249.586 205.161 247.994 209.332C245.606 215.7 240.034 223.66 235.258 230.426C230.482 237.192 190.682 274.604 185.906 273.808C182.005 273.155 170.678 259.48 166.65 254.521C175.279 268.363 185.149 282.986 187.657 282.914C191.82 282.787 218.454 258.573 226.86 248.002C235.266 237.431 244.213 219.696 245.59 219.489C247.786 219.246 249.962 218.847 252.101 218.295C253.316 218.05 254.503 217.682 255.643 217.197C256.232 216.982 256.415 216.584 256.988 215.772Z" fill="#0047FF"/>
</g>
<path d="M178.009 205.432L192.56 250.875C192.56 250.875 225.992 231.405 233.825 221.248C241.658 211.091 246.179 199.637 248.949 198.562C251.719 197.488 261.494 200.154 262.927 201.746C264.359 203.338 264.025 205.081 262.29 206.721C260.555 208.361 259.568 208.592 259.568 208.592C259.568 208.592 259.48 212.166 258.7 212.787C257.92 213.408 258.103 212.604 257.904 213.4C257.768 214.251 257.457 215.064 256.989 215.788C256.415 216.584 256.193 216.998 255.643 217.212C254.503 217.698 253.316 218.066 252.101 218.311C249.962 218.863 247.786 219.262 245.59 219.505C244.213 219.744 235.242 237.471 226.82 248.034C218.398 258.597 191.796 282.819 187.617 282.946C183.438 283.073 158.889 242.525 153.628 232.567" stroke="#0047FF" stroke-linecap="round" stroke-linejoin="round"/>
<path d="M192.56 250.875C192.56 250.875 188.747 251.034 185.516 261.223" stroke="#0047FF" stroke-linecap="round" stroke-linejoin="round"/>
<path d="M252.101 218.295C253.316 218.05 254.503 217.682 255.643 217.197C256.232 216.982 256.439 216.584 256.988 215.772C257.457 215.048 257.768 214.235 257.904 213.384C258.079 212.588 258.596 212.317 259.368 211.696C260.141 211.075 259.544 208.576 259.544 208.576C259.544 208.576 260.531 208.345 262.266 206.705C264.001 205.066 264.343 203.275 262.903 201.73C261.462 200.186 251.671 197.512 248.925 198.546C246.179 199.581 242.024 210.144 234.82 219.959L241.522 225.451C243.624 221.949 245.12 219.577 245.614 219.489C247.802 219.245 249.969 218.846 252.101 218.295Z" fill="white"/>
<mask id="mask6_45_1135" style="mask-type:luminance" maskUnits="userSpaceOnUse" x="234" y="198" width="30" height="28">
<path d="M252.101 218.295C253.316 218.05 254.503 217.682 255.643 217.197C256.232 216.982 256.439 216.584 256.988 215.772C257.457 215.048 257.768 214.235 257.904 213.384C258.079 212.588 258.596 212.317 259.368 211.696C260.141 211.075 259.544 208.576 259.544 208.576C259.544 208.576 260.531 208.345 262.266 206.705C264.001 205.066 264.343 203.275 262.903 201.73C261.462 200.186 251.671 197.512 248.925 198.546C246.179 199.581 242.024 210.144 234.82 219.959L241.522 225.451C243.624 221.949 245.12 219.577 245.614 219.489C247.802 219.245 249.969 218.846 252.101 218.295Z" fill="white"/>
</mask>
<g mask="url(#mask6_45_1135)">
<path opacity="0.2" d="M256.988 215.772C257.457 215.048 257.768 214.235 257.904 213.384C258.079 212.588 257.904 213.384 258.7 212.771C259.496 212.158 259.567 208.576 259.567 208.576C259.567 208.576 260.555 208.345 262.29 206.705C264.025 205.066 264.367 203.275 262.927 201.73C261.486 200.186 251.695 197.512 248.949 198.546C248.232 198.825 247.357 199.82 246.402 201.316C247.858 203.704 249.586 205.161 247.994 209.332C245.606 215.7 240.034 223.66 235.258 230.426C230.482 237.192 190.682 274.604 185.906 273.808C182.005 273.155 170.678 259.48 166.65 254.521C175.279 268.363 185.149 282.986 187.657 282.914C191.82 282.787 218.454 258.573 226.86 248.002C235.266 237.431 244.213 219.696 245.59 219.489C247.786 219.246 249.962 218.847 252.101 218.295C253.316 218.05 254.503 217.682 255.643 217.197C256.232 216.982 256.415 216.584 256.988 215.772Z" fill="#0047FF"/>
</g>
<path d="M252.101 218.295C253.316 218.05 254.503 217.682 255.643 217.197C256.232 216.982 256.439 216.584 256.988 215.772C257.457 215.048 257.768 214.235 257.904 213.384C258.079 212.588 258.596 212.317 259.368 211.696C260.141 211.075 259.544 208.576 259.544 208.576C259.544 208.576 260.531 208.345 262.266 206.705C264.001 205.066 264.343 203.275 262.903 201.73C261.462 200.186 251.671 197.512 248.925 198.546C246.179 199.581 242.024 210.144 234.82 219.959L241.522 225.451C243.624 221.949 245.12 219.577 245.614 219.489C247.802 219.245 249.969 218.846 252.101 218.295Z" stroke="#0047FF" stroke-linecap="round" stroke-linejoin="round"/>
<path d="M243.44 180.891C241.251 180.891 239.46 184.075 239.46 187.928C239.46 191.78 241.236 194.964 243.44 194.964L291.996 209.635V165.624L243.44 180.891Z" stroke="#0047FF" stroke-linecap="round" stroke-linejoin="round"/>
<path d="M270.759 175.032L251.814 180.485" stroke="#0047FF" stroke-linecap="round" stroke-linejoin="round"/>
<path d="M277.095 173.21L273.131 174.356" stroke="#0047FF" stroke-linecap="round" stroke-linejoin="round"/>
<path d="M249.657 178.933L243.44 180.891C241.251 180.891 239.46 184.075 239.46 187.928C239.46 191.78 241.236 194.964 243.44 194.964L249.052 196.66C247.733 193.871 247.1 190.807 247.205 187.723C247.31 184.639 248.151 181.626 249.657 178.933Z" fill="#0047FF" stroke="#0047FF" stroke-linecap="round" stroke-linejoin="round"/>
<path d="M296.176 217.483C305.373 217.483 312.828 204.251 312.828 187.928C312.828 171.605 305.373 158.372 296.176 158.372C286.979 158.372 279.523 171.605 279.523 187.928C279.523 204.251 286.979 217.483 296.176 217.483Z" stroke="#0047FF" stroke-linecap="round" stroke-linejoin="round"/>
<path d="M296.176 181.369L280.311 177.126L278.926 188.429L280.709 199.923L296.176 194.487H296.5" stroke="#0047FF" stroke-linecap="round" stroke-linejoin="round"/>
<path d="M296.176 155.714C286.154 155.714 278.027 170.137 278.027 187.928C278.027 205.718 286.154 220.142 296.176 220.142C306.197 220.142 314.324 205.718 314.324 187.928C314.324 170.137 306.197 155.714 296.176 155.714ZM296.621 215.573C288.271 215.573 281.497 203.195 281.497 187.928C281.497 172.66 288.271 160.291 296.621 160.291C304.971 160.291 311.745 172.66 311.745 187.928C311.745 203.195 304.979 215.573 296.621 215.573Z" fill="#0047FF" stroke="#0047FF" stroke-linecap="round" stroke-linejoin="round"/>
<path d="M296.176 194.487C298.216 194.487 299.869 191.55 299.869 187.928C299.869 184.305 298.216 181.369 296.176 181.369C294.136 181.369 292.482 184.305 292.482 187.928C292.482 191.55 294.136 194.487 296.176 194.487Z" stroke="#0047FF" stroke-linecap="round" stroke-linejoin="round"/>
<path d="M342.98 154.511L346.666 153.365" stroke="#0047FF" stroke-linecap="round" stroke-linejoin="round"/>
<path d="M316.593 162.679L338.436 155.913" stroke="#0047FF" stroke-linecap="round" stroke-linejoin="round"/>
<path d="M319.458 186.304L339.502 187.02" stroke="#0047FF" stroke-linecap="round" stroke-linejoin="round"/>
<path d="M336.063 215.748L340.218 217.085" stroke="#0047FF" stroke-linecap="round" stroke-linejoin="round"/>
<path d="M318.026 209.929L332.768 214.689" stroke="#0047FF" stroke-linecap="round" stroke-linejoin="round"/>
<path d="M318.742 173.417L329.48 171.984" stroke="#0047FF" stroke-linecap="round" stroke-linejoin="round"/>
<path d="M313.728 217.802L321.608 224.249" stroke="#0047FF" stroke-linecap="round" stroke-linejoin="round"/>
</g>
<path d="M104.5 75L123.5 102" stroke="#0047FF" stroke-linecap="round"/>
<path d="M224.5 56L223 67.5" stroke="#0047FF" stroke-linecap="round"/>
<path d="M295 304L274.5 295.5" stroke="#0047FF" stroke-linecap="round"/>
<path d="M101 316.5L123 275.5" stroke="#0047FF" stroke-linecap="round"/>
<path d="M325.5 257.5L274 270.5" stroke="#0047FF" stroke-linecap="round"/>
<path d="M292 111.5L274.5 116" stroke="#0047FF" stroke-linecap="round"/>
<defs>
<clipPath id="clip0_45_1135">
<rect width="18" height="18" fill="white" transform="translate(87 48)"/>
</clipPath>
<clipPath id="clip1_45_1135">
<rect width="28" height="28" fill="white" transform="translate(79 327)"/>
</clipPath>
<clipPath id="clip2_45_1135">
<rect width="18" height="18" fill="white" transform="translate(306 300)"/>
</clipPath>
<clipPath id="clip3_45_1135">
<rect width="34" height="34" fill="white" transform="translate(305 89)"/>
</clipPath>
<clipPath id="clip4_45_1135">
<rect width="14" height="14" fill="white" transform="translate(84 168)"/>
</clipPath>
</defs>
</svg>
