<svg width="540" height="338" viewBox="0 0 540 338" fill="none" xmlns="http://www.w3.org/2000/svg">
<path d="M539.41 329.826C534.255 331.247 528.98 331.554 523.671 331.038C518.756 330.561 513.906 329.561 508.979 329.188C503.387 328.763 497.846 329.266 492.442 330.782C488.201 331.971 484.216 333.794 480.116 335.371C477.215 336.488 474.11 337.432 470.981 336.837C467.158 336.111 464.172 333.166 461.836 330.241C456.751 323.872 452.925 315.709 451.51 307.656C451.219 306.002 450.511 302.83 451.985 301.482C453.697 299.917 455.937 302.837 457.017 303.839C460.234 306.827 466.692 312.364 460.991 316.303C459.323 317.455 457.288 318.107 455.353 318.636C452.793 319.336 450.164 319.828 447.547 320.257C444.528 320.751 441.433 320.89 438.435 321.485C436.326 321.904 434.753 322.956 433.249 324.469C431.965 325.762 430.847 327.194 429.64 328.555C428.125 330.265 426.365 331.754 424.472 333.03C421.16 335.263 417.306 336.915 413.365 337.617C411.705 337.913 408.453 338.551 407.167 336.99C406.159 335.767 406.984 332.97 407.177 331.609C407.673 328.124 408.333 324.66 409.031 321.211C409.836 317.234 410.715 313.27 411.706 309.335C412.467 306.317 413.234 303.252 414.382 300.354C416.855 294.113 420.412 288.223 423.707 282.395C427.486 275.708 431.378 269.087 435.268 262.465C436.391 260.553 437.644 258.664 438.5 256.611C439.728 253.669 440.601 250.566 441.462 247.502C443.819 239.114 445.762 230.612 447.798 222.143C449.764 213.961 451.98 205.87 454.353 197.796C455.76 193.009 457.197 188.226 458.823 183.508C459.911 180.352 461.214 177.424 462.675 174.441C464.61 170.489 464.557 165.419 464.305 161.128C464.211 159.536 463.856 157.949 463.815 156.36C463.771 154.71 464.079 153.029 464.4 151.417C465.237 147.22 466.509 143.088 467.939 139.058C468.532 137.386 469.19 135.747 469.908 134.125C470.949 131.776 472.485 129.086 472.475 126.441C472.466 123.973 469.757 122.294 467.764 121.343C465.445 120.235 462.693 119.782 460.331 121.038C458.381 122.074 457.788 124.134 457.326 126.141C456.856 128.178 456.223 130.172 455.769 132.213C455.589 133.022 455.47 133.809 455.428 134.635C455.423 134.727 455.422 134.943 455.478 135.035C455.616 135.261 455.189 134.86 455.548 135.014C455.982 135.2 456.657 135.125 457.137 135.189C459.957 135.567 462.111 136.95 464.387 138.569C464.843 138.893 465.295 139.223 465.765 139.525C465.907 139.617 466.128 139.719 466.264 139.832C466.898 140.36 466.304 139.606 466.285 140.088C466.281 140.179 466.312 140.103 466.389 139.954C466.504 139.731 466.757 139.502 466.91 139.298C467.894 137.989 468.789 136.607 469.668 135.226C470.696 133.611 471.693 131.97 472.599 130.282C473.463 128.672 474.356 127.101 473.831 125.222C473.219 123.031 471.458 120.98 469.505 119.852C467.9 118.925 465.85 118.659 464.041 118.435C460.527 118.001 456.534 117.683 453.463 119.72C450.218 121.871 447.3 124.614 444.571 127.374C441.659 130.32 438.79 133.497 436.93 137.232C434.485 142.145 432.173 147.198 430.426 152.406C429.769 154.365 429.376 156.359 428.95 158.378C428.684 159.637 428.412 160.902 428.25 162.18C428.183 162.711 427.782 164.941 428.323 165.348C428.993 165.853 430.95 164.851 431.603 164.558C432.194 164.294 432.774 163.999 433.334 163.674C433.542 163.554 433.752 163.378 433.97 163.282C434.031 163.255 434.075 163.184 434.14 163.166C434.172 163.141 434.203 163.113 434.232 163.083C434.578 162.729 434.773 163.148 434.818 164.341C434.754 164.4 433.947 164.584 433.661 164.675C432.897 164.918 432.154 165.216 431.437 165.575C429.514 166.539 427.777 167.907 426.57 169.704C425.333 171.544 424.608 173.752 423.768 175.792C422.858 177.999 421.944 180.206 420.965 182.384C418.995 186.77 416.749 190.887 413.651 194.579C410.365 198.494 406.793 202.189 402.931 205.538C400.834 207.356 398.644 209.076 396.343 210.629C394.087 212.151 391.678 213.407 389.542 215.107C385.766 218.112 382.602 221.814 379.797 225.721C375.48 231.735 371.162 237.785 367.065 243.95C364.496 247.815 362.186 251.776 359.953 255.839C357.597 260.127 354.623 264.11 351.39 267.772C348.657 270.869 345.539 274.188 341.813 276.098C338.729 277.678 335.336 276.824 332.245 275.664C328.256 274.168 324.528 272.054 320.837 269.949C317.8 268.217 314.843 266.505 311.984 264.48C310.325 263.305 308.682 262.105 306.986 260.983C306.36 260.568 305.727 260.16 305.07 259.796C304.837 259.666 303.693 259.339 303.578 259.16C303.624 259.231 303.875 258.947 303.89 258.962C303.915 258.987 303.839 259.345 303.839 259.39C303.836 260.02 303.838 260.644 303.875 261.275C303.982 263.11 304.185 264.939 304.368 266.768C304.754 270.628 305.298 274.598 305.016 278.483C304.822 281.147 304.258 283.796 303.888 286.441C303.74 287.503 303.587 288.577 303.552 289.65C303.547 289.796 303.639 290.525 303.578 290.605C303.457 290.762 302.981 290.475 303.008 290.41C303.086 290.217 304.553 289.406 304.947 289.115C306.113 288.254 307.241 287.341 308.356 286.416C310.768 284.416 313.149 282.35 315.351 280.119C315.751 279.713 316.145 279.302 316.519 278.872C316.705 278.657 316.976 278.108 317.204 277.964C317.422 277.826 317.111 277.913 317.242 277.982C317.234 277.978 317.48 278.736 317.573 278.541C317.573 278.541 317.23 278.677 317.228 278.679C316.558 279.354 315.652 279.909 314.942 280.572C311.477 283.807 307.569 286.43 304.984 290.492C302.104 295.017 301.109 300.047 301.095 305.347C301.08 310.463 301.57 315.605 302.375 320.655C303.064 324.981 304.068 328.924 306.055 332.853C306.583 333.897 307.691 335.587 306.917 336.764C306.214 337.833 304.376 337.71 303.339 337.291C302.385 336.905 301.937 336.033 301.123 335.482C299.618 334.461 297.73 335.257 296.082 335.003C293.44 334.596 292.014 331.904 291.237 329.613C290.586 327.692 289.802 324.904 290.317 322.857C290.511 322.088 291.261 321.543 291.97 322.154C292.991 323.035 293.137 325.312 293.057 326.525C292.907 328.793 291.633 330.98 290.391 332.826C289.298 334.45 288.072 334.842 286.314 335.405C285.43 335.688 284.697 336.251 283.842 336.603C282.973 336.962 282.059 337.201 281.14 337.392C279.898 337.649 278.628 337.833 277.363 337.926C276.291 338.006 276.296 336.335 277.363 336.256C278.797 336.149 280.236 335.923 281.629 335.567C283.466 335.096 285.01 334.051 286.836 333.536C287.958 333.22 288.569 332.578 289.188 331.599C289.892 330.485 290.636 329.28 291.06 328.025C291.466 326.826 291.485 325.626 291.162 324.403C291.096 324.153 290.768 323.54 290.799 323.348C290.803 323.323 291.936 323.153 291.952 323.193C291.985 323.274 291.903 323.837 291.907 324.083C291.915 324.625 291.965 325.168 292.037 325.705C292.224 327.089 292.557 328.482 293.07 329.782C293.513 330.905 294.14 332.132 295.146 332.855C296.527 333.848 298.349 333.146 299.923 333.353C301.215 333.523 302.152 334.067 303.04 334.991C303.365 335.329 303.638 335.645 304.097 335.795C304.357 335.88 304.637 335.9 304.909 335.896C305.026 335.894 305.465 335.925 305.56 335.814C305.526 335.854 305.459 336.006 305.506 335.812C305.637 335.274 304.834 334.133 304.613 333.696C304.042 332.568 303.476 331.44 302.997 330.268C302.234 328.398 301.764 326.439 301.366 324.463C300.407 319.701 299.831 314.838 299.558 309.989C299.273 304.947 299.246 299.753 300.965 294.937C302.485 290.679 305.115 286.702 308.622 283.82C310.646 282.156 312.576 280.44 314.524 278.688C315.405 277.894 316.865 276.406 318.201 276.987C320.182 277.85 317.464 280.343 316.741 281.088C314.517 283.377 312.087 285.479 309.634 287.517C307.85 289 305.956 290.822 303.85 291.847C300.77 293.348 302.171 286.736 302.337 285.583C302.704 283.026 303.274 280.45 303.379 277.865C303.458 275.924 303.332 273.973 303.184 272.038C302.889 268.201 302.295 264.369 302.169 260.522C302.142 259.705 302 258.429 302.684 257.822C303.452 257.14 304.6 257.685 305.371 258.065C308.741 259.725 311.71 262.298 314.795 264.414C317.71 266.413 320.859 268.065 323.942 269.787C327.675 271.873 331.589 274.049 335.79 275.013C337.372 275.376 339.031 275.538 340.55 274.861C342.304 274.079 343.86 272.816 345.291 271.559C349.061 268.244 352.356 264.326 355.23 260.22C357.903 256.402 359.888 252.201 362.327 248.24C364.877 244.098 367.629 240.08 370.432 236.105C372.302 233.454 374.239 230.847 376.071 228.169C378.368 224.812 380.724 221.498 383.487 218.501C385.231 216.608 387.119 214.853 389.17 213.298C391.298 211.684 393.663 210.45 395.861 208.942C400.567 205.713 404.802 201.8 408.7 197.643C411.953 194.176 414.94 190.607 417.175 186.39C419.546 181.914 421.366 177.183 423.329 172.522C424.147 170.579 425.005 168.737 426.462 167.178C427.816 165.728 429.505 164.598 431.313 163.794C432.291 163.36 433.645 162.675 434.751 162.678C436.056 162.682 435.829 163.962 435.072 164.542C434.078 165.305 432.861 165.846 431.709 166.318C430.61 166.768 429.147 167.363 427.939 167.012C426.453 166.58 426.417 164.707 426.47 163.434C426.575 160.893 427.259 158.383 427.769 155.903C428.702 151.361 430.597 147.045 432.47 142.822C434.385 138.505 436.31 134.356 439.315 130.686C442.148 127.228 445.382 124.061 448.807 121.192C451.137 119.24 453.535 117.161 456.633 116.71C460.539 116.142 465.207 116.438 468.946 117.773C472.495 119.039 476.182 123.254 475.637 127.229C475.431 128.732 474.559 130.185 473.841 131.495C472.891 133.229 471.856 134.918 470.784 136.579C469.923 137.915 469.044 139.25 468.073 140.51C467.447 141.323 466.933 141.933 465.832 141.479C463.335 140.452 461.559 138.157 458.94 137.283C457.837 136.914 456.697 136.813 455.548 136.685C454.896 136.612 454.377 136.494 454.027 135.884C453.283 134.586 453.988 132.456 454.305 131.14C454.783 129.16 455.357 127.207 455.82 125.223C456.262 123.33 456.996 121.437 458.571 120.203C460.24 118.896 462.515 118.416 464.592 118.67C468.367 119.131 474.161 122.023 474.146 126.441C474.138 128.854 473.012 131.211 472.061 133.374C471.208 135.314 470.361 137.239 469.646 139.235C468.207 143.252 466.936 147.371 466.074 151.554C465.739 153.181 465.399 154.892 465.493 156.563C465.591 158.305 465.931 160.028 466.01 161.779C466.202 166.042 466.085 170.776 464.361 174.751C463.784 176.081 462.993 177.303 462.423 178.644C461.663 180.435 461.011 182.274 460.379 184.113C458.732 188.91 457.275 193.772 455.848 198.638C453.441 206.847 451.212 215.074 449.216 223.392C447.168 231.93 445.211 240.503 442.79 248.945C441.938 251.918 441.059 254.92 439.815 257.757C438.906 259.83 437.623 261.755 436.479 263.702C432.501 270.474 428.523 277.246 424.669 284.09C422.749 287.5 420.852 290.926 419.05 294.4C417.81 296.79 416.542 299.206 415.638 301.747C413.115 308.84 411.652 316.411 410.22 323.784C409.589 327.027 408.962 330.292 408.592 333.577C408.505 334.353 408.379 335.176 408.458 335.959C408.451 335.885 408.331 335.899 408.586 336.012C408.999 336.195 409.485 336.229 409.93 336.248C413.364 336.395 416.992 335.133 420.034 333.655C422.135 332.633 424.134 331.374 425.916 329.859C427.637 328.395 429.023 326.662 430.508 324.973C432.105 323.157 433.843 321.303 436.141 320.401C438.347 319.535 440.85 319.483 443.177 319.202C447.956 318.624 452.988 317.913 457.504 316.196C460.017 315.24 462.735 313.597 461.072 310.681C459.61 308.117 457.052 306.175 454.935 304.181C454.505 303.776 454.09 303.279 453.591 302.955C453.293 302.762 453.101 302.709 453.056 302.724C453.235 302.664 453.041 302.813 452.961 303.086C452.826 303.549 452.829 304.053 452.835 304.531C452.883 307.866 453.982 311.267 455.094 314.376C456.637 318.689 458.68 322.862 461.256 326.654C463.511 329.975 466.476 333.821 470.508 335.006C473.695 335.942 476.967 334.816 479.938 333.658C484.066 332.048 488.093 330.235 492.38 329.065C497.799 327.587 503.382 327.093 508.979 327.518C513.78 327.882 518.506 328.842 523.291 329.331C528.586 329.871 533.817 329.636 538.965 328.216C540.003 327.929 540.446 329.54 539.41 329.826Z" fill="#0047FF"/>
<path d="M334.046 78.2062C333.673 77.7722 333.397 77.2511 333.087 76.7727C332.847 76.4024 332.599 76.0368 332.341 75.6786C332.274 75.5848 332.205 75.4914 332.136 75.3985C332.101 75.3507 332.065 75.3031 332.029 75.2556C331.984 75.197 331.891 75.0759 331.993 75.207C331.823 74.9885 331.649 74.7727 331.47 74.5608C331.081 74.0988 330.67 73.6545 330.238 73.233C330.006 73.0075 329.768 72.7885 329.524 72.5769C329.408 72.4765 329.291 72.3777 329.172 72.2807C329.112 72.2316 329.051 72.1832 328.991 72.1348C328.986 72.1315 328.886 72.0519 328.952 72.1038C329.015 72.1526 328.892 72.0582 328.881 72.0498C327.729 71.1839 326.468 70.493 325.201 70.0694C322.051 69.0165 318.432 69.207 315.31 70.4212C315.106 70.5006 315.024 70.5352 314.901 70.5903C314.731 70.6663 314.562 70.7443 314.395 70.8263C314.073 70.9847 313.756 71.1556 313.446 71.3384C313.15 71.513 312.861 71.6986 312.579 71.8946C312.453 71.982 312.329 72.0715 312.205 72.163C312.169 72.1907 312.026 72.2992 312.135 72.2148C312.057 72.2753 311.979 72.337 311.903 72.3994C311.441 72.7742 311.004 73.1781 310.594 73.6083C310.403 73.8094 310.217 74.016 310.038 74.2281C309.96 74.3211 309.882 74.4153 309.806 74.5105C309.787 74.5341 309.671 74.6822 309.744 74.589C309.812 74.5006 309.679 74.6757 309.652 74.7119C309.388 75.0671 309.143 75.4357 308.921 75.8182C308.872 75.903 308.823 75.9884 308.777 76.0747C308.741 76.1414 308.707 76.2088 308.674 76.2772C308.657 76.3144 308.639 76.3519 308.623 76.39C308.658 76.3067 308.629 76.382 308.614 76.4233C308.489 76.7811 308.395 77.1495 308.345 77.526C308.358 77.4234 308.334 77.6399 308.332 77.6695C308.323 77.7631 308.316 77.8566 308.311 77.9504C308.299 78.1589 308.295 78.368 308.296 78.5769C308.3 79.0135 308.331 79.4496 308.379 79.8832C308.47 80.6961 308.661 81.6039 308.868 82.4454C309.071 83.2669 309.307 84.0797 309.558 84.8876C309.666 85.236 309.773 85.5852 309.889 85.931C309.924 86.0334 309.96 86.1349 309.999 86.2356C310.013 86.2718 310.088 86.4579 310.045 86.3522C310.001 86.2464 310.085 86.4443 310.1 86.4779C310.652 87.7117 311.369 88.8745 312.094 90.0119C312.933 91.3269 313.819 92.6115 314.729 93.878C315.139 94.448 315.553 95.0139 315.974 95.5757C316.147 95.8072 316.322 96.0379 316.497 96.2679C316.542 96.3266 316.587 96.3853 316.632 96.4439C316.685 96.5127 316.736 96.5786 316.648 96.4656C316.722 96.5607 316.796 96.6556 316.87 96.7501C317.013 96.9325 317.152 97.1204 317.312 97.288C317.351 97.3289 317.394 97.3661 317.433 97.4066C317.543 97.5212 317.393 97.3882 317.42 97.4033C317.457 97.4237 317.502 97.4502 317.535 97.4763C317.67 97.5838 317.37 97.4117 317.523 97.4724C317.652 97.524 317.538 97.4735 317.541 97.4834C317.534 97.4515 317.428 97.4818 317.559 97.4726C317.613 97.4689 317.328 97.4989 317.484 97.4789C317.616 97.4621 317.543 97.4302 317.452 97.5034C317.521 97.4481 317.624 97.4046 317.701 97.3579C317.837 97.2753 317.652 97.4029 317.691 97.3667C317.736 97.3229 317.787 97.2839 317.834 97.2411C318.301 96.8135 318.701 96.3118 319.117 95.8367C319.705 95.1645 320.312 94.5091 320.962 93.8967C321.729 93.175 322.583 92.5599 323.36 91.8509C324.041 91.2288 324.673 90.5532 325.265 89.8451C326.349 88.5459 327.286 87.1172 328.202 85.6876C328.968 84.4923 329.712 83.2583 330.644 82.1821C331.765 80.8889 332.727 79.5118 333.522 77.9934C333.659 77.7305 333.795 77.4652 333.916 77.1942C334.099 76.7822 334.699 76.6845 335.058 76.8945C335.483 77.1426 335.543 77.6237 335.358 78.0373C334.886 79.0951 334.282 80.1083 333.633 81.0651C333.07 81.895 332.433 82.6526 331.783 83.4137C331.686 83.5265 331.593 83.642 331.502 83.7584C331.443 83.8324 331.516 83.7397 331.523 83.7302C331.501 83.7591 331.479 83.7879 331.458 83.8171C331.399 83.8965 331.34 83.9759 331.282 84.056C331.073 84.345 330.872 84.64 330.675 84.9371C328.676 87.9464 326.84 91.1092 324.043 93.4696C323.198 94.1823 322.34 94.8579 321.561 95.6467C320.966 96.2502 320.411 96.8902 319.853 97.5283C319.155 98.3266 318.208 99.4724 317.004 99.0575C316.455 98.8682 316.084 98.4346 315.737 97.9927C315.358 97.5118 314.987 97.0255 314.619 96.5362C313.718 95.336 312.841 94.117 311.993 92.8788C311.103 91.5791 310.235 90.2584 309.461 88.8854C308.801 87.7151 308.315 86.5253 307.919 85.2437C307.368 83.4587 306.893 81.6433 306.698 79.7812C306.526 78.1526 306.624 76.4629 307.455 75.0154C308.647 72.9382 310.454 71.1889 312.499 69.9581C315.55 68.1212 319.284 67.4336 322.807 67.8471C325.996 68.2213 328.875 69.656 331.205 71.8484C332.715 73.2685 333.906 74.949 335.012 76.6899C335.074 76.7867 335.135 76.8837 335.199 76.9787C335.225 77.0169 335.253 77.0538 335.278 77.0923C335.371 77.2354 335.13 76.9122 335.227 77.0255C335.521 77.3674 335.563 77.8709 335.227 78.2068C334.927 78.507 334.342 78.5498 334.046 78.2062Z" fill="#0047FF"/>
<path d="M302.648 122.085C302.621 122.063 302.594 122.042 302.567 122.02C302.45 121.927 302.758 122.165 302.61 122.054C302.522 121.988 302.435 121.92 302.346 121.855C302.105 121.675 301.863 121.499 301.618 121.324C300.933 120.835 300.236 120.361 299.53 119.903C298.673 119.347 297.8 118.814 296.908 118.316C296.449 118.059 295.984 117.812 295.513 117.577C295.282 117.462 295.05 117.35 294.815 117.242C294.713 117.195 294.61 117.149 294.507 117.103C294.456 117.08 294.405 117.058 294.354 117.036C294.104 116.927 294.498 117.094 294.248 116.991C293.421 116.649 292.572 116.367 291.688 116.221C291.901 116.256 291.65 116.218 291.593 116.213C291.501 116.204 291.41 116.198 291.318 116.195C290.989 116.184 290.658 116.196 290.33 116.215C289.822 116.245 289.518 116.271 288.993 116.423C288.919 116.444 288.845 116.468 288.772 116.493C288.74 116.505 288.706 116.52 288.673 116.53C288.509 116.581 288.805 116.455 288.715 116.512C288.607 116.58 288.48 116.626 288.37 116.691C288.213 116.783 288.066 116.889 287.903 116.969C287.365 117.232 286.696 117.227 286.171 116.924C285.763 116.688 285.482 116.281 285.218 115.905C285.08 115.709 284.947 115.51 284.809 115.315C284.74 115.216 284.669 115.119 284.597 115.022C284.573 114.99 284.548 114.96 284.525 114.927C284.464 114.842 284.637 115.062 284.567 114.982C284.507 114.912 284.452 114.838 284.394 114.767C284.189 114.521 283.971 114.286 283.739 114.065C283.615 113.946 283.487 113.832 283.355 113.721C283.325 113.696 283.119 113.531 283.191 113.587C283.294 113.666 283.121 113.535 283.118 113.533C283.072 113.5 283.027 113.467 282.981 113.435C282.62 113.181 282.239 112.958 281.845 112.762C281.737 112.708 281.627 112.656 281.517 112.606C281.466 112.583 281.415 112.56 281.364 112.538C281.476 112.586 281.344 112.531 281.328 112.524C281.063 112.417 280.794 112.321 280.521 112.234C279.333 111.856 278.1 111.669 276.861 111.559C275.766 111.461 274.66 111.423 273.564 111.519C273.443 111.529 273.323 111.541 273.202 111.555C273.15 111.562 273.097 111.568 273.045 111.575C273.08 111.57 273.2 111.55 273.035 111.577C272.799 111.617 272.563 111.656 272.329 111.709C271.914 111.802 271.505 111.923 271.108 112.077C271.066 112.094 271.024 112.111 270.982 112.128C270.856 112.18 271.159 112.042 270.963 112.138C270.883 112.177 270.801 112.213 270.72 112.252C270.542 112.341 270.367 112.437 270.197 112.54C270.028 112.643 269.865 112.754 269.705 112.869C269.669 112.895 269.634 112.921 269.599 112.948C269.738 112.843 269.64 112.916 269.613 112.94C269.529 113.012 269.443 113.08 269.36 113.154C269.055 113.424 268.774 113.72 268.516 114.035C268.479 114.08 268.442 114.126 268.406 114.171C268.328 114.269 268.482 114.068 268.407 114.17C268.343 114.257 268.279 114.343 268.217 114.431C268.09 114.612 267.969 114.798 267.853 114.987C267.334 115.832 266.927 116.729 266.611 117.557C265.656 120.054 265.513 122.614 266.404 125.111C267.197 127.332 268.736 129.3 270.137 131.233C271.512 133.129 272.784 134.928 274.504 136.551C275.483 137.475 276.562 138.245 277.627 139.062C278.733 139.912 279.778 140.833 280.832 141.747C281.673 142.475 282.382 143.128 283.348 143.657C283.432 143.702 283.517 143.746 283.604 143.788C283.645 143.808 283.687 143.827 283.729 143.845C283.566 143.775 283.68 143.824 283.714 143.835C283.815 143.864 283.912 143.902 284.014 143.927C284.052 143.936 284.093 143.941 284.131 143.952C284.286 143.998 283.967 143.963 284.137 143.952C284.206 143.947 284.288 143.947 284.357 143.952C284.454 143.958 284.214 144 284.401 143.939C284.443 143.925 284.487 143.91 284.53 143.898C284.635 143.87 284.389 143.977 284.481 143.917C284.541 143.878 284.77 143.697 284.625 143.838C285.044 143.431 285.4 142.953 285.766 142.498C286.276 141.863 286.78 141.222 287.282 140.58C288.539 138.972 289.622 137.565 290.869 135.942C292.611 133.672 294.341 131.392 296.114 129.145C298.14 126.577 300.176 124.015 302.211 121.453C302.356 121.27 302.502 121.087 302.647 120.904C302.928 120.55 303.535 120.61 303.828 120.904C304.178 121.253 304.11 121.731 303.828 122.085C302.106 124.252 300.386 126.419 298.668 128.59C297.789 129.7 296.907 130.809 296.037 131.927C296.008 131.965 295.979 132.003 295.949 132.041C295.819 132.209 296.02 131.949 295.958 132.03C295.876 132.136 295.794 132.243 295.712 132.349C295.513 132.608 295.315 132.866 295.117 133.125C294.599 133.799 294.083 134.474 293.566 135.149C291.251 138.17 288.961 141.216 286.554 144.164C286.088 144.735 285.637 145.311 284.897 145.535C283.982 145.812 283.017 145.42 282.242 144.946C281.234 144.33 280.338 143.526 279.449 142.753C278.41 141.849 277.379 140.929 276.266 140.116C275.134 139.291 274.033 138.432 273.031 137.452C272.188 136.627 271.424 135.731 270.703 134.799C269.925 133.794 269.191 132.756 268.442 131.728C267.695 130.703 266.929 129.693 266.268 128.608C264.946 126.434 264.051 123.983 264.116 121.409C264.18 118.876 265.09 116.297 266.41 114.144C267.359 112.598 268.661 111.312 270.344 110.599C272.247 109.792 274.37 109.705 276.407 109.851C278.832 110.026 281.347 110.432 283.445 111.742C284.703 112.527 285.644 113.587 286.477 114.797C286.541 114.89 286.605 114.984 286.67 115.076C286.7 115.119 286.731 115.161 286.761 115.204C286.901 115.401 286.753 115.187 286.748 115.191C286.743 115.195 286.901 115.374 286.918 115.392C286.943 115.417 286.969 115.441 286.993 115.467C287.104 115.587 287.05 115.456 286.947 115.438C286.972 115.442 287.01 115.482 287.033 115.493C287.167 115.557 286.83 115.451 286.933 115.454C286.973 115.455 287.04 115.481 287.076 115.491C287.266 115.545 286.896 115.503 287.071 115.491C287.108 115.488 287.16 115.482 287.195 115.489C287.28 115.506 286.939 115.538 287.136 115.489C287.313 115.444 287.04 115.483 287.059 115.526C287.06 115.528 287.171 115.469 287.179 115.464C288.658 114.548 290.491 114.346 292.196 114.621C294.171 114.939 296.063 115.928 297.789 116.895C299.434 117.817 301.021 118.849 302.554 119.948C302.985 120.258 303.413 120.572 303.828 120.904C304.181 121.185 304.122 121.791 303.828 122.085C303.48 122.433 303.002 122.367 302.648 122.085Z" fill="#0047FF"/>
<path d="M275.34 157.439C275.26 157.36 275.169 157.291 275.081 157.221C275.02 157.171 274.757 156.975 275 157.155C274.899 157.08 274.799 157.002 274.699 156.927C274.145 156.511 273.581 156.11 273.01 155.719C271.497 154.681 269.932 153.7 268.287 152.884C268.092 152.787 267.895 152.693 267.697 152.602C267.6 152.557 267.503 152.514 267.406 152.471C267.358 152.45 267.31 152.429 267.261 152.408C267.414 152.474 267.184 152.376 267.174 152.372C266.803 152.221 266.425 152.084 266.04 151.971C265.87 151.921 265.699 151.876 265.526 151.839C265.444 151.821 265.362 151.804 265.279 151.789C265.239 151.782 265.199 151.777 265.159 151.769C265.052 151.749 265.334 151.782 265.175 151.771C264.638 151.733 264.1 151.712 263.561 151.702C261.03 151.656 258.485 151.791 255.97 151.439C254.898 151.289 253.902 150.997 252.917 150.548C251.957 150.111 251.034 149.597 250.099 149.11C249.15 148.617 248.261 148.163 247.302 147.845C247.088 147.774 246.872 147.711 246.653 147.658C246.55 147.634 246.445 147.611 246.341 147.592C246.29 147.583 246.239 147.574 246.188 147.566C246.086 147.551 246.309 147.572 246.147 147.564C245.957 147.554 245.769 147.557 245.579 147.556C245.426 147.555 245.563 147.555 245.599 147.549C245.556 147.556 245.512 147.563 245.469 147.573C245.363 147.598 245.261 147.629 245.158 147.662C245.325 147.608 245.139 147.675 245.077 147.708C245.013 147.742 244.95 147.777 244.887 147.812C244.744 147.893 244.603 147.976 244.464 148.064C244.338 148.144 244.215 148.226 244.094 148.313C244.032 148.356 243.972 148.402 243.911 148.446C244.073 148.327 243.889 148.465 243.833 148.512C243.581 148.722 243.343 148.949 243.124 149.194C243.069 149.255 243.014 149.319 242.961 149.382C242.924 149.428 242.787 149.612 242.894 149.464C242.776 149.626 242.662 149.788 242.556 149.958C242.457 150.118 242.364 150.281 242.277 150.448C242.232 150.535 242.188 150.623 242.146 150.711C242.125 150.757 242.104 150.802 242.083 150.848C242.075 150.865 241.995 151.051 242.033 150.96C241.905 151.268 241.721 151.835 241.613 152.256C241.32 153.403 241.213 154.524 241.181 155.713C241.151 156.816 241.25 157.666 241.543 158.726C241.838 159.793 242.218 160.697 242.719 161.666C243.203 162.604 243.758 163.506 244.359 164.375C244.944 165.221 245.426 165.846 246.081 166.621C246.894 167.583 247.752 168.568 248.748 169.348C248.648 169.27 248.901 169.463 248.92 169.477C249.017 169.549 249.114 169.619 249.212 169.69C249.433 169.848 249.654 170.004 249.876 170.162C250.368 170.511 250.854 170.867 251.327 171.241C252.259 171.98 253.025 172.815 253.711 173.785C253.733 173.816 253.807 173.907 253.699 173.769C253.726 173.805 253.754 173.84 253.782 173.875C253.842 173.947 253.901 174.02 253.961 174.092C254.1 174.256 254.242 174.417 254.387 174.576C254.697 174.916 255.019 175.246 255.346 175.569C256.028 176.242 256.735 176.889 257.464 177.51C257.628 177.649 257.793 177.787 257.959 177.923C258.032 177.983 258.105 178.042 258.178 178.1C258.212 178.128 258.248 178.156 258.283 178.184C258.302 178.199 258.448 178.312 258.35 178.237C258.261 178.168 258.457 178.318 258.479 178.334C258.537 178.378 258.595 178.42 258.654 178.462C258.757 178.536 258.862 178.61 258.97 178.677C259.015 178.705 259.162 178.755 259.188 178.798C259.135 178.712 258.956 178.717 259.08 178.746C258.869 178.696 258.658 178.738 258.516 178.815C258.663 178.735 258.348 178.978 258.469 178.852C258.521 178.797 258.579 178.748 258.631 178.695C259.506 177.797 260.256 176.759 261.023 175.771C261.084 175.692 261.145 175.613 261.206 175.534C261.219 175.517 261.315 175.393 261.257 175.469C261.197 175.546 261.295 175.42 261.308 175.403C261.441 175.23 261.574 175.057 261.708 174.884C261.977 174.532 262.247 174.18 262.516 173.829C263.024 173.164 263.531 172.498 264.041 171.834C264.75 170.909 265.481 170.005 266.21 169.096C266.245 169.053 266.278 169.009 266.313 168.966C266.431 168.818 266.2 169.116 266.321 168.956C266.408 168.841 266.495 168.726 266.582 168.61C266.786 168.335 266.987 168.058 267.187 167.779C267.669 167.108 268.142 166.431 268.613 165.752C270.368 163.226 272.018 160.603 273.911 158.176C274.357 157.604 274.796 157.023 275.21 156.427C275.467 156.057 275.942 155.887 276.353 156.127C276.719 156.342 276.911 156.898 276.652 157.27C276.157 157.984 275.626 158.673 275.092 159.358C275.014 159.458 274.926 159.555 274.855 159.661C274.905 159.585 274.986 159.487 274.899 159.605C274.835 159.692 274.771 159.778 274.708 159.865C274.549 160.084 274.393 160.305 274.238 160.526C273.275 161.898 272.335 163.286 271.386 164.668C270.398 166.106 269.411 167.547 268.386 168.96C267.741 169.849 267.035 170.684 266.357 171.548C266.255 171.678 266.154 171.807 266.054 171.937C266.003 172.003 265.952 172.068 265.902 172.133C265.878 172.163 265.806 172.257 265.915 172.116C265.882 172.159 265.848 172.203 265.815 172.246C265.566 172.569 265.317 172.893 265.069 173.218C264.54 173.909 264.013 174.602 263.483 175.293C262.491 176.588 261.505 177.892 260.458 179.144C260.193 179.461 259.928 179.797 259.612 180.067C259.111 180.495 258.588 180.419 258.06 180.076C256.597 179.126 255.273 177.856 254.043 176.628C253.397 175.984 252.773 175.315 252.233 174.578C251.579 173.688 250.817 172.926 249.941 172.264C249.067 171.605 248.131 171.021 247.297 170.31C246.915 169.984 246.561 169.624 246.213 169.262C244.902 167.896 243.705 166.405 242.654 164.83C241.41 162.966 240.333 160.905 239.816 158.711C239.538 157.537 239.472 156.357 239.533 155.156C239.596 153.931 239.748 152.692 240.085 151.51C240.544 149.896 241.384 148.366 242.697 147.294C243.233 146.857 243.821 146.443 244.455 146.159C245.37 145.75 246.395 145.849 247.338 146.11C249.464 146.698 251.357 147.946 253.326 148.901C253.841 149.15 254.054 149.258 254.575 149.427C255.092 149.595 255.626 149.708 256.163 149.791C257.302 149.969 258.603 150.001 259.811 150.015C261.116 150.029 262.421 150.007 263.726 150.035C264.674 150.055 265.603 150.099 266.518 150.37C268.319 150.904 270.01 151.848 271.607 152.82C272.986 153.66 274.329 154.568 275.618 155.541C275.921 155.77 276.25 155.991 276.522 156.258C277.291 157.012 276.109 158.193 275.34 157.439Z" fill="#0047FF"/>
<path d="M1.40121 162.838C3.49567 165.191 5.97684 167.256 9.28784 167.154C11.616 167.082 13.8423 166.214 16.152 165.969C21.0403 165.45 26.8646 167.842 31.3824 165.162C35.8829 162.492 34.2324 156.749 30.9457 153.824C30.7669 153.665 30.386 153.483 30.2472 153.293C30.27 153.324 29.963 153.121 29.9695 153.163C30.0043 153.382 30.5462 152.791 30.4188 152.762C30.4188 152.762 31.0378 154.663 31.1213 154.868C31.7537 156.428 32.3491 158.021 33.2716 159.439C35.9797 163.6 41.2075 163.398 45.5705 162.578C51.2906 161.503 57.0735 159.887 62.6163 158.095C70.3693 155.59 77.7297 152.353 84.8927 148.492C94.0288 143.567 102.983 138.303 111.904 133C115.393 130.926 118.873 128.838 122.35 126.743C123.495 126.054 124.647 125.375 125.784 124.672C128.893 122.752 131.673 120.385 134.667 118.303C137.227 116.523 139.984 115.13 143.068 114.551C145.456 114.103 147.898 113.911 150.32 113.773C155.146 113.499 160.276 113.257 165.06 114.121C167.507 114.563 168.917 116.425 166.864 118.436C165.02 120.243 162.643 121.616 160.512 123.042C158.132 124.634 155.501 126.487 152.644 127.109C151.64 127.328 149.836 127.239 150.24 125.705C150.671 124.067 153.317 123.101 154.576 122.382C157.677 120.611 160.69 118.691 163.764 116.876C166.402 115.319 169.174 114.034 171.831 112.527C174.846 110.818 177.481 108.267 180.06 105.985C183.935 102.556 187.719 99.0236 191.517 95.5098C195.255 92.0525 198.988 88.586 202.839 85.2543C205.47 82.978 208.183 80.4932 211.328 78.943C215.743 76.7672 220.697 75.6321 225.473 74.5656C231.318 73.2606 237.22 72.2331 243.118 71.1986C248.608 70.2357 254.048 69.0534 259.529 68.0524C266.167 66.8399 273.01 66.413 279.575 64.8442C284.198 63.7394 288.704 62.2941 293.393 61.4299C295.071 61.1207 297.008 60.6295 298.725 60.8608C300.149 61.0527 300.38 62.1546 300.142 63.4478C299.719 65.7439 297.647 67.2995 295.68 68.2762C292.685 69.763 289.254 70.2773 285.958 69.689C284.662 69.4577 281.594 68.7089 282.218 66.7694C282.889 64.6844 286.604 63.7267 288.403 63.2128C290.695 62.5578 293.2 62.0494 295.573 61.7893C297.53 61.575 299.7 61.7551 301.113 63.2898C302.933 65.2647 302.946 68.628 302.57 71.1102C302.172 73.73 300.953 76.0812 299.205 78.0528C297.935 79.485 296.452 80.7525 295.11 82.1205C293.373 83.8903 291.506 85.514 289.416 86.859C286.457 88.7643 283.179 89.9398 279.912 91.1957C276.508 92.5044 273.039 93.906 269.425 94.5197C267.077 94.9186 264.373 95.0431 262.365 93.5335C260.382 92.0418 258.978 89.3186 257.863 87.1598C257.216 85.9054 255.737 83.508 256.299 82.0024C257.041 80.0175 259.355 82.1956 260.127 82.924C261.95 84.6432 263.909 87.0305 263.565 89.7121C263.182 92.6903 260.152 94.2875 257.744 95.4987C254.798 96.9808 251.681 98.0893 248.599 99.2501C245.345 100.476 242.193 102.015 238.896 103.114C234.318 104.642 228.525 106.006 223.705 104.882C222.342 104.564 220.85 103.837 220.619 102.31C220.352 100.549 221.525 97.3392 223.278 96.5629C227.55 94.6726 225.815 104.968 225.537 106.507C224.699 111.157 223.305 115.866 219.962 119.334C216.823 122.591 213.282 125.504 209.702 128.26C206.345 130.845 202.693 133.739 198.643 135.153C195.276 136.329 191.862 133.806 191.854 130.187C191.851 128.882 192.753 127.649 194.133 128.39C195.117 128.919 196.124 130.273 196.693 131.213C198.973 134.977 196.909 140.243 195.537 143.926C193.515 149.354 189.986 153.942 186.348 158.385C182.263 163.374 177.862 168.139 174.162 173.43C172.613 175.646 171.124 177.991 170.176 180.535C168.876 184.024 168.12 187.734 167.473 191.391C167.004 194.042 166.742 196.835 165.857 199.391C165.36 200.827 164.541 202.39 162.953 202.817C161.336 203.253 159.775 202.154 158.622 201.151C156.956 199.701 155.591 197.866 154.379 196.031C153.507 194.709 149.513 189.24 152.954 188.481C154.627 188.112 156.395 189.403 157.443 190.56C159.353 192.671 159.904 195.371 160.808 197.98C162.658 203.324 166.534 207.005 171.802 209.088C176.084 210.781 181.074 210.955 185.613 211.189C191.559 211.496 197.52 211.466 203.471 211.381C208.719 211.307 213.994 211.03 219.242 211.209C225.672 211.429 231.769 212.98 237.557 215.775C240.889 217.384 244.084 219.275 247.23 221.218C249.829 222.824 252.183 224.729 254.18 227.05C257.277 230.651 259.559 234.987 260.827 239.563C261.16 240.765 261.537 242.1 261.537 243.359C261.538 245.054 259.801 246.121 258.445 246.793C255.439 248.283 252.593 248.203 249.379 247.657C246.701 247.201 243.521 247.306 241.048 246.054C239.05 245.043 239.357 243.257 239.18 241.328C238.987 239.221 238.592 236.701 239.626 234.739C240.894 232.333 244.145 232.396 246.514 232.416C249.025 232.439 251.486 232.919 253.993 232.605C257.38 232.182 262.824 231.131 264.278 235.368C265.186 238.014 264.652 241.693 263.814 244.304C263.149 246.372 261.939 248.509 259.842 249.381C258.187 250.07 256.258 249.683 254.551 249.405C251.875 248.97 249.231 248.343 246.582 247.768C244.169 247.243 241.72 246.65 239.253 246.444C235.507 246.131 231.553 246.447 227.845 247.011C226.21 247.26 224.632 247.631 222.981 247.748C221.225 247.873 219.463 247.917 217.703 247.955C208.372 248.159 199.006 248.093 189.679 247.735C179.88 247.357 170.097 248.062 160.345 249.06C153.737 249.736 147.17 250.652 140.667 252.019C134.7 253.274 128.858 254.95 123.003 256.633C113.486 259.368 103.41 259.768 93.5567 260.006C88.0726 260.138 82.5429 260.158 77.0781 259.618C71.3681 259.053 65.9852 257.6 60.5514 255.842C58.9604 255.328 57.3379 254.827 55.6534 254.785C52.4899 254.705 49.3786 255.591 46.2787 256.09C41.6609 256.833 36.9736 256.623 32.3121 256.623C31.2373 256.623 31.2354 254.953 32.3121 254.953C36.7315 254.953 41.2137 255.203 45.5922 254.517C50.2853 253.783 54.8147 252.434 59.5151 253.774C64.1533 255.096 68.5903 256.702 73.3843 257.467C78.4749 258.279 83.6524 258.41 88.7988 258.399C94.289 258.388 99.7817 258.171 105.257 257.77C109.468 257.461 113.745 257.14 117.884 256.272C122.312 255.343 126.63 253.797 130.997 252.623C137.114 250.978 143.322 249.647 149.588 248.715C160.343 247.114 171.289 246.163 182.161 245.913C189.291 245.749 196.46 246.281 203.595 246.341C208.152 246.378 212.71 246.385 217.266 246.294C220.184 246.235 223.069 246.18 225.94 245.647C231.667 244.583 237.62 244.292 243.353 245.393C247.946 246.275 252.606 247.823 257.294 248.068C262.541 248.343 263.646 240.201 262.83 236.389C261.957 232.313 255.83 234.146 253.023 234.386C250.558 234.597 248.081 234.016 245.608 234.098C244.333 234.139 242.299 234.031 241.373 235.095C240.668 235.905 240.645 237.229 240.646 238.234C240.647 239.269 240.756 240.299 240.851 241.328C240.919 242.072 240.726 243.458 241.14 244.074C241.661 244.847 243.091 245.025 243.925 245.189C245.369 245.473 246.838 245.616 248.295 245.817C249.792 246.023 251.31 246.458 252.821 246.469C254.587 246.481 256.396 246.012 257.949 245.172C259.309 244.436 259.991 244.005 259.787 242.577C259.272 238.957 257.745 235.369 255.882 232.254C254.506 229.953 252.833 227.839 250.869 226.012C248.432 223.745 245.53 222.095 242.67 220.427C237.407 217.355 231.914 214.693 225.881 213.57C220.742 212.614 215.494 212.839 210.295 212.934C204.956 213.032 199.616 213.138 194.276 213.095C189.094 213.054 183.881 212.929 178.733 212.288C174.48 211.759 170.705 210.772 167.037 208.475C163.038 205.971 160.577 202.53 159.085 198.097C158.244 195.596 157.709 192.866 155.587 191.08C155.082 190.654 154.206 190.008 153.489 190.098C153.079 190.15 153.225 190.062 153.301 190.473C153.585 192.001 154.823 193.648 155.648 194.921C156.802 196.702 158.101 198.465 159.698 199.877C160.75 200.807 162.253 201.919 163.419 200.573C164.652 199.149 164.864 196.681 165.181 194.912C166.237 189.022 166.991 182.81 169.753 177.418C172.199 172.644 175.744 168.447 179.169 164.356C182.908 159.89 186.832 155.528 190.108 150.7C193.027 146.398 195.564 141.084 195.958 135.83C196.061 134.454 195.927 133.095 195.163 131.916C194.876 131.473 194.522 131.085 194.163 130.699C193.988 130.512 193.714 130.315 193.59 130.096C193.526 129.983 193.372 129.924 193.29 129.833C193.345 129.894 193.566 129.553 193.578 129.731C193.686 131.44 194.181 133.269 196.124 133.78C197.359 134.105 198.716 133.383 199.791 132.843C203.751 130.856 207.357 128.064 210.79 125.291C213.817 122.847 216.892 120.303 219.49 117.394C222.589 113.924 223.657 108.554 224.238 104.075C224.375 103.019 224.474 101.952 224.495 100.886C224.505 100.326 224.665 98.4615 224.101 98.1384C223.444 97.762 221.518 101.738 222.729 102.722C224.044 103.791 226.608 103.573 228.166 103.501C230.763 103.38 233.347 102.92 235.862 102.268C238.7 101.531 241.312 100.351 244.019 99.2482C247.072 98.005 250.189 96.9283 253.245 95.6932C254.619 95.1378 255.976 94.5377 257.294 93.8565C258.763 93.0965 260.486 92.2662 261.404 90.8297C263.134 88.1218 260.195 85.0824 258.229 83.4561C257.896 83.1809 257.269 83.0133 257.648 82.7138C258.064 82.3856 257.845 82.8169 257.977 83.1146C258.446 84.1729 258.769 85.2738 259.307 86.3163C260.339 88.3159 261.728 91.2704 263.735 92.4456C266.104 93.8324 269.438 92.9268 271.881 92.238C275.239 91.2906 278.477 89.957 281.733 88.7135C284.744 87.5637 287.624 86.2269 290.209 84.28C291.899 83.0075 293.372 81.5069 294.844 79.9962C296.137 78.6693 297.605 77.5116 298.724 76.0222C300.455 73.718 301.213 70.9507 301.036 68.0815C300.875 65.4657 299.894 63.4557 297.065 63.3791C294.986 63.3228 292.893 63.9549 290.866 64.3466C289.442 64.622 288.037 65.0153 286.689 65.556C286.029 65.8211 285.363 66.1264 284.757 66.5032C284.555 66.6288 284.372 66.7762 284.173 66.9036C283.849 67.1104 283.88 67.213 283.871 67.1876C284.089 67.851 286.443 68.0978 286.989 68.1654C288.83 68.3934 290.74 68.2353 292.521 67.7284C294.681 67.1139 298.191 65.6313 298.532 63.0031C298.563 62.7608 298.556 62.5073 298.523 62.2661C298.566 62.5822 298.872 62.4148 298.587 62.5159C297.994 62.7267 296.939 62.5613 296.291 62.6435C291.85 63.2072 287.421 64.3513 283.121 65.5696C278.263 66.9456 273.357 67.6044 268.362 68.3216C262.316 69.19 256.375 70.4733 250.376 71.5911C245.251 72.5462 240.105 73.3912 234.98 74.3456C229.711 75.3268 224.434 76.3702 219.275 77.8339C215.762 78.8302 212.282 79.99 209.3 82.1477C202.375 87.1583 196.25 93.4096 189.988 99.1991C186.641 102.294 183.294 105.394 179.853 108.385C177.584 110.358 175.253 112.524 172.615 114.004C170.195 115.36 167.676 116.523 165.275 117.926C162.353 119.635 159.489 121.442 156.57 123.157C155.511 123.779 154.417 124.344 153.364 124.976C152.964 125.215 152.6 125.482 152.231 125.763C152.168 125.811 152.003 126.039 151.928 126.059C151.887 126.1 151.855 126.147 151.83 126.201C151.907 125.97 151.826 125.765 151.59 125.587C151.621 125.523 152.894 125.309 153.069 125.25C154.554 124.752 155.953 123.961 157.286 123.149C159.851 121.587 162.448 119.887 164.802 118.014C165.259 117.65 165.84 117.245 166.153 116.74C166.345 116.429 166.351 116.52 166.186 116.306C165.589 115.535 163.728 115.591 162.883 115.513C160.629 115.306 158.359 115.263 156.097 115.271C151.369 115.288 146.205 115.25 141.632 116.606C135.67 118.375 131.11 123.413 125.882 126.567C111.701 135.121 97.5249 143.787 82.8471 151.47C76.3932 154.849 69.629 157.617 62.6845 159.826C57.6357 161.432 52.4401 162.791 47.2689 163.93C43.1114 164.846 37.9254 165.564 34.2337 162.875C31.7195 161.044 30.6372 158.085 29.5124 155.311C29.1374 154.387 28.2021 152.741 29.1182 151.834C29.9413 151.02 31.131 151.81 31.8249 152.379C34.4024 154.495 36.3976 158.338 35.7781 161.715C34.9102 166.447 29.9828 168.018 25.7766 168.022C23.3778 168.024 20.9994 167.674 18.6055 167.58C16.5194 167.498 14.5905 167.911 12.5648 168.349C10.6909 168.754 8.78207 169.029 6.88586 168.593C4.17642 167.97 2.01978 166.038 0.222382 164.018C-0.492767 163.219 0.68457 162.033 1.40121 162.838Z" fill="#0047FF"/>
<path d="M223.308 109.4C224.543 108.218 226.396 107.553 227.991 107.08C231.884 105.926 235.924 106.062 239.937 105.997C244.028 105.931 248.118 105.81 252.207 105.689C256.457 105.564 260.707 105.429 264.957 105.327C269.022 105.229 273.085 105.2 277.151 105.224C279.857 105.239 282.565 105.276 285.268 105.42C287.478 105.537 289.702 105.712 291.878 106.133C296.116 106.953 299.887 109.243 304.052 110.299C304.83 110.496 305.398 110.628 306.214 110.495C307.275 110.323 308.283 109.871 309.168 109.268C309.446 109.078 309.694 108.878 309.942 108.603C310.048 108.487 309.876 108.731 309.962 108.569C309.951 108.59 309.924 108.666 309.924 108.72C309.923 108.855 310.15 109.335 310.267 109.424C310.207 109.378 310.34 109.491 310.322 109.445C310.346 109.507 310.423 109.469 310.298 109.447C310.195 109.429 310.093 109.406 309.989 109.389C309.955 109.384 310.139 109.403 309.966 109.388C309.885 109.381 309.803 109.371 309.722 109.364C309.358 109.331 308.993 109.312 308.627 109.299C307.794 109.269 306.958 109.27 306.125 109.311C305.937 109.32 305.749 109.332 305.561 109.348C305.481 109.354 305.402 109.361 305.322 109.369C305.284 109.373 305.247 109.378 305.209 109.382C305.042 109.398 305.28 109.369 305.184 109.383C305.065 109.401 304.945 109.42 304.827 109.448C304.781 109.459 304.732 109.478 304.684 109.485C304.568 109.503 304.755 109.441 304.782 109.418C304.958 109.269 305.052 109.031 305.028 108.799C305.024 108.757 304.915 108.501 304.977 108.609C305.048 108.733 304.896 108.525 304.941 108.563C304.989 108.604 305.031 108.658 305.076 108.702C305.279 108.896 305.503 109.07 305.719 109.25C306.291 109.724 306.842 110.227 307.253 110.853C307.708 111.543 307.885 112.387 307.637 113.187C307.377 114.021 307.192 114.896 306.889 115.714C306.574 116.566 306.05 117.221 305.272 117.699C304.188 118.366 302.878 118.77 301.676 119.17C301.054 119.378 300.426 119.575 299.792 119.742C298.752 120.017 298.308 118.406 299.348 118.132C300.027 117.953 300.698 117.74 301.363 117.516C302.426 117.157 303.776 116.768 304.63 116.13C304.968 115.877 305.055 115.743 305.239 115.366C305.281 115.28 305.241 115.368 305.235 115.383C305.25 115.346 305.265 115.308 305.278 115.27C305.305 115.192 305.333 115.114 305.358 115.034C305.421 114.836 305.473 114.634 305.526 114.432C305.649 113.959 305.77 113.487 305.927 113.024C305.989 112.841 306.07 112.658 306.095 112.466C306.074 112.627 306.084 112.384 306.084 112.341C306.082 112.244 306.091 112.361 306.094 112.376C306.087 112.327 306.076 112.277 306.063 112.229C306.051 112.187 305.983 111.981 306.007 112.042C306.033 112.104 305.95 111.93 305.933 111.898C305.895 111.829 305.853 111.762 305.81 111.696C305.736 111.583 305.702 111.543 305.701 111.541C305.476 111.266 305.218 111.02 304.953 110.785C304.501 110.385 303.928 110.035 303.587 109.527C303.126 108.839 303.493 108.108 304.24 107.875C304.89 107.671 305.632 107.66 306.308 107.632C307.171 107.596 308.037 107.6 308.9 107.64C309.514 107.668 310.203 107.668 310.794 107.852C311.738 108.145 311.713 109.082 311.163 109.737C310.584 110.426 309.732 110.944 308.933 111.334C307.908 111.834 306.755 112.22 305.603 112.213C304.739 112.208 303.868 111.996 303.043 111.756C300.862 111.12 298.772 110.194 296.655 109.378C294.688 108.62 292.711 107.939 290.624 107.601C288.348 107.233 286.031 107.11 283.73 107.021C278.875 106.833 274.003 106.838 269.145 106.912C265.102 106.975 261.061 107.097 257.019 107.217C252.621 107.347 248.222 107.486 243.823 107.589C241.949 107.634 240.075 107.672 238.201 107.692C236.091 107.714 233.983 107.683 231.886 107.963C230.137 108.196 228.399 108.611 226.763 109.278C226.612 109.339 226.84 109.243 226.695 109.307C226.621 109.339 226.547 109.372 226.473 109.405C226.345 109.463 226.218 109.524 226.093 109.586C225.868 109.697 225.646 109.814 225.428 109.94C225.137 110.108 224.873 110.311 224.59 110.489C224.569 110.502 224.773 110.335 224.628 110.461C224.602 110.483 224.576 110.505 224.549 110.527C224.528 110.544 224.507 110.563 224.488 110.582C223.712 111.324 222.529 110.145 223.308 109.4Z" fill="#0047FF"/>
<path d="M270.543 134.04C268.978 134.037 267.414 134.025 265.849 134.011C262.549 133.982 259.248 133.937 255.948 133.859C252.901 133.788 249.846 133.721 246.806 133.484C245.971 133.419 245.081 133.387 244.271 133.159C242.727 132.724 242.305 131.022 242.291 129.607C242.284 128.84 242.382 128.061 242.553 127.314C242.678 126.766 242.844 126.17 243.158 125.698C243.601 125.032 244.519 124.823 245.006 125.583C245.36 126.138 245.365 126.93 245.314 127.562C245.153 129.574 244.319 131.553 243.258 133.25C242.161 135.004 240.667 136.682 238.769 137.581C237.588 138.14 236.321 138.524 235.069 138.885C233.311 139.394 231.53 139.829 229.746 140.235C225.736 141.148 221.687 141.919 217.618 142.515C215.927 142.763 214.229 142.989 212.525 143.117C210.718 143.254 208.835 143.27 207.069 142.824C206.396 142.655 205.763 142.377 205.137 142.08C205.017 142.023 204.897 141.966 204.775 141.912C204.685 141.871 204.578 141.831 204.743 141.895C204.662 141.864 204.582 141.831 204.5 141.801C204.184 141.685 203.857 141.6 203.526 141.542C203.473 141.533 203.214 141.499 203.396 141.521C203.294 141.508 203.191 141.498 203.088 141.489C202.838 141.469 202.588 141.459 202.337 141.456C201.605 141.448 200.871 141.476 200.14 141.53C199.039 141.61 198.002 141.748 196.918 141.977C196.522 142.06 196.124 142.149 195.738 142.269C194.71 142.591 194.27 140.979 195.294 140.659C196.71 140.216 198.235 140.024 199.705 139.894C201.665 139.721 203.691 139.625 205.527 140.429C205.772 140.536 206.012 140.655 206.255 140.768C206.318 140.797 206.382 140.826 206.445 140.855C206.525 140.89 206.665 140.944 206.495 140.878C206.651 140.939 206.806 141 206.965 141.053C207.887 141.362 208.66 141.448 209.603 141.495C211.096 141.571 212.58 141.463 214.064 141.304C214.473 141.26 214.882 141.212 215.291 141.161C215.487 141.137 215.683 141.112 215.879 141.086C215.932 141.079 215.985 141.072 216.038 141.065C216.002 141.07 215.888 141.085 216.057 141.062C216.18 141.045 216.302 141.029 216.424 141.012C217.356 140.882 218.287 140.739 219.215 140.588C221.187 140.268 223.153 139.908 225.112 139.517C228.657 138.809 232.217 138.042 235.67 136.961C236.262 136.776 236.851 136.579 237.428 136.352C237.512 136.319 237.85 136.172 237.598 136.285C237.713 136.233 237.829 136.184 237.943 136.13C238.277 135.97 238.598 135.783 238.905 135.576C240.542 134.469 241.789 132.698 242.655 130.87C243.012 130.115 243.332 129.227 243.524 128.329C243.545 128.227 243.565 128.126 243.583 128.024C243.59 127.984 243.631 127.721 243.62 127.804C243.609 127.888 243.633 127.677 243.637 127.631C243.648 127.518 243.655 127.405 243.659 127.292C243.664 127.135 243.66 126.979 243.651 126.822C243.649 126.783 243.642 126.744 243.641 126.705C243.636 126.589 243.672 126.87 243.649 126.759C243.633 126.685 243.623 126.611 243.604 126.538C243.592 126.49 243.569 126.44 243.561 126.391C243.542 126.276 243.659 126.588 243.589 126.468C243.563 126.422 243.694 126.582 243.729 126.609C243.825 126.682 244.006 126.752 244.129 126.751C244.198 126.751 244.54 126.621 244.453 126.675C244.506 126.642 244.639 126.516 244.538 126.621C244.472 126.69 244.655 126.419 244.591 126.554C244.57 126.598 244.538 126.64 244.514 126.683C244.489 126.728 244.469 126.775 244.445 126.82C244.354 126.994 244.479 126.707 244.445 126.818C244.406 126.943 244.354 127.064 244.315 127.189C244.22 127.492 244.147 127.803 244.089 128.116C244.076 128.188 244.063 128.26 244.051 128.332C244.04 128.4 244.011 128.621 244.035 128.428C244.012 128.613 243.993 128.797 243.98 128.983C243.957 129.33 243.953 129.679 243.978 130.027C243.984 130.111 243.994 130.195 244.001 130.279C244.012 130.4 243.975 130.123 243.996 130.242C244.003 130.282 244.008 130.322 244.015 130.363C244.045 130.527 244.082 130.69 244.133 130.85C244.152 130.912 244.178 130.973 244.197 131.035C244.231 131.142 244.124 130.89 244.177 130.987C244.194 131.018 244.206 131.052 244.223 131.083C244.258 131.144 244.292 131.204 244.327 131.265C244.34 131.286 244.357 131.306 244.37 131.328C244.442 131.456 244.248 131.232 244.363 131.317C244.408 131.351 244.467 131.413 244.503 131.456C244.583 131.553 244.357 131.387 244.51 131.457C244.535 131.469 244.743 131.579 244.608 131.519C244.48 131.461 244.65 131.531 244.687 131.54C244.806 131.571 244.925 131.598 245.046 131.621C245.122 131.635 245.199 131.647 245.276 131.659C245.319 131.665 245.361 131.671 245.403 131.677C245.591 131.706 245.238 131.659 245.351 131.671C245.566 131.692 245.779 131.721 245.994 131.742C248.713 132.011 251.458 132.069 254.187 132.144C257.491 132.236 260.795 132.287 264.099 132.323C266.145 132.346 268.192 132.362 270.239 132.369C270.34 132.369 270.441 132.37 270.542 132.37C271.618 132.372 271.62 134.043 270.543 134.04Z" fill="#0047FF"/>
<path d="M238.562 136.232C240.695 137.658 242.845 139.061 245.008 140.441C246.56 141.431 248.118 142.412 249.705 143.345C250.308 143.699 250.915 144.049 251.537 144.368C252.493 144.856 253.358 145.431 254.126 146.189C255.327 147.375 256.319 148.847 256.971 150.407C257.145 150.824 256.783 151.326 256.387 151.435C255.906 151.567 255.534 151.269 255.36 150.851C255.541 151.286 255.343 150.824 255.295 150.725C255.166 150.457 255.026 150.195 254.879 149.937C254.668 149.567 254.441 149.207 254.198 148.858C253.902 148.435 253.704 148.181 253.323 147.764C252.585 146.956 251.849 146.385 250.87 145.899C250.302 145.616 249.749 145.303 249.199 144.985C246.092 143.183 243.081 141.207 240.079 139.236C239.29 138.718 238.502 138.199 237.718 137.675C237.344 137.424 237.181 136.938 237.419 136.532C237.636 136.16 238.185 135.98 238.562 136.232Z" fill="#0047FF"/>
<path d="M254.092 176.678C254.142 176.717 254.517 176.897 254.368 176.854C254.307 176.837 254.246 176.814 254.185 176.795C253.998 176.735 253.809 176.679 253.62 176.622C253.004 176.437 252.388 176.254 251.773 176.066C250.149 175.571 248.528 175.057 246.94 174.455C245.78 174.015 244.644 173.545 243.626 172.831C242.519 172.055 241.471 171.191 240.433 170.326C237.983 168.284 235.61 166.153 233.161 164.11C232.683 163.712 232.2 163.319 231.71 162.934C231.591 162.84 231.845 163.035 231.68 162.911C231.63 162.873 231.581 162.835 231.531 162.798C231.438 162.728 231.344 162.658 231.25 162.59C231.086 162.472 230.92 162.355 230.748 162.247C230.289 161.957 229.826 161.693 229.393 161.362C228.728 160.855 228.101 160.304 227.526 159.697C226.456 158.567 225.348 157.147 225.105 155.564C224.986 154.796 225.071 153.989 225.515 153.33C226.051 152.534 226.925 151.975 227.838 151.709C229.132 151.33 231.673 151.552 231.716 153.374C231.737 154.257 230.942 154.888 230.215 155.221C229.369 155.61 228.46 155.874 227.597 156.224C223.801 157.762 219.938 159.689 215.766 159.828C213.594 159.901 211.444 159.229 209.358 158.705C207.16 158.153 204.946 157.551 202.692 157.283C201.683 157.162 200.66 157.105 199.647 157.193C198.682 157.277 197.58 157.613 196.58 157.932C194.884 158.473 193.416 159.17 191.811 159.962C189.162 161.27 186.25 161.882 183.375 162.489C183.115 162.544 182.855 162.598 182.595 162.65C182.153 162.738 181.693 162.523 181.567 162.066C181.454 161.655 181.706 161.128 182.151 161.039C184.522 160.566 186.927 160.06 189.218 159.281C189.358 159.234 189.498 159.184 189.636 159.132C189.705 159.106 189.772 159.078 189.841 159.053C189.98 159.001 189.708 159.116 189.88 159.037C190.198 158.89 190.515 158.742 190.83 158.587C191.499 158.259 192.164 157.92 192.841 157.608C194.672 156.765 196.651 155.998 198.643 155.652C200.693 155.297 202.788 155.558 204.815 155.939C207.04 156.357 209.224 156.963 211.423 157.496C212.369 157.725 213.442 158.017 214.335 158.111C215.236 158.205 216.206 158.171 217.07 158.046C219.086 157.753 221.039 157.085 222.931 156.348C224.677 155.668 226.382 154.888 228.135 154.227C228.527 154.08 228.935 153.965 229.32 153.802C229.497 153.727 229.671 153.635 229.832 153.53C229.875 153.502 230.016 153.382 229.913 153.475C229.969 153.425 230.107 153.254 230.002 153.41C230.028 153.37 230.109 153.2 230.064 153.323C230.021 153.44 230.047 153.356 230.054 153.331C230.075 153.262 230.034 153.291 230.055 153.352C230.052 153.374 230.049 153.396 230.045 153.418C230.043 153.351 230.047 153.359 230.056 153.441C230.037 153.517 230.076 153.527 230.057 153.466C230.027 153.369 230.16 153.628 230.05 153.461C230.032 153.434 229.981 153.384 230.058 153.469C230.164 153.585 230.056 153.486 230.058 153.479C230.06 153.474 229.978 153.405 229.982 153.41C229.984 153.412 230.12 153.504 230.042 153.458C229.985 153.425 229.922 153.391 229.867 153.355C229.852 153.345 229.755 153.299 229.855 153.345C229.958 153.392 229.827 153.335 229.806 153.328C229.66 153.284 229.518 153.246 229.369 153.217C229.546 153.251 229.304 153.212 229.256 153.209C229.15 153.203 229.045 153.202 228.939 153.206C228.62 153.217 228.334 153.268 227.939 153.438C227.993 153.414 227.79 153.515 227.754 153.535C227.668 153.582 227.585 153.632 227.503 153.685C227.332 153.796 227.212 153.898 227.066 154.046C227.023 154.088 226.927 154.207 227.016 154.09C226.969 154.152 226.926 154.218 226.887 154.285C226.854 154.342 226.825 154.4 226.796 154.458C226.743 154.565 226.838 154.323 226.808 154.438C226.797 154.478 226.781 154.518 226.769 154.559C226.749 154.631 226.736 154.704 226.72 154.777C226.751 154.634 226.724 154.722 226.721 154.811C226.718 154.888 226.716 154.964 226.719 155.041C226.72 155.087 226.745 155.326 226.731 155.231C226.715 155.126 226.751 155.327 226.758 155.358C226.775 155.44 226.795 155.52 226.818 155.6C226.865 155.767 226.923 155.931 226.989 156.09C226.933 155.954 227.029 156.171 227.048 156.209C227.082 156.281 227.118 156.351 227.155 156.422C227.251 156.603 227.355 156.78 227.465 156.953C227.564 157.108 227.667 157.26 227.775 157.409C227.92 157.611 227.929 157.621 228.068 157.791C228.57 158.405 229.13 158.973 229.727 159.495C229.86 159.61 229.994 159.723 230.131 159.834C230.163 159.86 230.355 160.011 230.236 159.919C230.305 159.973 230.375 160.024 230.445 160.076C230.696 160.26 230.955 160.435 231.225 160.59C232.053 161.069 232.799 161.669 233.541 162.27C235.877 164.162 238.113 166.176 240.402 168.123C240.976 168.611 241.552 169.097 242.134 169.576C242.397 169.791 242.661 170.006 242.926 170.218C243.047 170.315 243.168 170.411 243.289 170.506C243.352 170.556 243.415 170.606 243.479 170.655C243.629 170.773 243.439 170.626 243.548 170.708C244.354 171.322 245.159 171.894 246.085 172.313C246.165 172.349 246.245 172.385 246.325 172.42C246.361 172.435 246.581 172.528 246.45 172.473C246.627 172.547 246.805 172.619 246.983 172.689C247.35 172.833 247.72 172.971 248.091 173.105C248.883 173.39 249.682 173.656 250.484 173.914C251.757 174.322 253.039 174.7 254.318 175.088C254.657 175.19 254.99 175.274 255.273 175.496C255.628 175.774 255.564 176.385 255.273 176.677C254.922 177.029 254.449 176.956 254.092 176.678Z" fill="#0047FF"/>
<path d="M237.719 168.002C237.819 168.079 238.094 168.125 238.186 168.066C238.131 168.101 238.024 168.116 237.959 168.138C237.753 168.208 238.082 168.08 237.985 168.126C237.93 168.152 237.874 168.175 237.819 168.2C237.689 168.259 237.56 168.319 237.43 168.379C236.645 168.737 235.845 169.064 235.011 169.288C232.409 169.988 229.654 169.731 227.165 168.732C225.709 168.147 224.285 167.478 222.874 166.793C222.369 166.547 221.865 166.297 221.358 166.054C221.15 165.954 220.942 165.855 220.732 165.758C220.638 165.716 220.545 165.673 220.451 165.632C220.39 165.605 220.329 165.579 220.268 165.552C220.106 165.48 220.406 165.605 220.229 165.536C219.855 165.388 219.481 165.245 219.092 165.138C218.926 165.093 218.759 165.052 218.59 165.019C218.496 165 218.401 164.987 218.307 164.969C218.117 164.931 218.455 164.985 218.329 164.97C218.271 164.964 218.213 164.957 218.155 164.951C217.741 164.911 217.325 164.909 216.91 164.935C216.688 164.949 216.466 164.973 216.245 164.999C216.082 165.018 216.212 165.004 216.244 164.999C216.168 165.01 216.091 165.022 216.015 165.034C215.89 165.053 215.764 165.073 215.639 165.093C214.018 165.346 212.404 165.55 210.76 165.519C208.186 165.471 205.621 165.163 203.055 164.98C200.392 164.79 197.707 164.706 195.043 164.937C194.567 164.978 194.092 165.03 193.618 165.092C193.817 165.066 193.538 165.104 193.475 165.113C193.377 165.127 193.28 165.141 193.183 165.156C192.952 165.191 192.722 165.229 192.493 165.269C191.429 165.454 190.379 165.729 189.294 165.746C187.873 165.768 186.451 165.381 185.032 165.528C184.463 165.587 183.904 165.871 183.364 166.254C182.661 166.752 181.948 167.237 181.245 167.734C180.636 168.165 180.033 168.605 179.465 169.088C178.914 169.557 178.436 170.091 177.909 170.584C176.973 171.459 175.904 172.205 174.814 172.877C174.616 172.999 174.417 173.12 174.214 173.234C173.275 173.761 172.432 172.318 173.371 171.791C174.102 171.381 174.808 170.915 175.486 170.422C176.603 169.608 177.507 168.533 178.588 167.654C179.912 166.577 181.341 165.62 182.746 164.651C183.974 163.804 185.421 163.763 186.854 163.905C187.589 163.978 188.323 164.07 189.062 164.076C189.697 164.081 190.298 163.995 190.918 163.871C191.791 163.696 192.668 163.547 193.551 163.43C195.873 163.122 198.218 163.082 200.557 163.171C203.537 163.284 206.5 163.638 209.477 163.799C210.308 163.844 211.141 163.871 211.973 163.84C212.336 163.826 212.699 163.801 213.06 163.767C213.247 163.749 213.434 163.729 213.621 163.707C213.708 163.697 213.796 163.686 213.883 163.675C213.933 163.668 213.982 163.662 214.032 163.655C213.797 163.686 214.015 163.658 214.054 163.652C215.902 163.392 217.694 163.019 219.537 163.528C220.425 163.772 221.271 164.166 222.1 164.562C223.232 165.104 224.352 165.668 225.493 166.192C226.95 166.861 228.416 167.526 229.999 167.837C230.63 167.962 231.228 168.02 231.896 168.024C232.185 168.026 232.474 168.016 232.762 167.995C232.892 167.985 233.022 167.973 233.151 167.959C233.158 167.958 233.436 167.921 233.264 167.946C233.346 167.934 233.427 167.922 233.508 167.908C234.426 167.755 235.31 167.477 236.169 167.124C235.936 167.219 236.225 167.099 236.27 167.079C236.347 167.045 236.424 167.011 236.501 166.976C236.635 166.915 236.77 166.852 236.905 166.791C237.151 166.678 237.4 166.552 237.661 166.476C237.937 166.396 238.319 166.373 238.562 166.56C238.919 166.835 239.11 167.278 238.862 167.703C238.656 168.054 238.079 168.279 237.719 168.002Z" fill="#0047FF"/>
<path d="M462.644 117.103C466.322 111.691 469.988 106.27 473.647 100.844C480.15 91.2028 486.643 81.5532 493.03 71.8342C495.205 68.5238 497.392 65.2158 499.462 61.8377C499.911 61.1054 500.439 60.3554 500.767 59.5565C500.64 59.8657 500.831 59.2608 500.857 59.1401C500.971 58.6224 501.02 58.0901 501.06 57.5625C501.173 56.1065 501.161 54.6384 501.068 53.1817C500.845 49.6617 500.172 45.8474 498.193 42.8559C497.286 41.486 496.595 40.9678 495.284 40.1941C492.496 38.5476 489.553 37.1464 486.643 35.7325C476.551 30.8282 466.304 26.2354 456.044 21.6939C445.195 16.8919 434.306 12.1714 423.33 7.667C419.547 6.11464 415.756 4.57234 411.916 3.1644C410.793 2.75263 409.665 2.34142 408.517 2.0055C407.106 1.5926 406.144 1.62886 404.415 1.69668C400.525 1.84913 396.478 2.63569 392.993 4.42365C391.283 5.30044 389.772 6.43038 388.542 7.91212C388.472 7.99563 388.2 8.34835 388.403 8.08791C387.62 9.09193 386.861 10.1146 386.095 11.1312C382.738 15.5878 379.4 20.0584 376.06 24.5283C370.794 31.577 365.535 38.6304 360.277 45.6854C353.732 54.4692 347.19 63.256 340.65 72.0442C333.477 81.6831 326.307 91.324 319.139 100.967C311.907 110.696 304.678 120.426 297.452 130.159C290.814 139.1 284.178 148.042 277.547 156.988C272.145 164.275 266.746 171.564 261.354 178.858C257.77 183.707 254.185 188.556 250.621 193.42C249.713 194.659 248.804 195.897 247.909 197.145C245.884 199.97 245.424 203.428 245.352 206.849C245.277 210.354 245.551 214.063 246.71 217.396C247.373 219.301 248.771 220.623 250.203 221.989C254.954 226.521 260.192 230.581 265.4 234.568C269.02 237.339 272.661 240.105 276.534 242.515C281.156 245.39 285.82 248.198 290.495 250.984C296.182 254.373 301.889 257.739 307.692 260.927C309.674 262.016 311.665 263.108 313.72 264.055C315.904 265.063 318.154 265.884 320.314 266.961C324.957 269.278 329.489 271.846 333.941 274.511C334.863 275.062 334.024 276.507 333.098 275.953C328.371 273.124 323.558 270.387 318.604 267.976C316.561 266.982 314.421 266.24 312.375 265.262C310.184 264.214 308.052 263.039 305.928 261.862C295.445 256.048 285.125 249.876 274.969 243.507C270.803 240.893 266.9 237.829 263.014 234.822C257.918 230.88 252.709 226.894 248.152 222.322C246.66 220.824 245.574 219.394 244.938 217.347C243.882 213.947 243.593 210.214 243.686 206.672C243.779 203.087 244.276 199.363 246.403 196.39C248.776 193.073 251.214 189.802 253.633 186.519C258.268 180.231 262.915 173.951 267.563 167.673C273.75 159.317 279.943 150.965 286.138 142.615C293.241 133.042 300.348 123.471 307.457 113.903C314.827 103.983 322.2 94.0644 329.575 84.1483C336.564 74.7519 343.555 65.357 350.549 55.9647C356.508 47.9625 362.47 39.9619 368.436 31.965C372.717 26.2273 376.999 20.4906 381.293 14.762C383.283 12.107 385.22 9.39479 387.299 6.80795C391.58 1.48127 399.735 -0.145262 406.231 0.00999274C408.626 0.0673493 410.808 0.973829 413.032 1.80204C422.416 5.29687 431.628 9.28661 440.824 13.2414C452.352 18.1987 463.832 23.2726 475.232 28.5194C479.773 30.6092 484.303 32.7234 488.79 34.927C491.472 36.244 494.23 37.5273 496.755 39.1333C501.344 42.0516 502.482 48.4699 502.756 53.4891C502.87 55.5728 503.043 58.1417 502.315 60.1495C502.017 60.9723 501.479 61.7376 501.027 62.4791C495.975 70.7728 490.447 78.7962 485.049 86.8655C479.112 95.7401 473.14 104.591 467.15 113.43C466.129 114.936 465.109 116.442 464.086 117.946C463.486 118.83 462.038 117.996 462.644 117.103Z" fill="#0047FF"/>
<path d="M474.772 32.8295C477.046 33.4944 479.275 34.3514 481.447 35.294C484.761 36.7322 488.443 38.5125 490.735 41.4089C493.582 45.007 491.839 50.3735 490.297 54.1783C489.005 57.3648 487.347 60.4047 485.404 63.2406C482.723 67.156 480.022 71.0579 477.33 74.9662C471.339 83.6642 465.347 92.3615 459.355 101.058C451.331 112.703 443.305 124.347 435.278 135.99C426.487 148.74 417.695 161.489 408.899 174.235C400.609 186.249 392.316 198.26 384.017 210.267C377.495 219.703 370.971 229.137 364.431 238.56C360.953 243.571 357.499 248.603 353.954 253.567C350.454 258.467 344.966 262.024 339.097 263.375C336.179 264.047 333.27 264.058 330.523 262.858C328.595 262.016 326.732 261.019 324.88 260.025C311.296 252.73 298.131 244.615 284.953 236.622C279.014 233.02 273.087 229.397 267.166 225.765C261.768 222.454 255.406 219.417 251.584 214.257C248.92 210.661 248.415 205.818 250.637 201.927C251.904 199.71 253.327 197.578 254.737 195.451C260.031 187.459 265.555 179.618 271.079 171.784C278.963 160.604 286.927 149.48 294.919 138.377C303.982 125.786 313.087 113.225 322.22 100.684C331.102 88.4885 340.011 76.3127 348.95 64.1596C356.28 54.1953 363.627 44.2437 371.023 34.3281C375.507 28.3155 379.974 22.2836 384.601 16.379C386.086 14.4835 387.577 12.8797 389.385 11.2423C392.961 8.00235 396.928 5.94872 401.77 5.42373C404.926 5.08146 407.72 5.42485 410.753 6.25755C418.404 8.35807 425.794 11.5325 433.081 14.6312C440.523 17.7958 447.89 21.1333 455.226 24.5356C461.652 27.5161 468.085 30.4641 474.772 32.8295C475.778 33.1856 475.345 34.8002 474.328 34.4404C467.505 32.0267 460.94 29.0189 454.383 25.9777C447.139 22.618 439.865 19.3218 432.518 16.1924C425.273 13.1063 417.917 9.95695 410.309 7.86802C407.112 6.99029 404.19 6.69584 400.862 7.21336C396.059 7.96012 392.496 10.5388 389.069 13.8275C385.578 17.1777 382.958 21.2048 380.046 25.0602C373.886 33.2179 367.796 41.4292 361.717 49.6479C353.464 60.8062 345.246 71.9908 337.049 83.191C327.947 95.6288 318.873 108.087 309.831 120.568C301.239 132.43 292.673 144.312 284.162 156.232C277.262 165.896 270.386 175.579 263.629 185.343C259.763 190.93 255.761 196.497 252.317 202.361C251.976 202.942 251.617 203.532 251.355 204.155C251.437 203.959 251.372 204.092 251.327 204.247C251.084 205.071 250.944 205.938 250.901 206.796C250.785 209.116 251.501 211.283 252.844 213.164C255.369 216.699 259.35 219.014 262.985 221.24C264.762 222.329 266.538 223.42 268.315 224.51C281.215 232.423 294.137 240.303 307.173 247.99C313.2 251.544 319.241 255.086 325.399 258.408C327.297 259.432 329.206 260.456 331.177 261.332C333.803 262.499 336.873 262.3 339.705 261.493C344.93 260.005 349.609 256.809 352.751 252.387C354.111 250.473 355.453 248.547 356.796 246.621C362.029 239.119 367.234 231.598 372.44 224.078C379.948 213.23 387.447 202.376 394.943 191.52C403.531 179.083 412.115 166.643 420.696 154.201C429.175 141.908 437.652 129.613 446.127 117.317C453.215 107.033 460.301 96.748 467.387 86.4625C471.948 79.8428 476.508 73.2229 481.067 66.6024C481.997 65.2515 482.929 63.9011 483.858 62.5492C485.233 60.5473 486.47 58.4522 487.541 56.2713C488.779 53.751 489.826 51.0835 490.314 48.3076C490.662 46.3322 490.802 44.2672 489.552 42.5921C487.451 39.7758 483.737 38.0946 480.604 36.7363C478.565 35.8526 476.462 35.0644 474.328 34.4404C473.298 34.1394 473.736 32.5267 474.772 32.8295Z" fill="#0047FF"/>
<path d="M334.86 170.263L337.831 172.123L326.493 190.167L323.522 188.306L334.86 170.263Z" fill="#0047FF"/>
<path d="M321.418 178.779L323.487 178.383L325.434 188.553L335.457 185.879L336 187.91L323.794 191.164L321.418 178.779Z" fill="#0047FF"/>
<path d="M328.263 217.715C327.639 217.316 327.017 217.089 326.396 217.033C325.773 216.967 325.191 217.078 324.65 217.366C324.108 217.644 323.646 218.081 323.265 218.676C322.884 219.271 322.682 219.87 322.66 220.473C322.632 221.072 322.779 221.64 323.1 222.177C323.419 222.705 323.89 223.169 324.514 223.567L326.427 224.789L330.176 218.937L328.263 217.715ZM325.015 222.784C324.33 222.346 323.923 221.825 323.795 221.222C323.668 220.618 323.819 219.979 324.251 219.305C324.686 218.626 325.208 218.212 325.818 218.064C326.428 217.915 327.076 218.06 327.761 218.498L328.713 219.106L325.968 223.392L325.015 222.784ZM318.389 219.762C318.827 220.042 319.286 220.197 319.766 220.226C320.249 220.25 320.707 220.147 321.14 219.917C321.576 219.681 321.947 219.325 322.252 218.848C322.554 218.376 322.718 217.892 322.744 217.394C322.77 216.896 322.666 216.434 322.432 216.008C322.199 215.582 321.86 215.227 321.416 214.944C320.972 214.66 320.507 214.502 320.022 214.469C319.537 214.436 319.073 214.535 318.631 214.767C318.19 214.999 317.818 215.351 317.516 215.823C317.214 216.294 317.053 216.781 317.032 217.282C317.012 217.783 317.123 218.253 317.364 218.692C317.603 219.122 317.945 219.479 318.389 219.762ZM318.923 218.928C318.676 218.771 318.483 218.564 318.345 218.31C318.201 218.052 318.138 217.763 318.154 217.441C318.17 217.119 318.286 216.789 318.502 216.453C318.718 216.116 318.964 215.874 319.241 215.726C319.521 215.573 319.805 215.505 320.094 215.524C320.383 215.542 320.652 215.63 320.899 215.788C321.146 215.946 321.339 216.152 321.477 216.406C321.609 216.657 321.661 216.94 321.634 217.255C321.61 217.564 321.49 217.887 321.275 218.223C320.955 218.723 320.58 219.03 320.151 219.143C319.72 219.248 319.311 219.176 318.923 218.928ZM311.813 208.918L310.282 214.478L311.293 215.124L314.424 212.294L313.164 216.318L314.175 216.964L318.597 213.25L317.62 212.626L314.261 215.737L315.664 211.377L314.661 210.737L311.339 213.847L312.757 209.52L311.813 208.918ZM308.8 206.887C308.435 206.654 308.061 206.521 307.677 206.49C307.288 206.455 306.916 206.534 306.563 206.728C306.209 206.921 305.898 207.228 305.628 207.649L303.875 210.386L304.827 210.994L306.489 208.401C306.755 207.985 307.062 207.734 307.41 207.648C307.762 207.557 308.117 207.625 308.477 207.855C308.837 208.085 309.051 208.38 309.121 208.741C309.189 209.093 309.089 209.476 308.823 209.892L307.162 212.485L308.123 213.099L311.095 208.459L310.134 207.845L309.794 208.376C309.759 208.085 309.655 207.808 309.482 207.547C309.303 207.283 309.076 207.063 308.8 206.887ZM305.68 202.759L301.689 208.99L302.649 209.603L306.641 203.372L305.68 202.759ZM298.364 206.973C298.803 207.253 299.262 207.408 299.742 207.438C300.225 207.462 300.683 207.359 301.115 207.128C301.551 206.893 301.922 206.536 302.228 206.059C302.53 205.588 302.694 205.103 302.72 204.605C302.746 204.108 302.642 203.646 302.408 203.22C302.174 202.794 301.835 202.439 301.392 202.155C300.948 201.872 300.483 201.713 299.998 201.68C299.512 201.647 299.049 201.747 298.607 201.979C298.165 202.211 297.793 202.563 297.491 203.034C297.189 203.506 297.028 203.992 297.008 204.493C296.988 204.995 297.098 205.465 297.34 205.904C297.579 206.333 297.921 206.69 298.364 206.973ZM298.898 206.14C298.651 205.982 298.459 205.776 298.321 205.522C298.177 205.264 298.113 204.974 298.13 204.652C298.146 204.33 298.262 204.001 298.477 203.664C298.693 203.327 298.939 203.085 299.216 202.937C299.496 202.784 299.781 202.717 300.07 202.735C300.359 202.754 300.627 202.842 300.874 203C301.122 203.158 301.314 203.364 301.452 203.618C301.585 203.869 301.637 204.151 301.61 204.466C301.586 204.775 301.466 205.098 301.25 205.435C300.93 205.934 300.556 206.241 300.127 206.355C299.696 206.459 299.286 206.387 298.898 206.14ZM296.873 202.615C297.171 202.149 297.34 201.676 297.379 201.195C297.413 200.71 297.326 200.263 297.121 199.855C296.913 199.438 296.607 199.1 296.203 198.841C295.837 198.608 295.473 198.478 295.11 198.452C294.745 198.417 294.412 198.453 294.113 198.563L294.544 197.889L293.575 197.27L290.603 201.91L291.572 202.529L292.014 201.838C292.037 202.161 292.142 202.485 292.33 202.811C292.517 203.136 292.791 203.414 293.15 203.643C293.549 203.898 293.979 204.03 294.44 204.04C294.905 204.044 295.352 203.926 295.782 203.687C296.211 203.438 296.574 203.081 296.873 202.615ZM293.061 200.205C293.266 199.885 293.511 199.65 293.797 199.5C294.077 199.347 294.364 199.277 294.656 199.29C294.949 199.303 295.219 199.388 295.466 199.546C295.713 199.704 295.904 199.913 296.039 200.172C296.177 200.427 296.238 200.715 296.221 201.037C296.203 201.349 296.092 201.666 295.887 201.986C295.682 202.306 295.437 202.545 295.153 202.704C294.864 202.859 294.571 202.933 294.275 202.926C293.977 202.909 293.707 202.824 293.465 202.67C293.218 202.512 293.027 202.303 292.893 202.043C292.758 201.783 292.702 201.494 292.724 201.176C292.744 200.848 292.856 200.525 293.061 200.205ZM291.161 198.967C291.459 198.502 291.628 198.028 291.667 197.547C291.701 197.062 291.615 196.615 291.409 196.207C291.201 195.79 290.892 195.45 290.482 195.188C290.179 194.994 289.838 194.872 289.459 194.82C289.079 194.759 288.731 194.782 288.417 194.89L289.852 192.65L288.883 192.031L284.891 198.262L285.86 198.881L286.308 198.182C286.321 198.507 286.422 198.832 286.609 199.158C286.791 199.479 287.062 199.755 287.421 199.985C287.826 200.243 288.262 200.379 288.728 200.392C289.193 200.396 289.64 200.278 290.071 200.039C290.499 199.791 290.862 199.433 291.161 198.967ZM287.349 196.557C287.554 196.237 287.799 196.002 288.085 195.852C288.366 195.699 288.652 195.629 288.945 195.642C289.237 195.655 289.507 195.74 289.754 195.898C290.002 196.056 290.192 196.265 290.327 196.525C290.465 196.779 290.526 197.067 290.509 197.389C290.491 197.701 290.38 198.018 290.175 198.338C289.97 198.658 289.725 198.897 289.441 199.056C289.152 199.211 288.859 199.285 288.563 199.278C288.265 199.262 287.995 199.176 287.753 199.022C287.506 198.864 287.315 198.655 287.181 198.395C287.046 198.135 286.99 197.846 287.012 197.528C287.032 197.201 287.144 196.877 287.349 196.557Z" fill="#0047FF"/>
<g clip-path="url(#clip0_115_10813)">
<path fill-rule="evenodd" clip-rule="evenodd" d="M402.199 79.0995C401.902 78.8839 401.48 78.9584 401.255 79.2663C401.031 79.574 401.089 79.9984 401.386 80.2141C401.683 80.4297 402.106 80.3552 402.33 80.0473C402.554 79.7393 402.496 79.3151 402.199 79.0995ZM403.847 80.2972C403.551 80.0816 403.128 80.1561 402.904 80.4639C402.679 80.7716 402.738 81.196 403.035 81.4118C403.332 81.6274 403.754 81.5529 403.979 81.245C404.203 80.9371 404.144 80.5129 403.847 80.2972ZM405.496 81.4949C405.199 81.2793 404.777 81.354 404.552 81.6619C404.328 81.9696 404.387 82.394 404.683 82.6096C404.98 82.8252 405.403 82.7507 405.627 82.4428C405.851 82.1347 405.793 81.7105 405.496 81.4949ZM399.953 78.3203C401.409 76.323 404.151 75.8384 406.077 77.2379C408.003 78.6374 408.385 81.391 406.929 83.3883C405.473 85.3855 402.731 85.8701 400.805 84.4706C400.471 84.2275 400.183 83.9436 399.943 83.6297L398.314 83.6068L399.263 82.3048C398.865 81.011 399.073 79.5276 399.953 78.3203Z" fill="#0047FF"/>
<path fill-rule="evenodd" clip-rule="evenodd" d="M420.828 82.6533C421.739 76.4527 419.368 70.0739 414.093 66.241C408.817 62.4082 402.009 62.1177 396.379 64.8901L396.006 62.1941C402.336 59.3665 409.822 59.8302 415.669 64.0786C421.516 68.327 424.26 75.2955 423.512 82.1789L420.828 82.6533Z" fill="#0047FF"/>
<path fill-rule="evenodd" clip-rule="evenodd" d="M412.516 68.4034C417.222 71.8224 419.209 77.6245 418.107 83.134L415.325 83.6257C416.669 78.823 415.083 73.5733 410.941 70.5642C406.8 67.5552 401.309 67.6637 397.145 70.4166L396.758 67.6225C401.67 64.8811 407.811 64.9844 412.516 68.4034Z" fill="#0047FF"/>
<path fill-rule="evenodd" clip-rule="evenodd" d="M409.365 72.7268C412.954 75.3343 414.101 80.0824 412.413 84.1404L409.15 84.7172C411.476 81.5256 410.867 77.1255 407.789 74.8892C404.711 72.6528 400.33 73.4271 398.003 76.6187L397.55 73.3414C400.898 70.4903 405.776 70.1193 409.365 72.7268Z" fill="#0047FF"/>
</g>
<path d="M414.589 99.548L413.869 99.0249L410.429 103.744C410.076 104.229 410.083 104.605 410.449 104.871C410.741 105.083 411.122 105.063 411.594 104.812L416.285 102.263L413.063 106.684L413.783 107.207L417.188 102.536C417.565 102.019 417.565 101.623 417.187 101.349C416.88 101.125 416.486 101.145 416.007 101.406L411.403 103.92L414.589 99.548ZM408.317 103.236L409.037 103.759L411.664 100.155C412.092 99.5674 412.257 99.0073 412.159 98.4744C412.061 97.9415 411.701 97.4498 411.081 96.9991L410.11 96.2938L409.657 96.916L410.62 97.6155C411.029 97.9133 411.256 98.2305 411.3 98.5669C411.342 98.8941 411.204 99.2759 410.886 99.7123L410.461 100.294L408.326 98.7423L407.872 99.3646L410.008 100.916L408.317 103.236ZM402.918 98.3237L402.447 98.9702L402.665 99.1289C403.237 99.5443 403.684 99.8196 404.006 99.9548C404.332 100.085 404.733 100.145 405.209 100.137C405.69 100.123 406.159 99.9946 406.617 99.7507C407.075 99.5068 407.466 99.164 407.788 98.7222C408.341 97.9626 408.54 97.1302 408.383 96.2251C408.226 95.32 407.751 94.5794 406.958 94.0034L406.375 93.5802L405.904 94.2266L406.301 94.5147C406.959 94.9927 407.356 95.5739 407.492 96.2581C407.629 96.9424 407.475 97.5889 407.031 98.1976C406.768 98.5586 406.43 98.836 406.016 99.0299C405.607 99.2185 405.232 99.2966 404.893 99.2642C404.553 99.2319 404.267 99.1601 404.035 99.0489C403.803 98.9377 403.487 98.7371 403.088 98.4471L402.918 98.3237ZM396.755 93.8464L396.284 94.4929L396.503 94.6516C397.074 95.0669 397.521 95.3422 397.843 95.4774C398.169 95.6072 398.571 95.668 399.047 95.6597C399.527 95.646 399.996 95.5173 400.455 95.2734C400.913 95.0295 401.303 94.6867 401.625 94.2449C402.179 93.4853 402.377 92.6529 402.22 91.7478C402.063 90.8427 401.588 90.1021 400.795 89.5261L400.213 89.1028L399.742 89.7493L400.138 90.0373C400.796 90.5154 401.193 91.0966 401.33 91.7808C401.466 92.465 401.313 93.1115 400.869 93.7203C400.606 94.0813 400.268 94.3587 399.854 94.5526C399.444 94.7412 399.07 94.8193 398.73 94.7869C398.391 94.7546 398.105 94.6828 397.873 94.5716C397.64 94.4604 397.324 94.2598 396.925 93.9698L396.755 93.8464ZM396.706 89.0767C396.183 88.6966 395.598 88.5599 394.951 88.6666C394.304 88.7733 393.786 89.0934 393.397 89.6267C393.024 90.1385 392.888 90.7155 392.989 91.3576C393.091 91.9997 393.403 92.5108 393.926 92.8909C394.465 93.2828 395.059 93.43 395.708 93.3326C396.356 93.2351 396.877 92.9171 397.27 92.3783C397.647 91.8611 397.782 91.2795 397.675 90.6335C397.569 89.9875 397.246 89.4685 396.706 89.0767ZM396.241 89.7151C396.591 89.9698 396.802 90.3085 396.874 90.7312C396.945 91.1538 396.853 91.5403 396.598 91.8905C396.331 92.2568 395.986 92.4757 395.563 92.5472C395.138 92.6094 394.742 92.5072 394.375 92.2407C394.052 92.0056 393.859 91.676 393.797 91.2518C393.735 90.8277 393.825 90.4486 394.069 90.1146C394.332 89.7536 394.675 89.5374 395.098 89.4659C395.52 89.3852 395.901 89.4682 396.241 89.7151ZM388.398 88.7637L389.046 89.2339L390.448 87.3106C390.722 86.9335 391.015 86.7014 391.326 86.6142C391.637 86.527 391.944 86.5932 392.246 86.8126C392.877 87.2711 392.898 87.9044 392.309 88.7125L390.931 90.6034L391.578 91.0737L393.086 89.0049C393.451 88.5039 393.6 87.9941 393.533 87.4754C393.465 86.9567 393.189 86.521 392.703 86.1683C392.229 85.8235 391.736 85.7008 391.227 85.8002C390.716 85.8903 390.277 86.1858 389.912 86.6868L388.398 88.7637ZM384.488 85.9223L385.135 86.3925L386.537 84.4692C386.812 84.0921 387.105 83.86 387.416 83.7728C387.727 83.6857 388.033 83.7518 388.335 83.9712C388.966 84.4297 388.987 85.063 388.398 85.8711L387.02 87.7621L387.667 88.2323L389.175 86.1636C389.54 85.6625 389.689 85.1527 389.622 84.634C389.554 84.1153 389.278 83.6796 388.792 83.327C388.318 82.9821 387.826 82.8594 387.316 82.9588C386.805 83.0489 386.367 83.3444 386.001 83.8455L384.488 85.9223ZM381.854 81.4133L381.219 81.3346C380.777 82.563 381.042 83.5298 382.012 84.2352C382.541 84.6192 383.128 84.7652 383.772 84.6732C384.415 84.5718 384.931 84.2545 385.32 83.7211C385.713 83.1824 385.859 82.5966 385.759 81.9638C385.66 81.331 385.337 80.8167 384.793 80.4209C384.07 79.8958 383.239 79.848 382.299 80.2775L383.534 83.5234L384.156 83.2464L383.24 80.7514C383.626 80.6525 384.002 80.7363 384.369 81.0028C384.725 81.2614 384.933 81.5981 384.993 82.013C385.054 82.4278 384.949 82.8211 384.678 83.1928C384.407 83.5646 384.044 83.7911 383.589 83.8723C383.133 83.9536 382.725 83.863 382.364 83.6004C382.024 83.3536 381.81 83.0416 381.722 82.6644C381.634 82.2873 381.678 81.8702 381.854 81.4133ZM377.833 80.2094L377.414 80.7832L377.892 81.13C378.248 81.3886 378.568 81.5598 378.854 81.6436C379.134 81.7234 379.511 81.7213 379.985 81.6371C380.458 81.5528 380.88 81.2575 381.249 80.7511C381.442 80.4871 381.57 80.1808 381.634 79.8321C381.703 79.478 381.683 79.0972 381.576 78.6897C381.464 78.2782 381.146 77.8825 380.622 77.5024L380.088 77.1144L379.676 77.6801L380.056 77.9564C380.499 78.2777 380.765 78.6482 380.855 79.068C380.945 79.4877 380.847 79.8942 380.56 80.2875C380.277 80.6754 379.929 80.8877 379.514 80.9244C379.1 80.9611 378.671 80.8188 378.229 80.4975L377.833 80.2094ZM378.47 76.8288L377.222 78.5419C376.99 78.8598 376.778 79.0314 376.586 79.0569C376.395 79.0823 376.126 78.9697 375.781 78.7189L375.465 78.4896L375.047 79.0634L375.395 79.3161C375.956 79.7237 376.412 79.9069 376.764 79.8658C377.116 79.8247 377.478 79.5482 377.851 79.0364L380.343 75.6181L379.696 75.1479L378.883 76.2631L377.71 75.4108L377.297 75.9765L378.47 76.8288Z" fill="#0047FF"/>
<rect width="3.01337" height="39.4689" transform="matrix(0.527734 -0.84941 -0.849478 -0.527624 336.878 206.803)" fill="#0047FF"/>
<defs>
<clipPath id="clip0_115_10813">
<rect width="33.9997" height="26.0002" fill="white" transform="matrix(-0.809024 -0.58779 -0.58903 0.808101 429.422 74.071)"/>
</clipPath>
</defs>
</svg>
