<svg width="329" height="338" viewBox="0 0 329 338" fill="none" xmlns="http://www.w3.org/2000/svg">
<path d="M328.41 329.417C323.263 330.836 317.995 331.142 312.694 330.627C307.785 330.151 302.942 329.152 298.022 328.779C292.438 328.355 286.905 328.857 281.508 330.371C277.272 331.559 273.293 333.38 269.199 334.955C266.302 336.07 263.201 337.013 260.076 336.419C256.259 335.694 253.277 332.753 250.944 329.831C245.866 323.47 242.045 315.317 240.632 307.275C240.342 305.622 239.635 302.454 241.107 301.108C242.816 299.545 245.054 302.462 246.132 303.462C249.345 306.446 255.793 311.977 250.1 315.91C248.435 317.061 246.403 317.712 244.47 318.24C241.914 318.939 239.289 319.431 236.675 319.859C233.66 320.353 230.57 320.491 227.575 321.086C225.47 321.504 223.898 322.556 222.397 324.067C221.115 325.357 219.998 326.788 218.793 328.147C217.28 329.855 215.523 331.342 213.633 332.617C210.325 334.847 206.476 336.497 202.54 337.198C200.883 337.494 197.635 338.131 196.351 336.572C195.344 335.35 196.168 332.557 196.361 331.197C196.856 327.716 197.515 324.257 198.213 320.812C199.016 316.84 199.894 312.881 200.884 308.951C201.644 305.937 202.409 302.876 203.556 299.981C206.026 293.748 209.578 287.866 212.868 282.044C216.642 275.366 220.529 268.753 224.413 262.139C225.535 260.229 226.786 258.343 227.641 256.293C228.867 253.354 229.739 250.255 230.599 247.195C232.952 238.817 234.893 230.326 236.926 221.867C238.889 213.695 241.102 205.614 243.472 197.55C244.876 192.769 246.312 187.992 247.936 183.281C249.022 180.128 250.323 177.203 251.782 174.224C253.715 170.277 253.661 165.214 253.41 160.928C253.316 159.338 252.962 157.753 252.92 156.166C252.877 154.518 253.184 152.839 253.505 151.23C254.341 147.037 255.61 142.911 257.039 138.885C257.631 137.216 258.288 135.579 259.005 133.959C260.045 131.612 261.578 128.926 261.568 126.284C261.559 123.819 258.855 122.143 256.865 121.192C254.548 120.086 251.8 119.633 249.441 120.888C247.494 121.923 246.902 123.98 246.44 125.985C245.972 128.019 245.339 130.011 244.885 132.048C244.706 132.857 244.587 133.643 244.545 134.468C244.54 134.56 244.539 134.776 244.595 134.867C244.733 135.093 244.306 134.693 244.665 134.847C245.099 135.033 245.773 134.958 246.252 135.022C249.068 135.399 251.219 136.78 253.492 138.397C253.947 138.72 254.398 139.05 254.868 139.352C255.01 139.443 255.23 139.546 255.366 139.659C255.999 140.186 255.406 139.433 255.387 139.914C255.383 140.005 255.414 139.929 255.491 139.781C255.606 139.557 255.858 139.329 256.011 139.125C256.993 137.817 257.887 136.437 258.765 135.059C259.792 133.445 260.787 131.806 261.692 130.121C262.555 128.513 263.447 126.943 262.923 125.067C262.312 122.878 260.553 120.83 258.603 119.703C256.999 118.777 254.953 118.512 253.146 118.288C249.637 117.854 245.649 117.537 242.583 119.571C239.342 121.72 236.429 124.459 233.704 127.216C230.795 130.159 227.93 133.331 226.073 137.062C223.631 141.968 221.323 147.016 219.578 152.217C218.922 154.173 218.529 156.165 218.104 158.181C217.838 159.439 217.566 160.703 217.405 161.979C217.338 162.509 216.938 164.736 217.478 165.143C218.146 165.647 220.101 164.646 220.753 164.354C221.343 164.09 221.923 163.796 222.482 163.471C222.689 163.351 222.899 163.176 223.117 163.08C223.178 163.053 223.222 162.982 223.286 162.964C223.319 162.938 223.35 162.911 223.379 162.881C223.724 162.527 223.919 162.945 223.964 164.137C223.9 164.196 223.094 164.38 222.808 164.471C222.046 164.714 221.303 165.01 220.587 165.369C218.667 166.332 216.932 167.698 215.727 169.493C214.492 171.331 213.768 173.536 212.929 175.573C212.02 177.778 211.108 179.982 210.13 182.158C208.162 186.538 205.92 190.65 202.826 194.337C199.545 198.248 195.978 201.938 192.121 205.283C190.027 207.099 187.84 208.817 185.542 210.368C183.289 211.888 180.884 213.142 178.75 214.84C174.98 217.841 171.82 221.539 169.019 225.441C164.708 231.447 160.396 237.49 156.304 243.648C153.739 247.508 151.432 251.464 149.203 255.522C146.85 259.804 143.88 263.782 140.651 267.44C137.922 270.533 134.809 273.848 131.088 275.755C128.007 277.334 124.619 276.48 121.533 275.322C117.55 273.827 113.826 271.717 110.14 269.614C107.108 267.885 104.155 266.174 101.3 264.152C99.6431 262.978 98.0023 261.78 96.3089 260.659C95.6835 260.245 95.0515 259.837 94.3957 259.473C94.1629 259.344 93.0208 259.017 92.9055 258.839C92.9512 258.91 93.2019 258.626 93.2176 258.641C93.2424 258.665 93.1665 259.023 93.1663 259.068C93.1629 259.698 93.1655 260.321 93.2023 260.951C93.3092 262.783 93.5114 264.611 93.6942 266.437C94.0802 270.292 94.6231 274.257 94.3414 278.137C94.1481 280.798 93.5845 283.444 93.2155 286.085C93.0674 287.146 92.9148 288.219 92.8799 289.291C92.875 289.436 92.9665 290.164 92.9051 290.244C92.7846 290.402 92.3098 290.114 92.3364 290.049C92.4146 289.857 93.8795 289.047 94.2722 288.757C95.4367 287.897 96.563 286.984 97.6771 286.06C100.086 284.063 102.464 282 104.662 279.771C105.062 279.366 105.456 278.955 105.828 278.526C106.014 278.312 106.285 277.763 106.512 277.619C106.73 277.481 106.42 277.568 106.55 277.637C106.543 277.633 106.788 278.39 106.881 278.195C106.881 278.196 106.539 278.331 106.537 278.333C105.867 279.007 104.963 279.562 104.254 280.224C100.794 283.455 96.8908 286.074 94.3097 290.131C91.4341 294.651 90.4404 299.675 90.4255 304.968C90.4111 310.078 90.9003 315.213 91.704 320.257C92.3926 324.578 93.3946 328.516 95.3789 332.44C95.9065 333.483 97.013 335.171 96.2401 336.346C95.538 337.414 93.7028 337.291 92.6667 336.872C91.7143 336.487 91.2665 335.616 90.4537 335.065C88.9507 334.046 87.0657 334.841 85.4197 334.587C82.7815 334.181 81.3571 331.492 80.5814 329.204C79.9311 327.285 79.1486 324.501 79.6633 322.456C79.8566 321.688 80.6055 321.143 81.314 321.755C82.3336 322.634 82.4793 324.909 82.3993 326.12C82.2495 328.385 80.9775 330.569 79.7365 332.413C78.6451 334.035 77.4209 334.427 75.6653 334.989C74.7827 335.271 74.0508 335.833 73.1968 336.186C72.3287 336.544 71.4168 336.783 70.4987 336.973C69.2589 337.23 67.9904 337.413 66.727 337.507C65.6562 337.586 65.6612 335.917 66.727 335.838C68.1585 335.732 69.5963 335.506 70.9866 335.15C72.8216 334.681 74.3628 333.637 76.1866 333.122C77.3071 332.806 77.9177 332.165 78.5352 331.188C79.2384 330.075 79.9814 328.872 80.4049 327.618C80.81 326.42 80.8288 325.222 80.5064 324C80.4408 323.751 80.1137 323.138 80.1439 322.946C80.1478 322.922 81.2797 322.752 81.2956 322.792C81.3282 322.872 81.2463 323.435 81.2502 323.681C81.2588 324.222 81.3083 324.765 81.3806 325.3C81.5674 326.683 81.9002 328.074 82.4123 329.373C82.8546 330.495 83.4809 331.72 84.4848 332.442C85.8639 333.433 87.6838 332.732 89.2558 332.939C90.5462 333.109 91.482 333.652 92.3682 334.575C92.6928 334.913 92.9652 335.228 93.4237 335.378C93.6832 335.464 93.9635 335.483 94.2351 335.479C94.3519 335.477 94.7897 335.508 94.8852 335.398C94.8511 335.437 94.7841 335.589 94.8311 335.395C94.9619 334.858 94.1597 333.718 93.9388 333.282C93.3689 332.155 92.8036 331.028 92.3258 329.858C91.5633 327.991 91.0941 326.034 90.6967 324.061C89.7391 319.304 89.164 314.447 88.8907 309.605C88.6062 304.568 88.5797 299.381 90.2964 294.571C91.8144 290.318 94.4403 286.346 97.9424 283.468C99.9642 281.806 101.891 280.092 103.836 278.342C104.716 277.55 106.174 276.063 107.508 276.643C109.486 277.505 106.772 279.995 106.05 280.739C103.83 283.025 101.403 285.125 98.9534 287.16C97.1716 288.641 95.2806 290.461 93.1773 291.485C90.1014 292.984 91.5008 286.381 91.6661 285.229C92.0327 282.675 92.6015 280.102 92.707 277.521C92.7861 275.581 92.6601 273.633 92.5116 271.7C92.2172 267.868 91.624 264.041 91.4982 260.198C91.4715 259.383 91.33 258.109 92.013 257.502C92.7797 256.821 93.9263 257.366 94.6965 257.745C98.0614 259.403 101.026 261.973 104.107 264.086C107.018 266.082 110.162 267.732 113.241 269.453C116.969 271.535 120.878 273.709 125.073 274.671C126.653 275.034 128.31 275.196 129.826 274.52C131.578 273.739 133.132 272.478 134.56 271.222C138.326 267.911 141.616 263.998 144.486 259.897C147.155 256.084 149.137 251.888 151.573 247.932C154.12 243.795 156.868 239.782 159.667 235.812C161.534 233.164 163.469 230.561 165.298 227.886C167.592 224.533 169.945 221.223 172.704 218.229C174.445 216.34 176.331 214.587 178.379 213.033C180.504 211.421 182.865 210.189 185.061 208.682C189.761 205.457 193.99 201.55 197.882 197.398C201.13 193.935 204.113 190.371 206.345 186.158C208.713 181.688 210.531 176.963 212.491 172.308C213.308 170.368 214.164 168.527 215.619 166.97C216.971 165.523 218.658 164.393 220.463 163.591C221.44 163.157 222.793 162.473 223.896 162.476C225.2 162.48 224.973 163.758 224.218 164.338C223.225 165.1 222.01 165.641 220.859 166.112C219.762 166.561 218.301 167.155 217.095 166.805C215.61 166.373 215.574 164.503 215.627 163.231C215.732 160.693 216.416 158.186 216.925 155.71C217.857 151.173 219.749 146.862 221.619 142.645C223.531 138.334 225.454 134.189 228.455 130.524C231.283 127.07 234.513 123.907 237.933 121.041C240.26 119.092 242.655 117.015 245.749 116.565C249.649 115.998 254.31 116.294 258.044 117.627C261.589 118.892 265.27 123.101 264.726 127.071C264.52 128.573 263.649 130.024 262.933 131.332C261.984 133.064 260.95 134.75 259.88 136.41C259.02 137.744 258.143 139.077 257.173 140.336C256.548 141.147 256.035 141.756 254.935 141.304C252.441 140.277 250.668 137.986 248.053 137.112C246.95 136.744 245.812 136.643 244.665 136.515C244.014 136.443 243.496 136.325 243.146 135.715C242.403 134.419 243.107 132.292 243.424 130.978C243.901 129 244.474 127.049 244.937 125.068C245.378 123.177 246.111 121.286 247.684 120.054C249.35 118.749 251.622 118.269 253.696 118.522C257.466 118.983 263.252 121.871 263.237 126.284C263.229 128.694 262.105 131.048 261.155 133.209C260.303 135.146 259.458 137.069 258.744 139.062C257.306 143.075 256.037 147.188 255.177 151.366C254.842 152.991 254.502 154.7 254.596 156.369C254.694 158.108 255.033 159.83 255.112 161.578C255.304 165.836 255.187 170.564 253.466 174.534C252.89 175.863 252.099 177.083 251.531 178.422C250.772 180.211 250.121 182.048 249.49 183.885C247.844 188.675 246.389 193.531 244.964 198.391C242.561 206.59 240.335 214.807 238.342 223.115C236.296 231.642 234.342 240.204 231.925 248.636C231.074 251.605 230.196 254.603 228.953 257.437C228.046 259.507 226.765 261.43 225.623 263.375C221.65 270.138 217.677 276.902 213.829 283.737C211.911 287.143 210.017 290.564 208.217 294.035C206.98 296.421 205.713 298.834 204.81 301.372C202.291 308.457 200.83 316.018 199.399 323.382C198.77 326.622 198.143 329.882 197.774 333.163C197.687 333.938 197.562 334.76 197.64 335.542C197.633 335.468 197.513 335.483 197.768 335.595C198.18 335.778 198.666 335.812 199.11 335.831C202.54 335.978 206.162 334.717 209.2 333.241C211.298 332.22 213.295 330.963 215.074 329.45C216.793 327.988 218.177 326.257 219.66 324.57C221.254 322.756 222.99 320.904 225.285 320.003C227.488 319.139 229.987 319.086 232.311 318.805C237.084 318.229 242.108 317.518 246.618 315.804C249.128 314.849 251.842 313.207 250.181 310.295C248.722 307.735 246.167 305.795 244.053 303.803C243.624 303.399 243.209 302.902 242.711 302.579C242.413 302.386 242.221 302.334 242.176 302.349C242.355 302.289 242.161 302.437 242.082 302.71C241.946 303.172 241.949 303.676 241.956 304.153C242.003 307.484 243.101 310.881 244.212 313.986C245.752 318.294 247.793 322.461 250.365 326.249C252.617 329.566 255.578 333.406 259.604 334.59C262.787 335.525 266.054 334.401 269.021 333.244C273.143 331.636 277.165 329.825 281.446 328.657C286.857 327.181 292.433 326.687 298.022 327.111C302.816 327.475 307.535 328.434 312.314 328.922C317.602 329.462 322.825 329.227 327.967 327.809C329.003 327.522 329.446 329.131 328.41 329.417Z" fill="#0047FF"/>
<path d="M123.332 78.1091C122.959 77.6756 122.683 77.1552 122.373 76.6773C122.134 76.3075 121.886 75.9423 121.629 75.5846C121.561 75.491 121.493 75.3977 121.424 75.3049C121.389 75.2572 121.353 75.2096 121.317 75.1622C121.273 75.1036 121.179 74.9827 121.281 75.1137C121.111 74.8953 120.937 74.6798 120.759 74.4682C120.37 74.0068 119.96 73.563 119.528 73.1421C119.297 72.9168 119.059 72.6982 118.815 72.4867C118.7 72.3865 118.582 72.2878 118.464 72.191C118.404 72.1419 118.344 72.0936 118.283 72.0453C118.279 72.0419 118.178 71.9624 118.244 72.0143C118.307 72.063 118.184 71.9687 118.173 71.9603C117.023 71.0955 115.763 70.4054 114.498 69.9824C111.353 68.9308 107.739 69.1211 104.622 70.3338C104.418 70.4131 104.336 70.4476 104.212 70.5026C104.043 70.5786 103.874 70.6564 103.708 70.7383C103.385 70.8966 103.069 71.0673 102.76 71.2498C102.465 71.4242 102.176 71.6095 101.894 71.8053C101.768 71.8926 101.644 71.982 101.521 72.0734C101.484 72.101 101.341 72.2095 101.45 72.1251C101.372 72.1856 101.295 72.2472 101.219 72.3095C100.758 72.6838 100.321 73.0872 99.9116 73.5169C99.7204 73.7177 99.5352 73.9241 99.3565 74.1359C99.2781 74.2288 99.2008 74.3228 99.1249 74.418C99.1061 74.4415 98.9904 74.5895 99.0624 74.4964C99.1305 74.4081 98.9975 74.583 98.9706 74.6192C98.7076 74.9739 98.4623 75.342 98.2408 75.724C98.1918 75.8087 98.1432 75.894 98.0972 75.9802C98.0615 76.0468 98.0274 76.1142 97.9947 76.1825C97.977 76.2196 97.9593 76.2571 97.9434 76.2952C97.9779 76.212 97.949 76.2872 97.9347 76.3284C97.8097 76.6857 97.7154 77.0537 97.6654 77.4297C97.6791 77.3273 97.655 77.5435 97.6524 77.573C97.6438 77.6665 97.6369 77.76 97.6315 77.8536C97.6196 78.0619 97.6155 78.2707 97.6171 78.4793C97.6211 78.9154 97.6516 79.3509 97.7002 79.784C97.791 80.5959 97.9811 81.5026 98.1884 82.343C98.3908 83.1635 98.6262 83.9753 98.8768 84.7822C98.9848 85.1302 99.0917 85.4789 99.2078 85.8243C99.2421 85.9266 99.2787 86.0279 99.3176 86.1285C99.3316 86.1647 99.4068 86.3505 99.3632 86.2449C99.3195 86.1393 99.4037 86.3369 99.4186 86.3705C99.9691 87.6028 100.685 88.7642 101.41 89.9002C102.247 91.2135 103.132 92.4965 104.041 93.7614C104.45 94.3308 104.864 94.8959 105.284 95.457C105.457 95.6882 105.631 95.9187 105.807 96.1484C105.851 96.207 105.896 96.2656 105.941 96.3242C105.994 96.3928 106.045 96.4587 105.958 96.3458C106.031 96.4408 106.105 96.5356 106.179 96.63C106.322 96.8121 106.461 96.9998 106.621 97.1672C106.66 97.2081 106.702 97.2452 106.741 97.2857C106.851 97.4001 106.701 97.2672 106.729 97.2823C106.765 97.3027 106.81 97.3292 106.843 97.3553C106.978 97.4626 106.679 97.2907 106.831 97.3514C106.96 97.4029 106.847 97.3525 106.849 97.3624C106.842 97.3305 106.736 97.3607 106.867 97.3516C106.921 97.3478 106.637 97.3779 106.792 97.3579C106.924 97.3411 106.851 97.3092 106.76 97.3823C106.829 97.3271 106.932 97.2836 107.009 97.237C107.145 97.1545 106.96 97.282 106.998 97.2458C107.044 97.2021 107.095 97.1631 107.142 97.1204C107.608 96.6933 108.007 96.1922 108.423 95.7177C109.01 95.0464 109.616 94.3918 110.266 93.7801C111.031 93.0593 111.884 92.445 112.66 91.7369C113.341 91.1155 113.971 90.4407 114.562 89.7335C115.645 88.4359 116.58 87.009 117.495 85.5812C118.261 84.3874 119.003 83.1549 119.934 82.0801C121.053 80.7884 122.014 79.413 122.808 77.8966C122.945 77.634 123.08 77.3691 123.201 77.0983C123.385 76.6869 123.984 76.5893 124.342 76.799C124.766 77.0468 124.826 77.5273 124.641 77.9404C124.17 78.9969 123.567 80.0088 122.919 80.9644C122.356 81.7933 121.72 82.5499 121.071 83.3101C120.975 83.4228 120.882 83.5381 120.79 83.6544C120.732 83.7283 120.805 83.6357 120.812 83.6262C120.79 83.6551 120.768 83.6839 120.746 83.713C120.687 83.7923 120.629 83.8716 120.571 83.9516C120.362 84.2403 120.162 84.5349 119.965 84.8316C117.969 87.8372 116.136 90.9961 113.342 93.3535C112.498 94.0654 111.641 94.7401 110.864 95.5279C110.269 96.1307 109.715 96.7699 109.158 97.4072C108.461 98.2045 107.515 99.3489 106.313 98.9345C105.764 98.7455 105.394 98.3123 105.047 97.871C104.67 97.3907 104.298 96.905 103.931 96.4163C103.032 95.2176 102.156 94.0001 101.309 92.7635C100.419 91.4654 99.5531 90.1463 98.7798 88.775C98.1207 87.6062 97.6362 86.4179 97.2407 85.1378C96.6899 83.3551 96.2163 81.5419 96.0206 79.6821C95.8495 78.0556 95.947 76.368 96.7767 74.9222C97.9673 72.8476 99.7721 71.1005 101.814 69.8712C104.86 68.0366 108.59 67.3499 112.108 67.7628C115.292 68.1366 118.168 69.5695 120.495 71.7592C122.002 73.1775 123.192 74.856 124.296 76.5947C124.357 76.6913 124.418 76.7882 124.483 76.8832C124.508 76.9212 124.536 76.9582 124.561 76.9966C124.654 77.1395 124.413 76.8167 124.51 76.9298C124.804 77.2713 124.846 77.7742 124.51 78.1097C124.211 78.4095 123.627 78.4522 123.332 78.1091Z" fill="#0047FF"/>
<path d="M91.9766 121.933C91.9497 121.912 91.9223 121.89 91.8954 121.869C91.7788 121.776 92.0862 122.013 91.939 121.903C91.851 121.836 91.7635 121.769 91.6751 121.703C91.4348 121.524 91.1923 121.348 90.9484 121.174C90.2641 120.685 89.5684 120.212 88.8628 119.754C88.0067 119.199 87.1353 118.667 86.2445 118.169C85.7859 117.912 85.3221 117.665 84.8518 117.431C84.6212 117.316 84.3889 117.205 84.1548 117.097C84.0525 117.05 83.9499 117.003 83.8471 116.958C83.7962 116.935 83.7451 116.913 83.694 116.89C83.4442 116.782 83.838 116.949 83.5886 116.845C82.7627 116.504 81.9148 116.223 81.0316 116.077C81.2446 116.112 80.9943 116.074 80.9366 116.068C80.8454 116.06 80.754 116.054 80.6624 116.051C80.3342 116.04 80.0034 116.052 79.6756 116.071C79.1686 116.101 78.865 116.126 78.3408 116.278C78.2667 116.3 78.193 116.323 78.1203 116.349C78.0875 116.36 78.0544 116.375 78.021 116.385C77.857 116.436 78.1525 116.31 78.0626 116.367C77.955 116.435 77.8287 116.481 77.7181 116.546C77.5621 116.638 77.4147 116.744 77.2517 116.824C76.7146 117.087 76.0466 117.082 75.5228 116.779C75.1155 116.544 74.8346 116.137 74.5708 115.761C74.4335 115.565 74.3006 115.367 74.1626 115.172C74.093 115.073 74.0225 114.976 73.9503 114.879C73.9268 114.848 73.902 114.817 73.879 114.785C73.8178 114.699 73.9902 114.919 73.9206 114.839C73.8607 114.77 73.8062 114.695 73.7475 114.625C73.5428 114.379 73.3251 114.144 73.0938 113.923C72.9697 113.805 72.8421 113.69 72.7106 113.58C72.6802 113.555 72.4749 113.391 72.5462 113.446C72.6496 113.525 72.4762 113.394 72.4733 113.392C72.4277 113.359 72.3824 113.326 72.3365 113.294C71.9764 113.041 71.5962 112.818 71.2026 112.622C71.0942 112.568 70.9849 112.516 70.8744 112.466C70.8239 112.443 70.7733 112.421 70.7224 112.399C70.8343 112.447 70.7021 112.391 70.6862 112.385C70.4213 112.278 70.1524 112.182 69.8804 112.095C68.6935 111.717 67.463 111.531 66.2251 111.42C65.1319 111.323 64.0278 111.285 62.9329 111.38C62.8124 111.391 62.692 111.403 62.5719 111.417C62.5195 111.423 62.467 111.429 62.4148 111.436C62.4497 111.432 62.5693 111.412 62.4047 111.439C62.1687 111.478 61.9337 111.518 61.7001 111.57C61.2854 111.663 60.8768 111.784 60.4807 111.938C60.4384 111.955 60.3962 111.972 60.354 111.989C60.2283 112.041 60.5315 111.903 60.3356 111.999C60.2554 112.038 60.1733 112.073 60.0931 112.113C59.9149 112.201 59.7405 112.297 59.5707 112.4C59.4018 112.503 59.2395 112.614 59.0789 112.729C59.0433 112.754 59.0084 112.781 58.9735 112.808C59.1118 112.703 59.0145 112.776 58.9869 112.799C58.9034 112.871 58.8172 112.94 58.7347 113.013C58.4306 113.283 58.15 113.579 57.8916 113.893C57.8547 113.938 57.8185 113.984 57.7821 114.029C57.7038 114.127 57.8581 113.926 57.7833 114.028C57.7195 114.115 57.6555 114.201 57.5937 114.289C57.4665 114.47 57.3454 114.656 57.2297 114.844C56.712 115.688 56.3051 116.584 55.9891 117.411C55.0354 119.905 54.8929 122.462 55.7829 124.956C56.5747 127.174 58.1114 129.139 59.511 131.07C60.8835 132.964 62.1538 134.76 63.872 136.382C64.8496 137.304 65.9272 138.073 66.9902 138.89C68.0952 139.738 69.1385 140.659 70.1907 141.571C71.0304 142.298 71.7388 142.951 72.7031 143.478C72.7872 143.524 72.8725 143.567 72.9587 143.609C72.9997 143.629 73.0419 143.648 73.0839 143.666C72.9212 143.597 73.0346 143.646 73.0693 143.656C73.1699 143.685 73.2661 143.723 73.3684 143.748C73.4064 143.757 73.4477 143.762 73.485 143.773C73.6406 143.819 73.3215 143.784 73.4909 143.773C73.56 143.768 73.6422 143.769 73.7115 143.773C73.8077 143.779 73.5684 143.821 73.7553 143.76C73.7973 143.747 73.8411 143.731 73.8839 143.72C73.9883 143.692 73.7434 143.798 73.8351 143.738C73.8948 143.699 74.1234 143.518 73.9783 143.659C74.3971 143.253 74.7523 142.776 75.1176 142.321C75.6273 141.687 76.1304 141.047 76.6317 140.406C77.8875 138.8 78.9691 137.394 80.2135 135.773C81.9539 133.506 83.6809 131.229 85.4512 128.985C87.4752 126.42 89.5078 123.861 91.5402 121.302C91.6853 121.119 91.8305 120.936 91.9758 120.754C92.2564 120.401 92.8623 120.461 93.1554 120.754C93.5041 121.102 93.4366 121.58 93.1554 121.934C91.4357 124.097 89.7175 126.263 88.002 128.43C87.1241 129.539 86.2431 130.646 85.3753 131.763C85.346 131.801 85.3165 131.839 85.2872 131.877C85.157 132.045 85.3583 131.785 85.2958 131.866C85.2139 131.972 85.1318 132.079 85.0499 132.185C84.8516 132.443 84.6537 132.701 84.4557 132.959C83.9391 133.633 83.4233 134.307 82.9069 134.981C80.5958 137.998 78.3085 141.041 75.9054 143.985C75.4398 144.556 74.9892 145.131 74.2506 145.355C73.3367 145.631 72.3723 145.24 71.5987 144.767C70.5922 144.151 69.697 143.348 68.8099 142.576C67.7723 141.673 66.7428 140.754 65.6308 139.942C64.5011 139.118 63.4014 138.261 62.4006 137.281C61.5593 136.458 60.796 135.562 60.0761 134.632C59.299 133.628 58.5657 132.591 57.8181 131.565C57.0721 130.541 56.3068 129.532 55.6475 128.448C54.3267 126.277 53.433 123.829 53.4979 121.259C53.5619 118.729 54.4703 116.152 55.7893 114.002C56.7363 112.459 58.0362 111.174 59.7171 110.462C61.6175 109.655 63.7377 109.569 65.772 109.715C68.1941 109.89 70.7056 110.295 72.8003 111.603C74.0562 112.387 74.9963 113.446 75.828 114.654C75.8922 114.748 75.956 114.841 76.0211 114.934C76.0511 114.976 76.0817 115.018 76.112 115.061C76.2515 115.258 76.1034 115.044 76.0985 115.048C76.0935 115.052 76.2519 115.231 76.2687 115.249C76.2929 115.274 76.3198 115.298 76.3435 115.324C76.4537 115.444 76.4006 115.313 76.2972 115.295C76.3222 115.299 76.3601 115.338 76.3838 115.349C76.5171 115.413 76.1806 115.308 76.2832 115.31C76.3233 115.312 76.3901 115.338 76.4267 115.348C76.6157 115.402 76.2464 115.359 76.4216 115.347C76.458 115.345 76.5097 115.338 76.5449 115.346C76.6296 115.362 76.2895 115.395 76.4856 115.345C76.6625 115.301 76.3901 115.34 76.4093 115.383C76.4101 115.385 76.5209 115.325 76.5287 115.321C78.0057 114.406 79.8366 114.204 81.5392 114.478C83.5113 114.796 85.4003 115.784 87.1241 116.75C88.7675 117.671 90.3522 118.701 91.8823 119.799C92.3129 120.108 92.7409 120.423 93.1552 120.753C93.5077 121.035 93.4487 121.64 93.1552 121.933C92.8079 122.281 92.3299 122.215 91.9766 121.933Z" fill="#0047FF"/>
<path d="M64.7071 157.244C64.6265 157.165 64.5358 157.096 64.4479 157.025C64.3867 156.976 64.1243 156.78 64.3668 156.96C64.2659 156.885 64.167 156.807 64.0664 156.732C63.5136 156.317 62.9502 155.916 62.3801 155.525C60.8686 154.489 59.3059 153.509 57.6631 152.694C57.4683 152.598 57.272 152.503 57.0745 152.412C56.9778 152.368 56.881 152.324 56.7836 152.281C56.7357 152.26 56.6875 152.24 56.6392 152.219C56.7918 152.284 56.562 152.187 56.5525 152.183C56.1814 152.032 55.8044 151.895 55.4199 151.783C55.2501 151.733 55.0788 151.688 54.9061 151.65C54.8244 151.632 54.7423 151.616 54.6598 151.601C54.6199 151.594 54.5796 151.588 54.5397 151.581C54.4326 151.561 54.715 151.594 54.5559 151.583C54.0192 151.545 53.4824 151.524 52.9442 151.514C50.417 151.468 47.8755 151.603 45.364 151.251C44.2928 151.101 43.2983 150.809 42.3145 150.361C41.3563 149.924 40.4345 149.411 39.5008 148.925C38.5534 148.432 37.6656 147.979 36.7076 147.662C36.4942 147.591 36.2785 147.527 36.0598 147.475C35.9563 147.45 35.8522 147.428 35.7476 147.409C35.6968 147.4 35.6457 147.391 35.5948 147.383C35.4936 147.368 35.7162 147.389 35.5546 147.381C35.364 147.371 35.177 147.374 34.9866 147.373C34.834 147.372 34.9713 147.372 35.0073 147.366C34.9642 147.373 34.9198 147.38 34.8771 147.39C34.7713 147.414 34.6696 147.446 34.5663 147.479C34.7338 147.425 34.5476 147.492 34.4853 147.525C34.4217 147.558 34.3588 147.593 34.2961 147.629C34.1532 147.709 34.0121 147.793 33.8735 147.88C33.7482 147.96 33.6247 148.042 33.5036 148.128C33.4422 148.172 33.3821 148.218 33.3213 148.262C33.4829 148.143 33.2995 148.281 33.2433 148.328C32.9913 148.537 32.7542 148.764 32.5355 149.008C32.4801 149.07 32.426 149.133 32.3728 149.197C32.3353 149.242 32.1986 149.426 32.3057 149.279C32.1882 149.44 32.0736 149.603 31.9682 149.772C31.8691 149.931 31.7764 150.095 31.6897 150.261C31.6443 150.348 31.6008 150.436 31.5589 150.524C31.5374 150.57 31.5164 150.615 31.4957 150.661C31.488 150.678 31.4083 150.863 31.446 150.773C31.3182 151.08 31.1339 151.646 31.0264 152.067C30.7339 153.213 30.6272 154.332 30.5951 155.52C30.5652 156.622 30.6639 157.471 30.9566 158.529C31.2516 159.595 31.6311 160.498 32.1305 161.465C32.6144 162.403 33.1687 163.303 33.7687 164.171C34.353 165.016 34.8345 165.64 35.4886 166.414C36.3003 167.375 37.1569 168.359 38.1514 169.138C38.0522 169.06 38.3046 169.253 38.3234 169.267C38.42 169.338 38.5174 169.409 38.6152 169.479C38.8351 169.637 39.0568 169.793 39.2778 169.95C39.7689 170.299 40.2549 170.655 40.7269 171.029C41.6582 171.767 42.4225 172.6 43.1081 173.569C43.1298 173.6 43.2039 173.691 43.0953 173.554C43.1231 173.589 43.1505 173.624 43.1789 173.659C43.2382 173.731 43.2971 173.804 43.3576 173.876C43.496 174.04 43.6383 174.201 43.7829 174.359C44.0928 174.699 44.4137 175.028 44.7407 175.351C45.4211 176.023 46.1276 176.669 46.8554 177.289C47.0188 177.429 47.1836 177.567 47.35 177.703C47.4224 177.762 47.4951 177.821 47.5681 177.879C47.6029 177.907 47.638 177.935 47.6731 177.963C47.6919 177.978 47.8377 178.091 47.7401 178.015C47.6518 177.947 47.8471 178.096 47.8695 178.113C47.9274 178.156 47.9852 178.199 48.0438 178.241C48.147 178.315 48.2512 178.388 48.3591 178.455C48.4044 178.483 48.5507 178.533 48.5768 178.576C48.5246 178.49 48.3455 178.495 48.4695 178.524C48.2585 178.474 48.0477 178.516 47.9056 178.593C48.0533 178.513 47.7384 178.756 47.8595 178.63C47.911 178.575 47.9686 178.526 48.0208 178.473C48.8945 177.576 49.6434 176.539 50.4094 175.552C50.4704 175.474 50.5314 175.395 50.5924 175.316C50.6055 175.3 50.7016 175.175 50.6428 175.251C50.5835 175.328 50.6808 175.202 50.6937 175.185C50.8269 175.013 50.9601 174.84 51.0931 174.666C51.3627 174.316 51.6316 173.964 51.9002 173.613C52.4077 172.949 52.9143 172.284 53.4231 171.621C54.1318 170.697 54.8617 169.794 55.5896 168.886C55.624 168.843 55.6577 168.799 55.6919 168.757C55.8103 168.608 55.579 168.907 55.6999 168.746C55.7868 168.631 55.8743 168.516 55.9605 168.401C56.1646 168.126 56.3656 167.849 56.565 167.571C57.0461 166.901 57.5189 166.224 57.9894 165.546C59.7412 163.023 61.3889 160.403 63.2797 157.98C63.7256 157.409 64.1638 156.828 64.5768 156.233C64.8332 155.863 65.3078 155.694 65.7181 155.934C66.0841 156.148 66.2753 156.703 66.0173 157.075C65.5231 157.788 64.9927 158.476 64.4593 159.16C64.381 159.26 64.2929 159.357 64.2222 159.462C64.2726 159.387 64.353 159.289 64.2658 159.407C64.2022 159.494 64.1381 159.58 64.0752 159.666C63.9168 159.885 63.7612 160.106 63.6062 160.326C62.6446 161.697 61.7055 163.084 60.7578 164.464C59.7712 165.9 58.7864 167.339 57.7627 168.75C57.1179 169.638 56.4129 170.472 55.7361 171.335C55.6348 171.465 55.5339 171.594 55.4331 171.724C55.3826 171.789 55.332 171.854 55.2814 171.92C55.2581 171.95 55.1859 172.044 55.2947 171.903C55.2615 171.946 55.2281 171.989 55.1949 172.032C54.946 172.355 54.6981 172.679 54.4503 173.003C53.922 173.694 53.3949 174.385 52.866 175.076C51.8752 176.369 50.8905 177.671 49.8454 178.921C49.5805 179.238 49.3158 179.574 49.0007 179.843C48.5001 180.271 47.9779 180.195 47.4511 179.853C45.9892 178.904 44.6678 177.636 43.4391 176.409C42.7945 175.766 42.1712 175.097 41.6315 174.362C40.9787 173.473 40.2179 172.711 39.3428 172.05C38.4704 171.392 37.5355 170.808 36.7027 170.098C36.3212 169.773 35.9673 169.414 35.6203 169.052C34.3106 167.688 33.1154 166.199 32.0659 164.626C30.8234 162.763 29.7487 160.705 29.2315 158.514C28.9547 157.341 28.8881 156.163 28.9495 154.963C29.012 153.74 29.1636 152.502 29.5002 151.322C29.9593 149.71 30.7977 148.182 32.1092 147.111C32.6443 146.674 33.2316 146.261 33.8646 145.978C34.7778 145.569 35.8018 145.668 36.7434 145.928C38.8667 146.516 40.7571 147.762 42.7236 148.716C43.2372 148.965 43.4505 149.072 43.9706 149.241C44.487 149.409 45.0202 149.522 45.5562 149.606C46.6938 149.783 47.9933 149.815 49.1992 149.828C50.5023 149.843 51.8056 149.821 53.1086 149.849C54.0559 149.869 54.9831 149.912 55.8965 150.183C57.6952 150.717 59.3843 151.66 60.9788 152.63C62.3564 153.469 63.6974 154.376 64.9847 155.348C65.2869 155.577 65.6151 155.798 65.8869 156.064C66.6546 156.817 65.4748 157.996 64.7071 157.244Z" fill="#0047FF"/>
<path d="M251.752 116.958C255.425 111.552 259.085 106.138 262.739 100.719C269.233 91.0896 275.717 81.452 282.095 71.745C284.268 68.4387 286.452 65.1348 288.518 61.761C288.966 61.0295 289.494 60.2805 289.822 59.4826C289.695 59.7914 289.885 59.1872 289.912 59.0667C290.025 58.5496 290.074 58.018 290.115 57.4911C290.227 56.0369 290.215 54.5706 290.122 53.1157C289.899 49.6001 289.228 45.7905 287.251 42.8027C286.345 41.4346 285.655 40.9169 284.347 40.1442C281.563 38.4998 278.623 37.1003 275.718 35.6881C265.639 30.7899 255.406 26.2028 245.161 21.667C234.327 16.8709 223.453 12.1563 212.492 7.65748C208.714 6.10705 204.928 4.56667 201.094 3.16047C199.972 2.74921 198.846 2.33851 197.7 2.00301C196.29 1.59063 195.33 1.62684 193.604 1.69457C189.719 1.84684 185.677 2.63242 182.197 4.41816C180.49 5.29386 178.98 6.4224 177.752 7.9023C177.683 7.98571 177.411 8.33799 177.613 8.07787C176.832 9.08065 176.073 10.1021 175.309 11.1174C171.956 15.5685 168.623 20.0335 165.288 24.4979C160.029 31.5378 154.777 38.5824 149.527 45.6287C142.99 54.4016 136.457 63.1774 129.926 71.9548C122.763 81.5817 115.603 91.2107 108.445 100.842C101.224 110.558 94.0046 120.277 86.7884 129.997C80.1595 138.927 73.5329 147.858 66.9107 156.793C61.5165 164.071 56.1247 171.351 50.7403 178.636C47.161 183.479 43.5816 188.322 40.0224 193.18C39.1159 194.417 38.2076 195.654 37.3139 196.9C35.2916 199.722 34.8327 203.175 34.7603 206.593C34.686 210.093 34.9593 213.798 36.1169 217.127C36.7783 219.029 38.1751 220.349 39.6045 221.713C44.3487 226.24 49.5799 230.295 54.7807 234.276C58.3961 237.044 62.0312 239.807 65.8997 242.214C70.5147 245.085 75.1726 247.89 79.8415 250.673C85.5206 254.058 91.2191 257.419 97.014 260.603C98.9933 261.691 100.982 262.781 103.033 263.728C105.215 264.734 107.462 265.554 109.618 266.63C114.255 268.944 118.781 271.509 123.227 274.17C124.147 274.721 123.309 276.164 122.385 275.611C117.665 272.785 112.858 270.051 107.911 267.644C105.871 266.651 103.734 265.91 101.691 264.933C99.5028 263.886 97.3735 262.713 95.2531 261.537C84.7842 255.73 74.4786 249.565 64.3369 243.204C60.1759 240.594 56.2786 237.534 52.3983 234.531C47.3087 230.593 42.1076 226.613 37.557 222.046C36.0668 220.55 34.9821 219.121 34.3472 217.077C33.2926 213.682 33.0043 209.953 33.0965 206.415C33.1898 202.835 33.6862 199.116 35.8102 196.146C38.1797 192.834 40.614 189.566 43.0301 186.287C47.6585 180.007 52.2987 173.735 56.9409 167.465C63.1194 159.119 69.3037 150.778 75.4905 142.438C82.5835 132.877 89.6803 123.318 96.7793 113.761C104.139 103.854 111.502 93.9477 118.867 84.0439C125.846 74.6591 132.827 65.2759 139.812 55.8953C145.763 47.903 151.716 39.9123 157.674 31.9254C161.949 26.1948 166.226 20.4651 170.513 14.7437C172.5 12.092 174.435 9.38313 176.511 6.79951C180.786 1.47943 188.929 -0.145082 195.416 0.00998033C197.809 0.0672657 199.987 0.97262 202.208 1.79981C211.579 5.29029 220.778 9.27508 229.962 13.225C241.474 18.1761 252.938 23.2438 264.322 28.484C268.856 30.5712 273.381 32.6828 277.862 34.8837C280.539 36.199 283.293 37.4808 285.815 39.0847C290.398 41.9994 291.534 48.4098 291.808 53.4227C291.922 55.5038 292.094 58.0695 291.367 60.0749C291.07 60.8967 290.533 61.661 290.081 62.4016C285.036 70.685 279.516 78.6984 274.125 86.7577C268.196 95.6213 262.233 104.461 256.251 113.289C255.232 114.793 254.213 116.297 253.192 117.8C252.592 118.683 251.146 117.849 251.752 116.958Z" fill="#0047FF"/>
<path d="M263.862 32.7887C266.133 33.4529 268.36 34.3088 270.528 35.2501C273.838 36.6866 277.515 38.4646 279.803 41.3575C282.647 44.9511 280.906 50.311 279.366 54.111C278.076 57.2936 276.42 60.3297 274.48 63.1621C271.802 67.0726 269.105 70.9697 266.417 74.8731C260.435 83.5604 254.451 92.2468 248.467 100.933C240.454 112.563 232.439 124.193 224.423 135.821C215.645 148.556 206.865 161.288 198.081 174.019C189.802 186.018 181.521 198.014 173.233 210.006C166.721 219.43 160.206 228.852 153.675 238.263C150.201 243.269 146.752 248.294 143.212 253.252C139.717 258.146 134.237 261.699 128.376 263.048C125.462 263.719 122.556 263.73 119.814 262.532C117.888 261.691 116.028 260.695 114.178 259.702C100.614 252.416 87.4668 244.311 74.3068 236.329C68.3756 232.731 62.457 229.113 56.5443 225.485C51.1542 222.178 44.8006 219.145 40.984 213.991C38.3236 210.399 37.8188 205.562 40.0383 201.676C41.303 199.462 42.7244 197.333 44.132 195.208C49.4195 187.227 54.936 179.395 60.452 171.571C68.3247 160.404 76.2774 149.294 84.2583 138.205C93.309 125.629 102.402 113.084 111.522 100.559C120.392 88.3787 129.288 76.2179 138.215 64.08C145.535 54.128 152.872 44.1887 160.257 34.2854C164.735 28.2804 169.196 22.2559 173.816 16.3587C175.299 14.4655 176.789 12.8637 178.594 11.2284C182.165 7.9924 186.127 5.94131 190.962 5.41697C194.113 5.07513 196.904 5.4181 199.932 6.24976C207.572 8.34767 214.953 11.5182 222.23 14.6131C229.661 17.7736 237.018 21.107 244.344 24.5051C250.761 27.4819 257.185 30.4262 263.862 32.7887C264.867 33.1444 264.435 34.757 263.419 34.3976C256.606 31.9869 250.05 28.9829 243.502 25.9455C236.268 22.5899 229.004 19.2978 221.668 16.1723C214.433 13.09 207.087 9.94457 199.489 7.85823C196.296 6.98159 193.378 6.68751 190.055 7.20439C185.259 7.95021 181.7 10.5256 178.278 13.8103C174.792 17.1564 172.176 21.1785 169.268 25.0291C163.116 33.1767 157.035 41.3778 150.965 49.5862C142.723 60.7307 134.516 71.9014 126.331 83.0877C117.241 95.51 108.18 107.953 99.1506 120.419C90.5697 132.266 82.0162 144.133 73.5167 156.038C66.6262 165.69 59.7599 175.361 53.0119 185.113C49.1511 190.693 45.1546 196.253 41.716 202.109C41.3752 202.69 41.0164 203.279 40.7554 203.902C40.8373 203.706 40.7724 203.839 40.7271 203.993C40.4847 204.816 40.3446 205.683 40.3015 206.54C40.1857 208.856 40.9014 211.02 42.2424 212.899C44.7634 216.43 48.7395 218.742 52.3689 220.965C54.144 222.053 55.9174 223.143 57.692 224.232C70.5741 232.134 83.478 240.005 96.496 247.682C102.514 251.232 108.547 254.77 114.697 258.087C116.592 259.11 118.498 260.133 120.467 261.008C123.089 262.173 126.155 261.974 128.982 261.169C134.201 259.682 138.873 256.49 142.011 252.074C143.369 250.163 144.709 248.238 146.05 246.315C151.276 238.822 156.474 231.311 161.672 223.8C169.17 212.966 176.659 202.125 184.144 191.283C192.721 178.861 201.292 166.436 209.862 154.009C218.329 141.731 226.794 129.452 235.257 117.171C242.335 106.9 249.412 96.6279 256.488 86.3552C261.042 79.7437 265.596 73.132 270.149 66.5197C271.078 65.1704 272.008 63.8217 272.936 62.4715C274.309 60.4721 275.544 58.3796 276.614 56.2015C277.85 53.6843 278.896 51.02 279.383 48.2476C279.731 46.2747 279.87 44.2122 278.622 42.5392C276.524 39.7264 272.816 38.0472 269.686 36.6907C267.651 35.8081 265.55 35.0208 263.419 34.3976C262.39 34.097 262.828 32.4863 263.862 32.7887Z" fill="#0047FF"/>
<path d="M124.144 170.051L127.111 171.909L115.789 189.93L112.822 188.073L124.144 170.051Z" fill="#0047FF"/>
<path d="M110.72 178.557L112.786 178.162L114.731 188.319L124.74 185.648L125.283 187.676L113.093 190.926L110.72 178.557Z" fill="#0047FF"/>
<path d="M117.577 217.466C116.954 217.068 116.332 216.84 115.711 216.784C115.088 216.718 114.506 216.829 113.965 217.117C113.423 217.395 112.961 217.832 112.58 218.427C112.199 219.022 111.997 219.621 111.975 220.224C111.948 220.824 112.094 221.392 112.415 221.929C112.734 222.457 113.205 222.92 113.829 223.319L115.742 224.541L119.491 218.688L117.577 217.466ZM114.331 222.535C113.645 222.098 113.238 221.577 113.111 220.973C112.983 220.369 113.135 219.731 113.566 219.057C114.001 218.378 114.523 217.964 115.133 217.815C115.743 217.667 116.39 217.811 117.076 218.249L118.028 218.858L115.283 223.144L114.331 222.535ZM107.704 219.513C108.143 219.793 108.602 219.948 109.081 219.978C109.565 220.002 110.023 219.899 110.455 219.668C110.891 219.433 111.262 219.076 111.567 218.599C111.869 218.128 112.033 217.643 112.059 217.145C112.085 216.648 111.981 216.186 111.747 215.759C111.514 215.333 111.175 214.978 110.731 214.695C110.287 214.411 109.823 214.253 109.337 214.22C108.852 214.187 108.388 214.286 107.947 214.518C107.505 214.75 107.133 215.102 106.831 215.574C106.529 216.045 106.368 216.532 106.348 217.033C106.328 217.534 106.438 218.004 106.68 218.443C106.919 218.873 107.26 219.23 107.704 219.513ZM108.238 218.68C107.991 218.522 107.798 218.316 107.66 218.061C107.517 217.804 107.453 217.514 107.469 217.192C107.486 216.87 107.601 216.541 107.817 216.204C108.033 215.867 108.279 215.625 108.556 215.477C108.836 215.324 109.121 215.256 109.41 215.275C109.699 215.293 109.967 215.382 110.214 215.539C110.461 215.697 110.654 215.903 110.792 216.158C110.924 216.408 110.977 216.691 110.949 217.006C110.925 217.315 110.806 217.638 110.59 217.975C110.27 218.474 109.895 218.781 109.466 218.895C109.035 218.999 108.626 218.927 108.238 218.68ZM101.128 208.668L99.5976 214.228L100.609 214.874L103.739 212.045L102.48 216.069L103.491 216.715L107.912 213.001L106.935 212.377L103.576 215.488L104.98 211.128L103.977 210.488L100.654 213.598L102.072 209.271L101.128 208.668ZM98.116 206.637C97.7508 206.404 97.3764 206.272 96.9928 206.24C96.6035 206.205 96.2322 206.284 95.8787 206.478C95.5252 206.671 95.2136 206.978 94.9439 207.4L93.191 210.136L94.1433 210.745L95.8045 208.151C96.0706 207.736 96.3777 207.485 96.7258 207.399C97.0775 207.307 97.4332 207.376 97.7927 207.605C98.1523 207.835 98.3669 208.13 98.4366 208.491C98.5042 208.843 98.405 209.227 98.1389 209.642L96.4777 212.236L97.4385 212.849L100.41 208.209L99.4496 207.596L99.1098 208.126C99.0747 207.835 98.9706 207.559 98.7973 207.298C98.6184 207.033 98.3913 206.813 98.116 206.637ZM94.996 202.508L91.0048 208.74L91.9655 209.354L95.9567 203.122L94.996 202.508ZM87.6807 206.723C88.1189 207.003 88.5779 207.158 89.0577 207.188C89.5411 207.212 89.999 207.109 90.4314 206.879C90.8674 206.643 91.2382 206.286 91.5439 205.809C91.8459 205.338 92.0098 204.853 92.0357 204.355C92.0615 203.858 91.9576 203.396 91.7238 202.97C91.4901 202.543 91.1513 202.189 90.7075 201.905C90.2636 201.622 89.799 201.463 89.3136 201.43C88.8281 201.397 88.3646 201.496 87.923 201.728C87.4814 201.961 87.1096 202.312 86.8076 202.784C86.5055 203.256 86.3444 203.742 86.3242 204.243C86.304 204.744 86.4145 205.215 86.6559 205.654C86.8952 206.083 87.2368 206.44 87.6807 206.723ZM88.2147 205.89C87.9674 205.732 87.7748 205.526 87.6369 205.272C87.4933 205.014 87.4295 204.724 87.4457 204.402C87.4619 204.08 87.5779 203.751 87.7936 203.414C88.0093 203.077 88.2555 202.835 88.5322 202.687C88.8124 202.534 89.097 202.466 89.3861 202.485C89.6751 202.503 89.9432 202.592 90.1904 202.749C90.4376 202.907 90.6302 203.113 90.7682 203.368C90.9005 203.618 90.953 203.901 90.9256 204.216C90.9018 204.525 90.782 204.848 90.5663 205.185C90.2462 205.684 89.8717 205.991 89.4427 206.105C89.0117 206.209 88.6023 206.137 88.2147 205.89ZM86.1889 202.365C86.4873 201.899 86.6561 201.425 86.6952 200.944C86.7287 200.459 86.6426 200.013 86.437 199.604C86.2293 199.187 85.9232 198.849 85.5187 198.591C85.1535 198.358 84.7893 198.228 84.4262 198.201C84.061 198.166 83.7286 198.203 83.429 198.312L83.8605 197.638L82.8913 197.019L79.9195 201.659L80.8887 202.278L81.3309 201.588C81.3536 201.911 81.4587 202.235 81.6461 202.56C81.8335 202.886 82.107 203.163 82.4666 203.393C82.8655 203.648 83.2954 203.78 83.7564 203.79C84.2209 203.794 84.6683 203.676 85.0987 203.437C85.527 203.188 85.8904 202.831 86.1889 202.365ZM82.3773 199.954C82.5822 199.634 82.8276 199.399 83.1135 199.25C83.3937 199.096 83.6802 199.026 83.9728 199.039C84.2654 199.052 84.5353 199.137 84.7825 199.295C85.0297 199.453 85.2205 199.662 85.3549 199.922C85.4929 200.176 85.5538 200.464 85.5376 200.786C85.5194 201.099 85.4078 201.415 85.2029 201.735C84.9979 202.055 84.7535 202.295 84.4697 202.453C84.1802 202.609 83.8874 202.683 83.5912 202.676C83.293 202.659 83.0231 202.574 82.7815 202.419C82.5343 202.261 82.3435 202.053 82.2091 201.793C82.0747 201.533 82.0184 201.244 82.0402 200.925C82.0599 200.598 82.1723 200.274 82.3773 199.954ZM80.4772 198.717C80.7757 198.251 80.9445 197.777 80.9836 197.296C81.017 196.811 80.931 196.364 80.7253 195.956C80.5177 195.539 80.2088 195.199 79.7986 194.937C79.4953 194.743 79.1543 194.621 78.7759 194.569C78.3954 194.508 78.048 194.531 77.7336 194.639L79.1682 192.399L78.1991 191.78L74.2079 198.011L75.177 198.63L75.6247 197.931C75.6382 198.256 75.7386 198.581 75.9261 198.907C76.1079 199.229 76.3786 199.504 76.7381 199.734C77.1427 199.992 77.5782 200.128 78.0447 200.141C78.5093 200.145 78.9567 200.028 79.3871 199.788C79.8154 199.54 80.1788 199.183 80.4772 198.717ZM76.6656 196.306C76.8706 195.986 77.116 195.751 77.4019 195.601C77.6821 195.448 77.9685 195.378 78.2611 195.391C78.5537 195.404 78.8236 195.489 79.0708 195.647C79.3181 195.805 79.5089 196.014 79.6432 196.274C79.7812 196.528 79.8421 196.816 79.826 197.138C79.8078 197.451 79.6962 197.767 79.4912 198.087C79.2863 198.407 79.0419 198.646 78.758 198.805C78.4686 198.96 78.1758 199.035 77.8796 199.027C77.5813 199.011 77.3114 198.925 77.0698 198.771C76.8226 198.613 76.6318 198.404 76.4974 198.144C76.3631 197.885 76.3068 197.595 76.3286 197.277C76.3483 196.95 76.4607 196.626 76.6656 196.306Z" fill="#0047FF"/>
<g clip-path="url(#clip0_115_10995)">
<path fill-rule="evenodd" clip-rule="evenodd" d="M195.806 73.107C195.502 72.886 195.078 72.95 194.859 73.2502C194.641 73.5503 194.71 73.9729 195.015 74.1941C195.319 74.4151 195.743 74.3512 195.962 74.0509C196.18 73.7505 196.111 73.3281 195.806 73.107ZM197.497 74.3348C197.192 74.1138 196.768 74.1777 196.55 74.478C196.331 74.7781 196.4 75.2007 196.705 75.4218C197.009 75.6429 197.433 75.5789 197.652 75.2787C197.871 74.9784 197.801 74.556 197.497 74.3348ZM199.187 75.5627C198.883 75.3417 198.459 75.4058 198.24 75.706C198.022 76.0061 198.091 76.4287 198.395 76.6498C198.699 76.8708 199.124 76.8068 199.342 76.5066C199.561 76.2061 199.491 75.7837 199.187 75.5627ZM193.525 72.2804C194.944 70.3325 197.695 69.9166 199.67 71.3512C201.645 72.7859 202.096 75.528 200.677 77.4759C199.258 79.4237 196.506 79.8397 194.531 78.405C194.188 78.1558 193.891 77.8672 193.642 77.5499L191.999 77.4887L192.925 76.2189C192.493 74.9253 192.667 73.4578 193.525 72.2804Z" fill="#0047FF"/>
<path fill-rule="evenodd" clip-rule="evenodd" d="M214.668 77.0757C215.436 70.9429 212.893 64.5556 207.484 60.6263C202.075 56.6971 195.206 56.2475 189.599 58.8658L189.157 56.181C195.469 53.5246 203.025 54.1622 209.02 58.5174C215.016 62.8727 217.95 69.8542 217.362 76.6684L214.668 77.0757Z" fill="#0047FF"/>
<path fill-rule="evenodd" clip-rule="evenodd" d="M205.947 62.7352C210.773 66.2402 212.915 72.0461 211.937 77.4883L209.145 77.9105C210.383 73.1754 208.659 67.9274 204.412 64.8426C200.166 61.7579 194.634 61.7355 190.503 64.3692L190.046 61.5867C194.931 58.9822 201.122 59.2303 205.947 62.7352Z" fill="#0047FF"/>
<path fill-rule="evenodd" clip-rule="evenodd" d="M202.876 66.9517C206.556 69.6248 207.826 74.3646 206.223 78.3523L202.948 78.8474C205.216 75.7348 204.496 71.3532 201.339 69.0606C198.183 66.768 193.787 67.4327 191.519 70.5453L190.982 67.2818C194.289 64.5313 199.196 64.2786 202.876 66.9517Z" fill="#0047FF"/>
</g>
<path d="M171.489 75.6554L172.233 76.143L169.041 81.0332C168.713 81.5356 168.359 81.6626 167.98 81.4143C167.679 81.217 167.562 80.8536 167.629 80.3238L168.348 75.0332L165.358 79.6135L164.613 79.1259L167.773 74.286C168.123 73.7501 168.493 73.61 168.883 73.8657C169.201 74.0738 169.323 74.4484 169.248 74.9893L168.531 80.1855L171.489 75.6554ZM170.265 82.8273L169.521 82.3397L171.959 78.6051C172.356 77.9967 172.821 77.6439 173.355 77.5467C173.888 77.4496 174.475 77.611 175.116 78.031L176.12 78.6885L175.699 79.3332L174.704 78.6813C174.28 78.4037 173.903 78.3043 173.573 78.383C173.252 78.4598 172.944 78.7243 172.649 79.1765L172.255 79.7793L174.464 81.2256L174.043 81.8704L171.834 80.4241L170.265 82.8273ZM176.774 86.1329L176.336 86.8028L176.11 86.6549C175.519 86.2677 175.103 85.9475 174.863 85.6943C174.625 85.4354 174.426 85.0819 174.265 84.6337C174.108 84.1799 174.062 83.6955 174.127 83.1806C174.193 82.6656 174.375 82.1793 174.674 81.7215C175.187 80.9344 175.895 80.4537 176.797 80.2794C177.699 80.105 178.56 80.2863 179.38 80.8232L179.982 81.2176L179.545 81.8875L179.135 81.6191C178.455 81.1735 177.77 81.0083 177.082 81.1234C176.394 81.2385 175.844 81.6115 175.432 82.2423C175.188 82.6163 175.049 83.0311 175.014 83.4865C174.983 83.9364 175.043 84.3143 175.194 84.6201C175.344 84.9259 175.513 85.1678 175.699 85.3457C175.886 85.5235 176.185 85.7476 176.598 86.0179L176.774 86.1329ZM183.146 90.3059L182.709 90.9758L182.483 90.8279C181.892 90.4407 181.476 90.1205 181.235 89.8673C180.998 89.6084 180.799 89.2549 180.638 88.8067C180.48 88.3529 180.434 87.8685 180.499 87.3536C180.565 86.8386 180.747 86.3523 181.046 85.8945C181.56 85.1074 182.268 84.6267 183.17 84.4523C184.072 84.278 184.933 84.4593 185.753 84.9962L186.355 85.3906L185.918 86.0605L185.508 85.7921C184.827 85.3465 184.143 85.1813 183.455 85.2964C182.767 85.4115 182.217 85.7845 181.805 86.4153C181.561 86.7893 181.421 87.204 181.387 87.6595C181.356 88.1094 181.415 88.4873 181.566 88.7931C181.717 89.0989 181.885 89.3408 182.072 89.5186C182.258 89.6965 182.558 89.9206 182.97 90.1908L183.146 90.3059ZM187.623 88.6597C188.164 89.014 188.5 89.5125 188.629 90.1552C188.759 90.798 188.644 91.3957 188.283 91.9484C187.937 92.4787 187.445 92.8105 186.809 92.9436C186.173 93.0768 185.584 92.9663 185.043 92.612C184.485 92.2468 184.137 91.7437 183.998 91.1029C183.859 90.4621 183.972 89.8625 184.336 89.3043C184.686 88.7684 185.182 88.4357 185.824 88.3061C186.466 88.1766 187.066 88.2945 187.623 88.6597ZM187.191 89.3212C186.829 89.0838 186.437 89.0067 186.017 89.0899C185.596 89.1731 185.268 89.3961 185.031 89.759C184.783 90.1386 184.701 90.539 184.784 90.9601C184.876 91.3793 185.112 91.7131 185.492 91.9614C185.826 92.1806 186.203 92.2439 186.622 92.1515C187.04 92.0591 187.362 91.8398 187.588 91.4937C187.833 91.1197 187.913 90.7221 187.83 90.3009C187.756 89.8779 187.543 89.5513 187.191 89.3212ZM190.863 96.3156L190.194 95.8773L191.495 93.8844C191.75 93.4936 191.863 93.1374 191.834 92.8157C191.805 92.494 191.635 92.2309 191.322 92.0264C190.67 91.599 190.07 91.8041 189.524 92.6414L188.244 94.6008L187.575 94.1626L188.975 92.0189C189.313 91.4998 189.737 91.1797 190.246 91.0587C190.755 90.9378 191.261 91.0416 191.763 91.3703C192.253 91.6917 192.543 92.1083 192.631 92.6201C192.728 93.1299 192.607 93.6444 192.268 94.1636L190.863 96.3156ZM194.907 98.9638L194.238 98.5255L195.539 96.5326C195.794 96.1419 195.907 95.7856 195.878 95.4639C195.849 95.1422 195.679 94.8791 195.366 94.6746C194.714 94.2473 194.114 94.4523 193.568 95.2897L192.288 97.2491L191.619 96.8108L193.019 94.6672C193.358 94.148 193.781 93.8279 194.29 93.707C194.799 93.586 195.305 93.6899 195.807 94.0186C196.297 94.34 196.587 94.7565 196.675 95.2683C196.772 95.7781 196.651 96.2926 196.312 96.8118L194.907 98.9638ZM200.057 99.8262L200.356 100.393C199.364 101.241 198.366 101.337 197.362 100.679C196.816 100.321 196.471 99.8249 196.329 99.1896C196.195 98.5524 196.309 97.9575 196.67 97.4049C197.034 96.8466 197.53 96.5019 198.157 96.3706C198.784 96.2394 199.379 96.3582 199.943 96.7271C200.69 97.2165 201.03 97.9768 200.962 99.008L197.488 99.0047L197.527 98.3244L200.184 98.2959C200.14 97.9003 199.928 97.5783 199.549 97.33C199.181 97.0889 198.792 97.0136 198.383 97.1042C197.973 97.1947 197.643 97.4325 197.392 97.8177C197.14 98.2029 197.057 98.6227 197.143 99.0771C197.228 99.5315 197.458 99.8811 197.831 100.126C198.183 100.356 198.55 100.445 198.934 100.394C199.318 100.342 199.692 100.153 200.057 99.8262ZM202.609 103.159L202.221 103.754L201.728 103.43C201.36 103.189 201.086 102.95 200.906 102.713C200.732 102.48 200.6 102.126 200.511 101.654C200.422 101.181 200.548 100.682 200.891 100.157C201.07 99.8835 201.31 99.6548 201.614 99.4708C201.92 99.2813 202.283 99.1644 202.702 99.12C203.127 99.0794 203.61 99.2361 204.151 99.5904L204.703 99.952L204.32 100.538L203.927 100.281C203.47 99.9812 203.029 99.8638 202.605 99.9285C202.18 99.9933 201.835 100.229 201.569 100.637C201.307 101.039 201.232 101.44 201.344 101.841C201.457 102.241 201.742 102.591 202.199 102.891L202.609 103.159ZM205.544 101.363L204.385 103.139C204.17 103.468 204.085 103.727 204.129 103.915C204.173 104.104 204.374 104.315 204.731 104.548L205.057 104.762L204.669 105.356L204.309 105.121C203.729 104.741 203.396 104.379 203.31 104.036C203.223 103.693 203.353 103.256 203.7 102.725L206.012 99.1834L206.681 99.6217L205.927 100.777L207.14 101.572L206.757 102.158L205.544 101.363Z" fill="#0047FF"/>
<rect width="3.00951" height="39.4158" transform="matrix(0.527679 -0.849444 -0.849444 -0.527679 126.16 206.546)" fill="#0047FF"/>
<defs>
<clipPath id="clip0_115_10995">
<rect width="34.8597" height="25.3525" fill="white" transform="matrix(-0.809075 -0.587705 -0.588845 0.808246 223.123 68.7611)"/>
</clipPath>
</defs>
</svg>
