<svg width="203" height="60" viewBox="0 0 203 60" fill="none" xmlns="http://www.w3.org/2000/svg">
<g clip-path="url(#clip0_430_146)">
<path d="M194.954 60H7.5461C3.42314 60 0.0498047 56.625 0.0498047 52.5V7.5C0.0498047 3.375 3.42314 0 7.5461 0H194.954C199.077 0 202.45 3.375 202.45 7.5V52.5C202.45 56.625 199.077 60 194.954 60Z" fill="black"/>
<path d="M194.954 1.2C196.624 1.2 198.225 1.86375 199.406 3.04523C200.587 4.22671 201.25 5.82914 201.25 7.5V52.5C201.25 54.1709 200.587 55.7733 199.406 56.9548C198.225 58.1363 196.624 58.8 194.954 58.8H7.5461C5.87606 58.8 4.27442 58.1363 3.09353 56.9548C1.91263 55.7733 1.24921 54.1709 1.24921 52.5V7.5C1.24921 5.82914 1.91263 4.22671 3.09353 3.04523C4.27442 1.86375 5.87606 1.2 7.5461 1.2H194.954ZM194.954 0H7.5461C3.42314 0 0.0498047 3.375 0.0498047 7.5V52.5C0.0498047 56.625 3.42314 60 7.5461 60H194.954C199.077 60 202.45 56.625 202.45 52.5V7.5C202.45 3.375 199.077 0 194.954 0Z" fill="#A6A6A6"/>
<path d="M71.1451 15.36C71.1451 16.62 70.7703 17.625 70.0206 18.36C69.181 19.245 68.0866 19.695 66.7223 19.695C65.4179 19.695 64.3085 19.245 63.4089 18.345C62.5093 17.445 62.0596 16.32 62.0596 15C62.0596 13.68 62.5093 12.555 63.4089 11.655C64.3085 10.755 65.4179 10.29 66.7223 10.29C67.3819 10.29 68.0116 10.41 68.5963 10.635C69.1811 10.875 69.6608 11.205 70.0356 11.625L69.211 12.45C68.9412 12.12 68.5813 11.85 68.1316 11.67C67.6872 11.4766 67.2069 11.3794 66.7223 11.385C65.7477 11.385 64.9082 11.73 64.2335 12.405C63.5588 13.095 63.229 13.95 63.229 14.985C63.229 16.02 63.5588 16.875 64.2335 17.565C64.9082 18.24 65.7328 18.585 66.7223 18.585C67.6218 18.585 68.3565 18.33 68.9562 17.835C69.5559 17.34 69.9007 16.635 69.9907 15.765H66.7223V14.685H71.0851C71.1151 14.925 71.1451 15.15 71.1451 15.36ZM78.0567 10.5V11.61H73.9637V14.46H77.6519V15.54H73.9637V18.39H78.0567V19.5H72.8093V10.5H78.0567ZM82.9293 11.61V19.5H81.7748V11.61H79.2561V10.5H85.433V11.61H82.9293ZM91.0702 19.5H89.9158V10.5H91.0702V19.5ZM96.1977 11.61V19.5H95.0433V11.61H92.5245V10.5H98.7015V11.61H96.1977ZM111.73 15C111.73 16.335 111.28 17.445 110.396 18.345C109.496 19.245 108.402 19.695 107.097 19.695C105.793 19.695 104.699 19.245 103.799 18.345C102.914 17.445 102.465 16.335 102.465 15C102.465 13.665 102.914 12.555 103.799 11.655C104.684 10.755 105.778 10.29 107.097 10.29C108.402 10.29 109.496 10.74 110.396 11.655C111.295 12.57 111.73 13.68 111.73 15ZM103.664 15C103.664 16.035 103.994 16.905 104.639 17.58C105.298 18.255 106.123 18.6 107.097 18.6C108.072 18.6 108.896 18.255 109.541 17.58C110.201 16.905 110.531 16.05 110.531 15C110.531 13.95 110.201 13.095 109.541 12.42C108.881 11.745 108.072 11.4 107.097 11.4C106.123 11.4 105.298 11.745 104.639 12.42C103.994 13.095 103.664 13.965 103.664 15ZM114.504 19.5H113.349V10.5H114.759L119.136 17.505H119.181L119.136 15.765V10.5H120.291V19.5H119.091L114.519 12.165H114.474L114.519 13.905V19.5H114.504Z" fill="white"/>
<path d="M102.21 32.625C98.6863 32.625 95.8077 35.31 95.8077 39C95.8077 42.675 98.6863 45.375 102.21 45.375C105.733 45.375 108.611 42.675 108.611 39C108.611 35.31 105.733 32.625 102.21 32.625ZM102.21 42.87C100.275 42.87 98.6113 41.28 98.6113 39C98.6113 36.705 100.275 35.13 102.21 35.13C104.144 35.13 105.808 36.705 105.808 39C105.808 41.28 104.129 42.87 102.21 42.87ZM88.2364 32.625C84.7132 32.625 81.8346 35.31 81.8346 39C81.8346 42.675 84.7132 45.375 88.2364 45.375C91.7597 45.375 94.6383 42.675 94.6383 39C94.6383 35.31 91.7597 32.625 88.2364 32.625ZM88.2364 42.87C86.3024 42.87 84.6382 41.28 84.6382 39C84.6382 36.705 86.3024 35.13 88.2364 35.13C90.1705 35.13 91.8346 36.705 91.8346 39C91.8346 41.28 90.1705 42.87 88.2364 42.87ZM71.6246 34.59V37.29H78.1014C77.9065 38.805 77.3968 39.93 76.6322 40.695C75.6876 41.64 74.2183 42.675 71.6396 42.675C67.6516 42.675 64.5331 39.465 64.5331 35.475C64.5331 31.485 67.6516 28.275 71.6396 28.275C73.7836 28.275 75.3578 29.115 76.5122 30.21L78.4163 28.305C76.7971 26.76 74.6531 25.575 71.6246 25.575C66.1673 25.575 61.5796 30.015 61.5796 35.49C61.5796 40.95 66.1673 45.405 71.6246 45.405C74.5782 45.405 76.7971 44.445 78.5362 42.63C80.3203 40.845 80.8751 38.325 80.8751 36.3C80.8751 35.67 80.8301 35.085 80.7251 34.605H71.6246V34.59ZM139.556 36.69C139.031 35.265 137.412 32.625 134.099 32.625C130.815 32.625 128.087 35.205 128.087 39C128.087 42.57 130.785 45.375 134.414 45.375C137.337 45.375 139.031 43.59 139.721 42.555L137.547 41.1C136.827 42.165 135.838 42.87 134.414 42.87C132.989 42.87 131.97 42.225 131.325 40.935L139.856 37.41L139.556 36.69ZM130.86 38.82C130.785 36.36 132.764 35.1 134.189 35.1C135.298 35.1 136.243 35.655 136.558 36.45L130.86 38.82ZM123.934 45H126.737V26.25H123.934V45ZM119.346 34.05H119.241C118.611 33.3 117.412 32.625 115.883 32.625C112.689 32.625 109.766 35.43 109.766 39.03C109.766 42.6 112.689 45.39 115.883 45.39C117.397 45.39 118.611 44.715 119.241 43.935H119.331V44.85C119.331 47.295 118.027 48.6 115.928 48.6C114.219 48.6 113.154 47.37 112.719 46.335L110.276 47.355C110.98 49.05 112.839 51.12 115.928 51.12C119.211 51.12 121.985 49.185 121.985 44.475V33.015H119.331V34.05H119.346ZM116.123 42.87C114.189 42.87 112.569 41.25 112.569 39.03C112.569 36.78 114.189 35.145 116.123 35.145C118.027 35.145 119.526 36.795 119.526 39.03C119.541 41.25 118.042 42.87 116.123 42.87ZM152.69 26.25H145.988V45H148.792V37.89H152.705C155.808 37.89 158.852 35.64 158.852 32.07C158.837 28.5 155.778 26.25 152.69 26.25ZM152.75 35.28H148.777V28.845H152.75C154.849 28.845 156.033 30.585 156.033 32.055C156.033 33.525 154.849 35.28 152.75 35.28ZM170.051 32.595C168.027 32.595 165.928 33.495 165.058 35.46L167.547 36.495C168.072 35.46 169.062 35.115 170.096 35.115C171.535 35.115 173.02 35.985 173.035 37.53V37.725C172.525 37.44 171.445 37.005 170.111 37.005C167.427 37.005 164.714 38.475 164.714 41.22C164.714 43.725 166.903 45.345 169.361 45.345C171.235 45.345 172.285 44.505 172.93 43.515H173.02V44.955H175.718V37.77C175.733 34.455 173.244 32.595 170.051 32.595ZM169.706 42.87C168.792 42.87 167.517 42.405 167.517 41.28C167.517 39.84 169.106 39.285 170.486 39.285C171.715 39.285 172.3 39.555 173.035 39.915C172.931 40.7269 172.536 41.4736 171.924 42.0169C171.312 42.5602 170.524 42.8632 169.706 42.87ZM185.568 33L182.36 41.13H182.27L178.942 33H175.928L180.921 44.37L178.072 50.685H180.996L188.687 33H185.568ZM160.381 45H163.184V26.25H160.381V45Z" fill="white"/>
<path d="M31.1146 29.13L15.1475 46.08V46.095C15.3202 46.7371 15.639 47.3306 16.0788 47.8291C16.5186 48.3276 17.0677 48.7177 17.683 48.9689C18.2984 49.2201 18.9635 49.3256 19.6263 49.2772C20.2892 49.2289 20.9319 49.0279 21.5043 48.69L21.5493 48.66L39.5104 38.295L31.1146 29.13Z" fill="#EA4335"/>
<path d="M47.2617 26.25L47.2467 26.235L39.4956 21.735L30.7549 29.52L39.5256 38.295L47.2467 33.84C47.9297 33.4701 48.5003 32.9228 48.8984 32.2557C49.2966 31.5886 49.5075 30.8264 49.5091 30.0494C49.5106 29.2725 49.3027 28.5095 48.9072 27.8408C48.5116 27.1721 47.9432 26.6226 47.2617 26.25Z" fill="#FBBC04"/>
<path d="M15.1475 13.92C15.0575 14.28 14.9976 14.64 14.9976 15.03V44.985C14.9976 45.375 15.0425 45.735 15.1475 46.095L31.6543 29.58L15.1475 13.92Z" fill="#4285F4"/>
<path d="M31.2345 30L39.4954 21.735L21.5493 11.325C20.9756 10.9818 20.3303 10.7761 19.6639 10.724C18.9975 10.6719 18.3281 10.7748 17.7081 11.0247C17.0881 11.2745 16.5343 11.6646 16.09 12.1643C15.6458 12.664 15.3232 13.2598 15.1475 13.905L31.2345 30Z" fill="#34A853"/>
</g>
<defs>
<clipPath id="clip0_430_146">
<rect width="202.5" height="60" fill="white"/>
</clipPath>
</defs>
</svg>
