<svg width="180" height="72" viewBox="0 0 180 72" fill="none" xmlns="http://www.w3.org/2000/svg">
<g clip-path="url(#clip0_30_234)">
<path d="M72 0H0V72H72V0Z" fill="#3854A4"/>
<path d="M31.8934 21.8622C31.8625 21.5705 32.0523 21.2934 32.3427 21.233C33.4628 21.0009 34.6237 20.8751 35.8218 20.8751C37.2175 20.8751 38.571 21.0452 39.8648 21.3609C40.1158 21.4242 40.293 21.6478 40.2979 21.9087V21.9115C40.3077 22.2926 39.9526 22.5794 39.5828 22.4852C38.3798 22.185 37.1191 22.0261 35.819 22.0261C34.7066 22.0261 33.621 22.1414 32.5797 22.3629C32.2485 22.4297 31.9328 22.1955 31.8934 21.8608V21.8622Z" fill="white"/>
<path d="M45.3839 15.3471C45.1441 15.6684 44.7236 15.7908 44.3531 15.6501C41.7107 14.6503 38.835 14.1004 35.8228 14.1004C32.9906 14.1004 30.2758 14.5863 27.7678 15.4765C27.4204 15.5995 27.0316 15.4926 26.7918 15.2107C26.3847 14.7325 26.5858 13.995 27.1807 13.7854C29.8743 12.8376 32.7825 12.3215 35.8235 12.3215C39.0557 12.3215 42.1453 12.9086 44.9824 13.9739C45.5393 14.1806 45.7404 14.8697 45.3832 15.3478L45.3839 15.3471Z" fill="white"/>
<path d="M60.9151 36.3747C60.9151 47.1318 53.5492 56.2387 43.3869 59.3135C42.8131 59.4886 42.231 59.0575 42.231 58.4592C42.231 58.0668 42.4869 57.7202 42.8603 57.6049C52.254 54.7516 59.0574 46.3261 59.0574 36.3726C59.0574 32.8725 58.2144 29.5579 56.7104 26.6076C56.5016 26.2005 56.6296 25.6999 57.0156 25.4454L57.0627 25.4144C57.5035 25.1275 58.1019 25.2787 58.3417 25.7463C59.9884 28.9554 60.9158 32.5603 60.9158 36.3733L60.9151 36.3747Z" fill="white"/>
<path d="M31.8934 21.8622C31.8625 21.5705 32.0523 21.2934 32.3427 21.233C33.4628 21.0009 34.6237 20.8751 35.8218 20.8751C37.2175 20.8751 38.571 21.0452 39.8648 21.3609C40.1158 21.4242 40.293 21.6478 40.2979 21.9087V21.9115C40.3077 22.2926 39.9526 22.5794 39.5828 22.4852C38.3798 22.185 37.1191 22.0261 35.819 22.0261C34.7066 22.0261 33.621 22.1414 32.5797 22.3629C32.2485 22.4297 31.9328 22.1955 31.8934 21.8608V21.8622Z" fill="white"/>
<path d="M51.9895 36.3747C51.9895 42.6079 48.1476 47.9847 42.6105 50.4471C42.3187 50.575 41.9763 50.4344 41.8532 50.1419L41.8483 50.1321C41.7281 49.8473 41.8532 49.5112 42.1352 49.3832C47.2462 47.1023 50.785 42.1375 50.785 36.3761C50.785 34.4003 50.3702 32.5209 49.6178 30.8109C49.4667 30.4692 49.6748 30.0796 50.0425 30.0121L50.0812 30.0044C50.3393 29.9573 50.6029 30.0902 50.707 30.3335C51.5339 32.1911 51.9881 34.2323 51.9881 36.3754L51.9895 36.3747Z" fill="white"/>
<path d="M11.0847 36.3747C11.0847 47.1318 18.4506 56.2387 28.6129 59.3135C29.1866 59.4886 29.7688 59.0575 29.7688 58.4592C29.7688 58.0668 29.5129 57.7202 29.1395 57.6049C19.7458 54.7516 12.9423 46.3261 12.9423 36.3726C12.9423 32.8725 13.7854 29.5579 15.2894 26.6076C15.4982 26.2005 15.3702 25.6999 14.9842 25.4454L14.9371 25.4144C14.4963 25.1275 13.8979 25.2787 13.6581 25.7463C12.01 28.9554 11.084 32.5603 11.084 36.3733L11.0847 36.3747Z" fill="white"/>
<path d="M20.0088 36.3747C20.0088 42.6079 23.8507 47.9847 29.3878 50.4471C29.6796 50.575 30.022 50.4344 30.145 50.1419L30.15 50.1321C30.2702 49.8473 30.145 49.5112 29.8631 49.3832C24.7521 47.1023 21.2132 42.1375 21.2132 36.3761C21.2132 34.4003 21.6281 32.5209 22.3804 30.8109C22.5316 30.4692 22.3235 30.0796 21.9557 30.0121L21.9171 30.0044C21.659 29.9573 21.3954 30.0902 21.2913 30.3335C20.4644 32.1911 20.0102 34.2323 20.0102 36.3754L20.0088 36.3747Z" fill="white"/>
<path d="M20.4136 18.2208L36.0778 38.1916L50.622 18.6307C51.0157 18.1005 51.7779 18.0176 52.28 18.4507C52.7257 18.8367 52.8017 19.4998 52.4522 19.9779L37.2921 40.7637V58.5436C37.2921 59.1694 36.7831 59.6784 36.1573 59.6784H36.0033C35.3775 59.6784 34.8685 59.1694 34.8685 58.5436V40.5485L18.5271 19.6973C18.1334 19.1932 18.2318 18.4655 18.7444 18.0844L18.8464 18.0084C19.3386 17.6435 20.0353 17.7356 20.4143 18.2208H20.4136Z" fill="white"/>
</g>
<path d="M94.82 50V39.38L86 24.08H91.058L97.016 34.412L102.956 24.08H108.014L99.212 39.38V50H94.82ZM110.921 50.54C109.517 50.54 108.329 50.276 107.357 49.748C106.385 49.208 105.647 48.494 105.143 47.606C104.651 46.718 104.405 45.74 104.405 44.672C104.405 43.736 104.561 42.896 104.873 42.152C105.185 41.396 105.665 40.748 106.313 40.208C106.961 39.656 107.801 39.206 108.833 38.858C109.613 38.606 110.525 38.378 111.569 38.174C112.625 37.97 113.765 37.784 114.989 37.616C116.225 37.436 117.515 37.244 118.859 37.04L117.311 37.922C117.323 36.578 117.023 35.588 116.411 34.952C115.799 34.316 114.767 33.998 113.315 33.998C112.439 33.998 111.593 34.202 110.777 34.61C109.961 35.018 109.391 35.72 109.067 36.716L105.107 35.474C105.587 33.83 106.499 32.51 107.843 31.514C109.199 30.518 111.023 30.02 113.315 30.02C115.043 30.02 116.561 30.302 117.869 30.866C119.189 31.43 120.167 32.354 120.803 33.638C121.151 34.322 121.361 35.024 121.433 35.744C121.505 36.452 121.541 37.226 121.541 38.066V50H117.743V45.788L118.373 46.472C117.497 47.876 116.471 48.908 115.295 49.568C114.131 50.216 112.673 50.54 110.921 50.54ZM111.785 47.084C112.769 47.084 113.609 46.91 114.305 46.562C115.001 46.214 115.553 45.788 115.961 45.284C116.381 44.78 116.663 44.306 116.807 43.862C117.035 43.31 117.161 42.68 117.185 41.972C117.221 41.252 117.239 40.67 117.239 40.226L118.571 40.622C117.263 40.826 116.141 41.006 115.205 41.162C114.269 41.318 113.465 41.468 112.793 41.612C112.121 41.744 111.527 41.894 111.011 42.062C110.507 42.242 110.081 42.452 109.733 42.692C109.385 42.932 109.115 43.208 108.923 43.52C108.743 43.832 108.653 44.198 108.653 44.618C108.653 45.098 108.773 45.524 109.013 45.896C109.253 46.256 109.601 46.544 110.057 46.76C110.525 46.976 111.101 47.084 111.785 47.084ZM131.573 50.54C129.173 50.54 127.223 50 125.723 48.92C124.223 47.84 123.311 46.322 122.987 44.366L127.415 43.682C127.643 44.642 128.147 45.398 128.927 45.95C129.707 46.502 130.691 46.778 131.879 46.778C132.923 46.778 133.727 46.574 134.291 46.166C134.867 45.746 135.155 45.176 135.155 44.456C135.155 44.012 135.047 43.658 134.831 43.394C134.627 43.118 134.171 42.854 133.463 42.602C132.755 42.35 131.669 42.032 130.205 41.648C128.573 41.216 127.277 40.754 126.317 40.262C125.357 39.758 124.667 39.164 124.247 38.48C123.827 37.796 123.617 36.968 123.617 35.996C123.617 34.784 123.935 33.728 124.571 32.828C125.207 31.928 126.095 31.238 127.235 30.758C128.375 30.266 129.719 30.02 131.267 30.02C132.779 30.02 134.117 30.254 135.281 30.722C136.457 31.19 137.405 31.856 138.125 32.72C138.845 33.584 139.289 34.598 139.457 35.762L135.029 36.554C134.921 35.726 134.543 35.072 133.895 34.592C133.259 34.112 132.407 33.842 131.339 33.782C130.319 33.722 129.497 33.878 128.873 34.25C128.249 34.61 127.937 35.12 127.937 35.78C127.937 36.152 128.063 36.47 128.315 36.734C128.567 36.998 129.071 37.262 129.827 37.526C130.595 37.79 131.735 38.114 133.247 38.498C134.795 38.894 136.031 39.35 136.955 39.866C137.891 40.37 138.563 40.976 138.971 41.684C139.391 42.392 139.601 43.25 139.601 44.258C139.601 46.214 138.887 47.75 137.459 48.866C136.043 49.982 134.081 50.54 131.573 50.54ZM141.744 27.608V23.63H146.082V27.608H141.744ZM141.744 50V30.56H146.082V50H141.744ZM156.82 50.54C154.42 50.54 152.47 50 150.97 48.92C149.47 47.84 148.558 46.322 148.234 44.366L152.662 43.682C152.89 44.642 153.394 45.398 154.174 45.95C154.954 46.502 155.938 46.778 157.126 46.778C158.17 46.778 158.974 46.574 159.538 46.166C160.114 45.746 160.402 45.176 160.402 44.456C160.402 44.012 160.294 43.658 160.078 43.394C159.874 43.118 159.418 42.854 158.71 42.602C158.002 42.35 156.916 42.032 155.452 41.648C153.82 41.216 152.524 40.754 151.564 40.262C150.604 39.758 149.914 39.164 149.494 38.48C149.074 37.796 148.864 36.968 148.864 35.996C148.864 34.784 149.182 33.728 149.818 32.828C150.454 31.928 151.342 31.238 152.482 30.758C153.622 30.266 154.966 30.02 156.514 30.02C158.026 30.02 159.364 30.254 160.528 30.722C161.704 31.19 162.652 31.856 163.372 32.72C164.092 33.584 164.536 34.598 164.704 35.762L160.276 36.554C160.168 35.726 159.79 35.072 159.142 34.592C158.506 34.112 157.654 33.842 156.586 33.782C155.566 33.722 154.744 33.878 154.12 34.25C153.496 34.61 153.184 35.12 153.184 35.78C153.184 36.152 153.31 36.47 153.562 36.734C153.814 36.998 154.318 37.262 155.074 37.526C155.842 37.79 156.982 38.114 158.494 38.498C160.042 38.894 161.278 39.35 162.202 39.866C163.138 40.37 163.81 40.976 164.218 41.684C164.638 42.392 164.848 43.25 164.848 44.258C164.848 46.214 164.134 47.75 162.706 48.866C161.29 49.982 159.328 50.54 156.82 50.54ZM178.024 50C176.74 50.24 175.48 50.342 174.244 50.306C173.02 50.282 171.922 50.06 170.95 49.64C169.978 49.208 169.24 48.53 168.736 47.606C168.292 46.766 168.058 45.908 168.034 45.032C168.01 44.156 167.998 43.166 167.998 42.062V25.16H172.318V41.81C172.318 42.59 172.324 43.274 172.336 43.862C172.36 44.45 172.486 44.93 172.714 45.302C173.146 46.022 173.836 46.424 174.784 46.508C175.732 46.592 176.812 46.544 178.024 46.364V50ZM164.47 33.962V30.56H178.024V33.962H164.47Z" fill="black"/>
<defs>
<clipPath id="clip0_30_234">
<rect width="72" height="72" rx="13" fill="white"/>
</clipPath>
</defs>
</svg>
