<svg width="40" height="40" viewBox="0 0 40 40" fill="none" xmlns="http://www.w3.org/2000/svg">
<rect width="40" height="40" rx="20" fill="white"/>
<g clip-path="url(#clip0_30_287)">
<path d="M20.0001 11.0351C20.0001 11.0351 20.4087 11.0351 21.2258 11.0351C22.0429 11.0351 23.1344 11.4379 24.5001 12.2433C25.8659 13.0487 26.9515 14.1343 27.7569 15.5001C28.5624 16.8659 28.9651 18.3659 28.9651 20.0001C28.9651 21.6343 28.5624 23.1343 27.7569 24.5001C26.9515 25.8659 25.8659 26.9515 24.5001 27.7569C23.1344 28.5624 21.6344 28.9651 20.0001 28.9651C19.1363 28.9651 18.2842 28.8367 17.4437 28.5799C17.9106 27.8561 18.2141 27.2258 18.3542 26.6888C18.4243 26.4087 18.6344 25.5799 18.9846 24.2024C19.148 24.5059 19.434 24.7686 19.8425 24.9904C20.2511 25.2122 20.7005 25.3231 21.1908 25.3231C22.1247 25.3231 22.9593 25.0604 23.6947 24.5351C24.4301 24.0098 25.0021 23.2803 25.4106 22.3464C25.8192 21.4126 26.0235 20.362 26.0235 19.1947C26.0235 18.3075 25.79 17.4729 25.3231 16.6908C24.8562 15.9087 24.185 15.2725 23.3095 14.7822C22.434 14.2919 21.4476 14.0468 20.3503 14.0468C19.5332 14.0468 18.7686 14.1577 18.0566 14.3795C17.3445 14.6013 16.7433 14.8989 16.2531 15.2725C15.7628 15.646 15.3367 16.0779 14.9748 16.5682C14.613 17.0585 14.3503 17.5663 14.1869 18.0915C14.0235 18.6168 13.9418 19.1363 13.9418 19.6499C13.9418 20.467 14.0994 21.1791 14.4145 21.7861C14.7297 22.3931 15.1791 22.825 15.7628 23.0818C15.9962 23.1752 16.148 23.0935 16.218 22.8367C16.2414 22.79 16.2764 22.6733 16.3231 22.4865C16.3698 22.2997 16.3931 22.183 16.3931 22.1363C16.4398 21.9495 16.4048 21.7861 16.2881 21.646C15.8912 21.1557 15.6927 20.5604 15.6927 19.86C15.6927 18.6927 16.0955 17.6888 16.9009 16.8484C17.7064 16.0079 18.7745 15.5877 20.1052 15.5877C21.2725 15.5877 22.183 15.9028 22.8367 16.5332C23.4904 17.1635 23.8173 17.9923 23.8173 19.0196C23.8173 20.3503 23.5546 21.4768 23.0293 22.3989C22.504 23.3211 21.8211 23.7822 20.9807 23.7822C20.5138 23.7822 20.1344 23.6129 19.8425 23.2744C19.5507 22.9359 19.4632 22.5332 19.5799 22.0663C19.6266 21.7861 19.7258 21.4184 19.8776 20.9631C20.0293 20.5079 20.1461 20.1052 20.2278 19.755C20.3095 19.4048 20.3503 19.1129 20.3503 18.8795C20.3503 18.4826 20.2453 18.1558 20.0352 17.8989C19.825 17.6421 19.5332 17.5137 19.1597 17.5137C18.6694 17.5137 18.255 17.7355 17.9165 18.1791C17.578 18.6227 17.4087 19.183 17.4087 19.86C17.4087 20.4203 17.5138 20.8873 17.7239 21.2608L16.5682 26.1635C16.4282 26.7005 16.3698 27.3892 16.3931 28.2297C14.8056 27.5059 13.5157 26.4087 12.5235 24.9379C11.5313 23.467 11.0352 21.8211 11.0352 20.0001C11.0352 18.3659 11.4379 16.8659 12.2433 15.5001C13.0488 14.1343 14.1344 13.0487 15.5001 12.2433C16.8659 11.4379 18.3659 11.0351 20.0001 11.0351Z" fill="black"/>
</g>
<defs>
<clipPath id="clip0_30_287">
<rect width="18" height="18" fill="white" transform="matrix(1 0 0 -1 11 29)"/>
</clipPath>
</defs>
</svg>
