<svg width="40" height="40" viewBox="0 0 40 40" fill="none" xmlns="http://www.w3.org/2000/svg">
<rect width="40" height="40" rx="20" fill="white"/>
<path d="M28.4398 14.5369C28.6966 14.4668 28.8601 14.4785 28.9301 14.5719C29.0001 14.6653 28.9418 14.8053 28.755 14.9921C28.5916 15.2022 28.4165 15.389 28.2297 15.5524C27.7161 16.0427 27.4593 16.3345 27.4593 16.4279C27.4593 16.5213 27.4593 16.6147 27.4593 16.7081C27.4593 17.7353 27.3134 18.7567 27.0215 19.7723C26.7297 20.7878 26.2745 21.7684 25.6558 22.7139C25.0371 23.6594 24.3075 24.4941 23.4671 25.2178C22.6266 25.9415 21.6052 26.5194 20.4029 26.9513C19.2005 27.3832 17.9223 27.5991 16.5682 27.5991C14.7706 27.5991 13.1013 27.1906 11.5604 26.3734C11.2103 26.1867 11.0352 26.0466 11.0352 25.9532C11.0352 25.9299 11.0702 25.9182 11.1402 25.9182C11.3036 25.9182 11.4671 25.9182 11.6305 25.9182C13.0546 25.9182 14.362 25.568 15.5527 24.8676C15.7861 24.7042 15.8854 24.5583 15.8503 24.4299C15.8153 24.3015 15.6577 24.2022 15.3776 24.1322C14.934 24.0155 14.5254 23.8053 14.1519 23.5018C13.7783 23.2217 13.4632 22.8948 13.2064 22.5213C13.113 22.3812 13.0488 22.2411 13.0138 22.1011C12.9787 21.961 12.9787 21.8501 13.0138 21.7684C13.0488 21.6867 13.0896 21.6575 13.1363 21.6808C13.2764 21.6808 13.4048 21.6808 13.5215 21.6808C13.685 21.6808 13.8484 21.6692 14.0118 21.6458C14.2219 21.6225 14.1169 21.5057 13.6966 21.2956C13.6499 21.2723 13.6032 21.2489 13.5566 21.2256C13.0896 20.9921 12.6811 20.6653 12.3309 20.245C11.7472 19.5446 11.4554 18.7275 11.4554 17.7937V17.7587C11.4554 17.7587 11.4904 17.7762 11.5604 17.8112C11.6305 17.8462 11.7355 17.8929 11.8756 17.9513C12.0157 18.0096 12.1558 18.0622 12.2959 18.1089C12.5293 18.1555 12.6636 18.1322 12.6986 18.0388C12.7336 17.9454 12.6577 17.8053 12.471 17.6186C12.2608 17.4085 12.0857 17.1633 11.9457 16.8832C11.6422 16.3229 11.4904 15.7042 11.4904 15.0271C11.4904 14.6769 11.5254 14.3501 11.5955 14.0466C11.6655 13.7664 11.8114 13.6147 12.0332 13.5913C12.255 13.568 12.471 13.6614 12.6811 13.8715C13.4982 14.6886 14.432 15.3773 15.4826 15.9376C16.5566 16.498 17.6889 16.8598 18.8795 17.0232C19.1597 17.0699 19.3931 17.0583 19.5799 16.9882C19.7667 16.9182 19.8484 16.8131 19.825 16.6731C19.8017 16.533 19.79 16.3929 19.79 16.2528C19.79 15.1789 20.1636 14.2684 20.9106 13.5213C21.6577 12.7742 22.5682 12.4007 23.6422 12.4007C24.3892 12.4007 25.0663 12.5875 25.6733 12.961C26.327 13.4046 26.9106 13.533 27.4243 13.3462C27.611 13.2995 27.7861 13.2295 27.9496 13.1361C28.2297 13.0427 28.4165 13.0369 28.5099 13.1186C28.6032 13.2003 28.5799 13.3579 28.4398 13.5913C28.2997 13.8015 28.148 13.9999 27.9846 14.1867C27.7745 14.3734 27.6869 14.5077 27.7219 14.5894C27.7569 14.6711 27.9029 14.6886 28.1597 14.6419C28.2531 14.6186 28.3464 14.5836 28.4398 14.5369Z" fill="black"/>
</svg>
