<svg width="44" height="44" viewBox="0 0 44 44" fill="none" xmlns="http://www.w3.org/2000/svg">
<path d="M32.6666 21.0228C34.4026 21.4259 36.439 21.7305 38.8312 22C36.439 22.2695 34.4026 22.5741 32.6666 22.9772C29.7982 23.6433 27.6946 24.5903 26.1424 26.1424C24.5903 27.6946 23.6433 29.7982 22.9772 32.6666C22.5741 34.4026 22.2695 36.439 22 38.8312C21.7305 36.439 21.4259 34.4026 21.0228 32.6666C20.3567 29.7982 19.4097 27.6946 17.8576 26.1424C16.3054 24.5903 14.2018 23.6433 11.3334 22.9772C9.59687 22.574 7.55978 22.2693 5.16666 21.9998C7.55979 21.73 9.59689 21.4253 11.3334 21.0219C14.2018 20.3557 16.3054 19.4089 17.8575 17.8568C19.4097 16.3048 20.3567 14.2013 21.0228 11.3331C21.4259 9.59721 21.7305 7.5609 22 5.16876C22.2695 7.56097 22.5741 9.59738 22.9772 11.3334C23.6433 14.2018 24.5903 16.3054 26.1424 17.8576C27.6946 19.4097 29.7982 20.3567 32.6666 21.0228Z" stroke="#0047FF"/>
</svg>
