<svg width="40" height="40" viewBox="0 0 40 40" fill="none" xmlns="http://www.w3.org/2000/svg">
<rect width="40" height="40" rx="20" fill="white"/>
<path fill-rule="evenodd" clip-rule="evenodd" d="M25.7059 14.5792C24.2291 13.1008 22.2653 12.2863 20.1729 12.2854C15.8618 12.2854 12.3529 15.794 12.3512 20.1065C12.3506 21.485 12.7108 22.8306 13.3953 24.0168L12.2856 28.0699L16.432 26.9822C17.5745 27.6053 18.8607 27.9338 20.1698 27.9342H20.173C24.4837 27.9342 27.9929 24.4253 27.9947 20.1127C27.9954 18.0227 27.1826 16.0576 25.7059 14.5792ZM20.173 26.6133H20.1703C19.0038 26.6128 17.8597 26.2994 16.8615 25.7071L16.6241 25.5662L14.1636 26.2116L14.8204 23.8127L14.6658 23.5667C14.0151 22.5316 13.6714 21.3353 13.6719 20.1069C13.6733 16.5225 16.5897 13.6064 20.1756 13.6064C21.912 13.607 23.5443 14.2841 24.7717 15.5129C25.9991 16.7417 26.6747 18.3751 26.674 20.1122C26.6725 23.6968 23.7562 26.6133 20.173 26.6133Z" fill="black"/>
<path fill-rule="evenodd" clip-rule="evenodd" d="M23.7391 21.7442C23.5436 21.6464 22.5828 21.1737 22.4036 21.1084C22.2245 21.0432 22.0942 21.0106 21.9639 21.2062C21.8336 21.4018 21.4591 21.8421 21.3451 21.9726C21.2311 22.1029 21.1171 22.1193 20.9217 22.0214C20.7262 21.9236 20.0965 21.7173 19.35 21.0514C18.769 20.5332 18.3768 19.8932 18.2628 19.6975C18.1488 19.5019 18.2506 19.3961 18.3485 19.2987C18.4364 19.2111 18.5439 19.0704 18.6417 18.9563C18.7394 18.8422 18.7719 18.7606 18.8371 18.6303C18.9022 18.4998 18.8697 18.3857 18.8208 18.2879C18.7719 18.1901 18.3811 17.2281 18.2182 16.8367C18.0596 16.4557 17.8985 16.5073 17.7785 16.5012C17.6647 16.4956 17.5342 16.4944 17.4039 16.4944C17.2737 16.4944 17.0619 16.5433 16.8828 16.7389C16.7036 16.9346 16.1987 17.4074 16.1987 18.3693C16.1987 19.3313 16.899 20.2606 16.9968 20.391C17.0945 20.5215 18.3749 22.4955 20.3354 23.342C20.8016 23.5434 21.1657 23.6637 21.4495 23.7537C21.9177 23.9025 22.3437 23.8815 22.6805 23.8311C23.056 23.775 23.8368 23.3584 23.9996 22.9019C24.1625 22.4453 24.1625 22.054 24.1136 21.9725C24.0648 21.891 23.9345 21.8421 23.7391 21.7442Z" fill="black"/>
</svg>
