<svg width="134" height="62" viewBox="0 0 134 62" fill="none" xmlns="http://www.w3.org/2000/svg">
<path d="M35.4062 30.7812V61.5625H36.1875H36.9688V30.7812V-7.33882e-06H36.1875H35.4062V30.7812Z" fill="black"/>
<path d="M24.5469 5.76562C23.5625 6.20312 23.0938 6.81249 21.375 9.82812L19.7656 12.6562H11.8438H3.92188L3.14063 13.0312C2.21875 13.4531 1.3125 14.4062 1.01563 15.25C0.828125 15.75 0.796875 18.5312 0.796875 30.7031V45.5469L1.23438 46.4375C1.67188 47.3437 2.32813 47.9531 3.34375 48.4062C3.85938 48.6406 4.75 48.6719 11.2344 48.7187C15.25 48.75 18.5313 48.7187 18.5313 48.6719C18.5313 48.625 18.1406 47.9531 17.6719 47.1719C12.5938 38.7344 15.5781 27.7812 24.2031 23.2031C26.2969 22.0937 28.1875 21.5 30.1719 21.3281C30.7813 21.2812 31.5 21.2031 31.7813 21.1562L32.2813 21.0781V13.2812V5.46874H28.7344C25.625 5.46874 25.0938 5.51562 24.5469 5.76562ZM15.5625 16.3906C15.7813 16.8281 15.7656 19.1094 15.5313 19.3437C15.2656 19.6094 5.85938 19.6094 5.59375 19.3437C5.35938 19.1094 5.34375 16.8281 5.5625 16.3906C5.71875 16.1094 5.9375 16.0937 10.5625 16.0937C15.1875 16.0937 15.4063 16.1094 15.5625 16.3906Z" fill="black"/>
<path d="M133.625 9.71874C132.984 10.6406 132.953 11.9531 133.562 12.9375C134 13.6406 134.093 13.4687 133.703 12.7187C133.281 11.9531 133.281 10.875 133.687 10.0781C134.031 9.39062 134 9.17187 133.625 9.71874Z" fill="black"/>
<path d="M44.625 19.6094V29.5313L47.0937 29.5469L49.5468 29.5625L48.4531 29.7656C46.0468 30.2031 44.3281 31.2031 43.2812 32.75C41.7656 35 42.0312 38.1094 43.875 39.7656C44.8281 40.6406 46.125 41.1719 49.1562 41.9375C50.6718 42.3125 52.1562 42.7344 52.4531 42.8594C53.5312 43.2969 53.8593 44.375 53.1562 45.0781C52.5937 45.6406 51.6406 45.8281 49.7812 45.7344C48 45.6563 45.8281 45.0625 44.5 44.2813C44.125 44.0625 43.7968 43.9063 43.7656 43.9375C43.6562 44.0469 41.9531 48 42 48.0313C42.8906 48.6875 44.7343 49.3906 46.6406 49.8125C48.3281 50.1875 52.2968 50.1719 53.6718 49.7813C55.7343 49.2188 57.3437 48.125 58.25 46.7344L58.6875 46.0313V47.9375V49.8438H61.3437H64V45.7344C64 40.9375 64.0937 40.375 65.0781 39.4844C66.0625 38.6094 67.8281 38.4844 68.6406 39.2344C69.5312 40.0781 69.5469 40.1563 69.5937 45.1875L69.6406 49.8438H72.2969H74.9375V48.4219V47L75.4531 47.75C76.0156 48.5938 77.125 49.4219 78.1094 49.7188C78.4687 49.8281 79.5469 49.9219 80.4844 49.9219C81.9531 49.9219 82.3281 49.8594 83.0312 49.5469C83.4844 49.3438 84.0937 48.9063 84.3906 48.5469L84.9219 47.9375L84.9687 48.8438L85.0156 49.7656L87.4844 49.8125L89.9375 49.8594V44.9531C89.9375 42.25 89.875 39.6875 89.7812 39.2344C89.3281 36.7969 87.5781 35.0781 84.9062 34.4531C83.4844 34.125 80.6406 34.1563 78.9531 34.5313C77.5469 34.8438 75.8594 35.5 75.5625 35.8594C75.4375 36.0156 75.6094 36.5156 76.25 37.7969L77.125 39.5156L78.0937 39.0625C78.625 38.8125 79.4531 38.5156 79.9219 38.4219C81.0781 38.1875 82.75 38.3125 83.4062 38.6875C83.9531 39 84.7344 40.3281 84.5469 40.625C84.4844 40.7188 83.5312 40.7813 82 40.7813C78.0156 40.7813 76.3437 41.3906 75.2344 43.2031L74.9375 43.6719V41.6875C74.9375 40.5938 74.8594 39.3281 74.7656 38.875C74.3594 36.9219 73.2656 35.5156 71.5312 34.7188C70.7187 34.3438 70.4531 34.3125 68.6875 34.2969C66.875 34.2969 66.6719 34.3281 65.7969 34.7344C65.2969 34.9688 64.6406 35.3438 64.375 35.5469C63.75 36.0313 63.6562 36.0313 63.6875 35.5781C63.7031 35.3906 63.7187 35.0469 63.7031 34.7969L63.6875 34.375H61.1875H58.6875V37.9219V41.4531L58.2187 40.8125C57.6719 40.0469 56.7187 39.3125 55.7187 38.875C55.3281 38.7031 53.6562 38.2188 52 37.7969C50.3281 37.375 48.7656 36.9063 48.5156 36.7656C47.6875 36.2813 47.625 35.2656 48.3906 34.625C49.6562 33.5469 52.7187 33.7031 55.6875 35C56.1406 35.1875 56.5312 35.3281 56.5625 35.2969C56.625 35.2344 58.2187 31.3906 58.2187 31.3125C58.2187 31.2813 57.875 31.0781 57.4531 30.8594C56.5625 30.4219 54.7812 29.9063 53.4375 29.7031C52.7656 29.6094 53.5625 29.5625 56.4219 29.5469L60.3281 29.5313L62.6406 26.4844C63.9219 24.8125 65.0156 23.4375 65.0937 23.4375C65.1719 23.4375 66.2656 24.8125 67.5312 26.4844L69.8281 29.5313H71H72.1562L71.625 28.8594C71.3281 28.5 70.5937 27.5625 70 26.7969C69.4062 26.0156 68.2969 24.5938 67.5469 23.6406L66.1719 21.875L68.9062 18.3281C70.4219 16.3594 71.6562 14.7031 71.6562 14.6406C71.6562 14.5781 71.1875 14.5312 70.6094 14.5625L69.5781 14.6094L67.3906 17.4531C66.1875 19.0313 65.1562 20.3125 65.0937 20.3125C65.0469 20.3125 63.9844 19.0156 62.7656 17.4062L60.5312 14.5156L59.5312 14.5469C58.9844 14.5625 58.5312 14.6406 58.5312 14.7031C58.5312 14.7812 59.7344 16.3906 61.1875 18.2656C62.6562 20.1563 63.8437 21.7813 63.8437 21.8594C63.8437 21.9531 62.6719 23.5469 61.2344 25.4219C58.625 28.8125 58.6094 28.8281 58.5625 28.2344L58.5156 27.6563H52.5781H46.6562V23.9844V20.3125H51.8125H56.9687V19.4531V18.5938H51.8125H46.6562L46.6875 15.0312L46.7343 11.4844L52.4843 11.4375L58.2187 11.4062V10.5469V9.6875H51.4218H44.625V19.6094ZM84.5937 44.2188C84.625 44.7656 84.5469 45.0625 84.2812 45.4531C83.7031 46.2969 83.0156 46.5938 81.75 46.5313C80.8125 46.4844 80.6406 46.4219 80.3125 46.0469C79.8281 45.4844 79.8125 44.6875 80.2969 44.1406C80.7187 43.6563 81.6094 43.4531 83.2969 43.4844L84.5469 43.5156L84.5937 44.2188Z" fill="black"/>
<path d="M72.75 24.75V35H73.6875H74.625L74.6406 31.0469C74.6563 28.8906 74.6563 27.0625 74.6406 26.9844C74.6094 26.75 74.7813 26.8906 75.5 27.6562C78.2656 30.6094 83.8125 30.1875 86.2813 26.8438C87.2344 25.5312 87.625 24.4375 87.7031 22.6562C87.7969 20.9062 87.6094 19.8125 86.9688 18.4531C86.4063 17.2656 85.0156 15.8281 83.9219 15.3281C80.75 13.8281 76.9375 14.5 75.1406 16.8594L74.625 17.5312V16.125C74.625 14.5625 74.6563 14.6094 73.5 14.5469L72.75 14.5V24.75ZM82.625 16.7812C83.6406 17.2656 84.8125 18.4531 85.2969 19.5C85.5938 20.125 85.6406 20.5156 85.6406 22.0312C85.6406 23.75 85.625 23.875 85.125 24.875C84.5625 26.0156 83.7813 26.7969 82.6094 27.375C82 27.6719 81.6406 27.7344 80.25 27.7344C78.8906 27.7344 78.4844 27.6719 77.875 27.3906C73.7031 25.4688 73.5938 18.9062 77.7031 16.8125C79.0625 16.125 81.2031 16.1094 82.625 16.7812Z" fill="black"/>
<path d="M89.1562 22.0625V29.5312H90.1719H91.1875V25.0937C91.1875 21.125 91.2188 20.5469 91.5 19.6562C92.0781 17.7812 93.5313 16.6562 95.6094 16.4531L96.6563 16.3594V15.4219V14.4844L95.6563 14.5781C93.8125 14.75 92.3438 15.5312 91.5313 16.7656L91.1094 17.4062L91.0313 16L90.9531 14.6094L90.0625 14.5937L89.1562 14.5781V22.0625Z" fill="black"/>
<path d="M101.5 14.75C98.7191 15.5313 96.7347 17.875 96.3128 20.8906C95.7816 24.7969 97.9222 28.2188 101.578 29.3125C102.985 29.7344 105.344 29.7031 106.688 29.25C107.782 28.875 108.844 28.2344 109.453 27.6094L109.813 27.2188L109.219 26.5781L108.641 25.9219L108.157 26.3906C107.891 26.6406 107.282 27.0469 106.813 27.2813C105.235 28.0781 102.375 27.9688 100.875 27.0625C100.25 26.6719 99.4691 25.9063 99.0784 25.2969C98.7347 24.7656 98.2191 23.2969 98.2191 22.8594C98.2191 22.6875 99.4066 22.6563 104.469 22.6563H110.719V21.8281C110.703 18.5 108.532 15.5625 105.485 14.7656C104.391 14.4844 102.485 14.4844 101.5 14.75ZM105.907 16.7656C107.344 17.4688 108.578 19.1719 108.719 20.625L108.766 21.1719L103.5 21.2188C99.0472 21.25 98.2191 21.2188 98.2191 21.0313C98.2191 20.9063 98.3597 20.3438 98.5316 19.7813C98.9691 18.4063 100.078 17.1875 101.422 16.625C102.735 16.0781 104.625 16.1406 105.907 16.7656Z" fill="black"/>
<path d="M114.157 14.75C112.422 15.2656 111.532 15.9219 110.954 17.1094C110.579 17.875 110.532 18.1094 110.594 19.0625C110.688 20.3906 111.157 21.1875 112.172 21.7969C113.016 22.2812 113.813 22.5156 116.407 23.0469C118.454 23.4687 119.344 23.7969 119.797 24.3125C120.454 25.0625 120.25 26.4688 119.422 27.0781C118.657 27.6563 117.813 27.8594 116.266 27.8594C114.579 27.8594 113.204 27.5313 111.875 26.8125L110.875 26.2969L110.469 26.9844C110.25 27.3594 110.11 27.7656 110.141 27.875C110.266 28.1719 112.11 29.0313 113.313 29.3125C114.954 29.7188 117.547 29.6875 118.922 29.25C119.532 29.0625 120.297 28.7031 120.625 28.4688L121.235 28.0156L122.235 28.5313C123.75 29.2813 125.204 29.5938 127.204 29.5938C131.063 29.5938 133.219 28.0781 133.219 25.3437C133.219 23 132.11 22.1563 127.891 21.3281C124.594 20.6719 123.688 20.0937 123.688 18.625C123.688 17.1406 125.079 16.2656 127.438 16.25C128.907 16.25 130.094 16.5156 131.188 17.0781L131.922 17.4531L132.329 16.7187C132.563 16.2969 132.75 15.9375 132.75 15.8906C132.75 15.7344 130.86 15 129.844 14.75C128.407 14.4219 125.641 14.5156 124.594 14.9375C123.313 15.4531 122.516 16.1406 122.047 17.0937C121.672 17.8437 121.625 18.1094 121.688 19.0469C121.813 21.2812 123.032 22.1562 127.125 22.9844C128.469 23.25 129.829 23.6094 130.172 23.7969C132 24.7969 131.469 27.1406 129.282 27.6719C127.407 28.125 124.922 27.8125 123.079 26.8906L122.141 26.4063L122.157 25.4219C122.172 23.0312 120.985 22.1406 116.766 21.3125C113.547 20.6875 112.594 20.0781 112.594 18.6719C112.594 17.8594 112.969 17.25 113.782 16.7812C114.375 16.4375 114.735 16.3437 115.922 16.2812C117.61 16.2031 118.75 16.4062 119.954 17.0156L120.829 17.4531L121.25 16.6875C121.672 15.9531 121.672 15.9062 121.391 15.7031C121.235 15.5781 120.547 15.2969 119.86 15.0625C118.829 14.7187 118.266 14.625 116.735 14.5937C115.469 14.5469 114.625 14.6094 114.157 14.75Z" fill="black"/>
<path d="M29.4842 23.9219C22.1249 25.3594 16.9217 32.5469 17.8905 39.9062C18.8124 46.8281 24.2186 52 31.1561 52.6094L32.2811 52.7031V51.0312V49.375H31.7342C29.8592 49.375 26.7655 48.2031 25.1717 46.8594C23.4374 45.4219 22.1874 43.5312 21.4686 41.25C20.9999 39.7344 20.9686 36.7031 21.3905 35.2656L21.6717 34.3438L22.2655 35.0312C23.828 36.7969 26.453 37.3125 28.5311 36.25C30.4061 35.2969 31.6249 32.7656 31.1874 30.75C30.9686 29.7031 30.328 28.5469 29.6092 27.8906L29.0311 27.375L29.7499 27.2031C30.1561 27.1094 30.8905 27 31.3905 26.9375L32.2811 26.8438V25.2969V23.75L31.2342 23.7656C30.6405 23.7812 29.8592 23.8438 29.4842 23.9219Z" fill="black"/>
<path d="M98.1406 34.4375C97.25 34.7188 96.8125 34.9688 96.2344 35.5156L95.7188 36V35.1875V34.375H93.1406H90.5625V44.8438V55.3125H93.2969H96.0313V51.9531C96.0313 50.1094 96.0625 48.5938 96.1094 48.5938C96.1406 48.5938 96.4844 48.8125 96.8438 49.0625C97.7031 49.6719 98.9375 50 100.328 50C104.203 50 107.266 47.2344 107.719 43.3438L107.828 42.3438L108.391 42.7188C109.188 43.2656 110.172 43.5469 112.703 43.9688C113.953 44.1719 115.109 44.4531 115.344 44.5938C115.844 44.9219 115.797 45.4062 115.219 45.8281C114.344 46.4844 110.516 46.0938 108.688 45.1562C108.328 44.9688 107.969 44.875 107.906 44.9531C107.828 45.0156 107.453 45.8125 107.063 46.7188C106.484 48.0156 106.391 48.3906 106.547 48.5469C107.234 49.2188 110.75 50 113.094 50C116.672 49.9844 119.203 48.8906 120.281 46.8281C120.781 45.8906 120.781 43.9531 120.297 43.0312C119.531 41.5781 118.203 40.8906 115.203 40.3906C112.141 39.875 111.547 39.6406 111.688 38.9688C111.906 37.7969 115.266 37.6406 117.641 38.7031C118.125 38.9219 118.563 39.0781 118.578 39.0469C118.703 38.8906 120.094 35.5938 120.094 35.4844C120.094 35.4062 119.688 35.2031 119.203 35.0156C116.172 33.8906 111.656 33.9531 109.297 35.1562C108.469 35.5781 107.172 36.875 107.031 37.4062C106.938 37.7969 106.656 37.9844 106.656 37.6719C106.656 37.5781 106.266 37.0938 105.781 36.5781C104.813 35.5312 103.734 34.8438 102.453 34.4688C101.438 34.1719 99.0469 34.1562 98.1406 34.4375ZM100.484 38.7344C101.75 39.3125 102.328 40.3906 102.328 42.1406C102.328 43.0312 102.25 43.4219 101.953 44.0156C100.75 46.3438 97.5156 46.3281 96.3125 44C95.8281 43.0781 95.8125 41.125 96.2969 40.2344C97.1406 38.6406 98.9063 38 100.484 38.7344Z" fill="black"/>
</svg>
